%TF.GenerationSoftware,KiCad,Pcbnew,7.0.8*%
%TF.CreationDate,2024-01-12T13:16:21+01:00*%
%TF.ProjectId,adapter_ESP32,61646170-7465-4725-9f45-535033322e6b,rev?*%
%TF.SameCoordinates,Original*%
%TF.FileFunction,Copper,L2,Bot*%
%TF.FilePolarity,Positive*%
%FSLAX46Y46*%
G04 Gerber Fmt 4.6, Leading zero omitted, Abs format (unit mm)*
G04 Created by KiCad (PCBNEW 7.0.8) date 2024-01-12 13:16:21*
%MOMM*%
%LPD*%
G01*
G04 APERTURE LIST*
%TA.AperFunction,ComponentPad*%
%ADD10R,1.700000X1.700000*%
%TD*%
%TA.AperFunction,ComponentPad*%
%ADD11O,1.700000X1.700000*%
%TD*%
%TA.AperFunction,HeatsinkPad*%
%ADD12C,0.600000*%
%TD*%
G04 APERTURE END LIST*
D10*
%TO.P,J2,1,Pin_1*%
%TO.N,IO4*%
X63500000Y-66040000D03*
D11*
%TO.P,J2,2,Pin_2*%
%TO.N,IO0*%
X63500000Y-63500000D03*
%TO.P,J2,3,Pin_3*%
%TO.N,IO2*%
X60960000Y-66040000D03*
%TO.P,J2,4,Pin_4*%
%TO.N,IO15*%
X60960000Y-63500000D03*
%TO.P,J2,5,Pin_5*%
%TO.N,SDI{slash}SD1*%
X58420000Y-66040000D03*
%TO.P,J2,6,Pin_6*%
%TO.N,SDO{slash}SD0*%
X58420000Y-63500000D03*
%TO.P,J2,7,Pin_7*%
%TO.N,GND*%
X55880000Y-66040000D03*
%TO.P,J2,8,Pin_8*%
%TO.N,SCK{slash}CLK*%
X55880000Y-63500000D03*
%TO.P,J2,9,Pin_9*%
%TO.N,GND*%
X53340000Y-66040000D03*
%TO.P,J2,10,Pin_10*%
%TO.N,SCS{slash}CMD*%
X53340000Y-63500000D03*
%TO.P,J2,11,Pin_11*%
%TO.N,SHD{slash}SD2*%
X50800000Y-66040000D03*
%TO.P,J2,12,Pin_12*%
%TO.N,SWP{slash}SD3*%
X50800000Y-63500000D03*
%TO.P,J2,13,Pin_13*%
%TO.N,GND*%
X48260000Y-66040000D03*
%TO.P,J2,14,Pin_14*%
%TO.N,IO13*%
X48260000Y-63500000D03*
%TO.P,J2,15,Pin_15*%
%TO.N,IO14*%
X45720000Y-66040000D03*
%TO.P,J2,16,Pin_16*%
%TO.N,IO12*%
X45720000Y-63500000D03*
%TD*%
D12*
%TO.P,U1,39,GND*%
%TO.N,GND*%
X51710000Y-47505000D03*
X51710000Y-48905000D03*
X52410000Y-46805000D03*
X52410000Y-48205000D03*
X52410000Y-49605000D03*
X53110000Y-47505000D03*
X53110000Y-48905000D03*
X53810000Y-46805000D03*
X53810000Y-48205000D03*
X53810000Y-49605000D03*
X54510000Y-47505000D03*
X54510000Y-48905000D03*
%TD*%
D10*
%TO.P,J1,1,Pin_1*%
%TO.N,IO27*%
X38100000Y-66040000D03*
D11*
%TO.P,J1,2,Pin_2*%
%TO.N,IO26*%
X38100000Y-63500000D03*
%TO.P,J1,3,Pin_3*%
%TO.N,IO25*%
X38100000Y-60960000D03*
%TO.P,J1,4,Pin_4*%
%TO.N,IO33*%
X38100000Y-58420000D03*
%TO.P,J1,5,Pin_5*%
%TO.N,IO32*%
X38100000Y-55880000D03*
%TO.P,J1,6,Pin_6*%
%TO.N,IO35*%
X38100000Y-53340000D03*
%TO.P,J1,7,Pin_7*%
%TO.N,IO34*%
X38100000Y-50800000D03*
%TO.P,J1,8,Pin_8*%
%TO.N,SENSOR_VN*%
X38100000Y-48260000D03*
%TO.P,J1,9,Pin_9*%
%TO.N,SENSOR_VP*%
X38100000Y-45720000D03*
%TO.P,J1,10,Pin_10*%
%TO.N,EN*%
X38100000Y-43180000D03*
%TO.P,J1,11,Pin_11*%
%TO.N,VDD*%
X38100000Y-40640000D03*
%TD*%
D10*
%TO.P,J3,1,Pin_1*%
%TO.N,IO16*%
X71120000Y-66040000D03*
D11*
%TO.P,J3,2,Pin_2*%
%TO.N,IO17*%
X71120000Y-63500000D03*
%TO.P,J3,3,Pin_3*%
%TO.N,IO5*%
X71120000Y-60960000D03*
%TO.P,J3,4,Pin_4*%
%TO.N,IO18*%
X71120000Y-58420000D03*
%TO.P,J3,5,Pin_5*%
%TO.N,IO19*%
X71120000Y-55880000D03*
%TO.P,J3,6,Pin_6*%
%TO.N,IO21*%
X71120000Y-53340000D03*
%TO.P,J3,7,Pin_7*%
%TO.N,RXD0{slash}IO3*%
X71120000Y-50800000D03*
%TO.P,J3,8,Pin_8*%
%TO.N,TXD0{slash}IO1*%
X71120000Y-48260000D03*
%TO.P,J3,9,Pin_9*%
%TO.N,IO22*%
X71120000Y-45720000D03*
%TO.P,J3,10,Pin_10*%
%TO.N,IO23*%
X71120000Y-43180000D03*
%TO.P,J3,11,Pin_11*%
%TO.N,GND*%
X71120000Y-40640000D03*
%TD*%
%TA.AperFunction,Conductor*%
%TO.N,GND*%
G36*
X41925469Y-36850185D02*
G01*
X41946111Y-36866819D01*
X44432196Y-39352903D01*
X44432430Y-39353252D01*
X44449618Y-39370384D01*
X44449900Y-39370500D01*
X44449999Y-39370541D01*
X44450000Y-39370541D01*
X44474554Y-39370541D01*
X44474760Y-39370500D01*
X64745145Y-39370500D01*
X64745334Y-39370538D01*
X64769997Y-39370540D01*
X64770000Y-39370542D01*
X64770284Y-39370424D01*
X64770427Y-39370365D01*
X64772653Y-39369465D01*
X64778831Y-39361934D01*
X64788147Y-39352618D01*
X64788260Y-39352446D01*
X67273888Y-36866819D01*
X67335211Y-36833334D01*
X67361569Y-36830500D01*
X72338430Y-36830500D01*
X72405469Y-36850185D01*
X72426111Y-36866819D01*
X74893181Y-39333888D01*
X74926666Y-39395211D01*
X74929500Y-39421569D01*
X74929500Y-67258430D01*
X74909815Y-67325469D01*
X74893181Y-67346111D01*
X72426111Y-69813181D01*
X72364788Y-69846666D01*
X72338430Y-69849500D01*
X36881569Y-69849500D01*
X36814530Y-69829815D01*
X36793888Y-69813181D01*
X34326819Y-67346111D01*
X34293334Y-67284788D01*
X34290500Y-67258430D01*
X34290500Y-66909752D01*
X37049500Y-66909752D01*
X37061131Y-66968229D01*
X37061132Y-66968230D01*
X37105447Y-67034552D01*
X37171769Y-67078867D01*
X37171770Y-67078868D01*
X37230247Y-67090499D01*
X37230250Y-67090500D01*
X37230252Y-67090500D01*
X38969750Y-67090500D01*
X38969751Y-67090499D01*
X38984568Y-67087552D01*
X39028229Y-67078868D01*
X39028229Y-67078867D01*
X39028231Y-67078867D01*
X39094552Y-67034552D01*
X39138867Y-66968231D01*
X39138867Y-66968229D01*
X39138868Y-66968229D01*
X39150499Y-66909752D01*
X39150500Y-66909750D01*
X39150500Y-66040000D01*
X44664417Y-66040000D01*
X44684699Y-66245932D01*
X44684700Y-66245934D01*
X44744768Y-66443954D01*
X44842315Y-66626450D01*
X44842317Y-66626452D01*
X44973589Y-66786410D01*
X45070209Y-66865702D01*
X45133550Y-66917685D01*
X45316046Y-67015232D01*
X45514066Y-67075300D01*
X45514065Y-67075300D01*
X45532529Y-67077118D01*
X45720000Y-67095583D01*
X45925934Y-67075300D01*
X46123954Y-67015232D01*
X46306450Y-66917685D01*
X46466410Y-66786410D01*
X46597685Y-66626450D01*
X46695232Y-66443954D01*
X46755300Y-66245934D01*
X46775583Y-66040000D01*
X49744417Y-66040000D01*
X49764699Y-66245932D01*
X49764700Y-66245934D01*
X49824768Y-66443954D01*
X49922315Y-66626450D01*
X49922317Y-66626452D01*
X50053589Y-66786410D01*
X50150209Y-66865702D01*
X50213550Y-66917685D01*
X50396046Y-67015232D01*
X50594066Y-67075300D01*
X50594065Y-67075300D01*
X50612529Y-67077118D01*
X50800000Y-67095583D01*
X51005934Y-67075300D01*
X51203954Y-67015232D01*
X51386450Y-66917685D01*
X51546410Y-66786410D01*
X51677685Y-66626450D01*
X51775232Y-66443954D01*
X51835300Y-66245934D01*
X51855583Y-66040000D01*
X57364417Y-66040000D01*
X57384699Y-66245932D01*
X57384700Y-66245934D01*
X57444768Y-66443954D01*
X57542315Y-66626450D01*
X57542317Y-66626452D01*
X57673589Y-66786410D01*
X57770209Y-66865702D01*
X57833550Y-66917685D01*
X58016046Y-67015232D01*
X58214066Y-67075300D01*
X58214065Y-67075300D01*
X58232529Y-67077118D01*
X58420000Y-67095583D01*
X58625934Y-67075300D01*
X58823954Y-67015232D01*
X59006450Y-66917685D01*
X59166410Y-66786410D01*
X59297685Y-66626450D01*
X59395232Y-66443954D01*
X59455300Y-66245934D01*
X59475583Y-66040000D01*
X59904417Y-66040000D01*
X59924699Y-66245932D01*
X59924700Y-66245934D01*
X59984768Y-66443954D01*
X60082315Y-66626450D01*
X60082317Y-66626452D01*
X60213589Y-66786410D01*
X60310209Y-66865702D01*
X60373550Y-66917685D01*
X60556046Y-67015232D01*
X60754066Y-67075300D01*
X60754065Y-67075300D01*
X60772529Y-67077118D01*
X60960000Y-67095583D01*
X61165934Y-67075300D01*
X61363954Y-67015232D01*
X61546450Y-66917685D01*
X61556116Y-66909752D01*
X62449500Y-66909752D01*
X62461131Y-66968229D01*
X62461132Y-66968230D01*
X62505447Y-67034552D01*
X62571769Y-67078867D01*
X62571770Y-67078868D01*
X62630247Y-67090499D01*
X62630250Y-67090500D01*
X62630252Y-67090500D01*
X64369750Y-67090500D01*
X64369751Y-67090499D01*
X64384568Y-67087552D01*
X64428229Y-67078868D01*
X64428229Y-67078867D01*
X64428231Y-67078867D01*
X64494552Y-67034552D01*
X64538867Y-66968231D01*
X64538867Y-66968229D01*
X64538868Y-66968229D01*
X64550499Y-66909752D01*
X70069500Y-66909752D01*
X70081131Y-66968229D01*
X70081132Y-66968230D01*
X70125447Y-67034552D01*
X70191769Y-67078867D01*
X70191770Y-67078868D01*
X70250247Y-67090499D01*
X70250250Y-67090500D01*
X70250252Y-67090500D01*
X71989750Y-67090500D01*
X71989751Y-67090499D01*
X72004568Y-67087552D01*
X72048229Y-67078868D01*
X72048229Y-67078867D01*
X72048231Y-67078867D01*
X72114552Y-67034552D01*
X72158867Y-66968231D01*
X72158867Y-66968229D01*
X72158868Y-66968229D01*
X72170499Y-66909752D01*
X72170500Y-66909750D01*
X72170500Y-65170249D01*
X72170499Y-65170247D01*
X72158868Y-65111770D01*
X72158867Y-65111769D01*
X72114552Y-65045447D01*
X72048230Y-65001132D01*
X72048229Y-65001131D01*
X71989752Y-64989500D01*
X71989748Y-64989500D01*
X70250252Y-64989500D01*
X70250247Y-64989500D01*
X70191770Y-65001131D01*
X70191769Y-65001132D01*
X70125447Y-65045447D01*
X70081132Y-65111769D01*
X70081131Y-65111770D01*
X70069500Y-65170247D01*
X70069500Y-66909752D01*
X64550499Y-66909752D01*
X64550500Y-66909750D01*
X64550500Y-65170249D01*
X64550499Y-65170247D01*
X64538868Y-65111770D01*
X64538867Y-65111769D01*
X64494552Y-65045447D01*
X64428230Y-65001132D01*
X64428229Y-65001131D01*
X64369752Y-64989500D01*
X64369748Y-64989500D01*
X62630252Y-64989500D01*
X62630247Y-64989500D01*
X62571770Y-65001131D01*
X62571769Y-65001132D01*
X62505447Y-65045447D01*
X62461132Y-65111769D01*
X62461131Y-65111770D01*
X62449500Y-65170247D01*
X62449500Y-66909752D01*
X61556116Y-66909752D01*
X61706410Y-66786410D01*
X61837685Y-66626450D01*
X61935232Y-66443954D01*
X61995300Y-66245934D01*
X62015583Y-66040000D01*
X61995300Y-65834066D01*
X61935232Y-65636046D01*
X61837685Y-65453550D01*
X61785702Y-65390209D01*
X61706410Y-65293589D01*
X61556121Y-65170252D01*
X61546450Y-65162315D01*
X61363954Y-65064768D01*
X61165934Y-65004700D01*
X61165932Y-65004699D01*
X61165934Y-65004699D01*
X60960000Y-64984417D01*
X60754067Y-65004699D01*
X60556043Y-65064769D01*
X60468114Y-65111769D01*
X60373550Y-65162315D01*
X60373548Y-65162316D01*
X60373547Y-65162317D01*
X60213589Y-65293589D01*
X60082317Y-65453547D01*
X59984769Y-65636043D01*
X59924699Y-65834067D01*
X59904417Y-66040000D01*
X59475583Y-66040000D01*
X59455300Y-65834066D01*
X59395232Y-65636046D01*
X59297685Y-65453550D01*
X59245702Y-65390209D01*
X59166410Y-65293589D01*
X59016121Y-65170252D01*
X59006450Y-65162315D01*
X58823954Y-65064768D01*
X58625934Y-65004700D01*
X58625932Y-65004699D01*
X58625934Y-65004699D01*
X58420000Y-64984417D01*
X58214067Y-65004699D01*
X58016043Y-65064769D01*
X57928114Y-65111769D01*
X57833550Y-65162315D01*
X57833548Y-65162316D01*
X57833547Y-65162317D01*
X57673589Y-65293589D01*
X57542317Y-65453547D01*
X57444769Y-65636043D01*
X57384699Y-65834067D01*
X57364417Y-66040000D01*
X51855583Y-66040000D01*
X51835300Y-65834066D01*
X51775232Y-65636046D01*
X51677685Y-65453550D01*
X51625702Y-65390209D01*
X51546410Y-65293589D01*
X51396121Y-65170252D01*
X51386450Y-65162315D01*
X51203954Y-65064768D01*
X51005934Y-65004700D01*
X51005932Y-65004699D01*
X51005934Y-65004699D01*
X50800000Y-64984417D01*
X50594067Y-65004699D01*
X50396043Y-65064769D01*
X50308114Y-65111769D01*
X50213550Y-65162315D01*
X50213548Y-65162316D01*
X50213547Y-65162317D01*
X50053589Y-65293589D01*
X49922317Y-65453547D01*
X49824769Y-65636043D01*
X49764699Y-65834067D01*
X49744417Y-66040000D01*
X46775583Y-66040000D01*
X46755300Y-65834066D01*
X46695232Y-65636046D01*
X46597685Y-65453550D01*
X46545702Y-65390209D01*
X46466410Y-65293589D01*
X46316121Y-65170252D01*
X46306450Y-65162315D01*
X46123954Y-65064768D01*
X45925934Y-65004700D01*
X45925932Y-65004699D01*
X45925934Y-65004699D01*
X45720000Y-64984417D01*
X45514067Y-65004699D01*
X45316043Y-65064769D01*
X45228114Y-65111769D01*
X45133550Y-65162315D01*
X45133548Y-65162316D01*
X45133547Y-65162317D01*
X44973589Y-65293589D01*
X44842317Y-65453547D01*
X44744769Y-65636043D01*
X44684699Y-65834067D01*
X44664417Y-66040000D01*
X39150500Y-66040000D01*
X39150500Y-65170249D01*
X39150499Y-65170247D01*
X39138868Y-65111770D01*
X39138867Y-65111769D01*
X39094552Y-65045447D01*
X39028230Y-65001132D01*
X39028229Y-65001131D01*
X38969752Y-64989500D01*
X38969748Y-64989500D01*
X37230252Y-64989500D01*
X37230247Y-64989500D01*
X37171770Y-65001131D01*
X37171769Y-65001132D01*
X37105447Y-65045447D01*
X37061132Y-65111769D01*
X37061131Y-65111770D01*
X37049500Y-65170247D01*
X37049500Y-66909752D01*
X34290500Y-66909752D01*
X34290500Y-63500000D01*
X37044417Y-63500000D01*
X37064699Y-63705932D01*
X37064700Y-63705934D01*
X37124768Y-63903954D01*
X37222315Y-64086450D01*
X37222317Y-64086452D01*
X37353589Y-64246410D01*
X37450209Y-64325702D01*
X37513550Y-64377685D01*
X37696046Y-64475232D01*
X37894066Y-64535300D01*
X37894065Y-64535300D01*
X37912529Y-64537118D01*
X38100000Y-64555583D01*
X38305934Y-64535300D01*
X38503954Y-64475232D01*
X38686450Y-64377685D01*
X38846410Y-64246410D01*
X38977685Y-64086450D01*
X39075232Y-63903954D01*
X39135300Y-63705934D01*
X39155583Y-63500000D01*
X44664417Y-63500000D01*
X44684699Y-63705932D01*
X44684700Y-63705934D01*
X44744768Y-63903954D01*
X44842315Y-64086450D01*
X44842317Y-64086452D01*
X44973589Y-64246410D01*
X45070209Y-64325702D01*
X45133550Y-64377685D01*
X45316046Y-64475232D01*
X45514066Y-64535300D01*
X45514065Y-64535300D01*
X45532529Y-64537118D01*
X45720000Y-64555583D01*
X45925934Y-64535300D01*
X46123954Y-64475232D01*
X46306450Y-64377685D01*
X46466410Y-64246410D01*
X46597685Y-64086450D01*
X46695232Y-63903954D01*
X46755300Y-63705934D01*
X46775583Y-63500000D01*
X47204417Y-63500000D01*
X47224699Y-63705932D01*
X47224700Y-63705934D01*
X47284768Y-63903954D01*
X47382315Y-64086450D01*
X47382317Y-64086452D01*
X47513589Y-64246410D01*
X47610209Y-64325702D01*
X47673550Y-64377685D01*
X47856046Y-64475232D01*
X48054066Y-64535300D01*
X48054065Y-64535300D01*
X48072529Y-64537118D01*
X48260000Y-64555583D01*
X48465934Y-64535300D01*
X48663954Y-64475232D01*
X48846450Y-64377685D01*
X49006410Y-64246410D01*
X49137685Y-64086450D01*
X49235232Y-63903954D01*
X49295300Y-63705934D01*
X49315583Y-63500000D01*
X49744417Y-63500000D01*
X49764699Y-63705932D01*
X49764700Y-63705934D01*
X49824768Y-63903954D01*
X49922315Y-64086450D01*
X49922317Y-64086452D01*
X50053589Y-64246410D01*
X50150209Y-64325702D01*
X50213550Y-64377685D01*
X50396046Y-64475232D01*
X50594066Y-64535300D01*
X50594065Y-64535300D01*
X50612529Y-64537118D01*
X50800000Y-64555583D01*
X51005934Y-64535300D01*
X51203954Y-64475232D01*
X51386450Y-64377685D01*
X51546410Y-64246410D01*
X51677685Y-64086450D01*
X51775232Y-63903954D01*
X51835300Y-63705934D01*
X51855583Y-63500000D01*
X52284417Y-63500000D01*
X52304699Y-63705932D01*
X52304700Y-63705934D01*
X52364768Y-63903954D01*
X52462315Y-64086450D01*
X52462317Y-64086452D01*
X52593589Y-64246410D01*
X52690209Y-64325702D01*
X52753550Y-64377685D01*
X52936046Y-64475232D01*
X53134066Y-64535300D01*
X53134065Y-64535300D01*
X53152529Y-64537118D01*
X53340000Y-64555583D01*
X53545934Y-64535300D01*
X53743954Y-64475232D01*
X53926450Y-64377685D01*
X54086410Y-64246410D01*
X54217685Y-64086450D01*
X54315232Y-63903954D01*
X54375300Y-63705934D01*
X54395583Y-63500000D01*
X54824417Y-63500000D01*
X54844699Y-63705932D01*
X54844700Y-63705934D01*
X54904768Y-63903954D01*
X55002315Y-64086450D01*
X55002317Y-64086452D01*
X55133589Y-64246410D01*
X55230209Y-64325702D01*
X55293550Y-64377685D01*
X55476046Y-64475232D01*
X55674066Y-64535300D01*
X55674065Y-64535300D01*
X55692529Y-64537118D01*
X55880000Y-64555583D01*
X56085934Y-64535300D01*
X56283954Y-64475232D01*
X56466450Y-64377685D01*
X56626410Y-64246410D01*
X56757685Y-64086450D01*
X56855232Y-63903954D01*
X56915300Y-63705934D01*
X56935583Y-63500000D01*
X57364417Y-63500000D01*
X57384699Y-63705932D01*
X57384700Y-63705934D01*
X57444768Y-63903954D01*
X57542315Y-64086450D01*
X57542317Y-64086452D01*
X57673589Y-64246410D01*
X57770209Y-64325702D01*
X57833550Y-64377685D01*
X58016046Y-64475232D01*
X58214066Y-64535300D01*
X58214065Y-64535300D01*
X58232529Y-64537118D01*
X58420000Y-64555583D01*
X58625934Y-64535300D01*
X58823954Y-64475232D01*
X59006450Y-64377685D01*
X59166410Y-64246410D01*
X59297685Y-64086450D01*
X59395232Y-63903954D01*
X59455300Y-63705934D01*
X59475583Y-63500000D01*
X59904417Y-63500000D01*
X59924699Y-63705932D01*
X59924700Y-63705934D01*
X59984768Y-63903954D01*
X60082315Y-64086450D01*
X60082317Y-64086452D01*
X60213589Y-64246410D01*
X60310209Y-64325702D01*
X60373550Y-64377685D01*
X60556046Y-64475232D01*
X60754066Y-64535300D01*
X60754065Y-64535300D01*
X60772529Y-64537118D01*
X60960000Y-64555583D01*
X61165934Y-64535300D01*
X61363954Y-64475232D01*
X61546450Y-64377685D01*
X61706410Y-64246410D01*
X61837685Y-64086450D01*
X61935232Y-63903954D01*
X61995300Y-63705934D01*
X62015583Y-63500000D01*
X62444417Y-63500000D01*
X62464699Y-63705932D01*
X62464700Y-63705934D01*
X62524768Y-63903954D01*
X62622315Y-64086450D01*
X62622317Y-64086452D01*
X62753589Y-64246410D01*
X62850209Y-64325702D01*
X62913550Y-64377685D01*
X63096046Y-64475232D01*
X63294066Y-64535300D01*
X63294065Y-64535300D01*
X63312529Y-64537118D01*
X63500000Y-64555583D01*
X63705934Y-64535300D01*
X63903954Y-64475232D01*
X64086450Y-64377685D01*
X64246410Y-64246410D01*
X64377685Y-64086450D01*
X64475232Y-63903954D01*
X64535300Y-63705934D01*
X64555583Y-63500000D01*
X70064417Y-63500000D01*
X70084699Y-63705932D01*
X70084700Y-63705934D01*
X70144768Y-63903954D01*
X70242315Y-64086450D01*
X70242317Y-64086452D01*
X70373589Y-64246410D01*
X70470209Y-64325702D01*
X70533550Y-64377685D01*
X70716046Y-64475232D01*
X70914066Y-64535300D01*
X70914065Y-64535300D01*
X70932529Y-64537118D01*
X71120000Y-64555583D01*
X71325934Y-64535300D01*
X71523954Y-64475232D01*
X71706450Y-64377685D01*
X71866410Y-64246410D01*
X71997685Y-64086450D01*
X72095232Y-63903954D01*
X72155300Y-63705934D01*
X72175583Y-63500000D01*
X72155300Y-63294066D01*
X72095232Y-63096046D01*
X71997685Y-62913550D01*
X71945702Y-62850209D01*
X71866410Y-62753589D01*
X71706452Y-62622317D01*
X71706453Y-62622317D01*
X71706450Y-62622315D01*
X71523954Y-62524768D01*
X71325934Y-62464700D01*
X71325932Y-62464699D01*
X71325934Y-62464699D01*
X71120000Y-62444417D01*
X70914067Y-62464699D01*
X70716043Y-62524769D01*
X70605898Y-62583643D01*
X70533550Y-62622315D01*
X70533548Y-62622316D01*
X70533547Y-62622317D01*
X70373589Y-62753589D01*
X70242317Y-62913547D01*
X70144769Y-63096043D01*
X70084699Y-63294067D01*
X70064417Y-63500000D01*
X64555583Y-63500000D01*
X64535300Y-63294066D01*
X64475232Y-63096046D01*
X64377685Y-62913550D01*
X64325702Y-62850209D01*
X64246410Y-62753589D01*
X64086452Y-62622317D01*
X64086453Y-62622317D01*
X64086450Y-62622315D01*
X63903954Y-62524768D01*
X63705934Y-62464700D01*
X63705932Y-62464699D01*
X63705934Y-62464699D01*
X63500000Y-62444417D01*
X63294067Y-62464699D01*
X63096043Y-62524769D01*
X62985898Y-62583643D01*
X62913550Y-62622315D01*
X62913548Y-62622316D01*
X62913547Y-62622317D01*
X62753589Y-62753589D01*
X62622317Y-62913547D01*
X62524769Y-63096043D01*
X62464699Y-63294067D01*
X62444417Y-63500000D01*
X62015583Y-63500000D01*
X61995300Y-63294066D01*
X61935232Y-63096046D01*
X61837685Y-62913550D01*
X61785702Y-62850209D01*
X61706410Y-62753589D01*
X61546452Y-62622317D01*
X61546453Y-62622317D01*
X61546450Y-62622315D01*
X61363954Y-62524768D01*
X61165934Y-62464700D01*
X61165932Y-62464699D01*
X61165934Y-62464699D01*
X60960000Y-62444417D01*
X60754067Y-62464699D01*
X60556043Y-62524769D01*
X60445898Y-62583643D01*
X60373550Y-62622315D01*
X60373548Y-62622316D01*
X60373547Y-62622317D01*
X60213589Y-62753589D01*
X60082317Y-62913547D01*
X59984769Y-63096043D01*
X59924699Y-63294067D01*
X59904417Y-63500000D01*
X59475583Y-63500000D01*
X59455300Y-63294066D01*
X59395232Y-63096046D01*
X59297685Y-62913550D01*
X59245702Y-62850209D01*
X59166410Y-62753589D01*
X59006452Y-62622317D01*
X59006453Y-62622317D01*
X59006450Y-62622315D01*
X58823954Y-62524768D01*
X58625934Y-62464700D01*
X58625932Y-62464699D01*
X58625934Y-62464699D01*
X58420000Y-62444417D01*
X58214067Y-62464699D01*
X58016043Y-62524769D01*
X57905898Y-62583643D01*
X57833550Y-62622315D01*
X57833548Y-62622316D01*
X57833547Y-62622317D01*
X57673589Y-62753589D01*
X57542317Y-62913547D01*
X57444769Y-63096043D01*
X57384699Y-63294067D01*
X57364417Y-63500000D01*
X56935583Y-63500000D01*
X56915300Y-63294066D01*
X56855232Y-63096046D01*
X56757685Y-62913550D01*
X56705702Y-62850209D01*
X56626410Y-62753589D01*
X56466452Y-62622317D01*
X56466453Y-62622317D01*
X56466450Y-62622315D01*
X56283954Y-62524768D01*
X56085934Y-62464700D01*
X56085932Y-62464699D01*
X56085934Y-62464699D01*
X55880000Y-62444417D01*
X55674067Y-62464699D01*
X55476043Y-62524769D01*
X55365898Y-62583643D01*
X55293550Y-62622315D01*
X55293548Y-62622316D01*
X55293547Y-62622317D01*
X55133589Y-62753589D01*
X55002317Y-62913547D01*
X54904769Y-63096043D01*
X54844699Y-63294067D01*
X54824417Y-63500000D01*
X54395583Y-63500000D01*
X54375300Y-63294066D01*
X54315232Y-63096046D01*
X54217685Y-62913550D01*
X54165702Y-62850209D01*
X54086410Y-62753589D01*
X53926452Y-62622317D01*
X53926453Y-62622317D01*
X53926450Y-62622315D01*
X53743954Y-62524768D01*
X53545934Y-62464700D01*
X53545932Y-62464699D01*
X53545934Y-62464699D01*
X53340000Y-62444417D01*
X53134067Y-62464699D01*
X52936043Y-62524769D01*
X52825898Y-62583643D01*
X52753550Y-62622315D01*
X52753548Y-62622316D01*
X52753547Y-62622317D01*
X52593589Y-62753589D01*
X52462317Y-62913547D01*
X52364769Y-63096043D01*
X52304699Y-63294067D01*
X52284417Y-63500000D01*
X51855583Y-63500000D01*
X51835300Y-63294066D01*
X51775232Y-63096046D01*
X51677685Y-62913550D01*
X51625702Y-62850209D01*
X51546410Y-62753589D01*
X51386452Y-62622317D01*
X51386453Y-62622317D01*
X51386450Y-62622315D01*
X51203954Y-62524768D01*
X51005934Y-62464700D01*
X51005932Y-62464699D01*
X51005934Y-62464699D01*
X50800000Y-62444417D01*
X50594067Y-62464699D01*
X50396043Y-62524769D01*
X50285898Y-62583643D01*
X50213550Y-62622315D01*
X50213548Y-62622316D01*
X50213547Y-62622317D01*
X50053589Y-62753589D01*
X49922317Y-62913547D01*
X49824769Y-63096043D01*
X49764699Y-63294067D01*
X49744417Y-63500000D01*
X49315583Y-63500000D01*
X49295300Y-63294066D01*
X49235232Y-63096046D01*
X49137685Y-62913550D01*
X49085702Y-62850209D01*
X49006410Y-62753589D01*
X48846452Y-62622317D01*
X48846453Y-62622317D01*
X48846450Y-62622315D01*
X48663954Y-62524768D01*
X48465934Y-62464700D01*
X48465932Y-62464699D01*
X48465934Y-62464699D01*
X48260000Y-62444417D01*
X48054067Y-62464699D01*
X47856043Y-62524769D01*
X47745898Y-62583643D01*
X47673550Y-62622315D01*
X47673548Y-62622316D01*
X47673547Y-62622317D01*
X47513589Y-62753589D01*
X47382317Y-62913547D01*
X47284769Y-63096043D01*
X47224699Y-63294067D01*
X47204417Y-63500000D01*
X46775583Y-63500000D01*
X46755300Y-63294066D01*
X46695232Y-63096046D01*
X46597685Y-62913550D01*
X46545702Y-62850209D01*
X46466410Y-62753589D01*
X46306452Y-62622317D01*
X46306453Y-62622317D01*
X46306450Y-62622315D01*
X46123954Y-62524768D01*
X45925934Y-62464700D01*
X45925932Y-62464699D01*
X45925934Y-62464699D01*
X45720000Y-62444417D01*
X45514067Y-62464699D01*
X45316043Y-62524769D01*
X45205898Y-62583643D01*
X45133550Y-62622315D01*
X45133548Y-62622316D01*
X45133547Y-62622317D01*
X44973589Y-62753589D01*
X44842317Y-62913547D01*
X44744769Y-63096043D01*
X44684699Y-63294067D01*
X44664417Y-63500000D01*
X39155583Y-63500000D01*
X39135300Y-63294066D01*
X39075232Y-63096046D01*
X38977685Y-62913550D01*
X38925702Y-62850209D01*
X38846410Y-62753589D01*
X38686452Y-62622317D01*
X38686453Y-62622317D01*
X38686450Y-62622315D01*
X38503954Y-62524768D01*
X38305934Y-62464700D01*
X38305932Y-62464699D01*
X38305934Y-62464699D01*
X38100000Y-62444417D01*
X37894067Y-62464699D01*
X37696043Y-62524769D01*
X37585898Y-62583643D01*
X37513550Y-62622315D01*
X37513548Y-62622316D01*
X37513547Y-62622317D01*
X37353589Y-62753589D01*
X37222317Y-62913547D01*
X37124769Y-63096043D01*
X37064699Y-63294067D01*
X37044417Y-63500000D01*
X34290500Y-63500000D01*
X34290500Y-60960000D01*
X37044417Y-60960000D01*
X37064699Y-61165932D01*
X37064700Y-61165934D01*
X37124768Y-61363954D01*
X37222315Y-61546450D01*
X37222317Y-61546452D01*
X37353589Y-61706410D01*
X37450209Y-61785702D01*
X37513550Y-61837685D01*
X37696046Y-61935232D01*
X37894066Y-61995300D01*
X37894065Y-61995300D01*
X37912529Y-61997118D01*
X38100000Y-62015583D01*
X38305934Y-61995300D01*
X38503954Y-61935232D01*
X38686450Y-61837685D01*
X38846410Y-61706410D01*
X38977685Y-61546450D01*
X39075232Y-61363954D01*
X39135300Y-61165934D01*
X39155583Y-60960000D01*
X70064417Y-60960000D01*
X70084699Y-61165932D01*
X70084700Y-61165934D01*
X70144768Y-61363954D01*
X70242315Y-61546450D01*
X70242317Y-61546452D01*
X70373589Y-61706410D01*
X70470209Y-61785702D01*
X70533550Y-61837685D01*
X70716046Y-61935232D01*
X70914066Y-61995300D01*
X70914065Y-61995300D01*
X70932529Y-61997118D01*
X71120000Y-62015583D01*
X71325934Y-61995300D01*
X71523954Y-61935232D01*
X71706450Y-61837685D01*
X71866410Y-61706410D01*
X71997685Y-61546450D01*
X72095232Y-61363954D01*
X72155300Y-61165934D01*
X72175583Y-60960000D01*
X72155300Y-60754066D01*
X72095232Y-60556046D01*
X71997685Y-60373550D01*
X71945702Y-60310209D01*
X71866410Y-60213589D01*
X71706452Y-60082317D01*
X71706453Y-60082317D01*
X71706450Y-60082315D01*
X71523954Y-59984768D01*
X71325934Y-59924700D01*
X71325932Y-59924699D01*
X71325934Y-59924699D01*
X71120000Y-59904417D01*
X70914067Y-59924699D01*
X70716043Y-59984769D01*
X70605898Y-60043643D01*
X70533550Y-60082315D01*
X70533548Y-60082316D01*
X70533547Y-60082317D01*
X70373589Y-60213589D01*
X70242317Y-60373547D01*
X70144769Y-60556043D01*
X70084699Y-60754067D01*
X70064417Y-60960000D01*
X39155583Y-60960000D01*
X39135300Y-60754066D01*
X39075232Y-60556046D01*
X38977685Y-60373550D01*
X38925702Y-60310209D01*
X38846410Y-60213589D01*
X38686452Y-60082317D01*
X38686453Y-60082317D01*
X38686450Y-60082315D01*
X38503954Y-59984768D01*
X38305934Y-59924700D01*
X38305932Y-59924699D01*
X38305934Y-59924699D01*
X38100000Y-59904417D01*
X37894067Y-59924699D01*
X37696043Y-59984769D01*
X37585898Y-60043643D01*
X37513550Y-60082315D01*
X37513548Y-60082316D01*
X37513547Y-60082317D01*
X37353589Y-60213589D01*
X37222317Y-60373547D01*
X37124769Y-60556043D01*
X37064699Y-60754067D01*
X37044417Y-60960000D01*
X34290500Y-60960000D01*
X34290500Y-58420000D01*
X37044417Y-58420000D01*
X37064699Y-58625932D01*
X37064700Y-58625934D01*
X37124768Y-58823954D01*
X37222315Y-59006450D01*
X37222317Y-59006452D01*
X37353589Y-59166410D01*
X37450209Y-59245702D01*
X37513550Y-59297685D01*
X37696046Y-59395232D01*
X37894066Y-59455300D01*
X37894065Y-59455300D01*
X37912529Y-59457118D01*
X38100000Y-59475583D01*
X38305934Y-59455300D01*
X38503954Y-59395232D01*
X38686450Y-59297685D01*
X38846410Y-59166410D01*
X38977685Y-59006450D01*
X39075232Y-58823954D01*
X39135300Y-58625934D01*
X39155583Y-58420000D01*
X70064417Y-58420000D01*
X70084699Y-58625932D01*
X70084700Y-58625934D01*
X70144768Y-58823954D01*
X70242315Y-59006450D01*
X70242317Y-59006452D01*
X70373589Y-59166410D01*
X70470209Y-59245702D01*
X70533550Y-59297685D01*
X70716046Y-59395232D01*
X70914066Y-59455300D01*
X70914065Y-59455300D01*
X70932529Y-59457118D01*
X71120000Y-59475583D01*
X71325934Y-59455300D01*
X71523954Y-59395232D01*
X71706450Y-59297685D01*
X71866410Y-59166410D01*
X71997685Y-59006450D01*
X72095232Y-58823954D01*
X72155300Y-58625934D01*
X72175583Y-58420000D01*
X72155300Y-58214066D01*
X72095232Y-58016046D01*
X71997685Y-57833550D01*
X71945702Y-57770209D01*
X71866410Y-57673589D01*
X71706452Y-57542317D01*
X71706453Y-57542317D01*
X71706450Y-57542315D01*
X71523954Y-57444768D01*
X71325934Y-57384700D01*
X71325932Y-57384699D01*
X71325934Y-57384699D01*
X71120000Y-57364417D01*
X70914067Y-57384699D01*
X70716043Y-57444769D01*
X70605898Y-57503643D01*
X70533550Y-57542315D01*
X70533548Y-57542316D01*
X70533547Y-57542317D01*
X70373589Y-57673589D01*
X70242317Y-57833547D01*
X70144769Y-58016043D01*
X70084699Y-58214067D01*
X70064417Y-58420000D01*
X39155583Y-58420000D01*
X39135300Y-58214066D01*
X39075232Y-58016046D01*
X38977685Y-57833550D01*
X38925702Y-57770209D01*
X38846410Y-57673589D01*
X38686452Y-57542317D01*
X38686453Y-57542317D01*
X38686450Y-57542315D01*
X38503954Y-57444768D01*
X38305934Y-57384700D01*
X38305932Y-57384699D01*
X38305934Y-57384699D01*
X38100000Y-57364417D01*
X37894067Y-57384699D01*
X37696043Y-57444769D01*
X37585898Y-57503643D01*
X37513550Y-57542315D01*
X37513548Y-57542316D01*
X37513547Y-57542317D01*
X37353589Y-57673589D01*
X37222317Y-57833547D01*
X37124769Y-58016043D01*
X37064699Y-58214067D01*
X37044417Y-58420000D01*
X34290500Y-58420000D01*
X34290500Y-55880000D01*
X37044417Y-55880000D01*
X37064699Y-56085932D01*
X37064700Y-56085934D01*
X37124768Y-56283954D01*
X37222315Y-56466450D01*
X37222317Y-56466452D01*
X37353589Y-56626410D01*
X37450209Y-56705702D01*
X37513550Y-56757685D01*
X37696046Y-56855232D01*
X37894066Y-56915300D01*
X37894065Y-56915300D01*
X37912529Y-56917118D01*
X38100000Y-56935583D01*
X38305934Y-56915300D01*
X38503954Y-56855232D01*
X38686450Y-56757685D01*
X38846410Y-56626410D01*
X38977685Y-56466450D01*
X39075232Y-56283954D01*
X39135300Y-56085934D01*
X39155583Y-55880000D01*
X70064417Y-55880000D01*
X70084699Y-56085932D01*
X70084700Y-56085934D01*
X70144768Y-56283954D01*
X70242315Y-56466450D01*
X70242317Y-56466452D01*
X70373589Y-56626410D01*
X70470209Y-56705702D01*
X70533550Y-56757685D01*
X70716046Y-56855232D01*
X70914066Y-56915300D01*
X70914065Y-56915300D01*
X70932529Y-56917118D01*
X71120000Y-56935583D01*
X71325934Y-56915300D01*
X71523954Y-56855232D01*
X71706450Y-56757685D01*
X71866410Y-56626410D01*
X71997685Y-56466450D01*
X72095232Y-56283954D01*
X72155300Y-56085934D01*
X72175583Y-55880000D01*
X72155300Y-55674066D01*
X72095232Y-55476046D01*
X71997685Y-55293550D01*
X71945702Y-55230209D01*
X71866410Y-55133589D01*
X71706452Y-55002317D01*
X71706453Y-55002317D01*
X71706450Y-55002315D01*
X71523954Y-54904768D01*
X71325934Y-54844700D01*
X71325932Y-54844699D01*
X71325934Y-54844699D01*
X71120000Y-54824417D01*
X70914067Y-54844699D01*
X70716043Y-54904769D01*
X70605898Y-54963643D01*
X70533550Y-55002315D01*
X70533548Y-55002316D01*
X70533547Y-55002317D01*
X70373589Y-55133589D01*
X70242317Y-55293547D01*
X70144769Y-55476043D01*
X70084699Y-55674067D01*
X70064417Y-55880000D01*
X39155583Y-55880000D01*
X39135300Y-55674066D01*
X39075232Y-55476046D01*
X38977685Y-55293550D01*
X38925702Y-55230209D01*
X38846410Y-55133589D01*
X38686452Y-55002317D01*
X38686453Y-55002317D01*
X38686450Y-55002315D01*
X38503954Y-54904768D01*
X38305934Y-54844700D01*
X38305932Y-54844699D01*
X38305934Y-54844699D01*
X38100000Y-54824417D01*
X37894067Y-54844699D01*
X37696043Y-54904769D01*
X37585898Y-54963643D01*
X37513550Y-55002315D01*
X37513548Y-55002316D01*
X37513547Y-55002317D01*
X37353589Y-55133589D01*
X37222317Y-55293547D01*
X37124769Y-55476043D01*
X37064699Y-55674067D01*
X37044417Y-55880000D01*
X34290500Y-55880000D01*
X34290500Y-53340000D01*
X37044417Y-53340000D01*
X37064699Y-53545932D01*
X37064700Y-53545934D01*
X37124768Y-53743954D01*
X37222315Y-53926450D01*
X37222317Y-53926452D01*
X37353589Y-54086410D01*
X37450209Y-54165702D01*
X37513550Y-54217685D01*
X37696046Y-54315232D01*
X37894066Y-54375300D01*
X37894065Y-54375300D01*
X37912529Y-54377118D01*
X38100000Y-54395583D01*
X38305934Y-54375300D01*
X38503954Y-54315232D01*
X38686450Y-54217685D01*
X38846410Y-54086410D01*
X38977685Y-53926450D01*
X39075232Y-53743954D01*
X39135300Y-53545934D01*
X39155583Y-53340000D01*
X70064417Y-53340000D01*
X70084699Y-53545932D01*
X70084700Y-53545934D01*
X70144768Y-53743954D01*
X70242315Y-53926450D01*
X70242317Y-53926452D01*
X70373589Y-54086410D01*
X70470209Y-54165702D01*
X70533550Y-54217685D01*
X70716046Y-54315232D01*
X70914066Y-54375300D01*
X70914065Y-54375300D01*
X70932529Y-54377118D01*
X71120000Y-54395583D01*
X71325934Y-54375300D01*
X71523954Y-54315232D01*
X71706450Y-54217685D01*
X71866410Y-54086410D01*
X71997685Y-53926450D01*
X72095232Y-53743954D01*
X72155300Y-53545934D01*
X72175583Y-53340000D01*
X72155300Y-53134066D01*
X72095232Y-52936046D01*
X71997685Y-52753550D01*
X71945702Y-52690209D01*
X71866410Y-52593589D01*
X71706452Y-52462317D01*
X71706453Y-52462317D01*
X71706450Y-52462315D01*
X71523954Y-52364768D01*
X71325934Y-52304700D01*
X71325932Y-52304699D01*
X71325934Y-52304699D01*
X71120000Y-52284417D01*
X70914067Y-52304699D01*
X70716043Y-52364769D01*
X70605898Y-52423643D01*
X70533550Y-52462315D01*
X70533548Y-52462316D01*
X70533547Y-52462317D01*
X70373589Y-52593589D01*
X70242317Y-52753547D01*
X70144769Y-52936043D01*
X70084699Y-53134067D01*
X70064417Y-53340000D01*
X39155583Y-53340000D01*
X39135300Y-53134066D01*
X39075232Y-52936046D01*
X38977685Y-52753550D01*
X38925702Y-52690209D01*
X38846410Y-52593589D01*
X38686452Y-52462317D01*
X38686453Y-52462317D01*
X38686450Y-52462315D01*
X38503954Y-52364768D01*
X38305934Y-52304700D01*
X38305932Y-52304699D01*
X38305934Y-52304699D01*
X38100000Y-52284417D01*
X37894067Y-52304699D01*
X37696043Y-52364769D01*
X37585898Y-52423643D01*
X37513550Y-52462315D01*
X37513548Y-52462316D01*
X37513547Y-52462317D01*
X37353589Y-52593589D01*
X37222317Y-52753547D01*
X37124769Y-52936043D01*
X37064699Y-53134067D01*
X37044417Y-53340000D01*
X34290500Y-53340000D01*
X34290500Y-50800000D01*
X37044417Y-50800000D01*
X37064699Y-51005932D01*
X37064700Y-51005934D01*
X37124768Y-51203954D01*
X37222315Y-51386450D01*
X37222317Y-51386452D01*
X37353589Y-51546410D01*
X37450209Y-51625702D01*
X37513550Y-51677685D01*
X37696046Y-51775232D01*
X37894066Y-51835300D01*
X37894065Y-51835300D01*
X37912529Y-51837118D01*
X38100000Y-51855583D01*
X38305934Y-51835300D01*
X38503954Y-51775232D01*
X38686450Y-51677685D01*
X38846410Y-51546410D01*
X38977685Y-51386450D01*
X39075232Y-51203954D01*
X39135300Y-51005934D01*
X39155583Y-50800000D01*
X70064417Y-50800000D01*
X70084699Y-51005932D01*
X70084700Y-51005934D01*
X70144768Y-51203954D01*
X70242315Y-51386450D01*
X70242317Y-51386452D01*
X70373589Y-51546410D01*
X70470209Y-51625702D01*
X70533550Y-51677685D01*
X70716046Y-51775232D01*
X70914066Y-51835300D01*
X70914065Y-51835300D01*
X70932529Y-51837118D01*
X71120000Y-51855583D01*
X71325934Y-51835300D01*
X71523954Y-51775232D01*
X71706450Y-51677685D01*
X71866410Y-51546410D01*
X71997685Y-51386450D01*
X72095232Y-51203954D01*
X72155300Y-51005934D01*
X72175583Y-50800000D01*
X72155300Y-50594066D01*
X72095232Y-50396046D01*
X71997685Y-50213550D01*
X71945702Y-50150209D01*
X71866410Y-50053589D01*
X71706452Y-49922317D01*
X71706453Y-49922317D01*
X71706450Y-49922315D01*
X71523954Y-49824768D01*
X71325934Y-49764700D01*
X71325932Y-49764699D01*
X71325934Y-49764699D01*
X71120000Y-49744417D01*
X70914067Y-49764699D01*
X70716043Y-49824769D01*
X70605898Y-49883643D01*
X70533550Y-49922315D01*
X70533548Y-49922316D01*
X70533547Y-49922317D01*
X70373589Y-50053589D01*
X70242317Y-50213547D01*
X70144769Y-50396043D01*
X70084699Y-50594067D01*
X70064417Y-50800000D01*
X39155583Y-50800000D01*
X39135300Y-50594066D01*
X39075232Y-50396046D01*
X38977685Y-50213550D01*
X38925702Y-50150209D01*
X38846410Y-50053589D01*
X38686452Y-49922317D01*
X38686453Y-49922317D01*
X38686450Y-49922315D01*
X38503954Y-49824768D01*
X38305934Y-49764700D01*
X38305932Y-49764699D01*
X38305934Y-49764699D01*
X38100000Y-49744417D01*
X37894067Y-49764699D01*
X37696043Y-49824769D01*
X37585898Y-49883643D01*
X37513550Y-49922315D01*
X37513548Y-49922316D01*
X37513547Y-49922317D01*
X37353589Y-50053589D01*
X37222317Y-50213547D01*
X37124769Y-50396043D01*
X37064699Y-50594067D01*
X37044417Y-50800000D01*
X34290500Y-50800000D01*
X34290500Y-48260000D01*
X37044417Y-48260000D01*
X37064699Y-48465932D01*
X37064700Y-48465934D01*
X37124768Y-48663954D01*
X37222315Y-48846450D01*
X37222317Y-48846452D01*
X37353589Y-49006410D01*
X37450209Y-49085702D01*
X37513550Y-49137685D01*
X37696046Y-49235232D01*
X37894066Y-49295300D01*
X37894065Y-49295300D01*
X37912529Y-49297118D01*
X38100000Y-49315583D01*
X38305934Y-49295300D01*
X38503954Y-49235232D01*
X38686450Y-49137685D01*
X38846410Y-49006410D01*
X38977685Y-48846450D01*
X39075232Y-48663954D01*
X39135300Y-48465934D01*
X39155583Y-48260000D01*
X70064417Y-48260000D01*
X70084699Y-48465932D01*
X70084700Y-48465934D01*
X70144768Y-48663954D01*
X70242315Y-48846450D01*
X70242317Y-48846452D01*
X70373589Y-49006410D01*
X70470209Y-49085702D01*
X70533550Y-49137685D01*
X70716046Y-49235232D01*
X70914066Y-49295300D01*
X70914065Y-49295300D01*
X70932529Y-49297118D01*
X71120000Y-49315583D01*
X71325934Y-49295300D01*
X71523954Y-49235232D01*
X71706450Y-49137685D01*
X71866410Y-49006410D01*
X71997685Y-48846450D01*
X72095232Y-48663954D01*
X72155300Y-48465934D01*
X72175583Y-48260000D01*
X72155300Y-48054066D01*
X72095232Y-47856046D01*
X71997685Y-47673550D01*
X71945702Y-47610209D01*
X71866410Y-47513589D01*
X71706452Y-47382317D01*
X71706453Y-47382317D01*
X71706450Y-47382315D01*
X71523954Y-47284768D01*
X71325934Y-47224700D01*
X71325932Y-47224699D01*
X71325934Y-47224699D01*
X71120000Y-47204417D01*
X70914067Y-47224699D01*
X70716043Y-47284769D01*
X70605898Y-47343643D01*
X70533550Y-47382315D01*
X70533548Y-47382316D01*
X70533547Y-47382317D01*
X70373589Y-47513589D01*
X70242317Y-47673547D01*
X70144769Y-47856043D01*
X70084699Y-48054067D01*
X70064417Y-48260000D01*
X39155583Y-48260000D01*
X39135300Y-48054066D01*
X39075232Y-47856046D01*
X38977685Y-47673550D01*
X38925702Y-47610209D01*
X38846410Y-47513589D01*
X38686452Y-47382317D01*
X38686453Y-47382317D01*
X38686450Y-47382315D01*
X38503954Y-47284768D01*
X38305934Y-47224700D01*
X38305932Y-47224699D01*
X38305934Y-47224699D01*
X38100000Y-47204417D01*
X37894067Y-47224699D01*
X37696043Y-47284769D01*
X37585898Y-47343643D01*
X37513550Y-47382315D01*
X37513548Y-47382316D01*
X37513547Y-47382317D01*
X37353589Y-47513589D01*
X37222317Y-47673547D01*
X37124769Y-47856043D01*
X37064699Y-48054067D01*
X37044417Y-48260000D01*
X34290500Y-48260000D01*
X34290500Y-45720000D01*
X37044417Y-45720000D01*
X37064699Y-45925932D01*
X37064700Y-45925934D01*
X37124768Y-46123954D01*
X37222315Y-46306450D01*
X37222317Y-46306452D01*
X37353589Y-46466410D01*
X37450209Y-46545702D01*
X37513550Y-46597685D01*
X37696046Y-46695232D01*
X37894066Y-46755300D01*
X37894065Y-46755300D01*
X37912529Y-46757118D01*
X38100000Y-46775583D01*
X38305934Y-46755300D01*
X38503954Y-46695232D01*
X38686450Y-46597685D01*
X38846410Y-46466410D01*
X38977685Y-46306450D01*
X39075232Y-46123954D01*
X39135300Y-45925934D01*
X39155583Y-45720000D01*
X70064417Y-45720000D01*
X70084699Y-45925932D01*
X70084700Y-45925934D01*
X70144768Y-46123954D01*
X70242315Y-46306450D01*
X70242317Y-46306452D01*
X70373589Y-46466410D01*
X70470209Y-46545702D01*
X70533550Y-46597685D01*
X70716046Y-46695232D01*
X70914066Y-46755300D01*
X70914065Y-46755300D01*
X70932529Y-46757118D01*
X71120000Y-46775583D01*
X71325934Y-46755300D01*
X71523954Y-46695232D01*
X71706450Y-46597685D01*
X71866410Y-46466410D01*
X71997685Y-46306450D01*
X72095232Y-46123954D01*
X72155300Y-45925934D01*
X72175583Y-45720000D01*
X72155300Y-45514066D01*
X72095232Y-45316046D01*
X71997685Y-45133550D01*
X71945702Y-45070209D01*
X71866410Y-44973589D01*
X71706452Y-44842317D01*
X71706453Y-44842317D01*
X71706450Y-44842315D01*
X71523954Y-44744768D01*
X71325934Y-44684700D01*
X71325932Y-44684699D01*
X71325934Y-44684699D01*
X71120000Y-44664417D01*
X70914067Y-44684699D01*
X70716043Y-44744769D01*
X70605898Y-44803643D01*
X70533550Y-44842315D01*
X70533548Y-44842316D01*
X70533547Y-44842317D01*
X70373589Y-44973589D01*
X70242317Y-45133547D01*
X70144769Y-45316043D01*
X70084699Y-45514067D01*
X70064417Y-45720000D01*
X39155583Y-45720000D01*
X39135300Y-45514066D01*
X39075232Y-45316046D01*
X38977685Y-45133550D01*
X38925702Y-45070209D01*
X38846410Y-44973589D01*
X38686452Y-44842317D01*
X38686453Y-44842317D01*
X38686450Y-44842315D01*
X38503954Y-44744768D01*
X38305934Y-44684700D01*
X38305932Y-44684699D01*
X38305934Y-44684699D01*
X38100000Y-44664417D01*
X37894067Y-44684699D01*
X37696043Y-44744769D01*
X37585898Y-44803643D01*
X37513550Y-44842315D01*
X37513548Y-44842316D01*
X37513547Y-44842317D01*
X37353589Y-44973589D01*
X37222317Y-45133547D01*
X37124769Y-45316043D01*
X37064699Y-45514067D01*
X37044417Y-45720000D01*
X34290500Y-45720000D01*
X34290500Y-43180000D01*
X37044417Y-43180000D01*
X37064699Y-43385932D01*
X37064700Y-43385934D01*
X37124768Y-43583954D01*
X37222315Y-43766450D01*
X37222317Y-43766452D01*
X37353589Y-43926410D01*
X37450209Y-44005702D01*
X37513550Y-44057685D01*
X37696046Y-44155232D01*
X37894066Y-44215300D01*
X37894065Y-44215300D01*
X37912529Y-44217118D01*
X38100000Y-44235583D01*
X38305934Y-44215300D01*
X38503954Y-44155232D01*
X38686450Y-44057685D01*
X38846410Y-43926410D01*
X38977685Y-43766450D01*
X39075232Y-43583954D01*
X39135300Y-43385934D01*
X39155583Y-43180000D01*
X70064417Y-43180000D01*
X70084699Y-43385932D01*
X70084700Y-43385934D01*
X70144768Y-43583954D01*
X70242315Y-43766450D01*
X70242317Y-43766452D01*
X70373589Y-43926410D01*
X70470209Y-44005702D01*
X70533550Y-44057685D01*
X70716046Y-44155232D01*
X70914066Y-44215300D01*
X70914065Y-44215300D01*
X70932529Y-44217118D01*
X71120000Y-44235583D01*
X71325934Y-44215300D01*
X71523954Y-44155232D01*
X71706450Y-44057685D01*
X71866410Y-43926410D01*
X71997685Y-43766450D01*
X72095232Y-43583954D01*
X72155300Y-43385934D01*
X72175583Y-43180000D01*
X72155300Y-42974066D01*
X72095232Y-42776046D01*
X71997685Y-42593550D01*
X71945702Y-42530209D01*
X71866410Y-42433589D01*
X71706452Y-42302317D01*
X71706453Y-42302317D01*
X71706450Y-42302315D01*
X71523954Y-42204768D01*
X71325934Y-42144700D01*
X71325932Y-42144699D01*
X71325934Y-42144699D01*
X71120000Y-42124417D01*
X70914067Y-42144699D01*
X70716043Y-42204769D01*
X70605898Y-42263643D01*
X70533550Y-42302315D01*
X70533548Y-42302316D01*
X70533547Y-42302317D01*
X70373589Y-42433589D01*
X70242317Y-42593547D01*
X70144769Y-42776043D01*
X70084699Y-42974067D01*
X70064417Y-43180000D01*
X39155583Y-43180000D01*
X39135300Y-42974066D01*
X39075232Y-42776046D01*
X38977685Y-42593550D01*
X38925702Y-42530209D01*
X38846410Y-42433589D01*
X38686452Y-42302317D01*
X38686453Y-42302317D01*
X38686450Y-42302315D01*
X38503954Y-42204768D01*
X38305934Y-42144700D01*
X38305932Y-42144699D01*
X38305934Y-42144699D01*
X38100000Y-42124417D01*
X37894067Y-42144699D01*
X37696043Y-42204769D01*
X37585898Y-42263643D01*
X37513550Y-42302315D01*
X37513548Y-42302316D01*
X37513547Y-42302317D01*
X37353589Y-42433589D01*
X37222317Y-42593547D01*
X37124769Y-42776043D01*
X37064699Y-42974067D01*
X37044417Y-43180000D01*
X34290500Y-43180000D01*
X34290500Y-40640000D01*
X37044417Y-40640000D01*
X37064699Y-40845932D01*
X37064700Y-40845934D01*
X37124768Y-41043954D01*
X37222315Y-41226450D01*
X37222317Y-41226452D01*
X37353589Y-41386410D01*
X37450209Y-41465702D01*
X37513550Y-41517685D01*
X37696046Y-41615232D01*
X37894066Y-41675300D01*
X37894065Y-41675300D01*
X37912529Y-41677118D01*
X38100000Y-41695583D01*
X38305934Y-41675300D01*
X38503954Y-41615232D01*
X38686450Y-41517685D01*
X38846410Y-41386410D01*
X38977685Y-41226450D01*
X39075232Y-41043954D01*
X39135300Y-40845934D01*
X39155583Y-40640000D01*
X39135300Y-40434066D01*
X39075232Y-40236046D01*
X38977685Y-40053550D01*
X38925702Y-39990209D01*
X38846410Y-39893589D01*
X38686452Y-39762317D01*
X38686453Y-39762317D01*
X38686450Y-39762315D01*
X38503954Y-39664768D01*
X38305934Y-39604700D01*
X38305932Y-39604699D01*
X38305934Y-39604699D01*
X38100000Y-39584417D01*
X37894067Y-39604699D01*
X37696043Y-39664769D01*
X37585898Y-39723643D01*
X37513550Y-39762315D01*
X37513548Y-39762316D01*
X37513547Y-39762317D01*
X37353589Y-39893589D01*
X37222317Y-40053547D01*
X37124769Y-40236043D01*
X37064699Y-40434067D01*
X37044417Y-40640000D01*
X34290500Y-40640000D01*
X34290500Y-39421569D01*
X34310185Y-39354530D01*
X34326819Y-39333888D01*
X36793888Y-36866819D01*
X36855211Y-36833334D01*
X36881569Y-36830500D01*
X41858430Y-36830500D01*
X41925469Y-36850185D01*
G37*
%TD.AperFunction*%
%TD*%
M02*
