%TF.GenerationSoftware,KiCad,Pcbnew,7.0.8*%
%TF.CreationDate,2024-01-12T13:16:21+01:00*%
%TF.ProjectId,adapter_ESP32,61646170-7465-4725-9f45-535033322e6b,rev?*%
%TF.SameCoordinates,Original*%
%TF.FileFunction,Copper,L1,Top*%
%TF.FilePolarity,Positive*%
%FSLAX46Y46*%
G04 Gerber Fmt 4.6, Leading zero omitted, Abs format (unit mm)*
G04 Created by KiCad (PCBNEW 7.0.8) date 2024-01-12 13:16:21*
%MOMM*%
%LPD*%
G01*
G04 APERTURE LIST*
G04 Aperture macros list*
%AMRoundRect*
0 Rectangle with rounded corners*
0 $1 Rounding radius*
0 $2 $3 $4 $5 $6 $7 $8 $9 X,Y pos of 4 corners*
0 Add a 4 corners polygon primitive as box body*
4,1,4,$2,$3,$4,$5,$6,$7,$8,$9,$2,$3,0*
0 Add four circle primitives for the rounded corners*
1,1,$1+$1,$2,$3*
1,1,$1+$1,$4,$5*
1,1,$1+$1,$6,$7*
1,1,$1+$1,$8,$9*
0 Add four rect primitives between the rounded corners*
20,1,$1+$1,$2,$3,$4,$5,0*
20,1,$1+$1,$4,$5,$6,$7,0*
20,1,$1+$1,$6,$7,$8,$9,0*
20,1,$1+$1,$8,$9,$2,$3,0*%
G04 Aperture macros list end*
%TA.AperFunction,ComponentPad*%
%ADD10R,1.700000X1.700000*%
%TD*%
%TA.AperFunction,ComponentPad*%
%ADD11O,1.700000X1.700000*%
%TD*%
%TA.AperFunction,SMDPad,CuDef*%
%ADD12RoundRect,0.225000X0.250000X-0.225000X0.250000X0.225000X-0.250000X0.225000X-0.250000X-0.225000X0*%
%TD*%
%TA.AperFunction,SMDPad,CuDef*%
%ADD13R,1.500000X0.900000*%
%TD*%
%TA.AperFunction,SMDPad,CuDef*%
%ADD14R,0.900000X1.500000*%
%TD*%
%TA.AperFunction,SMDPad,CuDef*%
%ADD15R,0.900000X0.900000*%
%TD*%
%TA.AperFunction,HeatsinkPad*%
%ADD16C,0.600000*%
%TD*%
%TA.AperFunction,SMDPad,CuDef*%
%ADD17R,3.800000X3.800000*%
%TD*%
%TA.AperFunction,Conductor*%
%ADD18C,0.500000*%
%TD*%
%TA.AperFunction,Conductor*%
%ADD19C,0.250000*%
%TD*%
%TA.AperFunction,Conductor*%
%ADD20C,0.400000*%
%TD*%
G04 APERTURE END LIST*
D10*
%TO.P,J2,1,Pin_1*%
%TO.N,IO4*%
X63500000Y-66040000D03*
D11*
%TO.P,J2,2,Pin_2*%
%TO.N,IO0*%
X63500000Y-63500000D03*
%TO.P,J2,3,Pin_3*%
%TO.N,IO2*%
X60960000Y-66040000D03*
%TO.P,J2,4,Pin_4*%
%TO.N,IO15*%
X60960000Y-63500000D03*
%TO.P,J2,5,Pin_5*%
%TO.N,SDI{slash}SD1*%
X58420000Y-66040000D03*
%TO.P,J2,6,Pin_6*%
%TO.N,SDO{slash}SD0*%
X58420000Y-63500000D03*
%TO.P,J2,7,Pin_7*%
%TO.N,GND*%
X55880000Y-66040000D03*
%TO.P,J2,8,Pin_8*%
%TO.N,SCK{slash}CLK*%
X55880000Y-63500000D03*
%TO.P,J2,9,Pin_9*%
%TO.N,GND*%
X53340000Y-66040000D03*
%TO.P,J2,10,Pin_10*%
%TO.N,SCS{slash}CMD*%
X53340000Y-63500000D03*
%TO.P,J2,11,Pin_11*%
%TO.N,SHD{slash}SD2*%
X50800000Y-66040000D03*
%TO.P,J2,12,Pin_12*%
%TO.N,SWP{slash}SD3*%
X50800000Y-63500000D03*
%TO.P,J2,13,Pin_13*%
%TO.N,GND*%
X48260000Y-66040000D03*
%TO.P,J2,14,Pin_14*%
%TO.N,IO13*%
X48260000Y-63500000D03*
%TO.P,J2,15,Pin_15*%
%TO.N,IO14*%
X45720000Y-66040000D03*
%TO.P,J2,16,Pin_16*%
%TO.N,IO12*%
X45720000Y-63500000D03*
%TD*%
D12*
%TO.P,C1,1*%
%TO.N,VDD*%
X42164000Y-41923000D03*
%TO.P,C1,2*%
%TO.N,GND*%
X42164000Y-40373000D03*
%TD*%
D13*
%TO.P,U1,1,GND*%
%TO.N,GND*%
X45860000Y-40640000D03*
%TO.P,U1,2,VDD*%
%TO.N,VDD*%
X45860000Y-41910000D03*
%TO.P,U1,3,EN*%
%TO.N,EN*%
X45860000Y-43180000D03*
%TO.P,U1,4,SENSOR_VP*%
%TO.N,SENSOR_VP*%
X45860000Y-44450000D03*
%TO.P,U1,5,SENSOR_VN*%
%TO.N,SENSOR_VN*%
X45860000Y-45720000D03*
%TO.P,U1,6,IO34*%
%TO.N,IO34*%
X45860000Y-46990000D03*
%TO.P,U1,7,IO35*%
%TO.N,IO35*%
X45860000Y-48260000D03*
%TO.P,U1,8,IO32*%
%TO.N,IO32*%
X45860000Y-49530000D03*
%TO.P,U1,9,IO33*%
%TO.N,IO33*%
X45860000Y-50800000D03*
%TO.P,U1,10,IO25*%
%TO.N,IO25*%
X45860000Y-52070000D03*
%TO.P,U1,11,IO26*%
%TO.N,IO26*%
X45860000Y-53340000D03*
%TO.P,U1,12,IO27*%
%TO.N,IO27*%
X45860000Y-54610000D03*
%TO.P,U1,13,IO14*%
%TO.N,IO14*%
X45860000Y-55880000D03*
%TO.P,U1,14,IO12*%
%TO.N,IO12*%
X45860000Y-57150000D03*
D14*
%TO.P,U1,15,GND*%
%TO.N,GND*%
X48895000Y-58245000D03*
%TO.P,U1,16,IO13*%
%TO.N,IO13*%
X50165000Y-58245000D03*
%TO.P,U1,17,SHD/SD2*%
%TO.N,SHD{slash}SD2*%
X51435000Y-58245000D03*
%TO.P,U1,18,SWP/SD3*%
%TO.N,SWP{slash}SD3*%
X52705000Y-58245000D03*
%TO.P,U1,19,SCS/CMD*%
%TO.N,SCS{slash}CMD*%
X53975000Y-58245000D03*
%TO.P,U1,20,SCK/CLK*%
%TO.N,SCK{slash}CLK*%
X55245000Y-58245000D03*
%TO.P,U1,21,SDO/SD0*%
%TO.N,SDO{slash}SD0*%
X56515000Y-58245000D03*
%TO.P,U1,22,SDI/SD1*%
%TO.N,SDI{slash}SD1*%
X57785000Y-58245000D03*
%TO.P,U1,23,IO15*%
%TO.N,IO15*%
X59055000Y-58245000D03*
%TO.P,U1,24,IO2*%
%TO.N,IO2*%
X60325000Y-58245000D03*
D13*
%TO.P,U1,25,IO0*%
%TO.N,IO0*%
X63360000Y-57150000D03*
%TO.P,U1,26,IO4*%
%TO.N,IO4*%
X63360000Y-55880000D03*
%TO.P,U1,27,IO16*%
%TO.N,IO16*%
X63360000Y-54610000D03*
%TO.P,U1,28,IO17*%
%TO.N,IO17*%
X63360000Y-53340000D03*
%TO.P,U1,29,IO5*%
%TO.N,IO5*%
X63360000Y-52070000D03*
%TO.P,U1,30,IO18*%
%TO.N,IO18*%
X63360000Y-50800000D03*
%TO.P,U1,31,IO19*%
%TO.N,IO19*%
X63360000Y-49530000D03*
%TO.P,U1,32,NC*%
%TO.N,unconnected-(U1-NC-Pad32)*%
X63360000Y-48260000D03*
%TO.P,U1,33,IO21*%
%TO.N,IO21*%
X63360000Y-46990000D03*
%TO.P,U1,34,RXD0/IO3*%
%TO.N,RXD0{slash}IO3*%
X63360000Y-45720000D03*
%TO.P,U1,35,TXD0/IO1*%
%TO.N,TXD0{slash}IO1*%
X63360000Y-44450000D03*
%TO.P,U1,36,IO22*%
%TO.N,IO22*%
X63360000Y-43180000D03*
%TO.P,U1,37,IO23*%
%TO.N,IO23*%
X63360000Y-41910000D03*
%TO.P,U1,38,GND*%
%TO.N,GND*%
X63360000Y-40640000D03*
D15*
%TO.P,U1,39,GND*%
X51710000Y-46805000D03*
D16*
X51710000Y-47505000D03*
D15*
X51710000Y-48205000D03*
D16*
X51710000Y-48905000D03*
D15*
X51710000Y-49605000D03*
D16*
X52410000Y-46805000D03*
X52410000Y-48205000D03*
X52410000Y-49605000D03*
D15*
X53110000Y-46805000D03*
D16*
X53110000Y-47505000D03*
D15*
X53110000Y-48205000D03*
D17*
X53110000Y-48205000D03*
D16*
X53110000Y-48905000D03*
D15*
X53110000Y-49605000D03*
D16*
X53810000Y-46805000D03*
X53810000Y-48205000D03*
X53810000Y-49605000D03*
D15*
X54510000Y-46805000D03*
D16*
X54510000Y-47505000D03*
D15*
X54510000Y-48205000D03*
D16*
X54510000Y-48905000D03*
D15*
X54510000Y-49605000D03*
%TD*%
D10*
%TO.P,J1,1,Pin_1*%
%TO.N,IO27*%
X38100000Y-66040000D03*
D11*
%TO.P,J1,2,Pin_2*%
%TO.N,IO26*%
X38100000Y-63500000D03*
%TO.P,J1,3,Pin_3*%
%TO.N,IO25*%
X38100000Y-60960000D03*
%TO.P,J1,4,Pin_4*%
%TO.N,IO33*%
X38100000Y-58420000D03*
%TO.P,J1,5,Pin_5*%
%TO.N,IO32*%
X38100000Y-55880000D03*
%TO.P,J1,6,Pin_6*%
%TO.N,IO35*%
X38100000Y-53340000D03*
%TO.P,J1,7,Pin_7*%
%TO.N,IO34*%
X38100000Y-50800000D03*
%TO.P,J1,8,Pin_8*%
%TO.N,SENSOR_VN*%
X38100000Y-48260000D03*
%TO.P,J1,9,Pin_9*%
%TO.N,SENSOR_VP*%
X38100000Y-45720000D03*
%TO.P,J1,10,Pin_10*%
%TO.N,EN*%
X38100000Y-43180000D03*
%TO.P,J1,11,Pin_11*%
%TO.N,VDD*%
X38100000Y-40640000D03*
%TD*%
D10*
%TO.P,J3,1,Pin_1*%
%TO.N,IO16*%
X71120000Y-66040000D03*
D11*
%TO.P,J3,2,Pin_2*%
%TO.N,IO17*%
X71120000Y-63500000D03*
%TO.P,J3,3,Pin_3*%
%TO.N,IO5*%
X71120000Y-60960000D03*
%TO.P,J3,4,Pin_4*%
%TO.N,IO18*%
X71120000Y-58420000D03*
%TO.P,J3,5,Pin_5*%
%TO.N,IO19*%
X71120000Y-55880000D03*
%TO.P,J3,6,Pin_6*%
%TO.N,IO21*%
X71120000Y-53340000D03*
%TO.P,J3,7,Pin_7*%
%TO.N,RXD0{slash}IO3*%
X71120000Y-50800000D03*
%TO.P,J3,8,Pin_8*%
%TO.N,TXD0{slash}IO1*%
X71120000Y-48260000D03*
%TO.P,J3,9,Pin_9*%
%TO.N,IO22*%
X71120000Y-45720000D03*
%TO.P,J3,10,Pin_10*%
%TO.N,IO23*%
X71120000Y-43180000D03*
%TO.P,J3,11,Pin_11*%
%TO.N,GND*%
X71120000Y-40640000D03*
%TD*%
D18*
%TO.N,VDD*%
X40132000Y-40640000D02*
X38354000Y-40640000D01*
X42164000Y-41923000D02*
X41415000Y-41923000D01*
X41415000Y-41923000D02*
X40132000Y-40640000D01*
X42164000Y-41923000D02*
X45847000Y-41923000D01*
X45847000Y-41923000D02*
X45860000Y-41910000D01*
%TO.N,IO23*%
X71120000Y-43180000D02*
X69850000Y-41910000D01*
X69850000Y-41910000D02*
X63360000Y-41910000D01*
%TO.N,IO22*%
X68580000Y-43180000D02*
X63360000Y-43180000D01*
X71120000Y-45720000D02*
X68580000Y-43180000D01*
%TO.N,TXD0{slash}IO1*%
X71120000Y-48260000D02*
X67310000Y-44450000D01*
X67310000Y-44450000D02*
X63360000Y-44450000D01*
%TO.N,RXD0{slash}IO3*%
X66040000Y-45720000D02*
X63360000Y-45720000D01*
X71120000Y-50800000D02*
X66040000Y-45720000D01*
%TO.N,IO21*%
X71120000Y-53340000D02*
X64770000Y-46990000D01*
X64770000Y-46990000D02*
X63360000Y-46990000D01*
%TO.N,IO19*%
X71120000Y-55880000D02*
X64770000Y-49530000D01*
X64770000Y-49530000D02*
X63360000Y-49530000D01*
%TO.N,IO18*%
X71120000Y-58420000D02*
X68834000Y-56134000D01*
X63360000Y-50800000D02*
X64176672Y-50800000D01*
X64176672Y-50800000D02*
X68834000Y-55457328D01*
X68834000Y-56134000D02*
X68834000Y-55457328D01*
%TO.N,IO5*%
X71120000Y-60960000D02*
X67818000Y-57658000D01*
X67818000Y-57658000D02*
X67818000Y-55778000D01*
X67818000Y-55778000D02*
X64110000Y-52070000D01*
X64110000Y-52070000D02*
X63360000Y-52070000D01*
%TO.N,IO17*%
X66802000Y-56032000D02*
X64110000Y-53340000D01*
X71120000Y-63500000D02*
X66802000Y-59182000D01*
X66802000Y-59182000D02*
X66802000Y-56032000D01*
D19*
X64110000Y-53340000D02*
X63360000Y-53340000D01*
D18*
%TO.N,IO16*%
X71120000Y-66040000D02*
X70231000Y-66040000D01*
D19*
X64110000Y-54610000D02*
X63360000Y-54610000D01*
D18*
X68834000Y-63500000D02*
X65786000Y-60452000D01*
X65786000Y-56286000D02*
X64110000Y-54610000D01*
X68834000Y-64643000D02*
X68834000Y-63500000D01*
X70231000Y-66040000D02*
X68834000Y-64643000D01*
X65786000Y-60452000D02*
X65786000Y-56286000D01*
%TO.N,IO4*%
X64800000Y-64740000D02*
X64800000Y-56543950D01*
X64136050Y-55880000D02*
X63360000Y-55880000D01*
X63500000Y-66040000D02*
X64800000Y-64740000D01*
X64800000Y-56543950D02*
X64136050Y-55880000D01*
D19*
%TO.N,IO0*%
X63500000Y-57290000D02*
X63360000Y-57150000D01*
D18*
X63500000Y-63500000D02*
X63500000Y-57290000D01*
D19*
%TO.N,IO2*%
X59957000Y-58245000D02*
X60198000Y-58486000D01*
D18*
X62230000Y-62230000D02*
X60325000Y-60325000D01*
D20*
X62230000Y-64770000D02*
X62230000Y-62230000D01*
D18*
X60325000Y-60325000D02*
X60325000Y-58245000D01*
X60960000Y-66040000D02*
X62230000Y-64770000D01*
%TO.N,IO15*%
X60960000Y-63500000D02*
X60960000Y-62230000D01*
X60960000Y-62230000D02*
X59055000Y-60325000D01*
X59055000Y-60325000D02*
X59055000Y-58245000D01*
%TO.N,SDI{slash}SD1*%
X59690000Y-62230000D02*
X57785000Y-60325000D01*
X57785000Y-60325000D02*
X57785000Y-58245000D01*
D20*
X59690000Y-64770000D02*
X59690000Y-62230000D01*
D18*
X58420000Y-66040000D02*
X59690000Y-64770000D01*
%TO.N,SDO{slash}SD0*%
X58420000Y-63500000D02*
X58420000Y-62230000D01*
X56515000Y-60325000D02*
X56515000Y-58245000D01*
X58420000Y-62230000D02*
X56515000Y-60325000D01*
%TO.N,SCK{slash}CLK*%
X55245000Y-58245000D02*
X55245000Y-62865000D01*
X55245000Y-62865000D02*
X55880000Y-63500000D01*
%TO.N,SCS{slash}CMD*%
X53975000Y-62865000D02*
X53975000Y-58245000D01*
X53340000Y-63500000D02*
X53975000Y-62865000D01*
%TO.N,SWP{slash}SD3*%
X50800000Y-62230000D02*
X50800000Y-63500000D01*
X52705000Y-58245000D02*
X52705000Y-60325000D01*
X52705000Y-60325000D02*
X50800000Y-62230000D01*
%TO.N,SHD{slash}SD2*%
X51308000Y-60452000D02*
X49530000Y-62230000D01*
D20*
X49530000Y-62230000D02*
X49530000Y-64770000D01*
D18*
X49530000Y-64770000D02*
X50800000Y-66040000D01*
X51435000Y-60325000D02*
X51435000Y-58245000D01*
X51308000Y-60452000D02*
X51435000Y-60325000D01*
%TO.N,IO13*%
X50165000Y-60325000D02*
X48260000Y-62230000D01*
X48260000Y-62230000D02*
X48260000Y-63500000D01*
X50165000Y-58245000D02*
X50165000Y-60325000D01*
D19*
X48514000Y-63246000D02*
X48260000Y-63500000D01*
D18*
%TO.N,IO12*%
X45860000Y-57150000D02*
X45860000Y-63360000D01*
D19*
X45860000Y-63360000D02*
X45720000Y-63500000D01*
D18*
%TO.N,IO14*%
X44958000Y-55880000D02*
X45860000Y-55880000D01*
X44420000Y-64740000D02*
X44420000Y-56418000D01*
X44420000Y-56418000D02*
X44958000Y-55880000D01*
X45720000Y-66040000D02*
X44420000Y-64740000D01*
D19*
X45466000Y-66040000D02*
X45720000Y-66040000D01*
D18*
%TO.N,IO27*%
X40386000Y-64516000D02*
X38862000Y-66040000D01*
X43434000Y-60198000D02*
X43434000Y-56134000D01*
X40386000Y-63500000D02*
X40386000Y-64516000D01*
X43434000Y-60452000D02*
X40386000Y-63500000D01*
X43434000Y-56134000D02*
X44958000Y-54610000D01*
X43434000Y-60452000D02*
X43434000Y-60198000D01*
X44958000Y-54610000D02*
X45860000Y-54610000D01*
X38862000Y-66040000D02*
X38100000Y-66040000D01*
%TO.N,IO26*%
X44704000Y-53340000D02*
X45860000Y-53340000D01*
X42418000Y-59182000D02*
X42418000Y-55626000D01*
X42418000Y-55626000D02*
X44704000Y-53340000D01*
X38354000Y-63246000D02*
X42418000Y-59182000D01*
X38354000Y-63500000D02*
X38354000Y-63246000D01*
%TO.N,IO25*%
X41402000Y-55118000D02*
X44450000Y-52070000D01*
X41402000Y-57912000D02*
X41402000Y-55118000D01*
X44450000Y-52070000D02*
X45860000Y-52070000D01*
X38354000Y-60960000D02*
X41402000Y-57912000D01*
%TO.N,IO33*%
X40386000Y-54610000D02*
X44196000Y-50800000D01*
X40386000Y-56388000D02*
X40386000Y-54610000D01*
X44196000Y-50800000D02*
X45860000Y-50800000D01*
X38354000Y-58420000D02*
X40386000Y-56388000D01*
%TO.N,IO32*%
X38354000Y-55880000D02*
X39400000Y-54834000D01*
X39400000Y-54072000D02*
X43942000Y-49530000D01*
X39400000Y-54834000D02*
X39400000Y-54072000D01*
X43942000Y-49530000D02*
X45860000Y-49530000D01*
%TO.N,IO35*%
X38354000Y-53340000D02*
X38608000Y-53340000D01*
X38608000Y-53340000D02*
X43688000Y-48260000D01*
X43688000Y-48260000D02*
X45860000Y-48260000D01*
D19*
%TO.N,IO34*%
X38354000Y-50800000D02*
X38862000Y-50800000D01*
D18*
X38862000Y-50800000D02*
X39116000Y-50800000D01*
X39116000Y-50800000D02*
X42926000Y-46990000D01*
X42926000Y-46990000D02*
X45860000Y-46990000D01*
%TO.N,SENSOR_VN*%
X38354000Y-48260000D02*
X39370000Y-48260000D01*
X39370000Y-48260000D02*
X41910000Y-45720000D01*
X41910000Y-45720000D02*
X45860000Y-45720000D01*
%TO.N,SENSOR_VP*%
X41402000Y-44450000D02*
X45860000Y-44450000D01*
X38354000Y-45720000D02*
X40132000Y-45720000D01*
X40132000Y-45720000D02*
X41402000Y-44450000D01*
%TO.N,EN*%
X38354000Y-43180000D02*
X45860000Y-43180000D01*
%TD*%
%TA.AperFunction,Conductor*%
%TO.N,GND*%
G36*
X41926975Y-36849407D02*
G01*
X41938788Y-36859496D01*
X44435701Y-39356408D01*
X44435913Y-39356724D01*
X44449618Y-39370384D01*
X44449901Y-39370501D01*
X44449998Y-39370541D01*
X44450000Y-39370541D01*
X44469582Y-39370541D01*
X44469788Y-39370500D01*
X64750135Y-39370500D01*
X64750330Y-39370539D01*
X64770000Y-39370542D01*
X64770342Y-39370400D01*
X64772184Y-39369655D01*
X64777084Y-39363682D01*
X64784547Y-39356219D01*
X64784662Y-39356044D01*
X67281211Y-36859496D01*
X67335728Y-36831719D01*
X67351215Y-36830500D01*
X72348784Y-36830500D01*
X72406975Y-36849407D01*
X72418788Y-36859496D01*
X74900504Y-39341211D01*
X74928281Y-39395728D01*
X74929500Y-39411215D01*
X74929500Y-67268784D01*
X74910593Y-67326975D01*
X74900504Y-67338788D01*
X72418788Y-69820504D01*
X72364271Y-69848281D01*
X72348784Y-69849500D01*
X36871215Y-69849500D01*
X36813024Y-69830593D01*
X36801211Y-69820504D01*
X34319496Y-67338788D01*
X34291719Y-67284271D01*
X34290500Y-67268784D01*
X34290500Y-63500003D01*
X37044417Y-63500003D01*
X37064698Y-63705929D01*
X37064699Y-63705934D01*
X37124768Y-63903954D01*
X37222316Y-64086452D01*
X37250499Y-64120793D01*
X37353590Y-64246410D01*
X37353595Y-64246414D01*
X37513547Y-64377683D01*
X37513548Y-64377683D01*
X37513550Y-64377685D01*
X37696046Y-64475232D01*
X37818538Y-64512389D01*
X37894065Y-64535300D01*
X37894070Y-64535301D01*
X38099997Y-64555583D01*
X38100000Y-64555583D01*
X38100003Y-64555583D01*
X38305929Y-64535301D01*
X38305934Y-64535300D01*
X38330408Y-64527876D01*
X38503954Y-64475232D01*
X38686450Y-64377685D01*
X38846410Y-64246410D01*
X38977685Y-64086450D01*
X39075232Y-63903954D01*
X39135300Y-63705934D01*
X39135301Y-63705929D01*
X39155583Y-63500003D01*
X39155583Y-63499996D01*
X39135301Y-63294070D01*
X39135300Y-63294065D01*
X39107777Y-63203334D01*
X39108978Y-63142161D01*
X39132508Y-63104594D01*
X42716699Y-59520402D01*
X42720830Y-59516710D01*
X42751970Y-59491879D01*
X42785480Y-59442728D01*
X42804846Y-59416487D01*
X42854613Y-59380897D01*
X42915797Y-59381355D01*
X42965026Y-59417689D01*
X42983500Y-59475278D01*
X42983500Y-60224388D01*
X42964593Y-60282579D01*
X42954504Y-60294392D01*
X40087301Y-63161593D01*
X40083160Y-63165294D01*
X40052031Y-63190119D01*
X40018519Y-63239271D01*
X39983207Y-63287116D01*
X39979742Y-63293674D01*
X39979353Y-63293468D01*
X39978350Y-63295455D01*
X39978746Y-63295646D01*
X39975528Y-63302327D01*
X39957992Y-63359177D01*
X39938355Y-63415297D01*
X39936976Y-63422587D01*
X39936544Y-63422505D01*
X39936171Y-63424700D01*
X39936605Y-63424766D01*
X39935500Y-63432099D01*
X39935500Y-63491572D01*
X39933276Y-63551010D01*
X39934107Y-63558385D01*
X39933668Y-63558434D01*
X39935500Y-63572344D01*
X39935500Y-64288388D01*
X39916593Y-64346579D01*
X39906504Y-64358392D01*
X39226871Y-65038024D01*
X39172354Y-65065801D01*
X39111922Y-65056230D01*
X39101865Y-65050335D01*
X39094552Y-65045448D01*
X39045548Y-65012704D01*
X39028233Y-65001134D01*
X39028231Y-65001133D01*
X39028228Y-65001132D01*
X39028227Y-65001132D01*
X38969758Y-64989501D01*
X38969748Y-64989500D01*
X37230252Y-64989500D01*
X37230251Y-64989500D01*
X37230241Y-64989501D01*
X37171772Y-65001132D01*
X37171766Y-65001134D01*
X37105451Y-65045445D01*
X37105445Y-65045451D01*
X37061134Y-65111766D01*
X37061132Y-65111772D01*
X37049501Y-65170241D01*
X37049500Y-65170253D01*
X37049500Y-66909746D01*
X37049501Y-66909758D01*
X37061132Y-66968227D01*
X37061134Y-66968233D01*
X37105445Y-67034548D01*
X37105448Y-67034552D01*
X37171769Y-67078867D01*
X37216231Y-67087711D01*
X37230241Y-67090498D01*
X37230246Y-67090498D01*
X37230252Y-67090500D01*
X37230253Y-67090500D01*
X38969747Y-67090500D01*
X38969748Y-67090500D01*
X39028231Y-67078867D01*
X39094552Y-67034552D01*
X39138867Y-66968231D01*
X39150500Y-66909748D01*
X39150500Y-66430058D01*
X39169407Y-66371867D01*
X39182164Y-66357485D01*
X39218194Y-66324055D01*
X39222823Y-66318251D01*
X39223168Y-66318526D01*
X39231704Y-66307398D01*
X40684704Y-64854399D01*
X40688835Y-64850706D01*
X40719970Y-64825879D01*
X40753476Y-64776734D01*
X40788792Y-64728883D01*
X40788793Y-64728877D01*
X40792258Y-64722324D01*
X40792650Y-64722531D01*
X40793651Y-64720548D01*
X40793253Y-64720356D01*
X40796468Y-64713677D01*
X40796472Y-64713673D01*
X40814008Y-64656820D01*
X40833646Y-64600700D01*
X40833646Y-64600697D01*
X40835026Y-64593408D01*
X40835460Y-64593490D01*
X40835831Y-64591307D01*
X40835394Y-64591242D01*
X40836500Y-64583904D01*
X40836500Y-64524427D01*
X40837119Y-64507876D01*
X40838724Y-64464990D01*
X40838722Y-64464985D01*
X40837893Y-64457615D01*
X40838331Y-64457565D01*
X40836500Y-64443655D01*
X40836500Y-63727610D01*
X40855407Y-63669419D01*
X40865490Y-63657612D01*
X43732699Y-60790402D01*
X43736830Y-60786710D01*
X43767970Y-60761879D01*
X43788701Y-60731470D01*
X43837103Y-60694041D01*
X43898261Y-60692210D01*
X43948815Y-60726676D01*
X43969456Y-60784275D01*
X43969500Y-60787238D01*
X43969500Y-64711913D01*
X43969189Y-64717459D01*
X43964730Y-64757034D01*
X43964730Y-64757036D01*
X43975788Y-64815479D01*
X43984652Y-64874287D01*
X43986840Y-64881381D01*
X43986417Y-64881511D01*
X43987109Y-64883613D01*
X43987526Y-64883468D01*
X43989975Y-64890468D01*
X44017777Y-64943073D01*
X44043574Y-64996641D01*
X44047753Y-65002770D01*
X44047389Y-65003017D01*
X44048677Y-65004831D01*
X44049030Y-65004571D01*
X44053431Y-65010535D01*
X44095495Y-65052599D01*
X44135944Y-65096194D01*
X44141743Y-65100818D01*
X44141467Y-65101163D01*
X44152600Y-65109704D01*
X44687489Y-65644593D01*
X44715266Y-65699110D01*
X44712222Y-65743335D01*
X44684699Y-65834065D01*
X44684698Y-65834070D01*
X44664417Y-66039996D01*
X44664417Y-66040003D01*
X44684698Y-66245929D01*
X44684699Y-66245934D01*
X44744768Y-66443954D01*
X44842316Y-66626452D01*
X44973585Y-66786404D01*
X44973590Y-66786410D01*
X44973595Y-66786414D01*
X45133547Y-66917683D01*
X45133548Y-66917683D01*
X45133550Y-66917685D01*
X45316046Y-67015232D01*
X45453997Y-67057078D01*
X45514065Y-67075300D01*
X45514070Y-67075301D01*
X45719997Y-67095583D01*
X45720000Y-67095583D01*
X45720003Y-67095583D01*
X45925929Y-67075301D01*
X45925934Y-67075300D01*
X46123954Y-67015232D01*
X46306450Y-66917685D01*
X46466410Y-66786410D01*
X46597685Y-66626450D01*
X46695232Y-66443954D01*
X46755300Y-66245934D01*
X46755301Y-66245929D01*
X46775583Y-66040003D01*
X46775583Y-66039996D01*
X46755301Y-65834070D01*
X46755300Y-65834065D01*
X46710552Y-65686551D01*
X46695232Y-65636046D01*
X46597685Y-65453550D01*
X46518126Y-65356607D01*
X46466414Y-65293595D01*
X46466410Y-65293590D01*
X46466404Y-65293585D01*
X46306452Y-65162316D01*
X46123954Y-65064768D01*
X45925934Y-65004699D01*
X45925929Y-65004698D01*
X45720003Y-64984417D01*
X45719997Y-64984417D01*
X45514075Y-65004698D01*
X45514060Y-65004701D01*
X45423333Y-65032222D01*
X45362159Y-65031020D01*
X45324592Y-65007489D01*
X44899496Y-64582393D01*
X44871719Y-64527876D01*
X44870500Y-64512389D01*
X44870500Y-64371123D01*
X44889407Y-64312932D01*
X44938907Y-64276968D01*
X45000093Y-64276968D01*
X45032301Y-64294593D01*
X45074711Y-64329397D01*
X45133547Y-64377683D01*
X45133548Y-64377683D01*
X45133550Y-64377685D01*
X45316046Y-64475232D01*
X45438538Y-64512389D01*
X45514065Y-64535300D01*
X45514070Y-64535301D01*
X45719997Y-64555583D01*
X45720000Y-64555583D01*
X45720003Y-64555583D01*
X45925929Y-64535301D01*
X45925934Y-64535300D01*
X45950408Y-64527876D01*
X46123954Y-64475232D01*
X46306450Y-64377685D01*
X46466410Y-64246410D01*
X46597685Y-64086450D01*
X46695232Y-63903954D01*
X46755300Y-63705934D01*
X46755301Y-63705929D01*
X46775583Y-63500003D01*
X47204417Y-63500003D01*
X47224698Y-63705929D01*
X47224699Y-63705934D01*
X47284768Y-63903954D01*
X47382316Y-64086452D01*
X47410499Y-64120793D01*
X47513590Y-64246410D01*
X47513595Y-64246414D01*
X47673547Y-64377683D01*
X47673548Y-64377683D01*
X47673550Y-64377685D01*
X47856046Y-64475232D01*
X47978538Y-64512389D01*
X48054065Y-64535300D01*
X48054070Y-64535301D01*
X48259997Y-64555583D01*
X48260000Y-64555583D01*
X48260003Y-64555583D01*
X48465929Y-64535301D01*
X48465934Y-64535300D01*
X48490408Y-64527876D01*
X48663954Y-64475232D01*
X48846450Y-64377685D01*
X48967695Y-64278181D01*
X49024672Y-64255882D01*
X49083875Y-64271330D01*
X49122690Y-64318627D01*
X49129500Y-64354710D01*
X49129500Y-64540743D01*
X49121240Y-64580332D01*
X49089935Y-64652082D01*
X49074730Y-64787035D01*
X49074730Y-64787038D01*
X49099975Y-64920466D01*
X49099976Y-64920470D01*
X49099977Y-64920472D01*
X49118543Y-64955600D01*
X49163433Y-65040537D01*
X49767489Y-65644593D01*
X49795266Y-65699110D01*
X49792222Y-65743335D01*
X49764699Y-65834065D01*
X49764698Y-65834070D01*
X49744417Y-66039996D01*
X49744417Y-66040003D01*
X49764698Y-66245929D01*
X49764699Y-66245934D01*
X49824768Y-66443954D01*
X49922316Y-66626452D01*
X50053585Y-66786404D01*
X50053590Y-66786410D01*
X50053595Y-66786414D01*
X50213547Y-66917683D01*
X50213548Y-66917683D01*
X50213550Y-66917685D01*
X50396046Y-67015232D01*
X50533997Y-67057078D01*
X50594065Y-67075300D01*
X50594070Y-67075301D01*
X50799997Y-67095583D01*
X50800000Y-67095583D01*
X50800003Y-67095583D01*
X51005929Y-67075301D01*
X51005934Y-67075300D01*
X51203954Y-67015232D01*
X51386450Y-66917685D01*
X51546410Y-66786410D01*
X51677685Y-66626450D01*
X51775232Y-66443954D01*
X51835300Y-66245934D01*
X51835301Y-66245929D01*
X51855583Y-66040003D01*
X51855583Y-66039996D01*
X51835301Y-65834070D01*
X51835300Y-65834065D01*
X51790552Y-65686551D01*
X51775232Y-65636046D01*
X51677685Y-65453550D01*
X51598126Y-65356607D01*
X51546414Y-65293595D01*
X51546410Y-65293590D01*
X51546404Y-65293585D01*
X51386452Y-65162316D01*
X51203954Y-65064768D01*
X51005934Y-65004699D01*
X51005929Y-65004698D01*
X50800003Y-64984417D01*
X50799997Y-64984417D01*
X50594075Y-65004698D01*
X50594060Y-65004701D01*
X50503333Y-65032222D01*
X50442159Y-65031020D01*
X50404592Y-65007489D01*
X49959496Y-64562393D01*
X49931719Y-64507876D01*
X49930500Y-64492389D01*
X49930500Y-64354710D01*
X49949407Y-64296519D01*
X49998907Y-64260555D01*
X50060093Y-64260555D01*
X50092303Y-64278181D01*
X50134648Y-64312932D01*
X50213547Y-64377683D01*
X50213548Y-64377683D01*
X50213550Y-64377685D01*
X50396046Y-64475232D01*
X50518538Y-64512389D01*
X50594065Y-64535300D01*
X50594070Y-64535301D01*
X50799997Y-64555583D01*
X50800000Y-64555583D01*
X50800003Y-64555583D01*
X51005929Y-64535301D01*
X51005934Y-64535300D01*
X51030408Y-64527876D01*
X51203954Y-64475232D01*
X51386450Y-64377685D01*
X51546410Y-64246410D01*
X51677685Y-64086450D01*
X51775232Y-63903954D01*
X51835300Y-63705934D01*
X51835301Y-63705929D01*
X51855583Y-63500003D01*
X51855583Y-63499996D01*
X51835301Y-63294070D01*
X51835300Y-63294065D01*
X51803768Y-63190119D01*
X51775232Y-63096046D01*
X51677685Y-62913550D01*
X51651822Y-62882036D01*
X51546414Y-62753595D01*
X51546410Y-62753590D01*
X51386450Y-62622315D01*
X51302830Y-62577618D01*
X51260424Y-62533513D01*
X51250500Y-62490309D01*
X51250500Y-62457610D01*
X51269407Y-62399419D01*
X51279490Y-62387612D01*
X53003699Y-60663402D01*
X53007830Y-60659710D01*
X53038970Y-60634879D01*
X53072480Y-60585728D01*
X53107793Y-60537882D01*
X53107796Y-60537873D01*
X53111263Y-60531316D01*
X53111655Y-60531523D01*
X53112651Y-60529550D01*
X53112252Y-60529358D01*
X53115468Y-60522677D01*
X53115472Y-60522673D01*
X53133007Y-60465822D01*
X53152646Y-60409699D01*
X53152646Y-60409696D01*
X53154026Y-60402407D01*
X53154460Y-60402489D01*
X53154831Y-60400307D01*
X53154394Y-60400242D01*
X53155500Y-60392904D01*
X53155500Y-60333441D01*
X53156327Y-60311338D01*
X53157725Y-60273990D01*
X53157723Y-60273984D01*
X53156894Y-60266616D01*
X53157331Y-60266566D01*
X53155500Y-60252652D01*
X53155500Y-59280575D01*
X53174407Y-59222384D01*
X53223907Y-59186420D01*
X53232442Y-59184192D01*
X53233224Y-59183868D01*
X53233231Y-59183867D01*
X53285000Y-59149274D01*
X53343885Y-59132667D01*
X53394998Y-59149274D01*
X53446769Y-59183867D01*
X53446773Y-59183867D01*
X53455776Y-59187597D01*
X53455096Y-59189236D01*
X53498195Y-59213371D01*
X53523813Y-59268935D01*
X53524500Y-59280575D01*
X53524500Y-62353358D01*
X53505593Y-62411549D01*
X53456093Y-62447513D01*
X53415798Y-62451881D01*
X53340005Y-62444417D01*
X53339997Y-62444417D01*
X53134070Y-62464698D01*
X53134065Y-62464699D01*
X52936045Y-62524768D01*
X52753547Y-62622316D01*
X52593595Y-62753585D01*
X52593585Y-62753595D01*
X52462316Y-62913547D01*
X52364768Y-63096045D01*
X52304699Y-63294065D01*
X52304698Y-63294070D01*
X52284417Y-63499996D01*
X52284417Y-63500003D01*
X52304698Y-63705929D01*
X52304699Y-63705934D01*
X52364768Y-63903954D01*
X52462316Y-64086452D01*
X52490499Y-64120793D01*
X52593590Y-64246410D01*
X52593595Y-64246414D01*
X52753547Y-64377683D01*
X52753548Y-64377683D01*
X52753550Y-64377685D01*
X52936046Y-64475232D01*
X53058538Y-64512389D01*
X53134065Y-64535300D01*
X53134070Y-64535301D01*
X53339997Y-64555583D01*
X53340000Y-64555583D01*
X53340003Y-64555583D01*
X53545929Y-64535301D01*
X53545934Y-64535300D01*
X53570408Y-64527876D01*
X53743954Y-64475232D01*
X53926450Y-64377685D01*
X54086410Y-64246410D01*
X54217685Y-64086450D01*
X54315232Y-63903954D01*
X54375300Y-63705934D01*
X54375301Y-63705929D01*
X54395583Y-63500003D01*
X54395583Y-63499996D01*
X54375301Y-63294070D01*
X54375300Y-63294065D01*
X54343973Y-63190795D01*
X54345174Y-63129622D01*
X54359054Y-63103271D01*
X54377793Y-63077882D01*
X54377794Y-63077879D01*
X54381263Y-63071316D01*
X54381655Y-63071523D01*
X54382651Y-63069550D01*
X54382252Y-63069358D01*
X54385468Y-63062677D01*
X54385472Y-63062673D01*
X54403007Y-63005822D01*
X54422646Y-62949699D01*
X54422646Y-62949696D01*
X54424026Y-62942407D01*
X54424460Y-62942489D01*
X54424831Y-62940307D01*
X54424394Y-62940242D01*
X54425500Y-62932904D01*
X54425500Y-62873441D01*
X54427725Y-62813990D01*
X54427723Y-62813984D01*
X54426894Y-62806616D01*
X54427331Y-62806566D01*
X54425500Y-62792652D01*
X54425500Y-59280575D01*
X54444407Y-59222384D01*
X54493907Y-59186420D01*
X54502442Y-59184192D01*
X54503224Y-59183868D01*
X54503231Y-59183867D01*
X54555000Y-59149274D01*
X54613885Y-59132667D01*
X54664998Y-59149274D01*
X54716769Y-59183867D01*
X54716773Y-59183867D01*
X54725776Y-59187597D01*
X54725096Y-59189236D01*
X54768195Y-59213371D01*
X54793813Y-59268935D01*
X54794500Y-59280575D01*
X54794500Y-62836913D01*
X54794189Y-62842459D01*
X54789730Y-62882034D01*
X54789730Y-62882036D01*
X54800788Y-62940479D01*
X54809652Y-62999287D01*
X54811840Y-63006381D01*
X54811417Y-63006511D01*
X54812109Y-63008613D01*
X54812526Y-63008468D01*
X54814975Y-63015468D01*
X54842777Y-63068072D01*
X54869274Y-63123093D01*
X54877487Y-63183724D01*
X54874815Y-63194785D01*
X54844700Y-63294062D01*
X54844698Y-63294070D01*
X54824417Y-63499996D01*
X54824417Y-63500003D01*
X54844698Y-63705929D01*
X54844699Y-63705934D01*
X54904768Y-63903954D01*
X55002316Y-64086452D01*
X55030499Y-64120793D01*
X55133590Y-64246410D01*
X55133595Y-64246414D01*
X55293547Y-64377683D01*
X55293548Y-64377683D01*
X55293550Y-64377685D01*
X55476046Y-64475232D01*
X55598538Y-64512389D01*
X55674065Y-64535300D01*
X55674070Y-64535301D01*
X55879997Y-64555583D01*
X55880000Y-64555583D01*
X55880003Y-64555583D01*
X56085929Y-64535301D01*
X56085934Y-64535300D01*
X56110408Y-64527876D01*
X56283954Y-64475232D01*
X56466450Y-64377685D01*
X56626410Y-64246410D01*
X56757685Y-64086450D01*
X56855232Y-63903954D01*
X56915300Y-63705934D01*
X56915301Y-63705929D01*
X56935583Y-63500003D01*
X56935583Y-63499996D01*
X56915301Y-63294070D01*
X56915300Y-63294065D01*
X56883768Y-63190119D01*
X56855232Y-63096046D01*
X56757685Y-62913550D01*
X56731822Y-62882036D01*
X56626414Y-62753595D01*
X56626410Y-62753590D01*
X56589174Y-62723031D01*
X56466452Y-62622316D01*
X56283954Y-62524768D01*
X56085934Y-62464699D01*
X56085929Y-62464698D01*
X55880003Y-62444417D01*
X55879995Y-62444417D01*
X55804202Y-62451881D01*
X55744439Y-62438768D01*
X55703797Y-62393031D01*
X55695500Y-62353358D01*
X55695500Y-59280575D01*
X55714407Y-59222384D01*
X55763907Y-59186420D01*
X55772442Y-59184192D01*
X55773224Y-59183868D01*
X55773231Y-59183867D01*
X55825000Y-59149274D01*
X55883885Y-59132667D01*
X55934998Y-59149274D01*
X55986769Y-59183867D01*
X55986773Y-59183867D01*
X55995776Y-59187597D01*
X55995096Y-59189236D01*
X56038195Y-59213371D01*
X56063813Y-59268935D01*
X56064500Y-59280575D01*
X56064500Y-60296913D01*
X56064189Y-60302459D01*
X56059730Y-60342034D01*
X56059730Y-60342036D01*
X56070788Y-60400479D01*
X56079652Y-60459287D01*
X56081840Y-60466381D01*
X56081417Y-60466511D01*
X56082109Y-60468613D01*
X56082526Y-60468468D01*
X56084975Y-60475468D01*
X56112777Y-60528073D01*
X56138574Y-60581641D01*
X56142753Y-60587770D01*
X56142389Y-60588017D01*
X56143677Y-60589831D01*
X56144030Y-60589571D01*
X56148431Y-60595535D01*
X56190495Y-60637599D01*
X56230944Y-60681194D01*
X56236743Y-60685818D01*
X56236467Y-60686163D01*
X56247600Y-60694704D01*
X57099348Y-61546452D01*
X57940504Y-62387607D01*
X57968281Y-62442124D01*
X57969500Y-62457611D01*
X57969500Y-62490309D01*
X57950593Y-62548500D01*
X57917169Y-62577619D01*
X57833551Y-62622314D01*
X57673595Y-62753585D01*
X57673585Y-62753595D01*
X57542316Y-62913547D01*
X57444768Y-63096045D01*
X57384699Y-63294065D01*
X57384698Y-63294070D01*
X57364417Y-63499996D01*
X57364417Y-63500003D01*
X57384698Y-63705929D01*
X57384699Y-63705934D01*
X57444768Y-63903954D01*
X57542316Y-64086452D01*
X57570499Y-64120793D01*
X57673590Y-64246410D01*
X57673595Y-64246414D01*
X57833547Y-64377683D01*
X57833548Y-64377683D01*
X57833550Y-64377685D01*
X58016046Y-64475232D01*
X58138538Y-64512389D01*
X58214065Y-64535300D01*
X58214070Y-64535301D01*
X58419997Y-64555583D01*
X58420000Y-64555583D01*
X58420003Y-64555583D01*
X58625929Y-64535301D01*
X58625934Y-64535300D01*
X58650408Y-64527876D01*
X58823954Y-64475232D01*
X59006450Y-64377685D01*
X59127695Y-64278181D01*
X59184672Y-64255882D01*
X59243875Y-64271330D01*
X59282690Y-64318627D01*
X59289500Y-64354710D01*
X59289500Y-64492388D01*
X59270593Y-64550579D01*
X59260503Y-64562392D01*
X58815405Y-65007489D01*
X58760889Y-65035266D01*
X58716664Y-65032222D01*
X58625934Y-65004699D01*
X58625929Y-65004698D01*
X58420003Y-64984417D01*
X58419997Y-64984417D01*
X58214070Y-65004698D01*
X58214065Y-65004699D01*
X58016045Y-65064768D01*
X57833547Y-65162316D01*
X57673595Y-65293585D01*
X57673585Y-65293595D01*
X57542316Y-65453547D01*
X57444768Y-65636045D01*
X57384699Y-65834065D01*
X57384698Y-65834070D01*
X57364417Y-66039996D01*
X57364417Y-66040003D01*
X57384698Y-66245929D01*
X57384699Y-66245934D01*
X57444768Y-66443954D01*
X57542316Y-66626452D01*
X57673585Y-66786404D01*
X57673590Y-66786410D01*
X57673595Y-66786414D01*
X57833547Y-66917683D01*
X57833548Y-66917683D01*
X57833550Y-66917685D01*
X58016046Y-67015232D01*
X58153997Y-67057078D01*
X58214065Y-67075300D01*
X58214070Y-67075301D01*
X58419997Y-67095583D01*
X58420000Y-67095583D01*
X58420003Y-67095583D01*
X58625929Y-67075301D01*
X58625934Y-67075300D01*
X58823954Y-67015232D01*
X59006450Y-66917685D01*
X59166410Y-66786410D01*
X59297685Y-66626450D01*
X59395232Y-66443954D01*
X59455300Y-66245934D01*
X59455301Y-66245929D01*
X59475583Y-66040003D01*
X59475583Y-66039996D01*
X59455301Y-65834070D01*
X59455300Y-65834065D01*
X59427777Y-65743334D01*
X59428978Y-65682161D01*
X59452508Y-65644594D01*
X60032425Y-65064678D01*
X60092793Y-64982882D01*
X60137646Y-64854700D01*
X60142724Y-64718990D01*
X60142723Y-64718986D01*
X60142723Y-64718984D01*
X60107575Y-64587813D01*
X60107572Y-64587808D01*
X60105672Y-64584783D01*
X60090500Y-64532116D01*
X60090500Y-64354710D01*
X60109407Y-64296519D01*
X60158907Y-64260555D01*
X60220093Y-64260555D01*
X60252303Y-64278181D01*
X60294648Y-64312932D01*
X60373547Y-64377683D01*
X60373548Y-64377683D01*
X60373550Y-64377685D01*
X60556046Y-64475232D01*
X60678538Y-64512389D01*
X60754065Y-64535300D01*
X60754070Y-64535301D01*
X60959997Y-64555583D01*
X60960000Y-64555583D01*
X60960003Y-64555583D01*
X61165929Y-64535301D01*
X61165934Y-64535300D01*
X61190408Y-64527876D01*
X61363954Y-64475232D01*
X61546450Y-64377685D01*
X61667695Y-64278181D01*
X61724672Y-64255882D01*
X61783875Y-64271330D01*
X61822690Y-64318627D01*
X61829500Y-64354710D01*
X61829500Y-64492388D01*
X61810593Y-64550579D01*
X61800503Y-64562392D01*
X61355405Y-65007489D01*
X61300889Y-65035266D01*
X61256664Y-65032222D01*
X61165934Y-65004699D01*
X61165929Y-65004698D01*
X60960003Y-64984417D01*
X60959997Y-64984417D01*
X60754070Y-65004698D01*
X60754065Y-65004699D01*
X60556045Y-65064768D01*
X60373547Y-65162316D01*
X60213595Y-65293585D01*
X60213585Y-65293595D01*
X60082316Y-65453547D01*
X59984768Y-65636045D01*
X59924699Y-65834065D01*
X59924698Y-65834070D01*
X59904417Y-66039996D01*
X59904417Y-66040003D01*
X59924698Y-66245929D01*
X59924699Y-66245934D01*
X59984768Y-66443954D01*
X60082316Y-66626452D01*
X60213585Y-66786404D01*
X60213590Y-66786410D01*
X60213595Y-66786414D01*
X60373547Y-66917683D01*
X60373548Y-66917683D01*
X60373550Y-66917685D01*
X60556046Y-67015232D01*
X60693997Y-67057078D01*
X60754065Y-67075300D01*
X60754070Y-67075301D01*
X60959997Y-67095583D01*
X60960000Y-67095583D01*
X60960003Y-67095583D01*
X61165929Y-67075301D01*
X61165934Y-67075300D01*
X61363954Y-67015232D01*
X61546450Y-66917685D01*
X61706410Y-66786410D01*
X61837685Y-66626450D01*
X61935232Y-66443954D01*
X61995300Y-66245934D01*
X61995301Y-66245929D01*
X62015583Y-66040003D01*
X62015583Y-66039996D01*
X61995301Y-65834070D01*
X61995300Y-65834065D01*
X61967777Y-65743334D01*
X61968978Y-65682161D01*
X61992511Y-65644592D01*
X62280497Y-65356607D01*
X62335013Y-65328830D01*
X62395445Y-65338401D01*
X62438710Y-65381666D01*
X62449500Y-65426611D01*
X62449500Y-66909746D01*
X62449501Y-66909758D01*
X62461132Y-66968227D01*
X62461134Y-66968233D01*
X62505445Y-67034548D01*
X62505448Y-67034552D01*
X62571769Y-67078867D01*
X62616231Y-67087711D01*
X62630241Y-67090498D01*
X62630246Y-67090498D01*
X62630252Y-67090500D01*
X62630253Y-67090500D01*
X64369747Y-67090500D01*
X64369748Y-67090500D01*
X64428231Y-67078867D01*
X64494552Y-67034552D01*
X64538867Y-66968231D01*
X64550500Y-66909748D01*
X64550500Y-65667610D01*
X64569407Y-65609419D01*
X64579490Y-65597612D01*
X65098699Y-65078402D01*
X65102830Y-65074710D01*
X65133970Y-65049879D01*
X65167480Y-65000728D01*
X65202793Y-64952882D01*
X65202796Y-64952873D01*
X65206263Y-64946316D01*
X65206655Y-64946523D01*
X65207651Y-64944550D01*
X65207252Y-64944358D01*
X65210468Y-64937677D01*
X65210472Y-64937673D01*
X65228007Y-64880822D01*
X65247646Y-64824699D01*
X65247646Y-64824696D01*
X65249026Y-64817407D01*
X65249460Y-64817489D01*
X65249831Y-64815307D01*
X65249394Y-64815242D01*
X65250500Y-64807904D01*
X65250500Y-64748441D01*
X65251232Y-64728883D01*
X65252725Y-64688990D01*
X65252723Y-64688984D01*
X65251894Y-64681616D01*
X65252331Y-64681566D01*
X65250500Y-64667652D01*
X65250500Y-60792611D01*
X65269407Y-60734420D01*
X65318907Y-60698456D01*
X65380093Y-60698456D01*
X65419501Y-60722605D01*
X65450956Y-60754060D01*
X65461495Y-60764599D01*
X65501944Y-60808194D01*
X65507743Y-60812818D01*
X65507467Y-60813163D01*
X65518600Y-60821704D01*
X66940556Y-62243660D01*
X68354504Y-63657607D01*
X68382281Y-63712124D01*
X68383500Y-63727611D01*
X68383500Y-64614913D01*
X68383189Y-64620459D01*
X68378730Y-64660034D01*
X68378730Y-64660036D01*
X68389788Y-64718479D01*
X68398652Y-64777287D01*
X68400840Y-64784381D01*
X68400417Y-64784511D01*
X68401109Y-64786613D01*
X68401526Y-64786468D01*
X68403975Y-64793468D01*
X68431777Y-64846073D01*
X68457574Y-64899641D01*
X68461753Y-64905770D01*
X68461389Y-64906017D01*
X68462677Y-64907831D01*
X68463030Y-64907571D01*
X68467431Y-64913535D01*
X68509496Y-64955600D01*
X68549944Y-64999194D01*
X68555743Y-65003818D01*
X68555467Y-65004163D01*
X68566600Y-65012704D01*
X69892596Y-66338701D01*
X69896297Y-66342842D01*
X69921121Y-66373970D01*
X69970258Y-66407471D01*
X70024087Y-66447200D01*
X70023069Y-66448578D01*
X70059370Y-66485978D01*
X70069500Y-66529603D01*
X70069500Y-66909746D01*
X70069501Y-66909758D01*
X70081132Y-66968227D01*
X70081134Y-66968233D01*
X70125445Y-67034548D01*
X70125448Y-67034552D01*
X70191769Y-67078867D01*
X70236231Y-67087711D01*
X70250241Y-67090498D01*
X70250246Y-67090498D01*
X70250252Y-67090500D01*
X70250253Y-67090500D01*
X71989747Y-67090500D01*
X71989748Y-67090500D01*
X72048231Y-67078867D01*
X72114552Y-67034552D01*
X72158867Y-66968231D01*
X72170500Y-66909748D01*
X72170500Y-65170252D01*
X72168921Y-65162316D01*
X72163294Y-65134026D01*
X72158867Y-65111769D01*
X72114552Y-65045448D01*
X72107204Y-65040538D01*
X72048233Y-65001134D01*
X72048231Y-65001133D01*
X72048228Y-65001132D01*
X72048227Y-65001132D01*
X71989758Y-64989501D01*
X71989748Y-64989500D01*
X70250252Y-64989500D01*
X70250251Y-64989500D01*
X70250241Y-64989501D01*
X70191772Y-65001132D01*
X70191766Y-65001134D01*
X70125451Y-65045445D01*
X70125447Y-65045449D01*
X70091571Y-65096148D01*
X70043520Y-65134026D01*
X69982382Y-65136428D01*
X69939252Y-65111149D01*
X69313496Y-64485393D01*
X69285719Y-64430876D01*
X69284500Y-64415389D01*
X69284500Y-63528085D01*
X69284811Y-63522538D01*
X69287350Y-63500003D01*
X69289270Y-63482965D01*
X69278211Y-63424520D01*
X69269348Y-63365713D01*
X69269346Y-63365709D01*
X69267160Y-63358622D01*
X69267582Y-63358491D01*
X69266890Y-63356388D01*
X69266474Y-63356534D01*
X69264024Y-63349533D01*
X69264023Y-63349528D01*
X69236222Y-63296927D01*
X69210425Y-63243358D01*
X69210423Y-63243356D01*
X69206247Y-63237230D01*
X69206610Y-63236982D01*
X69205324Y-63235168D01*
X69204970Y-63235430D01*
X69200566Y-63229462D01*
X69158504Y-63187400D01*
X69118059Y-63143810D01*
X69118057Y-63143809D01*
X69118055Y-63143806D01*
X69118051Y-63143803D01*
X69112259Y-63139185D01*
X69112533Y-63138840D01*
X69101400Y-63130296D01*
X66265496Y-60294392D01*
X66237719Y-60239875D01*
X66236500Y-60224388D01*
X66236500Y-59479771D01*
X66255407Y-59421580D01*
X66304907Y-59385616D01*
X66366093Y-59385616D01*
X66415593Y-59421580D01*
X66424697Y-59436819D01*
X66425574Y-59438640D01*
X66429753Y-59444770D01*
X66429389Y-59445017D01*
X66430677Y-59446831D01*
X66431030Y-59446571D01*
X66435431Y-59452535D01*
X66477496Y-59494600D01*
X66517944Y-59538194D01*
X66523743Y-59542818D01*
X66523467Y-59543163D01*
X66534600Y-59551704D01*
X70087489Y-63104592D01*
X70115266Y-63159109D01*
X70112222Y-63203333D01*
X70084701Y-63294060D01*
X70084698Y-63294075D01*
X70064417Y-63499996D01*
X70064417Y-63500003D01*
X70084698Y-63705929D01*
X70084699Y-63705934D01*
X70144768Y-63903954D01*
X70242316Y-64086452D01*
X70270499Y-64120793D01*
X70373590Y-64246410D01*
X70373595Y-64246414D01*
X70533547Y-64377683D01*
X70533548Y-64377683D01*
X70533550Y-64377685D01*
X70716046Y-64475232D01*
X70838538Y-64512389D01*
X70914065Y-64535300D01*
X70914070Y-64535301D01*
X71119997Y-64555583D01*
X71120000Y-64555583D01*
X71120003Y-64555583D01*
X71325929Y-64535301D01*
X71325934Y-64535300D01*
X71350408Y-64527876D01*
X71523954Y-64475232D01*
X71706450Y-64377685D01*
X71866410Y-64246410D01*
X71997685Y-64086450D01*
X72095232Y-63903954D01*
X72155300Y-63705934D01*
X72155301Y-63705929D01*
X72175583Y-63500003D01*
X72175583Y-63499996D01*
X72155301Y-63294070D01*
X72155300Y-63294065D01*
X72123768Y-63190119D01*
X72095232Y-63096046D01*
X71997685Y-62913550D01*
X71971822Y-62882036D01*
X71866414Y-62753595D01*
X71866410Y-62753590D01*
X71829174Y-62723031D01*
X71706452Y-62622316D01*
X71523954Y-62524768D01*
X71325934Y-62464699D01*
X71325929Y-62464698D01*
X71120003Y-62444417D01*
X71119997Y-62444417D01*
X70914075Y-62464698D01*
X70914060Y-62464701D01*
X70823333Y-62492222D01*
X70762159Y-62491020D01*
X70724592Y-62467489D01*
X67281496Y-59024393D01*
X67253719Y-58969876D01*
X67252500Y-58954389D01*
X67252500Y-57955771D01*
X67271407Y-57897580D01*
X67320907Y-57861616D01*
X67382093Y-57861616D01*
X67431593Y-57897580D01*
X67440697Y-57912819D01*
X67441574Y-57914640D01*
X67445753Y-57920770D01*
X67445389Y-57921017D01*
X67446677Y-57922831D01*
X67447030Y-57922571D01*
X67451431Y-57928535D01*
X67493495Y-57970599D01*
X67533944Y-58014194D01*
X67539743Y-58018818D01*
X67539467Y-58019163D01*
X67550600Y-58027704D01*
X68820581Y-59297685D01*
X70087489Y-60564592D01*
X70115266Y-60619109D01*
X70112222Y-60663333D01*
X70084701Y-60754060D01*
X70084698Y-60754075D01*
X70064417Y-60959996D01*
X70064417Y-60960003D01*
X70084698Y-61165929D01*
X70084699Y-61165934D01*
X70144768Y-61363954D01*
X70242316Y-61546452D01*
X70373585Y-61706404D01*
X70373590Y-61706410D01*
X70373595Y-61706414D01*
X70533547Y-61837683D01*
X70533548Y-61837683D01*
X70533550Y-61837685D01*
X70716046Y-61935232D01*
X70853997Y-61977078D01*
X70914065Y-61995300D01*
X70914070Y-61995301D01*
X71119997Y-62015583D01*
X71120000Y-62015583D01*
X71120003Y-62015583D01*
X71325929Y-61995301D01*
X71325934Y-61995300D01*
X71523954Y-61935232D01*
X71706450Y-61837685D01*
X71866410Y-61706410D01*
X71997685Y-61546450D01*
X72095232Y-61363954D01*
X72155300Y-61165934D01*
X72155301Y-61165929D01*
X72175583Y-60960003D01*
X72175583Y-60959996D01*
X72155301Y-60754070D01*
X72155300Y-60754065D01*
X72123633Y-60649673D01*
X72095232Y-60556046D01*
X71997685Y-60373550D01*
X71989991Y-60364175D01*
X71866414Y-60213595D01*
X71866410Y-60213590D01*
X71866404Y-60213585D01*
X71706452Y-60082316D01*
X71523954Y-59984768D01*
X71325934Y-59924699D01*
X71325929Y-59924698D01*
X71120003Y-59904417D01*
X71119997Y-59904417D01*
X70914075Y-59924698D01*
X70914060Y-59924701D01*
X70823333Y-59952222D01*
X70762159Y-59951020D01*
X70724592Y-59927489D01*
X68297496Y-57500393D01*
X68269719Y-57445876D01*
X68268500Y-57430389D01*
X68268500Y-56431771D01*
X68287407Y-56373580D01*
X68336907Y-56337616D01*
X68398093Y-56337616D01*
X68447593Y-56373580D01*
X68456697Y-56388819D01*
X68457574Y-56390640D01*
X68461753Y-56396770D01*
X68461389Y-56397017D01*
X68462677Y-56398831D01*
X68463030Y-56398571D01*
X68467431Y-56404535D01*
X68509495Y-56446599D01*
X68549944Y-56490194D01*
X68555743Y-56494818D01*
X68555467Y-56495163D01*
X68566600Y-56503704D01*
X70087489Y-58024592D01*
X70115266Y-58079109D01*
X70112222Y-58123333D01*
X70084701Y-58214060D01*
X70084698Y-58214075D01*
X70064417Y-58419996D01*
X70064417Y-58420003D01*
X70084698Y-58625929D01*
X70084699Y-58625934D01*
X70144768Y-58823954D01*
X70242316Y-59006452D01*
X70365620Y-59156699D01*
X70373590Y-59166410D01*
X70373595Y-59166414D01*
X70533547Y-59297683D01*
X70533548Y-59297683D01*
X70533550Y-59297685D01*
X70716046Y-59395232D01*
X70853142Y-59436819D01*
X70914065Y-59455300D01*
X70914070Y-59455301D01*
X71119997Y-59475583D01*
X71120000Y-59475583D01*
X71120003Y-59475583D01*
X71325929Y-59455301D01*
X71325934Y-59455300D01*
X71335049Y-59452535D01*
X71523954Y-59395232D01*
X71706450Y-59297685D01*
X71866410Y-59166410D01*
X71997685Y-59006450D01*
X72095232Y-58823954D01*
X72155300Y-58625934D01*
X72155301Y-58625929D01*
X72175583Y-58420003D01*
X72175583Y-58419996D01*
X72155301Y-58214070D01*
X72155300Y-58214065D01*
X72123633Y-58109673D01*
X72095232Y-58016046D01*
X71997685Y-57833550D01*
X71986078Y-57819407D01*
X71866414Y-57673595D01*
X71866410Y-57673590D01*
X71816584Y-57632699D01*
X71706452Y-57542316D01*
X71523954Y-57444768D01*
X71325934Y-57384699D01*
X71325929Y-57384698D01*
X71120003Y-57364417D01*
X71119997Y-57364417D01*
X70914075Y-57384698D01*
X70914060Y-57384701D01*
X70823333Y-57412222D01*
X70762159Y-57411020D01*
X70724592Y-57387489D01*
X69313496Y-55976393D01*
X69285719Y-55921876D01*
X69284500Y-55906389D01*
X69284500Y-55485413D01*
X69284811Y-55479866D01*
X69285046Y-55477783D01*
X69289270Y-55440293D01*
X69278211Y-55381848D01*
X69269348Y-55323041D01*
X69269346Y-55323037D01*
X69267160Y-55315950D01*
X69267582Y-55315819D01*
X69266890Y-55313716D01*
X69266474Y-55313862D01*
X69264022Y-55306854D01*
X69236226Y-55254264D01*
X69210423Y-55200682D01*
X69206244Y-55194553D01*
X69206607Y-55194305D01*
X69205324Y-55192497D01*
X69204970Y-55192759D01*
X69200567Y-55186793D01*
X69200566Y-55186792D01*
X69200565Y-55186790D01*
X69158516Y-55144741D01*
X69148174Y-55133595D01*
X69118056Y-55101134D01*
X69112258Y-55096511D01*
X69112532Y-55096167D01*
X69101397Y-55087622D01*
X64515074Y-50501298D01*
X64511372Y-50497155D01*
X64486551Y-50466030D01*
X64437400Y-50432519D01*
X64389554Y-50397207D01*
X64389551Y-50397205D01*
X64382994Y-50393740D01*
X64383198Y-50393352D01*
X64381216Y-50392352D01*
X64381027Y-50392746D01*
X64367659Y-50386308D01*
X64368327Y-50384919D01*
X64325252Y-50354593D01*
X64307373Y-50314534D01*
X64298867Y-50271769D01*
X64264274Y-50219999D01*
X64247667Y-50161115D01*
X64264274Y-50110001D01*
X64298867Y-50058231D01*
X64298868Y-50058224D01*
X64302597Y-50049224D01*
X64304236Y-50049903D01*
X64328371Y-50006805D01*
X64383935Y-49981187D01*
X64395575Y-49980500D01*
X64542388Y-49980500D01*
X64600579Y-49999407D01*
X64612392Y-50009496D01*
X70087489Y-55484592D01*
X70115266Y-55539109D01*
X70112222Y-55583333D01*
X70084701Y-55674060D01*
X70084698Y-55674075D01*
X70064417Y-55879996D01*
X70064417Y-55880003D01*
X70084698Y-56085929D01*
X70084699Y-56085934D01*
X70144768Y-56283954D01*
X70242316Y-56466452D01*
X70369779Y-56621766D01*
X70373590Y-56626410D01*
X70373595Y-56626414D01*
X70533547Y-56757683D01*
X70533548Y-56757683D01*
X70533550Y-56757685D01*
X70716046Y-56855232D01*
X70853997Y-56897078D01*
X70914065Y-56915300D01*
X70914070Y-56915301D01*
X71119997Y-56935583D01*
X71120000Y-56935583D01*
X71120003Y-56935583D01*
X71325929Y-56915301D01*
X71325934Y-56915300D01*
X71523954Y-56855232D01*
X71706450Y-56757685D01*
X71866410Y-56626410D01*
X71997685Y-56466450D01*
X72095232Y-56283954D01*
X72155300Y-56085934D01*
X72155301Y-56085929D01*
X72175583Y-55880003D01*
X72175583Y-55879996D01*
X72155301Y-55674070D01*
X72155300Y-55674065D01*
X72117631Y-55549886D01*
X72095232Y-55476046D01*
X71997685Y-55293550D01*
X71961030Y-55248886D01*
X71866414Y-55133595D01*
X71866410Y-55133590D01*
X71819064Y-55094734D01*
X71706452Y-55002316D01*
X71523954Y-54904768D01*
X71325934Y-54844699D01*
X71325929Y-54844698D01*
X71120003Y-54824417D01*
X71119997Y-54824417D01*
X70914075Y-54844698D01*
X70914060Y-54844701D01*
X70823333Y-54872222D01*
X70762159Y-54871020D01*
X70724592Y-54847489D01*
X65108402Y-49231298D01*
X65104700Y-49227155D01*
X65079879Y-49196030D01*
X65030728Y-49162519D01*
X64982882Y-49127207D01*
X64982879Y-49127205D01*
X64976322Y-49123740D01*
X64976526Y-49123352D01*
X64974544Y-49122352D01*
X64974355Y-49122746D01*
X64967673Y-49119528D01*
X64910822Y-49101992D01*
X64854700Y-49082354D01*
X64847414Y-49080976D01*
X64847495Y-49080544D01*
X64845302Y-49080171D01*
X64845237Y-49080605D01*
X64837903Y-49079500D01*
X64837902Y-49079500D01*
X64778427Y-49079500D01*
X64758614Y-49078758D01*
X64718990Y-49077276D01*
X64718989Y-49077276D01*
X64718988Y-49077276D01*
X64711615Y-49078107D01*
X64711565Y-49077668D01*
X64697656Y-49079500D01*
X64395575Y-49079500D01*
X64337384Y-49060593D01*
X64301420Y-49011093D01*
X64299192Y-49002557D01*
X64298867Y-49001773D01*
X64298867Y-49001769D01*
X64264274Y-48949999D01*
X64247667Y-48891115D01*
X64264274Y-48840001D01*
X64298867Y-48788231D01*
X64310500Y-48729748D01*
X64310500Y-47790252D01*
X64298867Y-47731769D01*
X64264274Y-47679999D01*
X64247667Y-47621115D01*
X64264274Y-47570001D01*
X64298867Y-47518231D01*
X64298868Y-47518224D01*
X64302597Y-47509224D01*
X64304236Y-47509903D01*
X64328371Y-47466805D01*
X64383935Y-47441187D01*
X64395575Y-47440500D01*
X64542388Y-47440500D01*
X64600579Y-47459407D01*
X64612392Y-47469496D01*
X67355133Y-50212237D01*
X70087489Y-52944592D01*
X70115266Y-52999109D01*
X70112222Y-53043333D01*
X70084701Y-53134060D01*
X70084698Y-53134075D01*
X70064417Y-53339996D01*
X70064417Y-53340003D01*
X70084698Y-53545929D01*
X70084699Y-53545934D01*
X70144768Y-53743954D01*
X70242316Y-53926452D01*
X70315353Y-54015448D01*
X70373590Y-54086410D01*
X70373595Y-54086414D01*
X70533547Y-54217683D01*
X70533548Y-54217683D01*
X70533550Y-54217685D01*
X70716046Y-54315232D01*
X70828259Y-54349271D01*
X70914065Y-54375300D01*
X70914070Y-54375301D01*
X71119997Y-54395583D01*
X71120000Y-54395583D01*
X71120003Y-54395583D01*
X71325929Y-54375301D01*
X71325934Y-54375300D01*
X71523954Y-54315232D01*
X71706450Y-54217685D01*
X71866410Y-54086410D01*
X71997685Y-53926450D01*
X72095232Y-53743954D01*
X72155300Y-53545934D01*
X72155301Y-53545929D01*
X72175583Y-53340003D01*
X72175583Y-53339996D01*
X72155301Y-53134070D01*
X72155300Y-53134065D01*
X72133860Y-53063388D01*
X72095232Y-52936046D01*
X71997685Y-52753550D01*
X71961030Y-52708886D01*
X71866414Y-52593595D01*
X71866410Y-52593590D01*
X71812681Y-52549496D01*
X71706452Y-52462316D01*
X71523954Y-52364768D01*
X71325934Y-52304699D01*
X71325929Y-52304698D01*
X71120003Y-52284417D01*
X71119997Y-52284417D01*
X70914075Y-52304698D01*
X70914060Y-52304701D01*
X70823333Y-52332222D01*
X70762159Y-52331020D01*
X70724592Y-52307489D01*
X65108402Y-46691298D01*
X65104700Y-46687155D01*
X65079879Y-46656030D01*
X65030728Y-46622519D01*
X64982882Y-46587207D01*
X64982879Y-46587205D01*
X64976322Y-46583740D01*
X64976526Y-46583352D01*
X64974544Y-46582352D01*
X64974355Y-46582746D01*
X64967673Y-46579528D01*
X64910822Y-46561992D01*
X64854700Y-46542354D01*
X64847414Y-46540976D01*
X64847495Y-46540544D01*
X64845302Y-46540171D01*
X64845237Y-46540605D01*
X64837903Y-46539500D01*
X64837902Y-46539500D01*
X64778427Y-46539500D01*
X64758614Y-46538758D01*
X64718990Y-46537276D01*
X64718989Y-46537276D01*
X64718988Y-46537276D01*
X64711615Y-46538107D01*
X64711565Y-46537668D01*
X64697656Y-46539500D01*
X64395575Y-46539500D01*
X64337384Y-46520593D01*
X64301420Y-46471093D01*
X64299192Y-46462557D01*
X64298867Y-46461773D01*
X64298867Y-46461769D01*
X64264274Y-46409999D01*
X64247667Y-46351115D01*
X64264274Y-46300001D01*
X64298867Y-46248231D01*
X64298868Y-46248224D01*
X64302597Y-46239224D01*
X64304236Y-46239903D01*
X64328371Y-46196805D01*
X64383935Y-46171187D01*
X64395575Y-46170500D01*
X65812388Y-46170500D01*
X65870579Y-46189407D01*
X65882392Y-46199496D01*
X70087489Y-50404592D01*
X70115266Y-50459109D01*
X70112222Y-50503333D01*
X70084701Y-50594060D01*
X70084698Y-50594075D01*
X70064417Y-50799996D01*
X70064417Y-50800003D01*
X70084698Y-51005929D01*
X70084699Y-51005934D01*
X70144768Y-51203954D01*
X70242316Y-51386452D01*
X70368689Y-51540438D01*
X70373590Y-51546410D01*
X70378910Y-51550776D01*
X70533547Y-51677683D01*
X70533548Y-51677683D01*
X70533550Y-51677685D01*
X70716046Y-51775232D01*
X70853997Y-51817078D01*
X70914065Y-51835300D01*
X70914070Y-51835301D01*
X71119997Y-51855583D01*
X71120000Y-51855583D01*
X71120003Y-51855583D01*
X71325929Y-51835301D01*
X71325934Y-51835300D01*
X71523954Y-51775232D01*
X71706450Y-51677685D01*
X71866410Y-51546410D01*
X71997685Y-51386450D01*
X72095232Y-51203954D01*
X72155300Y-51005934D01*
X72155301Y-51005929D01*
X72175583Y-50800003D01*
X72175583Y-50799996D01*
X72155301Y-50594070D01*
X72155300Y-50594065D01*
X72133860Y-50523388D01*
X72095232Y-50396046D01*
X71997685Y-50213550D01*
X71996607Y-50212237D01*
X71866414Y-50053595D01*
X71866410Y-50053590D01*
X71809402Y-50006805D01*
X71706452Y-49922316D01*
X71523954Y-49824768D01*
X71325934Y-49764699D01*
X71325929Y-49764698D01*
X71120003Y-49744417D01*
X71119997Y-49744417D01*
X70914070Y-49764698D01*
X70914065Y-49764699D01*
X70823335Y-49792222D01*
X70762161Y-49791021D01*
X70724593Y-49767489D01*
X66378402Y-45421298D01*
X66374700Y-45417155D01*
X66349879Y-45386030D01*
X66300728Y-45352519D01*
X66252882Y-45317207D01*
X66252879Y-45317205D01*
X66246322Y-45313740D01*
X66246526Y-45313352D01*
X66244544Y-45312352D01*
X66244355Y-45312746D01*
X66237673Y-45309528D01*
X66180822Y-45291992D01*
X66124700Y-45272354D01*
X66117414Y-45270976D01*
X66117495Y-45270544D01*
X66115302Y-45270171D01*
X66115237Y-45270605D01*
X66107903Y-45269500D01*
X66107902Y-45269500D01*
X66048427Y-45269500D01*
X66015848Y-45268281D01*
X65988990Y-45267276D01*
X65988989Y-45267276D01*
X65988988Y-45267276D01*
X65981615Y-45268107D01*
X65981565Y-45267668D01*
X65967656Y-45269500D01*
X64395575Y-45269500D01*
X64337384Y-45250593D01*
X64301420Y-45201093D01*
X64299192Y-45192557D01*
X64298867Y-45191773D01*
X64298867Y-45191769D01*
X64264274Y-45139999D01*
X64247667Y-45081115D01*
X64264274Y-45030001D01*
X64298867Y-44978231D01*
X64298868Y-44978224D01*
X64302597Y-44969224D01*
X64304236Y-44969903D01*
X64328371Y-44926805D01*
X64383935Y-44901187D01*
X64395575Y-44900500D01*
X67082388Y-44900500D01*
X67140579Y-44919407D01*
X67152392Y-44929496D01*
X70087489Y-47864592D01*
X70115266Y-47919109D01*
X70112222Y-47963333D01*
X70084701Y-48054060D01*
X70084698Y-48054075D01*
X70064417Y-48259996D01*
X70064417Y-48260003D01*
X70084698Y-48465929D01*
X70084699Y-48465934D01*
X70144768Y-48663954D01*
X70242316Y-48846452D01*
X70368689Y-49000438D01*
X70373590Y-49006410D01*
X70378910Y-49010776D01*
X70533547Y-49137683D01*
X70533548Y-49137683D01*
X70533550Y-49137685D01*
X70716046Y-49235232D01*
X70853997Y-49277078D01*
X70914065Y-49295300D01*
X70914070Y-49295301D01*
X71119997Y-49315583D01*
X71120000Y-49315583D01*
X71120003Y-49315583D01*
X71325929Y-49295301D01*
X71325934Y-49295300D01*
X71523954Y-49235232D01*
X71706450Y-49137685D01*
X71866410Y-49006410D01*
X71997685Y-48846450D01*
X72095232Y-48663954D01*
X72155300Y-48465934D01*
X72155301Y-48465929D01*
X72175583Y-48260003D01*
X72175583Y-48259996D01*
X72155301Y-48054070D01*
X72155300Y-48054065D01*
X72133279Y-47981472D01*
X72095232Y-47856046D01*
X71997685Y-47673550D01*
X71961030Y-47628886D01*
X71866414Y-47513595D01*
X71866410Y-47513590D01*
X71809402Y-47466805D01*
X71706452Y-47382316D01*
X71523954Y-47284768D01*
X71325934Y-47224699D01*
X71325929Y-47224698D01*
X71120003Y-47204417D01*
X71119997Y-47204417D01*
X70914075Y-47224698D01*
X70914060Y-47224701D01*
X70823333Y-47252222D01*
X70762159Y-47251020D01*
X70724592Y-47227489D01*
X67648402Y-44151298D01*
X67644700Y-44147155D01*
X67619879Y-44116030D01*
X67570728Y-44082519D01*
X67522882Y-44047207D01*
X67522879Y-44047205D01*
X67516322Y-44043740D01*
X67516526Y-44043352D01*
X67514544Y-44042352D01*
X67514355Y-44042746D01*
X67507673Y-44039528D01*
X67450822Y-44021992D01*
X67394700Y-44002354D01*
X67387414Y-44000976D01*
X67387495Y-44000544D01*
X67385302Y-44000171D01*
X67385237Y-44000605D01*
X67377903Y-43999500D01*
X67377902Y-43999500D01*
X67318427Y-43999500D01*
X67298614Y-43998758D01*
X67258990Y-43997276D01*
X67258989Y-43997276D01*
X67258988Y-43997276D01*
X67251615Y-43998107D01*
X67251565Y-43997668D01*
X67237656Y-43999500D01*
X64395575Y-43999500D01*
X64337384Y-43980593D01*
X64301420Y-43931093D01*
X64299192Y-43922557D01*
X64298867Y-43921773D01*
X64298867Y-43921769D01*
X64264274Y-43869999D01*
X64247667Y-43811115D01*
X64264274Y-43760001D01*
X64298867Y-43708231D01*
X64298868Y-43708224D01*
X64302597Y-43699224D01*
X64304236Y-43699903D01*
X64328371Y-43656805D01*
X64383935Y-43631187D01*
X64395575Y-43630500D01*
X68352388Y-43630500D01*
X68410579Y-43649407D01*
X68422392Y-43659496D01*
X70087489Y-45324593D01*
X70115266Y-45379110D01*
X70112222Y-45423335D01*
X70084699Y-45514065D01*
X70084698Y-45514070D01*
X70064417Y-45719996D01*
X70064417Y-45720003D01*
X70084698Y-45925929D01*
X70084699Y-45925934D01*
X70144768Y-46123954D01*
X70242316Y-46306452D01*
X70315353Y-46395448D01*
X70373590Y-46466410D01*
X70378910Y-46470776D01*
X70533547Y-46597683D01*
X70533548Y-46597683D01*
X70533550Y-46597685D01*
X70716046Y-46695232D01*
X70853997Y-46737078D01*
X70914065Y-46755300D01*
X70914070Y-46755301D01*
X71119997Y-46775583D01*
X71120000Y-46775583D01*
X71120003Y-46775583D01*
X71325929Y-46755301D01*
X71325934Y-46755300D01*
X71523954Y-46695232D01*
X71706450Y-46597685D01*
X71866410Y-46466410D01*
X71997685Y-46306450D01*
X72095232Y-46123954D01*
X72155300Y-45925934D01*
X72155301Y-45925929D01*
X72175583Y-45720003D01*
X72175583Y-45719996D01*
X72155301Y-45514070D01*
X72155300Y-45514065D01*
X72133278Y-45441469D01*
X72095232Y-45316046D01*
X71997685Y-45133550D01*
X71961030Y-45088886D01*
X71866414Y-44973595D01*
X71866410Y-44973590D01*
X71809402Y-44926805D01*
X71706452Y-44842316D01*
X71523954Y-44744768D01*
X71325934Y-44684699D01*
X71325929Y-44684698D01*
X71120003Y-44664417D01*
X71119997Y-44664417D01*
X70914075Y-44684698D01*
X70914060Y-44684701D01*
X70823333Y-44712222D01*
X70762159Y-44711020D01*
X70724592Y-44687489D01*
X68918402Y-42881298D01*
X68914700Y-42877155D01*
X68889879Y-42846030D01*
X68840728Y-42812519D01*
X68792882Y-42777207D01*
X68792879Y-42777205D01*
X68786322Y-42773740D01*
X68786526Y-42773352D01*
X68784544Y-42772352D01*
X68784355Y-42772746D01*
X68777673Y-42769528D01*
X68720822Y-42751992D01*
X68664700Y-42732354D01*
X68657414Y-42730976D01*
X68657495Y-42730544D01*
X68655302Y-42730171D01*
X68655237Y-42730605D01*
X68647903Y-42729500D01*
X68647902Y-42729500D01*
X68588427Y-42729500D01*
X68555848Y-42728281D01*
X68528990Y-42727276D01*
X68528989Y-42727276D01*
X68528988Y-42727276D01*
X68521615Y-42728107D01*
X68521565Y-42727668D01*
X68507656Y-42729500D01*
X64395575Y-42729500D01*
X64337384Y-42710593D01*
X64301420Y-42661093D01*
X64299192Y-42652557D01*
X64298867Y-42651773D01*
X64298867Y-42651769D01*
X64264274Y-42599999D01*
X64247667Y-42541115D01*
X64264274Y-42490001D01*
X64298867Y-42438231D01*
X64298868Y-42438224D01*
X64302597Y-42429224D01*
X64304236Y-42429903D01*
X64328371Y-42386805D01*
X64383935Y-42361187D01*
X64395575Y-42360500D01*
X69622388Y-42360500D01*
X69680579Y-42379407D01*
X69692392Y-42389496D01*
X70087489Y-42784593D01*
X70115266Y-42839110D01*
X70112222Y-42883335D01*
X70084699Y-42974065D01*
X70084698Y-42974070D01*
X70064417Y-43179996D01*
X70064417Y-43180003D01*
X70084698Y-43385929D01*
X70084699Y-43385934D01*
X70144768Y-43583954D01*
X70242316Y-43766452D01*
X70315353Y-43855448D01*
X70373590Y-43926410D01*
X70378910Y-43930776D01*
X70533547Y-44057683D01*
X70533548Y-44057683D01*
X70533550Y-44057685D01*
X70716046Y-44155232D01*
X70853997Y-44197078D01*
X70914065Y-44215300D01*
X70914070Y-44215301D01*
X71119997Y-44235583D01*
X71120000Y-44235583D01*
X71120003Y-44235583D01*
X71325929Y-44215301D01*
X71325934Y-44215300D01*
X71523954Y-44155232D01*
X71706450Y-44057685D01*
X71866410Y-43926410D01*
X71997685Y-43766450D01*
X72095232Y-43583954D01*
X72155300Y-43385934D01*
X72155301Y-43385929D01*
X72175583Y-43180003D01*
X72175583Y-43179996D01*
X72155301Y-42974070D01*
X72155300Y-42974065D01*
X72106296Y-42812520D01*
X72095232Y-42776046D01*
X71997685Y-42593550D01*
X71981230Y-42573500D01*
X71870215Y-42438227D01*
X71866410Y-42433590D01*
X71809402Y-42386805D01*
X71706452Y-42302316D01*
X71523954Y-42204768D01*
X71325934Y-42144699D01*
X71325929Y-42144698D01*
X71120003Y-42124417D01*
X71119997Y-42124417D01*
X70914075Y-42144698D01*
X70914060Y-42144701D01*
X70823333Y-42172222D01*
X70762159Y-42171020D01*
X70724592Y-42147489D01*
X70188402Y-41611298D01*
X70184700Y-41607155D01*
X70159879Y-41576030D01*
X70110728Y-41542519D01*
X70062882Y-41507207D01*
X70062879Y-41507205D01*
X70056322Y-41503740D01*
X70056526Y-41503352D01*
X70054544Y-41502352D01*
X70054355Y-41502746D01*
X70047673Y-41499528D01*
X69990822Y-41481992D01*
X69934700Y-41462354D01*
X69927414Y-41460976D01*
X69927495Y-41460544D01*
X69925302Y-41460171D01*
X69925237Y-41460605D01*
X69917903Y-41459500D01*
X69917902Y-41459500D01*
X69858427Y-41459500D01*
X69838614Y-41458758D01*
X69798990Y-41457276D01*
X69798989Y-41457276D01*
X69798988Y-41457276D01*
X69791615Y-41458107D01*
X69791565Y-41457668D01*
X69777656Y-41459500D01*
X64395575Y-41459500D01*
X64337384Y-41440593D01*
X64301420Y-41391093D01*
X64299192Y-41382557D01*
X64298867Y-41381772D01*
X64298867Y-41381769D01*
X64254552Y-41315448D01*
X64254548Y-41315445D01*
X64188233Y-41271134D01*
X64188231Y-41271133D01*
X64188228Y-41271132D01*
X64188227Y-41271132D01*
X64129758Y-41259501D01*
X64129748Y-41259500D01*
X62590252Y-41259500D01*
X62590251Y-41259500D01*
X62590241Y-41259501D01*
X62531772Y-41271132D01*
X62531766Y-41271134D01*
X62465451Y-41315445D01*
X62465445Y-41315451D01*
X62421134Y-41381766D01*
X62421132Y-41381772D01*
X62409501Y-41440241D01*
X62409500Y-41440253D01*
X62409500Y-42379746D01*
X62409501Y-42379758D01*
X62421132Y-42438227D01*
X62421134Y-42438233D01*
X62455723Y-42489998D01*
X62472332Y-42548886D01*
X62455723Y-42600002D01*
X62421134Y-42651766D01*
X62421132Y-42651772D01*
X62409501Y-42710241D01*
X62409500Y-42710253D01*
X62409500Y-43649746D01*
X62409501Y-43649758D01*
X62421132Y-43708227D01*
X62421134Y-43708233D01*
X62455723Y-43759998D01*
X62472332Y-43818886D01*
X62455723Y-43870002D01*
X62421134Y-43921766D01*
X62421132Y-43921772D01*
X62409501Y-43980241D01*
X62409500Y-43980253D01*
X62409500Y-44919746D01*
X62409501Y-44919758D01*
X62421132Y-44978227D01*
X62421134Y-44978233D01*
X62455723Y-45029998D01*
X62472332Y-45088886D01*
X62455723Y-45140002D01*
X62421134Y-45191766D01*
X62421132Y-45191772D01*
X62409501Y-45250241D01*
X62409500Y-45250253D01*
X62409500Y-46189746D01*
X62409501Y-46189758D01*
X62421132Y-46248227D01*
X62421134Y-46248233D01*
X62455723Y-46299998D01*
X62472332Y-46358886D01*
X62455723Y-46410002D01*
X62421134Y-46461766D01*
X62421132Y-46461772D01*
X62409501Y-46520241D01*
X62409500Y-46520253D01*
X62409500Y-47459746D01*
X62409501Y-47459758D01*
X62421132Y-47518227D01*
X62421134Y-47518233D01*
X62455723Y-47569998D01*
X62472332Y-47628886D01*
X62455723Y-47680002D01*
X62421134Y-47731766D01*
X62421132Y-47731772D01*
X62409501Y-47790241D01*
X62409500Y-47790253D01*
X62409500Y-48729746D01*
X62409501Y-48729758D01*
X62421132Y-48788227D01*
X62421134Y-48788233D01*
X62455723Y-48839998D01*
X62472332Y-48898886D01*
X62455723Y-48950002D01*
X62421134Y-49001766D01*
X62421132Y-49001772D01*
X62409501Y-49060241D01*
X62409500Y-49060253D01*
X62409500Y-49999746D01*
X62409501Y-49999758D01*
X62421132Y-50058227D01*
X62421134Y-50058233D01*
X62455723Y-50109998D01*
X62472332Y-50168886D01*
X62455723Y-50220002D01*
X62421134Y-50271766D01*
X62421132Y-50271772D01*
X62409501Y-50330241D01*
X62409500Y-50330253D01*
X62409500Y-51269746D01*
X62409501Y-51269758D01*
X62421132Y-51328227D01*
X62421134Y-51328233D01*
X62455723Y-51379998D01*
X62472332Y-51438886D01*
X62455723Y-51490002D01*
X62421134Y-51541766D01*
X62421132Y-51541772D01*
X62409501Y-51600241D01*
X62409500Y-51600253D01*
X62409500Y-52539746D01*
X62409501Y-52539758D01*
X62421132Y-52598227D01*
X62421134Y-52598233D01*
X62455723Y-52649998D01*
X62472332Y-52708886D01*
X62455723Y-52760002D01*
X62421134Y-52811766D01*
X62421132Y-52811772D01*
X62409501Y-52870241D01*
X62409500Y-52870253D01*
X62409500Y-53809746D01*
X62409501Y-53809758D01*
X62421132Y-53868227D01*
X62421134Y-53868233D01*
X62455723Y-53919998D01*
X62472332Y-53978886D01*
X62455723Y-54030002D01*
X62421134Y-54081766D01*
X62421132Y-54081772D01*
X62409501Y-54140241D01*
X62409500Y-54140253D01*
X62409500Y-55079746D01*
X62409501Y-55079758D01*
X62421132Y-55138227D01*
X62421134Y-55138233D01*
X62455723Y-55189998D01*
X62472332Y-55248886D01*
X62455723Y-55300002D01*
X62421134Y-55351766D01*
X62421132Y-55351772D01*
X62409501Y-55410241D01*
X62409500Y-55410253D01*
X62409500Y-56349746D01*
X62409501Y-56349758D01*
X62421132Y-56408227D01*
X62421134Y-56408233D01*
X62455723Y-56459998D01*
X62472332Y-56518886D01*
X62455723Y-56570002D01*
X62421134Y-56621766D01*
X62421132Y-56621772D01*
X62409501Y-56680241D01*
X62409500Y-56680253D01*
X62409500Y-57619746D01*
X62409501Y-57619758D01*
X62421132Y-57678227D01*
X62421134Y-57678233D01*
X62465445Y-57744548D01*
X62465448Y-57744552D01*
X62531769Y-57788867D01*
X62576231Y-57797711D01*
X62590241Y-57800498D01*
X62590246Y-57800498D01*
X62590252Y-57800500D01*
X62950500Y-57800500D01*
X63008691Y-57819407D01*
X63044655Y-57868907D01*
X63049500Y-57899500D01*
X63049500Y-62490309D01*
X63030593Y-62548500D01*
X62997169Y-62577619D01*
X62913551Y-62622314D01*
X62792304Y-62721818D01*
X62735327Y-62744117D01*
X62676125Y-62728668D01*
X62637309Y-62681371D01*
X62630500Y-62645289D01*
X62630500Y-62459256D01*
X62638760Y-62419667D01*
X62642023Y-62412188D01*
X62670065Y-62347916D01*
X62685270Y-62212965D01*
X62660024Y-62079528D01*
X62596566Y-61959462D01*
X60804496Y-60167392D01*
X60776719Y-60112875D01*
X60775500Y-60097388D01*
X60775500Y-59280575D01*
X60794407Y-59222384D01*
X60843907Y-59186420D01*
X60852442Y-59184192D01*
X60853225Y-59183868D01*
X60853231Y-59183867D01*
X60919552Y-59139552D01*
X60963867Y-59073231D01*
X60975500Y-59014748D01*
X60975500Y-57475252D01*
X60963867Y-57416769D01*
X60919552Y-57350448D01*
X60904998Y-57340723D01*
X60853233Y-57306134D01*
X60853231Y-57306133D01*
X60853228Y-57306132D01*
X60853227Y-57306132D01*
X60794758Y-57294501D01*
X60794748Y-57294500D01*
X59855252Y-57294500D01*
X59855251Y-57294500D01*
X59855241Y-57294501D01*
X59796772Y-57306132D01*
X59796766Y-57306134D01*
X59745002Y-57340723D01*
X59686114Y-57357332D01*
X59634998Y-57340723D01*
X59583233Y-57306134D01*
X59583231Y-57306133D01*
X59583228Y-57306132D01*
X59583227Y-57306132D01*
X59524758Y-57294501D01*
X59524748Y-57294500D01*
X58585252Y-57294500D01*
X58585251Y-57294500D01*
X58585241Y-57294501D01*
X58526772Y-57306132D01*
X58526766Y-57306134D01*
X58475002Y-57340723D01*
X58416114Y-57357332D01*
X58364998Y-57340723D01*
X58313233Y-57306134D01*
X58313231Y-57306133D01*
X58313228Y-57306132D01*
X58313227Y-57306132D01*
X58254758Y-57294501D01*
X58254748Y-57294500D01*
X57315252Y-57294500D01*
X57315251Y-57294500D01*
X57315241Y-57294501D01*
X57256772Y-57306132D01*
X57256766Y-57306134D01*
X57205002Y-57340723D01*
X57146114Y-57357332D01*
X57094998Y-57340723D01*
X57043233Y-57306134D01*
X57043231Y-57306133D01*
X57043228Y-57306132D01*
X57043227Y-57306132D01*
X56984758Y-57294501D01*
X56984748Y-57294500D01*
X56045252Y-57294500D01*
X56045251Y-57294500D01*
X56045241Y-57294501D01*
X55986772Y-57306132D01*
X55986766Y-57306134D01*
X55935002Y-57340723D01*
X55876114Y-57357332D01*
X55824998Y-57340723D01*
X55773233Y-57306134D01*
X55773231Y-57306133D01*
X55773228Y-57306132D01*
X55773227Y-57306132D01*
X55714758Y-57294501D01*
X55714748Y-57294500D01*
X54775252Y-57294500D01*
X54775251Y-57294500D01*
X54775241Y-57294501D01*
X54716772Y-57306132D01*
X54716766Y-57306134D01*
X54665002Y-57340723D01*
X54606114Y-57357332D01*
X54554998Y-57340723D01*
X54503233Y-57306134D01*
X54503231Y-57306133D01*
X54503228Y-57306132D01*
X54503227Y-57306132D01*
X54444758Y-57294501D01*
X54444748Y-57294500D01*
X53505252Y-57294500D01*
X53505251Y-57294500D01*
X53505241Y-57294501D01*
X53446772Y-57306132D01*
X53446766Y-57306134D01*
X53395002Y-57340723D01*
X53336114Y-57357332D01*
X53284998Y-57340723D01*
X53233233Y-57306134D01*
X53233231Y-57306133D01*
X53233228Y-57306132D01*
X53233227Y-57306132D01*
X53174758Y-57294501D01*
X53174748Y-57294500D01*
X52235252Y-57294500D01*
X52235251Y-57294500D01*
X52235241Y-57294501D01*
X52176772Y-57306132D01*
X52176766Y-57306134D01*
X52125002Y-57340723D01*
X52066114Y-57357332D01*
X52014998Y-57340723D01*
X51963233Y-57306134D01*
X51963231Y-57306133D01*
X51963228Y-57306132D01*
X51963227Y-57306132D01*
X51904758Y-57294501D01*
X51904748Y-57294500D01*
X50965252Y-57294500D01*
X50965251Y-57294500D01*
X50965241Y-57294501D01*
X50906772Y-57306132D01*
X50906766Y-57306134D01*
X50855002Y-57340723D01*
X50796114Y-57357332D01*
X50744998Y-57340723D01*
X50693233Y-57306134D01*
X50693231Y-57306133D01*
X50693228Y-57306132D01*
X50693227Y-57306132D01*
X50634758Y-57294501D01*
X50634748Y-57294500D01*
X49695252Y-57294500D01*
X49695251Y-57294500D01*
X49695241Y-57294501D01*
X49636772Y-57306132D01*
X49636766Y-57306134D01*
X49570451Y-57350445D01*
X49570445Y-57350451D01*
X49526134Y-57416766D01*
X49526132Y-57416772D01*
X49514501Y-57475241D01*
X49514500Y-57475253D01*
X49514500Y-59014746D01*
X49514501Y-59014758D01*
X49526132Y-59073227D01*
X49526134Y-59073233D01*
X49570445Y-59139548D01*
X49570448Y-59139552D01*
X49636769Y-59183867D01*
X49636772Y-59183867D01*
X49645776Y-59187597D01*
X49645096Y-59189236D01*
X49688195Y-59213371D01*
X49713813Y-59268935D01*
X49714500Y-59280575D01*
X49714500Y-60097388D01*
X49695593Y-60155579D01*
X49685504Y-60167392D01*
X47961301Y-61891593D01*
X47957160Y-61895294D01*
X47926031Y-61920119D01*
X47892519Y-61969271D01*
X47857207Y-62017116D01*
X47853742Y-62023674D01*
X47853353Y-62023468D01*
X47852350Y-62025455D01*
X47852746Y-62025646D01*
X47849528Y-62032327D01*
X47831992Y-62089177D01*
X47812355Y-62145297D01*
X47810976Y-62152587D01*
X47810544Y-62152505D01*
X47810171Y-62154700D01*
X47810605Y-62154766D01*
X47809500Y-62162099D01*
X47809500Y-62221572D01*
X47807276Y-62281010D01*
X47808107Y-62288385D01*
X47807668Y-62288434D01*
X47809500Y-62302344D01*
X47809500Y-62490309D01*
X47790593Y-62548500D01*
X47757169Y-62577619D01*
X47673551Y-62622314D01*
X47513595Y-62753585D01*
X47513585Y-62753595D01*
X47382316Y-62913547D01*
X47284768Y-63096045D01*
X47224699Y-63294065D01*
X47224698Y-63294070D01*
X47204417Y-63499996D01*
X47204417Y-63500003D01*
X46775583Y-63500003D01*
X46775583Y-63499996D01*
X46755301Y-63294070D01*
X46755300Y-63294065D01*
X46723768Y-63190119D01*
X46695232Y-63096046D01*
X46597685Y-62913550D01*
X46571822Y-62882036D01*
X46466414Y-62753595D01*
X46466410Y-62753590D01*
X46466408Y-62753588D01*
X46466407Y-62753587D01*
X46346695Y-62655342D01*
X46313708Y-62603811D01*
X46310500Y-62578814D01*
X46310500Y-57899500D01*
X46329407Y-57841309D01*
X46378907Y-57805345D01*
X46409500Y-57800500D01*
X46629747Y-57800500D01*
X46629748Y-57800500D01*
X46688231Y-57788867D01*
X46754552Y-57744552D01*
X46798867Y-57678231D01*
X46810500Y-57619748D01*
X46810500Y-56680252D01*
X46798867Y-56621769D01*
X46764274Y-56569999D01*
X46747667Y-56511115D01*
X46764274Y-56460001D01*
X46798867Y-56408231D01*
X46810500Y-56349748D01*
X46810500Y-55410252D01*
X46798867Y-55351769D01*
X46764274Y-55299999D01*
X46747667Y-55241115D01*
X46764274Y-55190001D01*
X46798867Y-55138231D01*
X46810500Y-55079748D01*
X46810500Y-54140252D01*
X46798867Y-54081769D01*
X46764274Y-54029999D01*
X46747667Y-53971115D01*
X46764274Y-53920001D01*
X46798867Y-53868231D01*
X46810500Y-53809748D01*
X46810500Y-52870252D01*
X46798867Y-52811769D01*
X46764274Y-52759999D01*
X46747667Y-52701115D01*
X46764274Y-52650001D01*
X46798867Y-52598231D01*
X46810500Y-52539748D01*
X46810500Y-51600252D01*
X46798867Y-51541769D01*
X46764274Y-51489999D01*
X46747667Y-51431115D01*
X46764274Y-51380001D01*
X46798867Y-51328231D01*
X46810500Y-51269748D01*
X46810500Y-50330252D01*
X46798867Y-50271769D01*
X46764274Y-50219999D01*
X46747667Y-50161115D01*
X46764274Y-50110001D01*
X46798867Y-50058231D01*
X46810500Y-49999748D01*
X46810500Y-49060252D01*
X46798867Y-49001769D01*
X46764274Y-48949999D01*
X46747667Y-48891115D01*
X46764274Y-48840001D01*
X46798867Y-48788231D01*
X46810500Y-48729748D01*
X46810500Y-47790252D01*
X46798867Y-47731769D01*
X46764274Y-47679999D01*
X46747667Y-47621115D01*
X46764274Y-47570001D01*
X46798867Y-47518231D01*
X46810500Y-47459748D01*
X46810500Y-46520252D01*
X46798867Y-46461769D01*
X46764274Y-46409999D01*
X46747667Y-46351115D01*
X46764274Y-46300001D01*
X46798867Y-46248231D01*
X46810500Y-46189748D01*
X46810500Y-45250252D01*
X46798867Y-45191769D01*
X46764274Y-45139999D01*
X46747667Y-45081115D01*
X46764274Y-45030001D01*
X46798867Y-44978231D01*
X46810500Y-44919748D01*
X46810500Y-43980252D01*
X46798867Y-43921769D01*
X46764274Y-43869999D01*
X46747667Y-43811115D01*
X46764274Y-43760001D01*
X46798867Y-43708231D01*
X46810500Y-43649748D01*
X46810500Y-42710252D01*
X46798867Y-42651769D01*
X46764274Y-42599999D01*
X46747667Y-42541115D01*
X46764274Y-42490001D01*
X46798867Y-42438231D01*
X46810500Y-42379748D01*
X46810500Y-41440252D01*
X46798867Y-41381769D01*
X46754552Y-41315448D01*
X46754548Y-41315445D01*
X46688233Y-41271134D01*
X46688231Y-41271133D01*
X46688228Y-41271132D01*
X46688227Y-41271132D01*
X46629758Y-41259501D01*
X46629748Y-41259500D01*
X45090252Y-41259500D01*
X45090251Y-41259500D01*
X45090241Y-41259501D01*
X45031772Y-41271132D01*
X45031766Y-41271134D01*
X44965451Y-41315445D01*
X44965445Y-41315451D01*
X44921134Y-41381766D01*
X44921133Y-41381768D01*
X44921133Y-41381769D01*
X44918935Y-41392815D01*
X44889041Y-41446197D01*
X44833476Y-41471814D01*
X44821839Y-41472500D01*
X42831255Y-41472500D01*
X42773064Y-41453593D01*
X42761257Y-41443509D01*
X42667220Y-41349472D01*
X42667217Y-41349470D01*
X42547132Y-41288283D01*
X42547127Y-41288281D01*
X42547126Y-41288281D01*
X42513913Y-41283020D01*
X42447490Y-41272500D01*
X42447488Y-41272500D01*
X41880512Y-41272500D01*
X41880510Y-41272500D01*
X41780874Y-41288281D01*
X41780867Y-41288283D01*
X41660782Y-41349470D01*
X41660776Y-41349474D01*
X41639678Y-41370572D01*
X41585160Y-41398348D01*
X41524729Y-41388774D01*
X41499673Y-41370570D01*
X40470402Y-40341298D01*
X40466700Y-40337155D01*
X40441879Y-40306030D01*
X40392728Y-40272519D01*
X40344882Y-40237207D01*
X40344879Y-40237205D01*
X40338322Y-40233740D01*
X40338526Y-40233352D01*
X40336544Y-40232352D01*
X40336355Y-40232746D01*
X40329673Y-40229528D01*
X40272822Y-40211992D01*
X40216700Y-40192354D01*
X40209414Y-40190976D01*
X40209495Y-40190544D01*
X40207302Y-40190171D01*
X40207237Y-40190605D01*
X40199903Y-40189500D01*
X40199902Y-40189500D01*
X40140427Y-40189500D01*
X40120614Y-40188758D01*
X40080990Y-40187276D01*
X40080989Y-40187276D01*
X40080988Y-40187276D01*
X40073615Y-40188107D01*
X40073565Y-40187668D01*
X40059656Y-40189500D01*
X39109690Y-40189500D01*
X39051499Y-40170593D01*
X39022381Y-40137170D01*
X38977685Y-40053550D01*
X38846410Y-39893590D01*
X38846404Y-39893585D01*
X38686452Y-39762316D01*
X38503954Y-39664768D01*
X38305934Y-39604699D01*
X38305929Y-39604698D01*
X38100003Y-39584417D01*
X38099997Y-39584417D01*
X37894070Y-39604698D01*
X37894065Y-39604699D01*
X37696045Y-39664768D01*
X37513547Y-39762316D01*
X37353595Y-39893585D01*
X37353585Y-39893595D01*
X37222316Y-40053547D01*
X37124768Y-40236045D01*
X37064699Y-40434065D01*
X37064698Y-40434070D01*
X37044417Y-40639996D01*
X37044417Y-40640003D01*
X37064698Y-40845929D01*
X37064699Y-40845934D01*
X37124768Y-41043954D01*
X37222316Y-41226452D01*
X37340592Y-41370572D01*
X37353590Y-41386410D01*
X37353595Y-41386414D01*
X37513547Y-41517683D01*
X37513548Y-41517683D01*
X37513550Y-41517685D01*
X37696046Y-41615232D01*
X37833997Y-41657078D01*
X37894065Y-41675300D01*
X37894070Y-41675301D01*
X38099997Y-41695583D01*
X38100000Y-41695583D01*
X38100003Y-41695583D01*
X38305929Y-41675301D01*
X38305934Y-41675300D01*
X38503954Y-41615232D01*
X38686450Y-41517685D01*
X38846410Y-41386410D01*
X38977685Y-41226450D01*
X39022380Y-41142830D01*
X39066485Y-41100425D01*
X39109690Y-41090500D01*
X39904388Y-41090500D01*
X39962579Y-41109407D01*
X39974392Y-41119496D01*
X41076592Y-42221696D01*
X41080293Y-42225837D01*
X41105121Y-42256970D01*
X41154271Y-42290480D01*
X41202118Y-42325793D01*
X41202120Y-42325793D01*
X41208677Y-42329259D01*
X41208469Y-42329651D01*
X41210450Y-42330651D01*
X41210643Y-42330253D01*
X41217324Y-42333470D01*
X41217327Y-42333472D01*
X41274177Y-42351007D01*
X41330301Y-42370646D01*
X41330305Y-42370646D01*
X41337593Y-42372026D01*
X41337510Y-42372460D01*
X41339693Y-42372830D01*
X41339759Y-42372394D01*
X41347098Y-42373500D01*
X41406573Y-42373500D01*
X41408642Y-42373577D01*
X41466010Y-42375724D01*
X41466015Y-42375722D01*
X41473385Y-42374893D01*
X41473434Y-42375331D01*
X41487344Y-42373500D01*
X41496745Y-42373500D01*
X41554936Y-42392407D01*
X41566742Y-42402490D01*
X41660780Y-42496528D01*
X41750595Y-42542291D01*
X41793859Y-42585555D01*
X41803430Y-42645987D01*
X41775652Y-42700504D01*
X41721136Y-42728281D01*
X41705649Y-42729500D01*
X39109690Y-42729500D01*
X39051499Y-42710593D01*
X39022381Y-42677170D01*
X38977685Y-42593550D01*
X38846410Y-42433590D01*
X38789402Y-42386805D01*
X38686452Y-42302316D01*
X38503954Y-42204768D01*
X38305934Y-42144699D01*
X38305929Y-42144698D01*
X38100003Y-42124417D01*
X38099997Y-42124417D01*
X37894070Y-42144698D01*
X37894065Y-42144699D01*
X37696045Y-42204768D01*
X37513547Y-42302316D01*
X37353595Y-42433585D01*
X37353585Y-42433595D01*
X37222316Y-42593547D01*
X37124768Y-42776045D01*
X37064699Y-42974065D01*
X37064698Y-42974070D01*
X37044417Y-43179996D01*
X37044417Y-43180003D01*
X37064698Y-43385929D01*
X37064699Y-43385934D01*
X37124768Y-43583954D01*
X37222316Y-43766452D01*
X37295353Y-43855448D01*
X37353590Y-43926410D01*
X37358910Y-43930776D01*
X37513547Y-44057683D01*
X37513548Y-44057683D01*
X37513550Y-44057685D01*
X37696046Y-44155232D01*
X37833997Y-44197078D01*
X37894065Y-44215300D01*
X37894070Y-44215301D01*
X38099997Y-44235583D01*
X38100000Y-44235583D01*
X38100003Y-44235583D01*
X38305929Y-44215301D01*
X38305934Y-44215300D01*
X38503954Y-44155232D01*
X38686450Y-44057685D01*
X38846410Y-43926410D01*
X38977685Y-43766450D01*
X39022380Y-43682830D01*
X39066485Y-43640425D01*
X39109690Y-43630500D01*
X44824425Y-43630500D01*
X44882616Y-43649407D01*
X44918580Y-43698907D01*
X44920807Y-43707442D01*
X44921134Y-43708233D01*
X44955723Y-43759998D01*
X44972332Y-43818886D01*
X44955723Y-43870002D01*
X44921134Y-43921766D01*
X44917403Y-43930776D01*
X44915763Y-43930096D01*
X44891629Y-43973195D01*
X44836065Y-43998813D01*
X44824425Y-43999500D01*
X41430087Y-43999500D01*
X41424541Y-43999189D01*
X41384965Y-43994730D01*
X41384961Y-43994730D01*
X41326519Y-44005788D01*
X41267714Y-44014650D01*
X41260628Y-44016837D01*
X41260498Y-44016418D01*
X41258381Y-44017115D01*
X41258526Y-44017529D01*
X41251529Y-44019976D01*
X41251528Y-44019977D01*
X41251526Y-44019977D01*
X41251526Y-44019978D01*
X41198936Y-44047773D01*
X41145357Y-44073575D01*
X41139229Y-44077754D01*
X41138982Y-44077392D01*
X41137169Y-44078678D01*
X41137430Y-44079031D01*
X41131459Y-44083437D01*
X41089413Y-44125483D01*
X41045804Y-44165945D01*
X41041181Y-44171743D01*
X41040837Y-44171469D01*
X41032295Y-44182600D01*
X39974393Y-45240504D01*
X39919876Y-45268281D01*
X39904389Y-45269500D01*
X39109690Y-45269500D01*
X39051499Y-45250593D01*
X39022381Y-45217170D01*
X38977685Y-45133550D01*
X38846410Y-44973590D01*
X38789402Y-44926805D01*
X38686452Y-44842316D01*
X38503954Y-44744768D01*
X38305934Y-44684699D01*
X38305929Y-44684698D01*
X38100003Y-44664417D01*
X38099997Y-44664417D01*
X37894070Y-44684698D01*
X37894065Y-44684699D01*
X37696045Y-44744768D01*
X37513547Y-44842316D01*
X37353595Y-44973585D01*
X37353585Y-44973595D01*
X37222316Y-45133547D01*
X37124768Y-45316045D01*
X37064699Y-45514065D01*
X37064698Y-45514070D01*
X37044417Y-45719996D01*
X37044417Y-45720003D01*
X37064698Y-45925929D01*
X37064699Y-45925934D01*
X37124768Y-46123954D01*
X37222316Y-46306452D01*
X37295353Y-46395448D01*
X37353590Y-46466410D01*
X37358910Y-46470776D01*
X37513547Y-46597683D01*
X37513548Y-46597683D01*
X37513550Y-46597685D01*
X37696046Y-46695232D01*
X37833997Y-46737078D01*
X37894065Y-46755300D01*
X37894070Y-46755301D01*
X38099997Y-46775583D01*
X38100000Y-46775583D01*
X38100003Y-46775583D01*
X38305929Y-46755301D01*
X38305934Y-46755300D01*
X38503954Y-46695232D01*
X38686450Y-46597685D01*
X38846410Y-46466410D01*
X38977685Y-46306450D01*
X39022380Y-46222830D01*
X39066485Y-46180425D01*
X39109690Y-46170500D01*
X40103913Y-46170500D01*
X40109459Y-46170811D01*
X40149035Y-46175270D01*
X40207479Y-46164211D01*
X40266287Y-46155348D01*
X40266294Y-46155344D01*
X40273381Y-46153159D01*
X40273512Y-46153584D01*
X40275613Y-46152892D01*
X40275467Y-46152473D01*
X40282464Y-46150024D01*
X40282472Y-46150023D01*
X40296322Y-46142702D01*
X40335072Y-46122223D01*
X40361857Y-46109323D01*
X40388642Y-46096425D01*
X40388646Y-46096421D01*
X40394778Y-46092242D01*
X40395028Y-46092609D01*
X40396832Y-46091329D01*
X40396568Y-46090971D01*
X40402529Y-46086570D01*
X40402538Y-46086566D01*
X40444599Y-46044504D01*
X40488194Y-46004055D01*
X40488198Y-46004047D01*
X40492820Y-45998253D01*
X40493166Y-45998529D01*
X40501703Y-45987399D01*
X41559607Y-44929496D01*
X41614124Y-44901719D01*
X41629611Y-44900500D01*
X44824425Y-44900500D01*
X44882616Y-44919407D01*
X44918580Y-44968907D01*
X44920807Y-44977442D01*
X44921134Y-44978233D01*
X44955723Y-45029998D01*
X44972332Y-45088886D01*
X44955723Y-45140002D01*
X44921134Y-45191766D01*
X44917403Y-45200776D01*
X44915763Y-45200096D01*
X44891629Y-45243195D01*
X44836065Y-45268813D01*
X44824425Y-45269500D01*
X41938087Y-45269500D01*
X41932541Y-45269189D01*
X41892965Y-45264730D01*
X41892961Y-45264730D01*
X41834519Y-45275788D01*
X41775714Y-45284650D01*
X41768628Y-45286837D01*
X41768498Y-45286418D01*
X41766381Y-45287115D01*
X41766526Y-45287529D01*
X41759529Y-45289976D01*
X41759528Y-45289977D01*
X41759526Y-45289977D01*
X41759526Y-45289978D01*
X41706936Y-45317773D01*
X41653357Y-45343575D01*
X41647229Y-45347754D01*
X41646982Y-45347392D01*
X41645169Y-45348678D01*
X41645430Y-45349031D01*
X41639459Y-45353437D01*
X41597413Y-45395483D01*
X41553804Y-45435945D01*
X41549181Y-45441743D01*
X41548837Y-45441469D01*
X41540295Y-45452600D01*
X39212393Y-47780504D01*
X39157876Y-47808281D01*
X39142389Y-47809500D01*
X39109690Y-47809500D01*
X39051499Y-47790593D01*
X39022381Y-47757170D01*
X38977685Y-47673550D01*
X38846410Y-47513590D01*
X38789402Y-47466805D01*
X38686452Y-47382316D01*
X38503954Y-47284768D01*
X38305934Y-47224699D01*
X38305929Y-47224698D01*
X38100003Y-47204417D01*
X38099997Y-47204417D01*
X37894070Y-47224698D01*
X37894065Y-47224699D01*
X37696045Y-47284768D01*
X37513547Y-47382316D01*
X37353595Y-47513585D01*
X37353585Y-47513595D01*
X37222316Y-47673547D01*
X37124768Y-47856045D01*
X37064699Y-48054065D01*
X37064698Y-48054070D01*
X37044417Y-48259996D01*
X37044417Y-48260003D01*
X37064698Y-48465929D01*
X37064699Y-48465934D01*
X37124768Y-48663954D01*
X37222316Y-48846452D01*
X37348689Y-49000438D01*
X37353590Y-49006410D01*
X37358910Y-49010776D01*
X37513547Y-49137683D01*
X37513548Y-49137683D01*
X37513550Y-49137685D01*
X37696046Y-49235232D01*
X37833997Y-49277078D01*
X37894065Y-49295300D01*
X37894070Y-49295301D01*
X38099997Y-49315583D01*
X38100000Y-49315583D01*
X38100003Y-49315583D01*
X38305929Y-49295301D01*
X38305934Y-49295300D01*
X38503954Y-49235232D01*
X38686450Y-49137685D01*
X38846410Y-49006410D01*
X38977685Y-48846450D01*
X39022380Y-48762830D01*
X39066485Y-48720425D01*
X39109690Y-48710500D01*
X39341913Y-48710500D01*
X39347459Y-48710811D01*
X39387035Y-48715270D01*
X39445479Y-48704211D01*
X39504287Y-48695348D01*
X39504294Y-48695344D01*
X39511381Y-48693159D01*
X39511512Y-48693584D01*
X39513613Y-48692892D01*
X39513467Y-48692473D01*
X39520464Y-48690024D01*
X39520472Y-48690023D01*
X39534322Y-48682702D01*
X39573072Y-48662223D01*
X39599857Y-48649323D01*
X39626642Y-48636425D01*
X39626646Y-48636421D01*
X39632778Y-48632242D01*
X39633028Y-48632609D01*
X39634832Y-48631329D01*
X39634568Y-48630971D01*
X39640529Y-48626570D01*
X39640538Y-48626566D01*
X39682600Y-48584503D01*
X39726194Y-48544055D01*
X39726195Y-48544052D01*
X39726197Y-48544051D01*
X39730823Y-48538251D01*
X39731168Y-48538526D01*
X39739704Y-48527398D01*
X42067608Y-46199496D01*
X42122125Y-46171719D01*
X42137612Y-46170500D01*
X44824425Y-46170500D01*
X44882616Y-46189407D01*
X44918580Y-46238907D01*
X44920807Y-46247442D01*
X44921134Y-46248233D01*
X44955723Y-46299998D01*
X44972332Y-46358886D01*
X44955723Y-46410002D01*
X44921134Y-46461766D01*
X44917403Y-46470776D01*
X44915763Y-46470096D01*
X44891629Y-46513195D01*
X44836065Y-46538813D01*
X44824425Y-46539500D01*
X42954087Y-46539500D01*
X42948541Y-46539189D01*
X42908966Y-46534730D01*
X42908961Y-46534730D01*
X42850510Y-46545789D01*
X42791714Y-46554651D01*
X42784632Y-46556836D01*
X42784503Y-46556418D01*
X42782386Y-46557114D01*
X42782531Y-46557526D01*
X42775528Y-46559976D01*
X42771714Y-46561992D01*
X42722926Y-46587777D01*
X42702353Y-46597685D01*
X42669359Y-46613574D01*
X42663233Y-46617751D01*
X42662987Y-46617391D01*
X42661172Y-46618679D01*
X42661430Y-46619029D01*
X42655464Y-46623432D01*
X42613413Y-46665483D01*
X42569804Y-46705945D01*
X42565181Y-46711743D01*
X42564837Y-46711469D01*
X42556295Y-46722600D01*
X39094435Y-50184460D01*
X39039918Y-50212237D01*
X38979486Y-50202666D01*
X38947904Y-50177262D01*
X38846410Y-50053590D01*
X38789402Y-50006805D01*
X38686452Y-49922316D01*
X38503954Y-49824768D01*
X38305934Y-49764699D01*
X38305929Y-49764698D01*
X38100003Y-49744417D01*
X38099997Y-49744417D01*
X37894070Y-49764698D01*
X37894065Y-49764699D01*
X37696045Y-49824768D01*
X37513547Y-49922316D01*
X37353595Y-50053585D01*
X37353585Y-50053595D01*
X37222316Y-50213547D01*
X37124768Y-50396045D01*
X37064699Y-50594065D01*
X37064698Y-50594070D01*
X37044417Y-50799996D01*
X37044417Y-50800003D01*
X37064698Y-51005929D01*
X37064699Y-51005934D01*
X37124768Y-51203954D01*
X37222316Y-51386452D01*
X37348689Y-51540438D01*
X37353590Y-51546410D01*
X37358910Y-51550776D01*
X37513547Y-51677683D01*
X37513548Y-51677683D01*
X37513550Y-51677685D01*
X37696046Y-51775232D01*
X37833997Y-51817078D01*
X37894065Y-51835300D01*
X37894070Y-51835301D01*
X38099997Y-51855583D01*
X38100000Y-51855583D01*
X38100003Y-51855583D01*
X38305929Y-51835301D01*
X38305934Y-51835300D01*
X38503954Y-51775232D01*
X38686450Y-51677685D01*
X38846410Y-51546410D01*
X38971036Y-51394552D01*
X38977686Y-51386449D01*
X38993563Y-51356742D01*
X39020985Y-51305440D01*
X39065089Y-51263034D01*
X39119377Y-51253731D01*
X39133035Y-51255270D01*
X39191479Y-51244211D01*
X39250287Y-51235348D01*
X39250294Y-51235344D01*
X39257381Y-51233159D01*
X39257512Y-51233584D01*
X39259613Y-51232892D01*
X39259467Y-51232473D01*
X39266464Y-51230024D01*
X39266472Y-51230023D01*
X39280322Y-51222702D01*
X39319072Y-51202223D01*
X39345857Y-51189323D01*
X39372642Y-51176425D01*
X39372646Y-51176421D01*
X39378778Y-51172242D01*
X39379028Y-51172609D01*
X39380835Y-51171326D01*
X39380572Y-51170969D01*
X39386539Y-51166565D01*
X39428598Y-51124504D01*
X39430017Y-51123186D01*
X39472194Y-51084055D01*
X39472197Y-51084049D01*
X39476822Y-51078251D01*
X39477167Y-51078526D01*
X39485702Y-51067400D01*
X43083607Y-47469496D01*
X43138124Y-47441719D01*
X43153611Y-47440500D01*
X44824425Y-47440500D01*
X44882616Y-47459407D01*
X44918580Y-47508907D01*
X44920807Y-47517442D01*
X44921134Y-47518233D01*
X44955723Y-47569998D01*
X44972332Y-47628886D01*
X44955723Y-47680002D01*
X44921134Y-47731766D01*
X44917403Y-47740776D01*
X44915763Y-47740096D01*
X44891629Y-47783195D01*
X44836065Y-47808813D01*
X44824425Y-47809500D01*
X43716087Y-47809500D01*
X43710541Y-47809189D01*
X43670961Y-47804729D01*
X43612508Y-47815789D01*
X43553715Y-47824651D01*
X43546629Y-47826837D01*
X43546500Y-47826419D01*
X43544385Y-47827115D01*
X43544529Y-47827526D01*
X43537528Y-47829975D01*
X43484915Y-47857783D01*
X43431356Y-47883576D01*
X43425229Y-47887753D01*
X43424984Y-47887393D01*
X43423168Y-47888681D01*
X43423427Y-47889032D01*
X43417458Y-47893437D01*
X43375399Y-47935496D01*
X43331805Y-47975945D01*
X43327179Y-47981746D01*
X43326835Y-47981472D01*
X43318297Y-47992597D01*
X38838947Y-52471948D01*
X38784430Y-52499725D01*
X38723998Y-52490154D01*
X38706139Y-52478472D01*
X38686458Y-52462320D01*
X38686452Y-52462316D01*
X38503954Y-52364768D01*
X38305934Y-52304699D01*
X38305929Y-52304698D01*
X38100003Y-52284417D01*
X38099997Y-52284417D01*
X37894070Y-52304698D01*
X37894065Y-52304699D01*
X37696045Y-52364768D01*
X37513547Y-52462316D01*
X37353595Y-52593585D01*
X37353585Y-52593595D01*
X37222316Y-52753547D01*
X37124768Y-52936045D01*
X37064699Y-53134065D01*
X37064698Y-53134070D01*
X37044417Y-53339996D01*
X37044417Y-53340003D01*
X37064698Y-53545929D01*
X37064699Y-53545934D01*
X37124768Y-53743954D01*
X37222316Y-53926452D01*
X37295353Y-54015448D01*
X37353590Y-54086410D01*
X37353595Y-54086414D01*
X37513547Y-54217683D01*
X37513548Y-54217683D01*
X37513550Y-54217685D01*
X37696046Y-54315232D01*
X37808259Y-54349271D01*
X37894065Y-54375300D01*
X37894070Y-54375301D01*
X38099997Y-54395583D01*
X38100000Y-54395583D01*
X38100003Y-54395583D01*
X38305929Y-54375301D01*
X38305934Y-54375300D01*
X38503954Y-54315232D01*
X38686450Y-54217685D01*
X38787695Y-54134596D01*
X38844672Y-54112296D01*
X38903875Y-54127745D01*
X38942690Y-54175042D01*
X38949500Y-54211124D01*
X38949500Y-54606389D01*
X38930593Y-54664580D01*
X38920503Y-54676393D01*
X38678499Y-54918396D01*
X38623983Y-54946173D01*
X38563551Y-54936602D01*
X38561828Y-54935702D01*
X38503959Y-54904770D01*
X38503954Y-54904768D01*
X38305934Y-54844699D01*
X38305929Y-54844698D01*
X38100003Y-54824417D01*
X38099997Y-54824417D01*
X37894070Y-54844698D01*
X37894065Y-54844699D01*
X37696045Y-54904768D01*
X37513547Y-55002316D01*
X37353595Y-55133585D01*
X37353585Y-55133595D01*
X37222316Y-55293547D01*
X37124768Y-55476045D01*
X37064699Y-55674065D01*
X37064698Y-55674070D01*
X37044417Y-55879996D01*
X37044417Y-55880003D01*
X37064698Y-56085929D01*
X37064699Y-56085934D01*
X37124768Y-56283954D01*
X37222316Y-56466452D01*
X37349779Y-56621766D01*
X37353590Y-56626410D01*
X37353595Y-56626414D01*
X37513547Y-56757683D01*
X37513548Y-56757683D01*
X37513550Y-56757685D01*
X37696046Y-56855232D01*
X37833997Y-56897078D01*
X37894065Y-56915300D01*
X37894070Y-56915301D01*
X38099997Y-56935583D01*
X38100000Y-56935583D01*
X38100003Y-56935583D01*
X38305929Y-56915301D01*
X38305934Y-56915300D01*
X38503954Y-56855232D01*
X38686450Y-56757685D01*
X38846410Y-56626410D01*
X38977685Y-56466450D01*
X39075232Y-56283954D01*
X39135300Y-56085934D01*
X39135301Y-56085929D01*
X39155583Y-55880003D01*
X39155583Y-55879998D01*
X39150079Y-55824121D01*
X39145424Y-55776865D01*
X39158536Y-55717104D01*
X39173939Y-55697163D01*
X39698704Y-55172399D01*
X39702835Y-55168706D01*
X39733970Y-55143879D01*
X39754702Y-55113469D01*
X39803103Y-55076041D01*
X39864261Y-55074210D01*
X39914815Y-55108676D01*
X39935456Y-55166275D01*
X39935500Y-55169238D01*
X39935500Y-56160388D01*
X39916593Y-56218579D01*
X39906504Y-56230392D01*
X38678499Y-57458396D01*
X38623982Y-57486173D01*
X38563550Y-57476602D01*
X38561889Y-57475734D01*
X38503954Y-57444768D01*
X38305934Y-57384699D01*
X38305929Y-57384698D01*
X38100003Y-57364417D01*
X38099997Y-57364417D01*
X37894070Y-57384698D01*
X37894065Y-57384699D01*
X37696045Y-57444768D01*
X37513547Y-57542316D01*
X37353595Y-57673585D01*
X37353585Y-57673595D01*
X37222316Y-57833547D01*
X37124768Y-58016045D01*
X37064699Y-58214065D01*
X37064698Y-58214070D01*
X37044417Y-58419996D01*
X37044417Y-58420003D01*
X37064698Y-58625929D01*
X37064699Y-58625934D01*
X37124768Y-58823954D01*
X37222316Y-59006452D01*
X37345620Y-59156699D01*
X37353590Y-59166410D01*
X37353595Y-59166414D01*
X37513547Y-59297683D01*
X37513548Y-59297683D01*
X37513550Y-59297685D01*
X37696046Y-59395232D01*
X37833142Y-59436819D01*
X37894065Y-59455300D01*
X37894070Y-59455301D01*
X38099997Y-59475583D01*
X38100000Y-59475583D01*
X38100003Y-59475583D01*
X38305929Y-59455301D01*
X38305934Y-59455300D01*
X38315049Y-59452535D01*
X38503954Y-59395232D01*
X38686450Y-59297685D01*
X38846410Y-59166410D01*
X38977685Y-59006450D01*
X39075232Y-58823954D01*
X39135300Y-58625934D01*
X39135301Y-58625929D01*
X39155583Y-58420003D01*
X39155583Y-58419998D01*
X39153779Y-58401689D01*
X39145424Y-58316865D01*
X39158536Y-58257104D01*
X39173939Y-58237163D01*
X40684699Y-56726402D01*
X40688830Y-56722710D01*
X40719970Y-56697879D01*
X40753480Y-56648728D01*
X40772846Y-56622487D01*
X40822613Y-56586897D01*
X40883797Y-56587355D01*
X40933026Y-56623689D01*
X40951500Y-56681278D01*
X40951500Y-57684388D01*
X40932593Y-57742579D01*
X40922504Y-57754392D01*
X38678499Y-59998396D01*
X38623982Y-60026173D01*
X38563550Y-60016602D01*
X38561889Y-60015734D01*
X38503954Y-59984768D01*
X38305934Y-59924699D01*
X38305929Y-59924698D01*
X38100003Y-59904417D01*
X38099997Y-59904417D01*
X37894070Y-59924698D01*
X37894065Y-59924699D01*
X37696045Y-59984768D01*
X37513547Y-60082316D01*
X37353595Y-60213585D01*
X37353585Y-60213595D01*
X37222316Y-60373547D01*
X37124768Y-60556045D01*
X37064699Y-60754065D01*
X37064698Y-60754070D01*
X37044417Y-60959996D01*
X37044417Y-60960003D01*
X37064698Y-61165929D01*
X37064699Y-61165934D01*
X37124768Y-61363954D01*
X37222316Y-61546452D01*
X37353585Y-61706404D01*
X37353590Y-61706410D01*
X37353595Y-61706414D01*
X37513547Y-61837683D01*
X37513548Y-61837683D01*
X37513550Y-61837685D01*
X37696046Y-61935232D01*
X37833997Y-61977078D01*
X37894065Y-61995300D01*
X37894070Y-61995301D01*
X38099997Y-62015583D01*
X38100000Y-62015583D01*
X38100003Y-62015583D01*
X38305929Y-61995301D01*
X38305934Y-61995300D01*
X38503954Y-61935232D01*
X38686450Y-61837685D01*
X38846410Y-61706410D01*
X38977685Y-61546450D01*
X39075232Y-61363954D01*
X39135300Y-61165934D01*
X39135301Y-61165929D01*
X39155583Y-60960003D01*
X39155583Y-60959998D01*
X39153779Y-60941689D01*
X39145424Y-60856865D01*
X39158536Y-60797104D01*
X39173939Y-60777163D01*
X41700699Y-58250402D01*
X41704830Y-58246710D01*
X41735970Y-58221879D01*
X41769480Y-58172728D01*
X41788846Y-58146487D01*
X41838613Y-58110897D01*
X41899797Y-58111355D01*
X41949026Y-58147689D01*
X41967500Y-58205278D01*
X41967500Y-58954388D01*
X41948593Y-59012579D01*
X41938504Y-59024392D01*
X38495406Y-62467489D01*
X38440889Y-62495266D01*
X38396664Y-62492222D01*
X38305934Y-62464699D01*
X38305929Y-62464698D01*
X38100003Y-62444417D01*
X38099997Y-62444417D01*
X37894070Y-62464698D01*
X37894065Y-62464699D01*
X37696045Y-62524768D01*
X37513547Y-62622316D01*
X37353595Y-62753585D01*
X37353585Y-62753595D01*
X37222316Y-62913547D01*
X37124768Y-63096045D01*
X37064699Y-63294065D01*
X37064698Y-63294070D01*
X37044417Y-63499996D01*
X37044417Y-63500003D01*
X34290500Y-63500003D01*
X34290500Y-39411215D01*
X34309407Y-39353024D01*
X34319496Y-39341211D01*
X36801211Y-36859496D01*
X36855728Y-36831719D01*
X36871215Y-36830500D01*
X41868784Y-36830500D01*
X41926975Y-36849407D01*
G37*
%TD.AperFunction*%
%TD*%
M02*
