M48
; DRILL file {KiCad 7.0.8} date Fri Jan 12 13:16:24 2024
; FORMAT={-:-/ absolute / inch / decimal}
; #@! TF.CreationDate,2024-01-12T13:16:24+01:00
; #@! TF.GenerationSoftware,Kicad,Pcbnew,7.0.8
; #@! TF.FileFunction,Plated,1,2,PTH
FMAT,2
INCH
; #@! TA.AperFunction,Plated,PTH,ComponentDrill
T1C0.0079
; #@! TA.AperFunction,Plated,PTH,ComponentDrill
T2C0.0394
%
G90
G05
T1
X2.0358Y-1.8703
X2.0358Y-1.9254
X2.0634Y-1.8427
X2.0634Y-1.8978
X2.0634Y-1.953
X2.0909Y-1.8703
X2.0909Y-1.9254
X2.1185Y-1.8427
X2.1185Y-1.8978
X2.1185Y-1.953
X2.1461Y-1.8703
X2.1461Y-1.9254
T2
X1.5Y-1.6
X1.5Y-1.7
X1.5Y-1.8
X1.5Y-1.9
X1.5Y-2.0
X1.5Y-2.1
X1.5Y-2.2
X1.5Y-2.3
X1.5Y-2.4
X1.5Y-2.5
X1.5Y-2.6
X1.8Y-2.5
X1.8Y-2.6
X1.9Y-2.5
X1.9Y-2.6
X2.0Y-2.5
X2.0Y-2.6
X2.1Y-2.5
X2.1Y-2.6
X2.2Y-2.5
X2.2Y-2.6
X2.3Y-2.5
X2.3Y-2.6
X2.4Y-2.5
X2.4Y-2.6
X2.5Y-2.5
X2.5Y-2.6
X2.8Y-1.6
X2.8Y-1.7
X2.8Y-1.8
X2.8Y-1.9
X2.8Y-2.0
X2.8Y-2.1
X2.8Y-2.2
X2.8Y-2.3
X2.8Y-2.4
X2.8Y-2.5
X2.8Y-2.6
T0
M30
