%TF.GenerationSoftware,KiCad,Pcbnew,7.0.8*%
%TF.CreationDate,2024-01-12T13:16:21+01:00*%
%TF.ProjectId,adapter_ESP32,61646170-7465-4725-9f45-535033322e6b,rev?*%
%TF.SameCoordinates,Original*%
%TF.FileFunction,Soldermask,Top*%
%TF.FilePolarity,Negative*%
%FSLAX46Y46*%
G04 Gerber Fmt 4.6, Leading zero omitted, Abs format (unit mm)*
G04 Created by KiCad (PCBNEW 7.0.8) date 2024-01-12 13:16:21*
%MOMM*%
%LPD*%
G01*
G04 APERTURE LIST*
G04 Aperture macros list*
%AMRoundRect*
0 Rectangle with rounded corners*
0 $1 Rounding radius*
0 $2 $3 $4 $5 $6 $7 $8 $9 X,Y pos of 4 corners*
0 Add a 4 corners polygon primitive as box body*
4,1,4,$2,$3,$4,$5,$6,$7,$8,$9,$2,$3,0*
0 Add four circle primitives for the rounded corners*
1,1,$1+$1,$2,$3*
1,1,$1+$1,$4,$5*
1,1,$1+$1,$6,$7*
1,1,$1+$1,$8,$9*
0 Add four rect primitives between the rounded corners*
20,1,$1+$1,$2,$3,$4,$5,0*
20,1,$1+$1,$4,$5,$6,$7,0*
20,1,$1+$1,$6,$7,$8,$9,0*
20,1,$1+$1,$8,$9,$2,$3,0*%
G04 Aperture macros list end*
%ADD10R,1.700000X1.700000*%
%ADD11O,1.700000X1.700000*%
%ADD12RoundRect,0.225000X0.250000X-0.225000X0.250000X0.225000X-0.250000X0.225000X-0.250000X-0.225000X0*%
%ADD13R,1.500000X0.900000*%
%ADD14R,0.900000X1.500000*%
%ADD15C,0.600000*%
%ADD16R,3.800000X3.800000*%
G04 APERTURE END LIST*
D10*
%TO.C,J2*%
X63500000Y-66040000D03*
D11*
X63500000Y-63500000D03*
X60960000Y-66040000D03*
X60960000Y-63500000D03*
X58420000Y-66040000D03*
X58420000Y-63500000D03*
X55880000Y-66040000D03*
X55880000Y-63500000D03*
X53340000Y-66040000D03*
X53340000Y-63500000D03*
X50800000Y-66040000D03*
X50800000Y-63500000D03*
X48260000Y-66040000D03*
X48260000Y-63500000D03*
X45720000Y-66040000D03*
X45720000Y-63500000D03*
%TD*%
D12*
%TO.C,C1*%
X42164000Y-41923000D03*
X42164000Y-40373000D03*
%TD*%
D13*
%TO.C,U1*%
X45860000Y-40640000D03*
X45860000Y-41910000D03*
X45860000Y-43180000D03*
X45860000Y-44450000D03*
X45860000Y-45720000D03*
X45860000Y-46990000D03*
X45860000Y-48260000D03*
X45860000Y-49530000D03*
X45860000Y-50800000D03*
X45860000Y-52070000D03*
X45860000Y-53340000D03*
X45860000Y-54610000D03*
X45860000Y-55880000D03*
X45860000Y-57150000D03*
D14*
X48895000Y-58245000D03*
X50165000Y-58245000D03*
X51435000Y-58245000D03*
X52705000Y-58245000D03*
X53975000Y-58245000D03*
X55245000Y-58245000D03*
X56515000Y-58245000D03*
X57785000Y-58245000D03*
X59055000Y-58245000D03*
X60325000Y-58245000D03*
D13*
X63360000Y-57150000D03*
X63360000Y-55880000D03*
X63360000Y-54610000D03*
X63360000Y-53340000D03*
X63360000Y-52070000D03*
X63360000Y-50800000D03*
X63360000Y-49530000D03*
X63360000Y-48260000D03*
X63360000Y-46990000D03*
X63360000Y-45720000D03*
X63360000Y-44450000D03*
X63360000Y-43180000D03*
X63360000Y-41910000D03*
X63360000Y-40640000D03*
D15*
X51710000Y-47505000D03*
X51710000Y-48905000D03*
X52410000Y-46805000D03*
X52410000Y-48205000D03*
X52410000Y-49605000D03*
X53110000Y-47505000D03*
D16*
X53110000Y-48205000D03*
D15*
X53110000Y-48905000D03*
X53810000Y-46805000D03*
X53810000Y-48205000D03*
X53810000Y-49605000D03*
X54510000Y-47505000D03*
X54510000Y-48905000D03*
%TD*%
D10*
%TO.C,J1*%
X38100000Y-66040000D03*
D11*
X38100000Y-63500000D03*
X38100000Y-60960000D03*
X38100000Y-58420000D03*
X38100000Y-55880000D03*
X38100000Y-53340000D03*
X38100000Y-50800000D03*
X38100000Y-48260000D03*
X38100000Y-45720000D03*
X38100000Y-43180000D03*
X38100000Y-40640000D03*
%TD*%
D10*
%TO.C,J3*%
X71120000Y-66040000D03*
D11*
X71120000Y-63500000D03*
X71120000Y-60960000D03*
X71120000Y-58420000D03*
X71120000Y-55880000D03*
X71120000Y-53340000D03*
X71120000Y-50800000D03*
X71120000Y-48260000D03*
X71120000Y-45720000D03*
X71120000Y-43180000D03*
X71120000Y-40640000D03*
%TD*%
M02*
