%TF.GenerationSoftware,KiCad,Pcbnew,7.0.8*%
%TF.CreationDate,2024-01-12T13:09:39+01:00*%
%TF.ProjectId,adapter_STM32,61646170-7465-4725-9f53-544d33322e6b,rev?*%
%TF.SameCoordinates,Original*%
%TF.FileFunction,Soldermask,Bot*%
%TF.FilePolarity,Negative*%
%FSLAX46Y46*%
G04 Gerber Fmt 4.6, Leading zero omitted, Abs format (unit mm)*
G04 Created by KiCad (PCBNEW 7.0.8) date 2024-01-12 13:09:39*
%MOMM*%
%LPD*%
G01*
G04 APERTURE LIST*
G04 Aperture macros list*
%AMRoundRect*
0 Rectangle with rounded corners*
0 $1 Rounding radius*
0 $2 $3 $4 $5 $6 $7 $8 $9 X,Y pos of 4 corners*
0 Add a 4 corners polygon primitive as box body*
4,1,4,$2,$3,$4,$5,$6,$7,$8,$9,$2,$3,0*
0 Add four circle primitives for the rounded corners*
1,1,$1+$1,$2,$3*
1,1,$1+$1,$4,$5*
1,1,$1+$1,$6,$7*
1,1,$1+$1,$8,$9*
0 Add four rect primitives between the rounded corners*
20,1,$1+$1,$2,$3,$4,$5,0*
20,1,$1+$1,$4,$5,$6,$7,0*
20,1,$1+$1,$6,$7,$8,$9,0*
20,1,$1+$1,$8,$9,$2,$3,0*%
G04 Aperture macros list end*
%ADD10R,1.700000X1.700000*%
%ADD11O,1.700000X1.700000*%
%ADD12RoundRect,0.225000X0.250000X-0.225000X0.250000X0.225000X-0.250000X0.225000X-0.250000X-0.225000X0*%
%ADD13RoundRect,0.225000X-0.250000X0.225000X-0.250000X-0.225000X0.250000X-0.225000X0.250000X0.225000X0*%
%ADD14RoundRect,0.225000X0.225000X0.250000X-0.225000X0.250000X-0.225000X-0.250000X0.225000X-0.250000X0*%
%ADD15RoundRect,0.225000X-0.225000X-0.250000X0.225000X-0.250000X0.225000X0.250000X-0.225000X0.250000X0*%
%ADD16R,2.400000X2.000000*%
G04 APERTURE END LIST*
D10*
%TO.C,J4*%
X109220000Y-52070000D03*
D11*
X106680000Y-52070000D03*
X109220000Y-54610000D03*
X106680000Y-54610000D03*
X109220000Y-57150000D03*
X106680000Y-57150000D03*
X109220000Y-59690000D03*
X106680000Y-59690000D03*
X109220000Y-62230000D03*
X106680000Y-62230000D03*
X109220000Y-64770000D03*
X106680000Y-64770000D03*
%TD*%
D10*
%TO.C,J3*%
X90170000Y-45720000D03*
D11*
X90170000Y-48260000D03*
X92710000Y-45720000D03*
X92710000Y-48260000D03*
X95250000Y-45720000D03*
X95250000Y-48260000D03*
X97790000Y-45720000D03*
X97790000Y-48260000D03*
X100330000Y-45720000D03*
X100330000Y-48260000D03*
X102870000Y-45720000D03*
X102870000Y-48260000D03*
%TD*%
%TO.C,J2*%
X90170000Y-68580000D03*
X90170000Y-71120000D03*
X92710000Y-68580000D03*
X92710000Y-71120000D03*
X95250000Y-68580000D03*
X95250000Y-71120000D03*
X97790000Y-68580000D03*
X97790000Y-71120000D03*
X100330000Y-68580000D03*
X100330000Y-71120000D03*
X102870000Y-68580000D03*
D10*
X102870000Y-71120000D03*
%TD*%
%TO.C,J1*%
X83820000Y-64770000D03*
D11*
X86360000Y-64770000D03*
X83820000Y-62230000D03*
X86360000Y-62230000D03*
X83820000Y-59690000D03*
X86360000Y-59690000D03*
X83820000Y-57150000D03*
X86360000Y-57150000D03*
X83820000Y-54610000D03*
X86360000Y-54610000D03*
X83820000Y-52070000D03*
X86360000Y-52070000D03*
%TD*%
D12*
%TO.C,C14*%
X90424000Y-64542000D03*
X90424000Y-62992000D03*
%TD*%
%TO.C,C13*%
X92202000Y-64542000D03*
X92202000Y-62992000D03*
%TD*%
D13*
%TO.C,C3*%
X92202000Y-59944000D03*
X92202000Y-61494000D03*
%TD*%
%TO.C,C12*%
X88646000Y-59957000D03*
X88646000Y-61507000D03*
%TD*%
%TO.C,C7*%
X90424000Y-59957000D03*
X90424000Y-61507000D03*
%TD*%
D12*
%TO.C,C15*%
X88646000Y-64542000D03*
X88646000Y-62992000D03*
%TD*%
D14*
%TO.C,C16*%
X95250000Y-62230000D03*
X93700000Y-62230000D03*
%TD*%
D15*
%TO.C,C10*%
X99822000Y-56489600D03*
X101372000Y-56489600D03*
%TD*%
D12*
%TO.C,C1*%
X83820000Y-49543000D03*
X83820000Y-47993000D03*
%TD*%
D15*
%TO.C,C11*%
X99822000Y-60198000D03*
X101372000Y-60198000D03*
%TD*%
D16*
%TO.C,Y1*%
X96774000Y-56498000D03*
X96774000Y-60198000D03*
%TD*%
M02*
