%TF.GenerationSoftware,KiCad,Pcbnew,7.0.8*%
%TF.CreationDate,2024-03-04T23:40:14+01:00*%
%TF.ProjectId,scalenie,7363616c-656e-4696-952e-6b696361645f,rev?*%
%TF.SameCoordinates,Original*%
%TF.FileFunction,Paste,Top*%
%TF.FilePolarity,Positive*%
%FSLAX46Y46*%
G04 Gerber Fmt 4.6, Leading zero omitted, Abs format (unit mm)*
G04 Created by KiCad (PCBNEW 7.0.8) date 2024-03-04 23:40:14*
%MOMM*%
%LPD*%
G01*
G04 APERTURE LIST*
G04 Aperture macros list*
%AMRoundRect*
0 Rectangle with rounded corners*
0 $1 Rounding radius*
0 $2 $3 $4 $5 $6 $7 $8 $9 X,Y pos of 4 corners*
0 Add a 4 corners polygon primitive as box body*
4,1,4,$2,$3,$4,$5,$6,$7,$8,$9,$2,$3,0*
0 Add four circle primitives for the rounded corners*
1,1,$1+$1,$2,$3*
1,1,$1+$1,$4,$5*
1,1,$1+$1,$6,$7*
1,1,$1+$1,$8,$9*
0 Add four rect primitives between the rounded corners*
20,1,$1+$1,$2,$3,$4,$5,0*
20,1,$1+$1,$4,$5,$6,$7,0*
20,1,$1+$1,$6,$7,$8,$9,0*
20,1,$1+$1,$8,$9,$2,$3,0*%
G04 Aperture macros list end*
%ADD10RoundRect,0.075000X0.075000X-0.662500X0.075000X0.662500X-0.075000X0.662500X-0.075000X-0.662500X0*%
%ADD11RoundRect,0.075000X0.662500X-0.075000X0.662500X0.075000X-0.662500X0.075000X-0.662500X-0.075000X0*%
%ADD12RoundRect,0.225000X-0.225000X-0.250000X0.225000X-0.250000X0.225000X0.250000X-0.225000X0.250000X0*%
%ADD13RoundRect,0.225000X0.250000X-0.225000X0.250000X0.225000X-0.250000X0.225000X-0.250000X-0.225000X0*%
%ADD14RoundRect,0.075000X-0.662500X-0.075000X0.662500X-0.075000X0.662500X0.075000X-0.662500X0.075000X0*%
%ADD15RoundRect,0.075000X-0.075000X-0.662500X0.075000X-0.662500X0.075000X0.662500X-0.075000X0.662500X0*%
%ADD16RoundRect,0.225000X-0.250000X0.225000X-0.250000X-0.225000X0.250000X-0.225000X0.250000X0.225000X0*%
G04 APERTURE END LIST*
D10*
%TO.C,U1*%
X143808000Y-160626500D03*
X144308000Y-160626500D03*
X144808000Y-160626500D03*
X145308000Y-160626500D03*
X145808000Y-160626500D03*
X146308000Y-160626500D03*
X146808000Y-160626500D03*
X147308000Y-160626500D03*
X147808000Y-160626500D03*
X148308000Y-160626500D03*
X148808000Y-160626500D03*
X149308000Y-160626500D03*
D11*
X150720500Y-159214000D03*
X150720500Y-158714000D03*
X150720500Y-158214000D03*
X150720500Y-157714000D03*
X150720500Y-157214000D03*
X150720500Y-156714000D03*
X150720500Y-156214000D03*
X150720500Y-155714000D03*
X150720500Y-155214000D03*
X150720500Y-154714000D03*
X150720500Y-154214000D03*
X150720500Y-153714000D03*
D10*
X149308000Y-152301500D03*
X148808000Y-152301500D03*
X148308000Y-152301500D03*
X147808000Y-152301500D03*
X147308000Y-152301500D03*
X146808000Y-152301500D03*
X146308000Y-152301500D03*
X145808000Y-152301500D03*
X145308000Y-152301500D03*
X144808000Y-152301500D03*
X144308000Y-152301500D03*
X143808000Y-152301500D03*
D11*
X142395500Y-153714000D03*
X142395500Y-154214000D03*
X142395500Y-154714000D03*
X142395500Y-155214000D03*
X142395500Y-155714000D03*
X142395500Y-156214000D03*
X142395500Y-156714000D03*
X142395500Y-157214000D03*
X142395500Y-157714000D03*
X142395500Y-158214000D03*
X142395500Y-158714000D03*
X142395500Y-159214000D03*
%TD*%
D12*
%TO.C,C9*%
X136131000Y-146050000D03*
X137681000Y-146050000D03*
%TD*%
D13*
%TO.C,C2*%
X156972000Y-147587000D03*
X156972000Y-146037000D03*
%TD*%
D12*
%TO.C,C4*%
X136144000Y-144018000D03*
X137694000Y-144018000D03*
%TD*%
D13*
%TO.C,C5*%
X159004000Y-147600000D03*
X159004000Y-146050000D03*
%TD*%
%TO.C,C8*%
X136144000Y-166904000D03*
X136144000Y-165354000D03*
%TD*%
%TO.C,C6*%
X134112000Y-166891000D03*
X134112000Y-165341000D03*
%TD*%
D10*
%TO.C,U1*%
X110788000Y-160626500D03*
X111288000Y-160626500D03*
X111788000Y-160626500D03*
X112288000Y-160626500D03*
X112788000Y-160626500D03*
X113288000Y-160626500D03*
X113788000Y-160626500D03*
X114288000Y-160626500D03*
X114788000Y-160626500D03*
X115288000Y-160626500D03*
X115788000Y-160626500D03*
X116288000Y-160626500D03*
D11*
X117700500Y-159214000D03*
X117700500Y-158714000D03*
X117700500Y-158214000D03*
X117700500Y-157714000D03*
X117700500Y-157214000D03*
X117700500Y-156714000D03*
X117700500Y-156214000D03*
X117700500Y-155714000D03*
X117700500Y-155214000D03*
X117700500Y-154714000D03*
X117700500Y-154214000D03*
X117700500Y-153714000D03*
D10*
X116288000Y-152301500D03*
X115788000Y-152301500D03*
X115288000Y-152301500D03*
X114788000Y-152301500D03*
X114288000Y-152301500D03*
X113788000Y-152301500D03*
X113288000Y-152301500D03*
X112788000Y-152301500D03*
X112288000Y-152301500D03*
X111788000Y-152301500D03*
X111288000Y-152301500D03*
X110788000Y-152301500D03*
D11*
X109375500Y-153714000D03*
X109375500Y-154214000D03*
X109375500Y-154714000D03*
X109375500Y-155214000D03*
X109375500Y-155714000D03*
X109375500Y-156214000D03*
X109375500Y-156714000D03*
X109375500Y-157214000D03*
X109375500Y-157714000D03*
X109375500Y-158214000D03*
X109375500Y-158714000D03*
X109375500Y-159214000D03*
%TD*%
D12*
%TO.C,C9*%
X103111000Y-146050000D03*
X104661000Y-146050000D03*
%TD*%
D13*
%TO.C,C2*%
X123952000Y-147587000D03*
X123952000Y-146037000D03*
%TD*%
D12*
%TO.C,C4*%
X103124000Y-144018000D03*
X104674000Y-144018000D03*
%TD*%
D13*
%TO.C,C5*%
X125984000Y-147600000D03*
X125984000Y-146050000D03*
%TD*%
%TO.C,C8*%
X103124000Y-166904000D03*
X103124000Y-165354000D03*
%TD*%
%TO.C,C6*%
X101092000Y-166891000D03*
X101092000Y-165341000D03*
%TD*%
D10*
%TO.C,U1*%
X77768000Y-160626500D03*
X78268000Y-160626500D03*
X78768000Y-160626500D03*
X79268000Y-160626500D03*
X79768000Y-160626500D03*
X80268000Y-160626500D03*
X80768000Y-160626500D03*
X81268000Y-160626500D03*
X81768000Y-160626500D03*
X82268000Y-160626500D03*
X82768000Y-160626500D03*
X83268000Y-160626500D03*
D11*
X84680500Y-159214000D03*
X84680500Y-158714000D03*
X84680500Y-158214000D03*
X84680500Y-157714000D03*
X84680500Y-157214000D03*
X84680500Y-156714000D03*
X84680500Y-156214000D03*
X84680500Y-155714000D03*
X84680500Y-155214000D03*
X84680500Y-154714000D03*
X84680500Y-154214000D03*
X84680500Y-153714000D03*
D10*
X83268000Y-152301500D03*
X82768000Y-152301500D03*
X82268000Y-152301500D03*
X81768000Y-152301500D03*
X81268000Y-152301500D03*
X80768000Y-152301500D03*
X80268000Y-152301500D03*
X79768000Y-152301500D03*
X79268000Y-152301500D03*
X78768000Y-152301500D03*
X78268000Y-152301500D03*
X77768000Y-152301500D03*
D11*
X76355500Y-153714000D03*
X76355500Y-154214000D03*
X76355500Y-154714000D03*
X76355500Y-155214000D03*
X76355500Y-155714000D03*
X76355500Y-156214000D03*
X76355500Y-156714000D03*
X76355500Y-157214000D03*
X76355500Y-157714000D03*
X76355500Y-158214000D03*
X76355500Y-158714000D03*
X76355500Y-159214000D03*
%TD*%
D12*
%TO.C,C9*%
X70091000Y-146050000D03*
X71641000Y-146050000D03*
%TD*%
D13*
%TO.C,C2*%
X90932000Y-147587000D03*
X90932000Y-146037000D03*
%TD*%
D12*
%TO.C,C4*%
X70104000Y-144018000D03*
X71654000Y-144018000D03*
%TD*%
D13*
%TO.C,C5*%
X92964000Y-147600000D03*
X92964000Y-146050000D03*
%TD*%
%TO.C,C8*%
X70104000Y-166904000D03*
X70104000Y-165354000D03*
%TD*%
%TO.C,C6*%
X68072000Y-166891000D03*
X68072000Y-165341000D03*
%TD*%
D10*
%TO.C,U1*%
X143808000Y-127606500D03*
X144308000Y-127606500D03*
X144808000Y-127606500D03*
X145308000Y-127606500D03*
X145808000Y-127606500D03*
X146308000Y-127606500D03*
X146808000Y-127606500D03*
X147308000Y-127606500D03*
X147808000Y-127606500D03*
X148308000Y-127606500D03*
X148808000Y-127606500D03*
X149308000Y-127606500D03*
D11*
X150720500Y-126194000D03*
X150720500Y-125694000D03*
X150720500Y-125194000D03*
X150720500Y-124694000D03*
X150720500Y-124194000D03*
X150720500Y-123694000D03*
X150720500Y-123194000D03*
X150720500Y-122694000D03*
X150720500Y-122194000D03*
X150720500Y-121694000D03*
X150720500Y-121194000D03*
X150720500Y-120694000D03*
D10*
X149308000Y-119281500D03*
X148808000Y-119281500D03*
X148308000Y-119281500D03*
X147808000Y-119281500D03*
X147308000Y-119281500D03*
X146808000Y-119281500D03*
X146308000Y-119281500D03*
X145808000Y-119281500D03*
X145308000Y-119281500D03*
X144808000Y-119281500D03*
X144308000Y-119281500D03*
X143808000Y-119281500D03*
D11*
X142395500Y-120694000D03*
X142395500Y-121194000D03*
X142395500Y-121694000D03*
X142395500Y-122194000D03*
X142395500Y-122694000D03*
X142395500Y-123194000D03*
X142395500Y-123694000D03*
X142395500Y-124194000D03*
X142395500Y-124694000D03*
X142395500Y-125194000D03*
X142395500Y-125694000D03*
X142395500Y-126194000D03*
%TD*%
D12*
%TO.C,C9*%
X136131000Y-113030000D03*
X137681000Y-113030000D03*
%TD*%
D13*
%TO.C,C2*%
X156972000Y-114567000D03*
X156972000Y-113017000D03*
%TD*%
D12*
%TO.C,C4*%
X136144000Y-110998000D03*
X137694000Y-110998000D03*
%TD*%
D13*
%TO.C,C5*%
X159004000Y-114580000D03*
X159004000Y-113030000D03*
%TD*%
%TO.C,C8*%
X136144000Y-133884000D03*
X136144000Y-132334000D03*
%TD*%
%TO.C,C6*%
X134112000Y-133871000D03*
X134112000Y-132321000D03*
%TD*%
D10*
%TO.C,U1*%
X110788000Y-127606500D03*
X111288000Y-127606500D03*
X111788000Y-127606500D03*
X112288000Y-127606500D03*
X112788000Y-127606500D03*
X113288000Y-127606500D03*
X113788000Y-127606500D03*
X114288000Y-127606500D03*
X114788000Y-127606500D03*
X115288000Y-127606500D03*
X115788000Y-127606500D03*
X116288000Y-127606500D03*
D11*
X117700500Y-126194000D03*
X117700500Y-125694000D03*
X117700500Y-125194000D03*
X117700500Y-124694000D03*
X117700500Y-124194000D03*
X117700500Y-123694000D03*
X117700500Y-123194000D03*
X117700500Y-122694000D03*
X117700500Y-122194000D03*
X117700500Y-121694000D03*
X117700500Y-121194000D03*
X117700500Y-120694000D03*
D10*
X116288000Y-119281500D03*
X115788000Y-119281500D03*
X115288000Y-119281500D03*
X114788000Y-119281500D03*
X114288000Y-119281500D03*
X113788000Y-119281500D03*
X113288000Y-119281500D03*
X112788000Y-119281500D03*
X112288000Y-119281500D03*
X111788000Y-119281500D03*
X111288000Y-119281500D03*
X110788000Y-119281500D03*
D11*
X109375500Y-120694000D03*
X109375500Y-121194000D03*
X109375500Y-121694000D03*
X109375500Y-122194000D03*
X109375500Y-122694000D03*
X109375500Y-123194000D03*
X109375500Y-123694000D03*
X109375500Y-124194000D03*
X109375500Y-124694000D03*
X109375500Y-125194000D03*
X109375500Y-125694000D03*
X109375500Y-126194000D03*
%TD*%
D12*
%TO.C,C9*%
X103111000Y-113030000D03*
X104661000Y-113030000D03*
%TD*%
D13*
%TO.C,C2*%
X123952000Y-114567000D03*
X123952000Y-113017000D03*
%TD*%
D12*
%TO.C,C4*%
X103124000Y-110998000D03*
X104674000Y-110998000D03*
%TD*%
D13*
%TO.C,C5*%
X125984000Y-114580000D03*
X125984000Y-113030000D03*
%TD*%
%TO.C,C8*%
X103124000Y-133884000D03*
X103124000Y-132334000D03*
%TD*%
%TO.C,C6*%
X101092000Y-133871000D03*
X101092000Y-132321000D03*
%TD*%
D10*
%TO.C,U1*%
X77768000Y-127606500D03*
X78268000Y-127606500D03*
X78768000Y-127606500D03*
X79268000Y-127606500D03*
X79768000Y-127606500D03*
X80268000Y-127606500D03*
X80768000Y-127606500D03*
X81268000Y-127606500D03*
X81768000Y-127606500D03*
X82268000Y-127606500D03*
X82768000Y-127606500D03*
X83268000Y-127606500D03*
D11*
X84680500Y-126194000D03*
X84680500Y-125694000D03*
X84680500Y-125194000D03*
X84680500Y-124694000D03*
X84680500Y-124194000D03*
X84680500Y-123694000D03*
X84680500Y-123194000D03*
X84680500Y-122694000D03*
X84680500Y-122194000D03*
X84680500Y-121694000D03*
X84680500Y-121194000D03*
X84680500Y-120694000D03*
D10*
X83268000Y-119281500D03*
X82768000Y-119281500D03*
X82268000Y-119281500D03*
X81768000Y-119281500D03*
X81268000Y-119281500D03*
X80768000Y-119281500D03*
X80268000Y-119281500D03*
X79768000Y-119281500D03*
X79268000Y-119281500D03*
X78768000Y-119281500D03*
X78268000Y-119281500D03*
X77768000Y-119281500D03*
D11*
X76355500Y-120694000D03*
X76355500Y-121194000D03*
X76355500Y-121694000D03*
X76355500Y-122194000D03*
X76355500Y-122694000D03*
X76355500Y-123194000D03*
X76355500Y-123694000D03*
X76355500Y-124194000D03*
X76355500Y-124694000D03*
X76355500Y-125194000D03*
X76355500Y-125694000D03*
X76355500Y-126194000D03*
%TD*%
D12*
%TO.C,C9*%
X70091000Y-113030000D03*
X71641000Y-113030000D03*
%TD*%
D13*
%TO.C,C2*%
X90932000Y-114567000D03*
X90932000Y-113017000D03*
%TD*%
D12*
%TO.C,C4*%
X70104000Y-110998000D03*
X71654000Y-110998000D03*
%TD*%
D13*
%TO.C,C5*%
X92964000Y-114580000D03*
X92964000Y-113030000D03*
%TD*%
%TO.C,C8*%
X70104000Y-133884000D03*
X70104000Y-132334000D03*
%TD*%
%TO.C,C6*%
X68072000Y-133871000D03*
X68072000Y-132321000D03*
%TD*%
D14*
%TO.C,U1*%
X142395500Y-87674000D03*
X142395500Y-88174000D03*
X142395500Y-88674000D03*
X142395500Y-89174000D03*
X142395500Y-89674000D03*
X142395500Y-90174000D03*
X142395500Y-90674000D03*
X142395500Y-91174000D03*
X142395500Y-91674000D03*
X142395500Y-92174000D03*
X142395500Y-92674000D03*
X142395500Y-93174000D03*
D15*
X143808000Y-94586500D03*
X144308000Y-94586500D03*
X144808000Y-94586500D03*
X145308000Y-94586500D03*
X145808000Y-94586500D03*
X146308000Y-94586500D03*
X146808000Y-94586500D03*
X147308000Y-94586500D03*
X147808000Y-94586500D03*
X148308000Y-94586500D03*
X148808000Y-94586500D03*
X149308000Y-94586500D03*
D14*
X150720500Y-93174000D03*
X150720500Y-92674000D03*
X150720500Y-92174000D03*
X150720500Y-91674000D03*
X150720500Y-91174000D03*
X150720500Y-90674000D03*
X150720500Y-90174000D03*
X150720500Y-89674000D03*
X150720500Y-89174000D03*
X150720500Y-88674000D03*
X150720500Y-88174000D03*
X150720500Y-87674000D03*
D15*
X149308000Y-86261500D03*
X148808000Y-86261500D03*
X148308000Y-86261500D03*
X147808000Y-86261500D03*
X147308000Y-86261500D03*
X146808000Y-86261500D03*
X146308000Y-86261500D03*
X145808000Y-86261500D03*
X145308000Y-86261500D03*
X144808000Y-86261500D03*
X144308000Y-86261500D03*
X143808000Y-86261500D03*
%TD*%
D16*
%TO.C,C9*%
X156972000Y-79997000D03*
X156972000Y-81547000D03*
%TD*%
D12*
%TO.C,C2*%
X155435000Y-100838000D03*
X156985000Y-100838000D03*
%TD*%
D16*
%TO.C,C4*%
X159004000Y-80010000D03*
X159004000Y-81560000D03*
%TD*%
D12*
%TO.C,C5*%
X155422000Y-102870000D03*
X156972000Y-102870000D03*
%TD*%
%TO.C,C8*%
X136118000Y-80010000D03*
X137668000Y-80010000D03*
%TD*%
%TO.C,C6*%
X136131000Y-77978000D03*
X137681000Y-77978000D03*
%TD*%
D14*
%TO.C,U1*%
X109375500Y-87674000D03*
X109375500Y-88174000D03*
X109375500Y-88674000D03*
X109375500Y-89174000D03*
X109375500Y-89674000D03*
X109375500Y-90174000D03*
X109375500Y-90674000D03*
X109375500Y-91174000D03*
X109375500Y-91674000D03*
X109375500Y-92174000D03*
X109375500Y-92674000D03*
X109375500Y-93174000D03*
D15*
X110788000Y-94586500D03*
X111288000Y-94586500D03*
X111788000Y-94586500D03*
X112288000Y-94586500D03*
X112788000Y-94586500D03*
X113288000Y-94586500D03*
X113788000Y-94586500D03*
X114288000Y-94586500D03*
X114788000Y-94586500D03*
X115288000Y-94586500D03*
X115788000Y-94586500D03*
X116288000Y-94586500D03*
D14*
X117700500Y-93174000D03*
X117700500Y-92674000D03*
X117700500Y-92174000D03*
X117700500Y-91674000D03*
X117700500Y-91174000D03*
X117700500Y-90674000D03*
X117700500Y-90174000D03*
X117700500Y-89674000D03*
X117700500Y-89174000D03*
X117700500Y-88674000D03*
X117700500Y-88174000D03*
X117700500Y-87674000D03*
D15*
X116288000Y-86261500D03*
X115788000Y-86261500D03*
X115288000Y-86261500D03*
X114788000Y-86261500D03*
X114288000Y-86261500D03*
X113788000Y-86261500D03*
X113288000Y-86261500D03*
X112788000Y-86261500D03*
X112288000Y-86261500D03*
X111788000Y-86261500D03*
X111288000Y-86261500D03*
X110788000Y-86261500D03*
%TD*%
D16*
%TO.C,C9*%
X123952000Y-79997000D03*
X123952000Y-81547000D03*
%TD*%
D12*
%TO.C,C2*%
X122415000Y-100838000D03*
X123965000Y-100838000D03*
%TD*%
D16*
%TO.C,C4*%
X125984000Y-80010000D03*
X125984000Y-81560000D03*
%TD*%
D12*
%TO.C,C5*%
X122402000Y-102870000D03*
X123952000Y-102870000D03*
%TD*%
%TO.C,C8*%
X103098000Y-80010000D03*
X104648000Y-80010000D03*
%TD*%
%TO.C,C6*%
X103111000Y-77978000D03*
X104661000Y-77978000D03*
%TD*%
%TO.C,C6*%
X70091000Y-77978000D03*
X71641000Y-77978000D03*
%TD*%
%TO.C,C8*%
X70078000Y-80010000D03*
X71628000Y-80010000D03*
%TD*%
%TO.C,C5*%
X89382000Y-102870000D03*
X90932000Y-102870000D03*
%TD*%
D16*
%TO.C,C4*%
X92964000Y-80010000D03*
X92964000Y-81560000D03*
%TD*%
D12*
%TO.C,C2*%
X89395000Y-100838000D03*
X90945000Y-100838000D03*
%TD*%
D16*
%TO.C,C9*%
X90932000Y-79997000D03*
X90932000Y-81547000D03*
%TD*%
D14*
%TO.C,U1*%
X76355500Y-87674000D03*
X76355500Y-88174000D03*
X76355500Y-88674000D03*
X76355500Y-89174000D03*
X76355500Y-89674000D03*
X76355500Y-90174000D03*
X76355500Y-90674000D03*
X76355500Y-91174000D03*
X76355500Y-91674000D03*
X76355500Y-92174000D03*
X76355500Y-92674000D03*
X76355500Y-93174000D03*
D15*
X77768000Y-94586500D03*
X78268000Y-94586500D03*
X78768000Y-94586500D03*
X79268000Y-94586500D03*
X79768000Y-94586500D03*
X80268000Y-94586500D03*
X80768000Y-94586500D03*
X81268000Y-94586500D03*
X81768000Y-94586500D03*
X82268000Y-94586500D03*
X82768000Y-94586500D03*
X83268000Y-94586500D03*
D14*
X84680500Y-93174000D03*
X84680500Y-92674000D03*
X84680500Y-92174000D03*
X84680500Y-91674000D03*
X84680500Y-91174000D03*
X84680500Y-90674000D03*
X84680500Y-90174000D03*
X84680500Y-89674000D03*
X84680500Y-89174000D03*
X84680500Y-88674000D03*
X84680500Y-88174000D03*
X84680500Y-87674000D03*
D15*
X83268000Y-86261500D03*
X82768000Y-86261500D03*
X82268000Y-86261500D03*
X81768000Y-86261500D03*
X81268000Y-86261500D03*
X80768000Y-86261500D03*
X80268000Y-86261500D03*
X79768000Y-86261500D03*
X79268000Y-86261500D03*
X78768000Y-86261500D03*
X78268000Y-86261500D03*
X77768000Y-86261500D03*
%TD*%
M02*
