M48
; DRILL file {KiCad 7.0.8} date Mon Mar  4 23:40:17 2024
; FORMAT={-:-/ absolute / inch / decimal}
; #@! TF.CreationDate,2024-03-04T23:40:17+01:00
; #@! TF.GenerationSoftware,Kicad,Pcbnew,7.0.8
; #@! TF.FileFunction,Plated,1,2,PTH
FMAT,2
INCH
; #@! TA.AperFunction,Plated,PTH,ViaDrill
T1C0.0157
; #@! TA.AperFunction,Plated,PTH,ComponentDrill
T2C0.0394
%
G90
G05
T1
X3.0Y-3.39
X3.0Y-4.69
X3.0Y-5.03
X3.0Y-5.99
X3.0Y-6.33
X3.08Y-3.49
X3.08Y-3.59
X3.1Y-4.95
X3.1Y-6.25
X3.2Y-4.95
X3.2Y-6.25
X3.34Y-3.39
X3.34Y-3.73
X3.34Y-4.69
X3.34Y-5.99
X4.3Y-3.39
X4.3Y-4.69
X4.3Y-5.03
X4.3Y-5.99
X4.3Y-6.33
X4.38Y-3.49
X4.38Y-3.59
X4.4Y-4.95
X4.4Y-6.25
X4.5Y-4.95
X4.5Y-6.25
X4.64Y-3.39
X4.64Y-3.73
X4.64Y-4.69
X4.64Y-5.99
X5.6Y-3.39
X5.6Y-4.69
X5.6Y-5.03
X5.6Y-5.99
X5.6Y-6.33
X5.68Y-3.49
X5.68Y-3.59
X5.7Y-4.95
X5.7Y-6.25
X5.8Y-4.95
X5.8Y-6.25
X5.94Y-3.39
X5.94Y-3.73
X5.94Y-4.69
X5.94Y-5.99
T2
X2.67Y-3.31
X2.67Y-3.41
X2.67Y-3.51
X2.67Y-3.61
X2.67Y-3.71
X2.67Y-3.81
X2.67Y-4.61
X2.67Y-4.71
X2.67Y-4.81
X2.67Y-4.91
X2.67Y-5.01
X2.67Y-5.11
X2.67Y-5.91
X2.67Y-6.01
X2.67Y-6.11
X2.67Y-6.21
X2.67Y-6.31
X2.67Y-6.41
X2.77Y-3.31
X2.77Y-3.41
X2.77Y-3.51
X2.77Y-3.61
X2.77Y-3.71
X2.77Y-3.81
X2.77Y-4.61
X2.77Y-4.71
X2.77Y-4.81
X2.77Y-4.91
X2.77Y-5.01
X2.77Y-5.11
X2.77Y-5.91
X2.77Y-6.01
X2.77Y-6.11
X2.77Y-6.21
X2.77Y-6.31
X2.77Y-6.41
X2.92Y-3.06
X2.92Y-3.16
X2.92Y-3.96
X2.92Y-4.06
X2.92Y-4.36
X2.92Y-4.46
X2.92Y-5.26
X2.92Y-5.36
X2.92Y-5.66
X2.92Y-5.76
X2.92Y-6.56
X2.92Y-6.66
X3.02Y-3.06
X3.02Y-3.16
X3.02Y-3.96
X3.02Y-4.06
X3.02Y-4.36
X3.02Y-4.46
X3.02Y-5.26
X3.02Y-5.36
X3.02Y-5.66
X3.02Y-5.76
X3.02Y-6.56
X3.02Y-6.66
X3.12Y-3.06
X3.12Y-3.16
X3.12Y-3.96
X3.12Y-4.06
X3.12Y-4.36
X3.12Y-4.46
X3.12Y-5.26
X3.12Y-5.36
X3.12Y-5.66
X3.12Y-5.76
X3.12Y-6.56
X3.12Y-6.66
X3.22Y-3.06
X3.22Y-3.16
X3.22Y-3.96
X3.22Y-4.06
X3.22Y-4.36
X3.22Y-4.46
X3.22Y-5.26
X3.22Y-5.36
X3.22Y-5.66
X3.22Y-5.76
X3.22Y-6.56
X3.22Y-6.66
X3.32Y-3.06
X3.32Y-3.16
X3.32Y-3.96
X3.32Y-4.06
X3.32Y-4.36
X3.32Y-4.46
X3.32Y-5.26
X3.32Y-5.36
X3.32Y-5.66
X3.32Y-5.76
X3.32Y-6.56
X3.32Y-6.66
X3.42Y-3.06
X3.42Y-3.16
X3.42Y-3.96
X3.42Y-4.06
X3.42Y-4.36
X3.42Y-4.46
X3.42Y-5.26
X3.42Y-5.36
X3.42Y-5.66
X3.42Y-5.76
X3.42Y-6.56
X3.42Y-6.66
X3.57Y-3.31
X3.57Y-3.41
X3.57Y-3.51
X3.57Y-3.61
X3.57Y-3.71
X3.57Y-3.81
X3.57Y-4.61
X3.57Y-4.71
X3.57Y-4.81
X3.57Y-4.91
X3.57Y-5.01
X3.57Y-5.11
X3.57Y-5.91
X3.57Y-6.01
X3.57Y-6.11
X3.57Y-6.21
X3.57Y-6.31
X3.57Y-6.41
X3.67Y-3.31
X3.67Y-3.41
X3.67Y-3.51
X3.67Y-3.61
X3.67Y-3.71
X3.67Y-3.81
X3.67Y-4.61
X3.67Y-4.71
X3.67Y-4.81
X3.67Y-4.91
X3.67Y-5.01
X3.67Y-5.11
X3.67Y-5.91
X3.67Y-6.01
X3.67Y-6.11
X3.67Y-6.21
X3.67Y-6.31
X3.67Y-6.41
X3.97Y-3.31
X3.97Y-3.41
X3.97Y-3.51
X3.97Y-3.61
X3.97Y-3.71
X3.97Y-3.81
X3.97Y-4.61
X3.97Y-4.71
X3.97Y-4.81
X3.97Y-4.91
X3.97Y-5.01
X3.97Y-5.11
X3.97Y-5.91
X3.97Y-6.01
X3.97Y-6.11
X3.97Y-6.21
X3.97Y-6.31
X3.97Y-6.41
X4.07Y-3.31
X4.07Y-3.41
X4.07Y-3.51
X4.07Y-3.61
X4.07Y-3.71
X4.07Y-3.81
X4.07Y-4.61
X4.07Y-4.71
X4.07Y-4.81
X4.07Y-4.91
X4.07Y-5.01
X4.07Y-5.11
X4.07Y-5.91
X4.07Y-6.01
X4.07Y-6.11
X4.07Y-6.21
X4.07Y-6.31
X4.07Y-6.41
X4.22Y-3.06
X4.22Y-3.16
X4.22Y-3.96
X4.22Y-4.06
X4.22Y-4.36
X4.22Y-4.46
X4.22Y-5.26
X4.22Y-5.36
X4.22Y-5.66
X4.22Y-5.76
X4.22Y-6.56
X4.22Y-6.66
X4.32Y-3.06
X4.32Y-3.16
X4.32Y-3.96
X4.32Y-4.06
X4.32Y-4.36
X4.32Y-4.46
X4.32Y-5.26
X4.32Y-5.36
X4.32Y-5.66
X4.32Y-5.76
X4.32Y-6.56
X4.32Y-6.66
X4.42Y-3.06
X4.42Y-3.16
X4.42Y-3.96
X4.42Y-4.06
X4.42Y-4.36
X4.42Y-4.46
X4.42Y-5.26
X4.42Y-5.36
X4.42Y-5.66
X4.42Y-5.76
X4.42Y-6.56
X4.42Y-6.66
X4.52Y-3.06
X4.52Y-3.16
X4.52Y-3.96
X4.52Y-4.06
X4.52Y-4.36
X4.52Y-4.46
X4.52Y-5.26
X4.52Y-5.36
X4.52Y-5.66
X4.52Y-5.76
X4.52Y-6.56
X4.52Y-6.66
X4.62Y-3.06
X4.62Y-3.16
X4.62Y-3.96
X4.62Y-4.06
X4.62Y-4.36
X4.62Y-4.46
X4.62Y-5.26
X4.62Y-5.36
X4.62Y-5.66
X4.62Y-5.76
X4.62Y-6.56
X4.62Y-6.66
X4.72Y-3.06
X4.72Y-3.16
X4.72Y-3.96
X4.72Y-4.06
X4.72Y-4.36
X4.72Y-4.46
X4.72Y-5.26
X4.72Y-5.36
X4.72Y-5.66
X4.72Y-5.76
X4.72Y-6.56
X4.72Y-6.66
X4.87Y-3.31
X4.87Y-3.41
X4.87Y-3.51
X4.87Y-3.61
X4.87Y-3.71
X4.87Y-3.81
X4.87Y-4.61
X4.87Y-4.71
X4.87Y-4.81
X4.87Y-4.91
X4.87Y-5.01
X4.87Y-5.11
X4.87Y-5.91
X4.87Y-6.01
X4.87Y-6.11
X4.87Y-6.21
X4.87Y-6.31
X4.87Y-6.41
X4.97Y-3.31
X4.97Y-3.41
X4.97Y-3.51
X4.97Y-3.61
X4.97Y-3.71
X4.97Y-3.81
X4.97Y-4.61
X4.97Y-4.71
X4.97Y-4.81
X4.97Y-4.91
X4.97Y-5.01
X4.97Y-5.11
X4.97Y-5.91
X4.97Y-6.01
X4.97Y-6.11
X4.97Y-6.21
X4.97Y-6.31
X4.97Y-6.41
X5.27Y-3.31
X5.27Y-3.41
X5.27Y-3.51
X5.27Y-3.61
X5.27Y-3.71
X5.27Y-3.81
X5.27Y-4.61
X5.27Y-4.71
X5.27Y-4.81
X5.27Y-4.91
X5.27Y-5.01
X5.27Y-5.11
X5.27Y-5.91
X5.27Y-6.01
X5.27Y-6.11
X5.27Y-6.21
X5.27Y-6.31
X5.27Y-6.41
X5.37Y-3.31
X5.37Y-3.41
X5.37Y-3.51
X5.37Y-3.61
X5.37Y-3.71
X5.37Y-3.81
X5.37Y-4.61
X5.37Y-4.71
X5.37Y-4.81
X5.37Y-4.91
X5.37Y-5.01
X5.37Y-5.11
X5.37Y-5.91
X5.37Y-6.01
X5.37Y-6.11
X5.37Y-6.21
X5.37Y-6.31
X5.37Y-6.41
X5.52Y-3.06
X5.52Y-3.16
X5.52Y-3.96
X5.52Y-4.06
X5.52Y-4.36
X5.52Y-4.46
X5.52Y-5.26
X5.52Y-5.36
X5.52Y-5.66
X5.52Y-5.76
X5.52Y-6.56
X5.52Y-6.66
X5.62Y-3.06
X5.62Y-3.16
X5.62Y-3.96
X5.62Y-4.06
X5.62Y-4.36
X5.62Y-4.46
X5.62Y-5.26
X5.62Y-5.36
X5.62Y-5.66
X5.62Y-5.76
X5.62Y-6.56
X5.62Y-6.66
X5.72Y-3.06
X5.72Y-3.16
X5.72Y-3.96
X5.72Y-4.06
X5.72Y-4.36
X5.72Y-4.46
X5.72Y-5.26
X5.72Y-5.36
X5.72Y-5.66
X5.72Y-5.76
X5.72Y-6.56
X5.72Y-6.66
X5.82Y-3.06
X5.82Y-3.16
X5.82Y-3.96
X5.82Y-4.06
X5.82Y-4.36
X5.82Y-4.46
X5.82Y-5.26
X5.82Y-5.36
X5.82Y-5.66
X5.82Y-5.76
X5.82Y-6.56
X5.82Y-6.66
X5.92Y-3.06
X5.92Y-3.16
X5.92Y-3.96
X5.92Y-4.06
X5.92Y-4.36
X5.92Y-4.46
X5.92Y-5.26
X5.92Y-5.36
X5.92Y-5.66
X5.92Y-5.76
X5.92Y-6.56
X5.92Y-6.66
X6.02Y-3.06
X6.02Y-3.16
X6.02Y-3.96
X6.02Y-4.06
X6.02Y-4.36
X6.02Y-4.46
X6.02Y-5.26
X6.02Y-5.36
X6.02Y-5.66
X6.02Y-5.76
X6.02Y-6.56
X6.02Y-6.66
X6.17Y-3.31
X6.17Y-3.41
X6.17Y-3.51
X6.17Y-3.61
X6.17Y-3.71
X6.17Y-3.81
X6.17Y-4.61
X6.17Y-4.71
X6.17Y-4.81
X6.17Y-4.91
X6.17Y-5.01
X6.17Y-5.11
X6.17Y-5.91
X6.17Y-6.01
X6.17Y-6.11
X6.17Y-6.21
X6.17Y-6.31
X6.17Y-6.41
X6.27Y-3.31
X6.27Y-3.41
X6.27Y-3.51
X6.27Y-3.61
X6.27Y-3.71
X6.27Y-3.81
X6.27Y-4.61
X6.27Y-4.71
X6.27Y-4.81
X6.27Y-4.91
X6.27Y-5.01
X6.27Y-5.11
X6.27Y-5.91
X6.27Y-6.01
X6.27Y-6.11
X6.27Y-6.21
X6.27Y-6.31
X6.27Y-6.41
T0
M30
