%TF.GenerationSoftware,KiCad,Pcbnew,7.0.8*%
%TF.CreationDate,2024-03-04T23:40:14+01:00*%
%TF.ProjectId,scalenie,7363616c-656e-4696-952e-6b696361645f,rev?*%
%TF.SameCoordinates,Original*%
%TF.FileFunction,Legend,Top*%
%TF.FilePolarity,Positive*%
%FSLAX46Y46*%
G04 Gerber Fmt 4.6, Leading zero omitted, Abs format (unit mm)*
G04 Created by KiCad (PCBNEW 7.0.8) date 2024-03-04 23:40:14*
%MOMM*%
%LPD*%
G01*
G04 APERTURE LIST*
%ADD10C,0.150000*%
%ADD11C,0.120000*%
G04 APERTURE END LIST*
D10*
X153569200Y-162297333D02*
X153616819Y-162154476D01*
X153616819Y-162154476D02*
X153616819Y-161916381D01*
X153616819Y-161916381D02*
X153569200Y-161821143D01*
X153569200Y-161821143D02*
X153521580Y-161773524D01*
X153521580Y-161773524D02*
X153426342Y-161725905D01*
X153426342Y-161725905D02*
X153331104Y-161725905D01*
X153331104Y-161725905D02*
X153235866Y-161773524D01*
X153235866Y-161773524D02*
X153188247Y-161821143D01*
X153188247Y-161821143D02*
X153140628Y-161916381D01*
X153140628Y-161916381D02*
X153093009Y-162106857D01*
X153093009Y-162106857D02*
X153045390Y-162202095D01*
X153045390Y-162202095D02*
X152997771Y-162249714D01*
X152997771Y-162249714D02*
X152902533Y-162297333D01*
X152902533Y-162297333D02*
X152807295Y-162297333D01*
X152807295Y-162297333D02*
X152712057Y-162249714D01*
X152712057Y-162249714D02*
X152664438Y-162202095D01*
X152664438Y-162202095D02*
X152616819Y-162106857D01*
X152616819Y-162106857D02*
X152616819Y-161868762D01*
X152616819Y-161868762D02*
X152664438Y-161725905D01*
X152616819Y-161440190D02*
X152616819Y-160868762D01*
X153616819Y-161154476D02*
X152616819Y-161154476D01*
X153616819Y-160535428D02*
X152616819Y-160535428D01*
X152616819Y-160535428D02*
X153331104Y-160202095D01*
X153331104Y-160202095D02*
X152616819Y-159868762D01*
X152616819Y-159868762D02*
X153616819Y-159868762D01*
X152616819Y-159487809D02*
X152616819Y-158868762D01*
X152616819Y-158868762D02*
X152997771Y-159202095D01*
X152997771Y-159202095D02*
X152997771Y-159059238D01*
X152997771Y-159059238D02*
X153045390Y-158964000D01*
X153045390Y-158964000D02*
X153093009Y-158916381D01*
X153093009Y-158916381D02*
X153188247Y-158868762D01*
X153188247Y-158868762D02*
X153426342Y-158868762D01*
X153426342Y-158868762D02*
X153521580Y-158916381D01*
X153521580Y-158916381D02*
X153569200Y-158964000D01*
X153569200Y-158964000D02*
X153616819Y-159059238D01*
X153616819Y-159059238D02*
X153616819Y-159344952D01*
X153616819Y-159344952D02*
X153569200Y-159440190D01*
X153569200Y-159440190D02*
X153521580Y-159487809D01*
X152712057Y-158487809D02*
X152664438Y-158440190D01*
X152664438Y-158440190D02*
X152616819Y-158344952D01*
X152616819Y-158344952D02*
X152616819Y-158106857D01*
X152616819Y-158106857D02*
X152664438Y-158011619D01*
X152664438Y-158011619D02*
X152712057Y-157964000D01*
X152712057Y-157964000D02*
X152807295Y-157916381D01*
X152807295Y-157916381D02*
X152902533Y-157916381D01*
X152902533Y-157916381D02*
X153045390Y-157964000D01*
X153045390Y-157964000D02*
X153616819Y-158535428D01*
X153616819Y-158535428D02*
X153616819Y-157916381D01*
X153093009Y-157154476D02*
X153093009Y-157487809D01*
X153616819Y-157487809D02*
X152616819Y-157487809D01*
X152616819Y-157487809D02*
X152616819Y-157011619D01*
X152616819Y-156440190D02*
X152616819Y-156344952D01*
X152616819Y-156344952D02*
X152664438Y-156249714D01*
X152664438Y-156249714D02*
X152712057Y-156202095D01*
X152712057Y-156202095D02*
X152807295Y-156154476D01*
X152807295Y-156154476D02*
X152997771Y-156106857D01*
X152997771Y-156106857D02*
X153235866Y-156106857D01*
X153235866Y-156106857D02*
X153426342Y-156154476D01*
X153426342Y-156154476D02*
X153521580Y-156202095D01*
X153521580Y-156202095D02*
X153569200Y-156249714D01*
X153569200Y-156249714D02*
X153616819Y-156344952D01*
X153616819Y-156344952D02*
X153616819Y-156440190D01*
X153616819Y-156440190D02*
X153569200Y-156535428D01*
X153569200Y-156535428D02*
X153521580Y-156583047D01*
X153521580Y-156583047D02*
X153426342Y-156630666D01*
X153426342Y-156630666D02*
X153235866Y-156678285D01*
X153235866Y-156678285D02*
X152997771Y-156678285D01*
X152997771Y-156678285D02*
X152807295Y-156630666D01*
X152807295Y-156630666D02*
X152712057Y-156583047D01*
X152712057Y-156583047D02*
X152664438Y-156535428D01*
X152664438Y-156535428D02*
X152616819Y-156440190D01*
X152616819Y-155773523D02*
X152616819Y-155106857D01*
X152616819Y-155106857D02*
X153616819Y-155535428D01*
X153616819Y-154202095D02*
X153616819Y-154773523D01*
X153616819Y-154487809D02*
X152616819Y-154487809D01*
X152616819Y-154487809D02*
X152759676Y-154583047D01*
X152759676Y-154583047D02*
X152854914Y-154678285D01*
X152854914Y-154678285D02*
X152902533Y-154773523D01*
X153521580Y-153202095D02*
X153569200Y-153249714D01*
X153569200Y-153249714D02*
X153616819Y-153392571D01*
X153616819Y-153392571D02*
X153616819Y-153487809D01*
X153616819Y-153487809D02*
X153569200Y-153630666D01*
X153569200Y-153630666D02*
X153473961Y-153725904D01*
X153473961Y-153725904D02*
X153378723Y-153773523D01*
X153378723Y-153773523D02*
X153188247Y-153821142D01*
X153188247Y-153821142D02*
X153045390Y-153821142D01*
X153045390Y-153821142D02*
X152854914Y-153773523D01*
X152854914Y-153773523D02*
X152759676Y-153725904D01*
X152759676Y-153725904D02*
X152664438Y-153630666D01*
X152664438Y-153630666D02*
X152616819Y-153487809D01*
X152616819Y-153487809D02*
X152616819Y-153392571D01*
X152616819Y-153392571D02*
X152664438Y-153249714D01*
X152664438Y-153249714D02*
X152712057Y-153202095D01*
X153093009Y-152440190D02*
X153140628Y-152297333D01*
X153140628Y-152297333D02*
X153188247Y-152249714D01*
X153188247Y-152249714D02*
X153283485Y-152202095D01*
X153283485Y-152202095D02*
X153426342Y-152202095D01*
X153426342Y-152202095D02*
X153521580Y-152249714D01*
X153521580Y-152249714D02*
X153569200Y-152297333D01*
X153569200Y-152297333D02*
X153616819Y-152392571D01*
X153616819Y-152392571D02*
X153616819Y-152773523D01*
X153616819Y-152773523D02*
X152616819Y-152773523D01*
X152616819Y-152773523D02*
X152616819Y-152440190D01*
X152616819Y-152440190D02*
X152664438Y-152344952D01*
X152664438Y-152344952D02*
X152712057Y-152297333D01*
X152712057Y-152297333D02*
X152807295Y-152249714D01*
X152807295Y-152249714D02*
X152902533Y-152249714D01*
X152902533Y-152249714D02*
X152997771Y-152297333D01*
X152997771Y-152297333D02*
X153045390Y-152344952D01*
X153045390Y-152344952D02*
X153093009Y-152440190D01*
X153093009Y-152440190D02*
X153093009Y-152773523D01*
X152616819Y-151916380D02*
X152616819Y-151344952D01*
X153616819Y-151630666D02*
X152616819Y-151630666D01*
X153616819Y-151106856D02*
X152950152Y-150583047D01*
X152950152Y-151106856D02*
X153616819Y-150583047D01*
X146012819Y-157225904D02*
X146822342Y-157225904D01*
X146822342Y-157225904D02*
X146917580Y-157178285D01*
X146917580Y-157178285D02*
X146965200Y-157130666D01*
X146965200Y-157130666D02*
X147012819Y-157035428D01*
X147012819Y-157035428D02*
X147012819Y-156844952D01*
X147012819Y-156844952D02*
X146965200Y-156749714D01*
X146965200Y-156749714D02*
X146917580Y-156702095D01*
X146917580Y-156702095D02*
X146822342Y-156654476D01*
X146822342Y-156654476D02*
X146012819Y-156654476D01*
X147012819Y-155654476D02*
X147012819Y-156225904D01*
X147012819Y-155940190D02*
X146012819Y-155940190D01*
X146012819Y-155940190D02*
X146155676Y-156035428D01*
X146155676Y-156035428D02*
X146250914Y-156130666D01*
X146250914Y-156130666D02*
X146298533Y-156225904D01*
X120549200Y-162297333D02*
X120596819Y-162154476D01*
X120596819Y-162154476D02*
X120596819Y-161916381D01*
X120596819Y-161916381D02*
X120549200Y-161821143D01*
X120549200Y-161821143D02*
X120501580Y-161773524D01*
X120501580Y-161773524D02*
X120406342Y-161725905D01*
X120406342Y-161725905D02*
X120311104Y-161725905D01*
X120311104Y-161725905D02*
X120215866Y-161773524D01*
X120215866Y-161773524D02*
X120168247Y-161821143D01*
X120168247Y-161821143D02*
X120120628Y-161916381D01*
X120120628Y-161916381D02*
X120073009Y-162106857D01*
X120073009Y-162106857D02*
X120025390Y-162202095D01*
X120025390Y-162202095D02*
X119977771Y-162249714D01*
X119977771Y-162249714D02*
X119882533Y-162297333D01*
X119882533Y-162297333D02*
X119787295Y-162297333D01*
X119787295Y-162297333D02*
X119692057Y-162249714D01*
X119692057Y-162249714D02*
X119644438Y-162202095D01*
X119644438Y-162202095D02*
X119596819Y-162106857D01*
X119596819Y-162106857D02*
X119596819Y-161868762D01*
X119596819Y-161868762D02*
X119644438Y-161725905D01*
X119596819Y-161440190D02*
X119596819Y-160868762D01*
X120596819Y-161154476D02*
X119596819Y-161154476D01*
X120596819Y-160535428D02*
X119596819Y-160535428D01*
X119596819Y-160535428D02*
X120311104Y-160202095D01*
X120311104Y-160202095D02*
X119596819Y-159868762D01*
X119596819Y-159868762D02*
X120596819Y-159868762D01*
X119596819Y-159487809D02*
X119596819Y-158868762D01*
X119596819Y-158868762D02*
X119977771Y-159202095D01*
X119977771Y-159202095D02*
X119977771Y-159059238D01*
X119977771Y-159059238D02*
X120025390Y-158964000D01*
X120025390Y-158964000D02*
X120073009Y-158916381D01*
X120073009Y-158916381D02*
X120168247Y-158868762D01*
X120168247Y-158868762D02*
X120406342Y-158868762D01*
X120406342Y-158868762D02*
X120501580Y-158916381D01*
X120501580Y-158916381D02*
X120549200Y-158964000D01*
X120549200Y-158964000D02*
X120596819Y-159059238D01*
X120596819Y-159059238D02*
X120596819Y-159344952D01*
X120596819Y-159344952D02*
X120549200Y-159440190D01*
X120549200Y-159440190D02*
X120501580Y-159487809D01*
X119692057Y-158487809D02*
X119644438Y-158440190D01*
X119644438Y-158440190D02*
X119596819Y-158344952D01*
X119596819Y-158344952D02*
X119596819Y-158106857D01*
X119596819Y-158106857D02*
X119644438Y-158011619D01*
X119644438Y-158011619D02*
X119692057Y-157964000D01*
X119692057Y-157964000D02*
X119787295Y-157916381D01*
X119787295Y-157916381D02*
X119882533Y-157916381D01*
X119882533Y-157916381D02*
X120025390Y-157964000D01*
X120025390Y-157964000D02*
X120596819Y-158535428D01*
X120596819Y-158535428D02*
X120596819Y-157916381D01*
X120073009Y-157154476D02*
X120073009Y-157487809D01*
X120596819Y-157487809D02*
X119596819Y-157487809D01*
X119596819Y-157487809D02*
X119596819Y-157011619D01*
X119596819Y-156440190D02*
X119596819Y-156344952D01*
X119596819Y-156344952D02*
X119644438Y-156249714D01*
X119644438Y-156249714D02*
X119692057Y-156202095D01*
X119692057Y-156202095D02*
X119787295Y-156154476D01*
X119787295Y-156154476D02*
X119977771Y-156106857D01*
X119977771Y-156106857D02*
X120215866Y-156106857D01*
X120215866Y-156106857D02*
X120406342Y-156154476D01*
X120406342Y-156154476D02*
X120501580Y-156202095D01*
X120501580Y-156202095D02*
X120549200Y-156249714D01*
X120549200Y-156249714D02*
X120596819Y-156344952D01*
X120596819Y-156344952D02*
X120596819Y-156440190D01*
X120596819Y-156440190D02*
X120549200Y-156535428D01*
X120549200Y-156535428D02*
X120501580Y-156583047D01*
X120501580Y-156583047D02*
X120406342Y-156630666D01*
X120406342Y-156630666D02*
X120215866Y-156678285D01*
X120215866Y-156678285D02*
X119977771Y-156678285D01*
X119977771Y-156678285D02*
X119787295Y-156630666D01*
X119787295Y-156630666D02*
X119692057Y-156583047D01*
X119692057Y-156583047D02*
X119644438Y-156535428D01*
X119644438Y-156535428D02*
X119596819Y-156440190D01*
X119596819Y-155773523D02*
X119596819Y-155106857D01*
X119596819Y-155106857D02*
X120596819Y-155535428D01*
X120596819Y-154202095D02*
X120596819Y-154773523D01*
X120596819Y-154487809D02*
X119596819Y-154487809D01*
X119596819Y-154487809D02*
X119739676Y-154583047D01*
X119739676Y-154583047D02*
X119834914Y-154678285D01*
X119834914Y-154678285D02*
X119882533Y-154773523D01*
X120501580Y-153202095D02*
X120549200Y-153249714D01*
X120549200Y-153249714D02*
X120596819Y-153392571D01*
X120596819Y-153392571D02*
X120596819Y-153487809D01*
X120596819Y-153487809D02*
X120549200Y-153630666D01*
X120549200Y-153630666D02*
X120453961Y-153725904D01*
X120453961Y-153725904D02*
X120358723Y-153773523D01*
X120358723Y-153773523D02*
X120168247Y-153821142D01*
X120168247Y-153821142D02*
X120025390Y-153821142D01*
X120025390Y-153821142D02*
X119834914Y-153773523D01*
X119834914Y-153773523D02*
X119739676Y-153725904D01*
X119739676Y-153725904D02*
X119644438Y-153630666D01*
X119644438Y-153630666D02*
X119596819Y-153487809D01*
X119596819Y-153487809D02*
X119596819Y-153392571D01*
X119596819Y-153392571D02*
X119644438Y-153249714D01*
X119644438Y-153249714D02*
X119692057Y-153202095D01*
X120073009Y-152440190D02*
X120120628Y-152297333D01*
X120120628Y-152297333D02*
X120168247Y-152249714D01*
X120168247Y-152249714D02*
X120263485Y-152202095D01*
X120263485Y-152202095D02*
X120406342Y-152202095D01*
X120406342Y-152202095D02*
X120501580Y-152249714D01*
X120501580Y-152249714D02*
X120549200Y-152297333D01*
X120549200Y-152297333D02*
X120596819Y-152392571D01*
X120596819Y-152392571D02*
X120596819Y-152773523D01*
X120596819Y-152773523D02*
X119596819Y-152773523D01*
X119596819Y-152773523D02*
X119596819Y-152440190D01*
X119596819Y-152440190D02*
X119644438Y-152344952D01*
X119644438Y-152344952D02*
X119692057Y-152297333D01*
X119692057Y-152297333D02*
X119787295Y-152249714D01*
X119787295Y-152249714D02*
X119882533Y-152249714D01*
X119882533Y-152249714D02*
X119977771Y-152297333D01*
X119977771Y-152297333D02*
X120025390Y-152344952D01*
X120025390Y-152344952D02*
X120073009Y-152440190D01*
X120073009Y-152440190D02*
X120073009Y-152773523D01*
X119596819Y-151916380D02*
X119596819Y-151344952D01*
X120596819Y-151630666D02*
X119596819Y-151630666D01*
X120596819Y-151106856D02*
X119930152Y-150583047D01*
X119930152Y-151106856D02*
X120596819Y-150583047D01*
X112992819Y-157225904D02*
X113802342Y-157225904D01*
X113802342Y-157225904D02*
X113897580Y-157178285D01*
X113897580Y-157178285D02*
X113945200Y-157130666D01*
X113945200Y-157130666D02*
X113992819Y-157035428D01*
X113992819Y-157035428D02*
X113992819Y-156844952D01*
X113992819Y-156844952D02*
X113945200Y-156749714D01*
X113945200Y-156749714D02*
X113897580Y-156702095D01*
X113897580Y-156702095D02*
X113802342Y-156654476D01*
X113802342Y-156654476D02*
X112992819Y-156654476D01*
X113992819Y-155654476D02*
X113992819Y-156225904D01*
X113992819Y-155940190D02*
X112992819Y-155940190D01*
X112992819Y-155940190D02*
X113135676Y-156035428D01*
X113135676Y-156035428D02*
X113230914Y-156130666D01*
X113230914Y-156130666D02*
X113278533Y-156225904D01*
X87529200Y-162297333D02*
X87576819Y-162154476D01*
X87576819Y-162154476D02*
X87576819Y-161916381D01*
X87576819Y-161916381D02*
X87529200Y-161821143D01*
X87529200Y-161821143D02*
X87481580Y-161773524D01*
X87481580Y-161773524D02*
X87386342Y-161725905D01*
X87386342Y-161725905D02*
X87291104Y-161725905D01*
X87291104Y-161725905D02*
X87195866Y-161773524D01*
X87195866Y-161773524D02*
X87148247Y-161821143D01*
X87148247Y-161821143D02*
X87100628Y-161916381D01*
X87100628Y-161916381D02*
X87053009Y-162106857D01*
X87053009Y-162106857D02*
X87005390Y-162202095D01*
X87005390Y-162202095D02*
X86957771Y-162249714D01*
X86957771Y-162249714D02*
X86862533Y-162297333D01*
X86862533Y-162297333D02*
X86767295Y-162297333D01*
X86767295Y-162297333D02*
X86672057Y-162249714D01*
X86672057Y-162249714D02*
X86624438Y-162202095D01*
X86624438Y-162202095D02*
X86576819Y-162106857D01*
X86576819Y-162106857D02*
X86576819Y-161868762D01*
X86576819Y-161868762D02*
X86624438Y-161725905D01*
X86576819Y-161440190D02*
X86576819Y-160868762D01*
X87576819Y-161154476D02*
X86576819Y-161154476D01*
X87576819Y-160535428D02*
X86576819Y-160535428D01*
X86576819Y-160535428D02*
X87291104Y-160202095D01*
X87291104Y-160202095D02*
X86576819Y-159868762D01*
X86576819Y-159868762D02*
X87576819Y-159868762D01*
X86576819Y-159487809D02*
X86576819Y-158868762D01*
X86576819Y-158868762D02*
X86957771Y-159202095D01*
X86957771Y-159202095D02*
X86957771Y-159059238D01*
X86957771Y-159059238D02*
X87005390Y-158964000D01*
X87005390Y-158964000D02*
X87053009Y-158916381D01*
X87053009Y-158916381D02*
X87148247Y-158868762D01*
X87148247Y-158868762D02*
X87386342Y-158868762D01*
X87386342Y-158868762D02*
X87481580Y-158916381D01*
X87481580Y-158916381D02*
X87529200Y-158964000D01*
X87529200Y-158964000D02*
X87576819Y-159059238D01*
X87576819Y-159059238D02*
X87576819Y-159344952D01*
X87576819Y-159344952D02*
X87529200Y-159440190D01*
X87529200Y-159440190D02*
X87481580Y-159487809D01*
X86672057Y-158487809D02*
X86624438Y-158440190D01*
X86624438Y-158440190D02*
X86576819Y-158344952D01*
X86576819Y-158344952D02*
X86576819Y-158106857D01*
X86576819Y-158106857D02*
X86624438Y-158011619D01*
X86624438Y-158011619D02*
X86672057Y-157964000D01*
X86672057Y-157964000D02*
X86767295Y-157916381D01*
X86767295Y-157916381D02*
X86862533Y-157916381D01*
X86862533Y-157916381D02*
X87005390Y-157964000D01*
X87005390Y-157964000D02*
X87576819Y-158535428D01*
X87576819Y-158535428D02*
X87576819Y-157916381D01*
X87053009Y-157154476D02*
X87053009Y-157487809D01*
X87576819Y-157487809D02*
X86576819Y-157487809D01*
X86576819Y-157487809D02*
X86576819Y-157011619D01*
X86576819Y-156440190D02*
X86576819Y-156344952D01*
X86576819Y-156344952D02*
X86624438Y-156249714D01*
X86624438Y-156249714D02*
X86672057Y-156202095D01*
X86672057Y-156202095D02*
X86767295Y-156154476D01*
X86767295Y-156154476D02*
X86957771Y-156106857D01*
X86957771Y-156106857D02*
X87195866Y-156106857D01*
X87195866Y-156106857D02*
X87386342Y-156154476D01*
X87386342Y-156154476D02*
X87481580Y-156202095D01*
X87481580Y-156202095D02*
X87529200Y-156249714D01*
X87529200Y-156249714D02*
X87576819Y-156344952D01*
X87576819Y-156344952D02*
X87576819Y-156440190D01*
X87576819Y-156440190D02*
X87529200Y-156535428D01*
X87529200Y-156535428D02*
X87481580Y-156583047D01*
X87481580Y-156583047D02*
X87386342Y-156630666D01*
X87386342Y-156630666D02*
X87195866Y-156678285D01*
X87195866Y-156678285D02*
X86957771Y-156678285D01*
X86957771Y-156678285D02*
X86767295Y-156630666D01*
X86767295Y-156630666D02*
X86672057Y-156583047D01*
X86672057Y-156583047D02*
X86624438Y-156535428D01*
X86624438Y-156535428D02*
X86576819Y-156440190D01*
X86576819Y-155773523D02*
X86576819Y-155106857D01*
X86576819Y-155106857D02*
X87576819Y-155535428D01*
X87576819Y-154202095D02*
X87576819Y-154773523D01*
X87576819Y-154487809D02*
X86576819Y-154487809D01*
X86576819Y-154487809D02*
X86719676Y-154583047D01*
X86719676Y-154583047D02*
X86814914Y-154678285D01*
X86814914Y-154678285D02*
X86862533Y-154773523D01*
X87481580Y-153202095D02*
X87529200Y-153249714D01*
X87529200Y-153249714D02*
X87576819Y-153392571D01*
X87576819Y-153392571D02*
X87576819Y-153487809D01*
X87576819Y-153487809D02*
X87529200Y-153630666D01*
X87529200Y-153630666D02*
X87433961Y-153725904D01*
X87433961Y-153725904D02*
X87338723Y-153773523D01*
X87338723Y-153773523D02*
X87148247Y-153821142D01*
X87148247Y-153821142D02*
X87005390Y-153821142D01*
X87005390Y-153821142D02*
X86814914Y-153773523D01*
X86814914Y-153773523D02*
X86719676Y-153725904D01*
X86719676Y-153725904D02*
X86624438Y-153630666D01*
X86624438Y-153630666D02*
X86576819Y-153487809D01*
X86576819Y-153487809D02*
X86576819Y-153392571D01*
X86576819Y-153392571D02*
X86624438Y-153249714D01*
X86624438Y-153249714D02*
X86672057Y-153202095D01*
X87053009Y-152440190D02*
X87100628Y-152297333D01*
X87100628Y-152297333D02*
X87148247Y-152249714D01*
X87148247Y-152249714D02*
X87243485Y-152202095D01*
X87243485Y-152202095D02*
X87386342Y-152202095D01*
X87386342Y-152202095D02*
X87481580Y-152249714D01*
X87481580Y-152249714D02*
X87529200Y-152297333D01*
X87529200Y-152297333D02*
X87576819Y-152392571D01*
X87576819Y-152392571D02*
X87576819Y-152773523D01*
X87576819Y-152773523D02*
X86576819Y-152773523D01*
X86576819Y-152773523D02*
X86576819Y-152440190D01*
X86576819Y-152440190D02*
X86624438Y-152344952D01*
X86624438Y-152344952D02*
X86672057Y-152297333D01*
X86672057Y-152297333D02*
X86767295Y-152249714D01*
X86767295Y-152249714D02*
X86862533Y-152249714D01*
X86862533Y-152249714D02*
X86957771Y-152297333D01*
X86957771Y-152297333D02*
X87005390Y-152344952D01*
X87005390Y-152344952D02*
X87053009Y-152440190D01*
X87053009Y-152440190D02*
X87053009Y-152773523D01*
X86576819Y-151916380D02*
X86576819Y-151344952D01*
X87576819Y-151630666D02*
X86576819Y-151630666D01*
X87576819Y-151106856D02*
X86910152Y-150583047D01*
X86910152Y-151106856D02*
X87576819Y-150583047D01*
X79972819Y-157225904D02*
X80782342Y-157225904D01*
X80782342Y-157225904D02*
X80877580Y-157178285D01*
X80877580Y-157178285D02*
X80925200Y-157130666D01*
X80925200Y-157130666D02*
X80972819Y-157035428D01*
X80972819Y-157035428D02*
X80972819Y-156844952D01*
X80972819Y-156844952D02*
X80925200Y-156749714D01*
X80925200Y-156749714D02*
X80877580Y-156702095D01*
X80877580Y-156702095D02*
X80782342Y-156654476D01*
X80782342Y-156654476D02*
X79972819Y-156654476D01*
X80972819Y-155654476D02*
X80972819Y-156225904D01*
X80972819Y-155940190D02*
X79972819Y-155940190D01*
X79972819Y-155940190D02*
X80115676Y-156035428D01*
X80115676Y-156035428D02*
X80210914Y-156130666D01*
X80210914Y-156130666D02*
X80258533Y-156225904D01*
X153569200Y-129277333D02*
X153616819Y-129134476D01*
X153616819Y-129134476D02*
X153616819Y-128896381D01*
X153616819Y-128896381D02*
X153569200Y-128801143D01*
X153569200Y-128801143D02*
X153521580Y-128753524D01*
X153521580Y-128753524D02*
X153426342Y-128705905D01*
X153426342Y-128705905D02*
X153331104Y-128705905D01*
X153331104Y-128705905D02*
X153235866Y-128753524D01*
X153235866Y-128753524D02*
X153188247Y-128801143D01*
X153188247Y-128801143D02*
X153140628Y-128896381D01*
X153140628Y-128896381D02*
X153093009Y-129086857D01*
X153093009Y-129086857D02*
X153045390Y-129182095D01*
X153045390Y-129182095D02*
X152997771Y-129229714D01*
X152997771Y-129229714D02*
X152902533Y-129277333D01*
X152902533Y-129277333D02*
X152807295Y-129277333D01*
X152807295Y-129277333D02*
X152712057Y-129229714D01*
X152712057Y-129229714D02*
X152664438Y-129182095D01*
X152664438Y-129182095D02*
X152616819Y-129086857D01*
X152616819Y-129086857D02*
X152616819Y-128848762D01*
X152616819Y-128848762D02*
X152664438Y-128705905D01*
X152616819Y-128420190D02*
X152616819Y-127848762D01*
X153616819Y-128134476D02*
X152616819Y-128134476D01*
X153616819Y-127515428D02*
X152616819Y-127515428D01*
X152616819Y-127515428D02*
X153331104Y-127182095D01*
X153331104Y-127182095D02*
X152616819Y-126848762D01*
X152616819Y-126848762D02*
X153616819Y-126848762D01*
X152616819Y-126467809D02*
X152616819Y-125848762D01*
X152616819Y-125848762D02*
X152997771Y-126182095D01*
X152997771Y-126182095D02*
X152997771Y-126039238D01*
X152997771Y-126039238D02*
X153045390Y-125944000D01*
X153045390Y-125944000D02*
X153093009Y-125896381D01*
X153093009Y-125896381D02*
X153188247Y-125848762D01*
X153188247Y-125848762D02*
X153426342Y-125848762D01*
X153426342Y-125848762D02*
X153521580Y-125896381D01*
X153521580Y-125896381D02*
X153569200Y-125944000D01*
X153569200Y-125944000D02*
X153616819Y-126039238D01*
X153616819Y-126039238D02*
X153616819Y-126324952D01*
X153616819Y-126324952D02*
X153569200Y-126420190D01*
X153569200Y-126420190D02*
X153521580Y-126467809D01*
X152712057Y-125467809D02*
X152664438Y-125420190D01*
X152664438Y-125420190D02*
X152616819Y-125324952D01*
X152616819Y-125324952D02*
X152616819Y-125086857D01*
X152616819Y-125086857D02*
X152664438Y-124991619D01*
X152664438Y-124991619D02*
X152712057Y-124944000D01*
X152712057Y-124944000D02*
X152807295Y-124896381D01*
X152807295Y-124896381D02*
X152902533Y-124896381D01*
X152902533Y-124896381D02*
X153045390Y-124944000D01*
X153045390Y-124944000D02*
X153616819Y-125515428D01*
X153616819Y-125515428D02*
X153616819Y-124896381D01*
X153093009Y-124134476D02*
X153093009Y-124467809D01*
X153616819Y-124467809D02*
X152616819Y-124467809D01*
X152616819Y-124467809D02*
X152616819Y-123991619D01*
X152616819Y-123420190D02*
X152616819Y-123324952D01*
X152616819Y-123324952D02*
X152664438Y-123229714D01*
X152664438Y-123229714D02*
X152712057Y-123182095D01*
X152712057Y-123182095D02*
X152807295Y-123134476D01*
X152807295Y-123134476D02*
X152997771Y-123086857D01*
X152997771Y-123086857D02*
X153235866Y-123086857D01*
X153235866Y-123086857D02*
X153426342Y-123134476D01*
X153426342Y-123134476D02*
X153521580Y-123182095D01*
X153521580Y-123182095D02*
X153569200Y-123229714D01*
X153569200Y-123229714D02*
X153616819Y-123324952D01*
X153616819Y-123324952D02*
X153616819Y-123420190D01*
X153616819Y-123420190D02*
X153569200Y-123515428D01*
X153569200Y-123515428D02*
X153521580Y-123563047D01*
X153521580Y-123563047D02*
X153426342Y-123610666D01*
X153426342Y-123610666D02*
X153235866Y-123658285D01*
X153235866Y-123658285D02*
X152997771Y-123658285D01*
X152997771Y-123658285D02*
X152807295Y-123610666D01*
X152807295Y-123610666D02*
X152712057Y-123563047D01*
X152712057Y-123563047D02*
X152664438Y-123515428D01*
X152664438Y-123515428D02*
X152616819Y-123420190D01*
X152616819Y-122753523D02*
X152616819Y-122086857D01*
X152616819Y-122086857D02*
X153616819Y-122515428D01*
X153616819Y-121182095D02*
X153616819Y-121753523D01*
X153616819Y-121467809D02*
X152616819Y-121467809D01*
X152616819Y-121467809D02*
X152759676Y-121563047D01*
X152759676Y-121563047D02*
X152854914Y-121658285D01*
X152854914Y-121658285D02*
X152902533Y-121753523D01*
X153521580Y-120182095D02*
X153569200Y-120229714D01*
X153569200Y-120229714D02*
X153616819Y-120372571D01*
X153616819Y-120372571D02*
X153616819Y-120467809D01*
X153616819Y-120467809D02*
X153569200Y-120610666D01*
X153569200Y-120610666D02*
X153473961Y-120705904D01*
X153473961Y-120705904D02*
X153378723Y-120753523D01*
X153378723Y-120753523D02*
X153188247Y-120801142D01*
X153188247Y-120801142D02*
X153045390Y-120801142D01*
X153045390Y-120801142D02*
X152854914Y-120753523D01*
X152854914Y-120753523D02*
X152759676Y-120705904D01*
X152759676Y-120705904D02*
X152664438Y-120610666D01*
X152664438Y-120610666D02*
X152616819Y-120467809D01*
X152616819Y-120467809D02*
X152616819Y-120372571D01*
X152616819Y-120372571D02*
X152664438Y-120229714D01*
X152664438Y-120229714D02*
X152712057Y-120182095D01*
X153093009Y-119420190D02*
X153140628Y-119277333D01*
X153140628Y-119277333D02*
X153188247Y-119229714D01*
X153188247Y-119229714D02*
X153283485Y-119182095D01*
X153283485Y-119182095D02*
X153426342Y-119182095D01*
X153426342Y-119182095D02*
X153521580Y-119229714D01*
X153521580Y-119229714D02*
X153569200Y-119277333D01*
X153569200Y-119277333D02*
X153616819Y-119372571D01*
X153616819Y-119372571D02*
X153616819Y-119753523D01*
X153616819Y-119753523D02*
X152616819Y-119753523D01*
X152616819Y-119753523D02*
X152616819Y-119420190D01*
X152616819Y-119420190D02*
X152664438Y-119324952D01*
X152664438Y-119324952D02*
X152712057Y-119277333D01*
X152712057Y-119277333D02*
X152807295Y-119229714D01*
X152807295Y-119229714D02*
X152902533Y-119229714D01*
X152902533Y-119229714D02*
X152997771Y-119277333D01*
X152997771Y-119277333D02*
X153045390Y-119324952D01*
X153045390Y-119324952D02*
X153093009Y-119420190D01*
X153093009Y-119420190D02*
X153093009Y-119753523D01*
X152616819Y-118896380D02*
X152616819Y-118324952D01*
X153616819Y-118610666D02*
X152616819Y-118610666D01*
X153616819Y-118086856D02*
X152950152Y-117563047D01*
X152950152Y-118086856D02*
X153616819Y-117563047D01*
X146012819Y-124205904D02*
X146822342Y-124205904D01*
X146822342Y-124205904D02*
X146917580Y-124158285D01*
X146917580Y-124158285D02*
X146965200Y-124110666D01*
X146965200Y-124110666D02*
X147012819Y-124015428D01*
X147012819Y-124015428D02*
X147012819Y-123824952D01*
X147012819Y-123824952D02*
X146965200Y-123729714D01*
X146965200Y-123729714D02*
X146917580Y-123682095D01*
X146917580Y-123682095D02*
X146822342Y-123634476D01*
X146822342Y-123634476D02*
X146012819Y-123634476D01*
X147012819Y-122634476D02*
X147012819Y-123205904D01*
X147012819Y-122920190D02*
X146012819Y-122920190D01*
X146012819Y-122920190D02*
X146155676Y-123015428D01*
X146155676Y-123015428D02*
X146250914Y-123110666D01*
X146250914Y-123110666D02*
X146298533Y-123205904D01*
X120549200Y-129277333D02*
X120596819Y-129134476D01*
X120596819Y-129134476D02*
X120596819Y-128896381D01*
X120596819Y-128896381D02*
X120549200Y-128801143D01*
X120549200Y-128801143D02*
X120501580Y-128753524D01*
X120501580Y-128753524D02*
X120406342Y-128705905D01*
X120406342Y-128705905D02*
X120311104Y-128705905D01*
X120311104Y-128705905D02*
X120215866Y-128753524D01*
X120215866Y-128753524D02*
X120168247Y-128801143D01*
X120168247Y-128801143D02*
X120120628Y-128896381D01*
X120120628Y-128896381D02*
X120073009Y-129086857D01*
X120073009Y-129086857D02*
X120025390Y-129182095D01*
X120025390Y-129182095D02*
X119977771Y-129229714D01*
X119977771Y-129229714D02*
X119882533Y-129277333D01*
X119882533Y-129277333D02*
X119787295Y-129277333D01*
X119787295Y-129277333D02*
X119692057Y-129229714D01*
X119692057Y-129229714D02*
X119644438Y-129182095D01*
X119644438Y-129182095D02*
X119596819Y-129086857D01*
X119596819Y-129086857D02*
X119596819Y-128848762D01*
X119596819Y-128848762D02*
X119644438Y-128705905D01*
X119596819Y-128420190D02*
X119596819Y-127848762D01*
X120596819Y-128134476D02*
X119596819Y-128134476D01*
X120596819Y-127515428D02*
X119596819Y-127515428D01*
X119596819Y-127515428D02*
X120311104Y-127182095D01*
X120311104Y-127182095D02*
X119596819Y-126848762D01*
X119596819Y-126848762D02*
X120596819Y-126848762D01*
X119596819Y-126467809D02*
X119596819Y-125848762D01*
X119596819Y-125848762D02*
X119977771Y-126182095D01*
X119977771Y-126182095D02*
X119977771Y-126039238D01*
X119977771Y-126039238D02*
X120025390Y-125944000D01*
X120025390Y-125944000D02*
X120073009Y-125896381D01*
X120073009Y-125896381D02*
X120168247Y-125848762D01*
X120168247Y-125848762D02*
X120406342Y-125848762D01*
X120406342Y-125848762D02*
X120501580Y-125896381D01*
X120501580Y-125896381D02*
X120549200Y-125944000D01*
X120549200Y-125944000D02*
X120596819Y-126039238D01*
X120596819Y-126039238D02*
X120596819Y-126324952D01*
X120596819Y-126324952D02*
X120549200Y-126420190D01*
X120549200Y-126420190D02*
X120501580Y-126467809D01*
X119692057Y-125467809D02*
X119644438Y-125420190D01*
X119644438Y-125420190D02*
X119596819Y-125324952D01*
X119596819Y-125324952D02*
X119596819Y-125086857D01*
X119596819Y-125086857D02*
X119644438Y-124991619D01*
X119644438Y-124991619D02*
X119692057Y-124944000D01*
X119692057Y-124944000D02*
X119787295Y-124896381D01*
X119787295Y-124896381D02*
X119882533Y-124896381D01*
X119882533Y-124896381D02*
X120025390Y-124944000D01*
X120025390Y-124944000D02*
X120596819Y-125515428D01*
X120596819Y-125515428D02*
X120596819Y-124896381D01*
X120073009Y-124134476D02*
X120073009Y-124467809D01*
X120596819Y-124467809D02*
X119596819Y-124467809D01*
X119596819Y-124467809D02*
X119596819Y-123991619D01*
X119596819Y-123420190D02*
X119596819Y-123324952D01*
X119596819Y-123324952D02*
X119644438Y-123229714D01*
X119644438Y-123229714D02*
X119692057Y-123182095D01*
X119692057Y-123182095D02*
X119787295Y-123134476D01*
X119787295Y-123134476D02*
X119977771Y-123086857D01*
X119977771Y-123086857D02*
X120215866Y-123086857D01*
X120215866Y-123086857D02*
X120406342Y-123134476D01*
X120406342Y-123134476D02*
X120501580Y-123182095D01*
X120501580Y-123182095D02*
X120549200Y-123229714D01*
X120549200Y-123229714D02*
X120596819Y-123324952D01*
X120596819Y-123324952D02*
X120596819Y-123420190D01*
X120596819Y-123420190D02*
X120549200Y-123515428D01*
X120549200Y-123515428D02*
X120501580Y-123563047D01*
X120501580Y-123563047D02*
X120406342Y-123610666D01*
X120406342Y-123610666D02*
X120215866Y-123658285D01*
X120215866Y-123658285D02*
X119977771Y-123658285D01*
X119977771Y-123658285D02*
X119787295Y-123610666D01*
X119787295Y-123610666D02*
X119692057Y-123563047D01*
X119692057Y-123563047D02*
X119644438Y-123515428D01*
X119644438Y-123515428D02*
X119596819Y-123420190D01*
X119596819Y-122753523D02*
X119596819Y-122086857D01*
X119596819Y-122086857D02*
X120596819Y-122515428D01*
X120596819Y-121182095D02*
X120596819Y-121753523D01*
X120596819Y-121467809D02*
X119596819Y-121467809D01*
X119596819Y-121467809D02*
X119739676Y-121563047D01*
X119739676Y-121563047D02*
X119834914Y-121658285D01*
X119834914Y-121658285D02*
X119882533Y-121753523D01*
X120501580Y-120182095D02*
X120549200Y-120229714D01*
X120549200Y-120229714D02*
X120596819Y-120372571D01*
X120596819Y-120372571D02*
X120596819Y-120467809D01*
X120596819Y-120467809D02*
X120549200Y-120610666D01*
X120549200Y-120610666D02*
X120453961Y-120705904D01*
X120453961Y-120705904D02*
X120358723Y-120753523D01*
X120358723Y-120753523D02*
X120168247Y-120801142D01*
X120168247Y-120801142D02*
X120025390Y-120801142D01*
X120025390Y-120801142D02*
X119834914Y-120753523D01*
X119834914Y-120753523D02*
X119739676Y-120705904D01*
X119739676Y-120705904D02*
X119644438Y-120610666D01*
X119644438Y-120610666D02*
X119596819Y-120467809D01*
X119596819Y-120467809D02*
X119596819Y-120372571D01*
X119596819Y-120372571D02*
X119644438Y-120229714D01*
X119644438Y-120229714D02*
X119692057Y-120182095D01*
X120073009Y-119420190D02*
X120120628Y-119277333D01*
X120120628Y-119277333D02*
X120168247Y-119229714D01*
X120168247Y-119229714D02*
X120263485Y-119182095D01*
X120263485Y-119182095D02*
X120406342Y-119182095D01*
X120406342Y-119182095D02*
X120501580Y-119229714D01*
X120501580Y-119229714D02*
X120549200Y-119277333D01*
X120549200Y-119277333D02*
X120596819Y-119372571D01*
X120596819Y-119372571D02*
X120596819Y-119753523D01*
X120596819Y-119753523D02*
X119596819Y-119753523D01*
X119596819Y-119753523D02*
X119596819Y-119420190D01*
X119596819Y-119420190D02*
X119644438Y-119324952D01*
X119644438Y-119324952D02*
X119692057Y-119277333D01*
X119692057Y-119277333D02*
X119787295Y-119229714D01*
X119787295Y-119229714D02*
X119882533Y-119229714D01*
X119882533Y-119229714D02*
X119977771Y-119277333D01*
X119977771Y-119277333D02*
X120025390Y-119324952D01*
X120025390Y-119324952D02*
X120073009Y-119420190D01*
X120073009Y-119420190D02*
X120073009Y-119753523D01*
X119596819Y-118896380D02*
X119596819Y-118324952D01*
X120596819Y-118610666D02*
X119596819Y-118610666D01*
X120596819Y-118086856D02*
X119930152Y-117563047D01*
X119930152Y-118086856D02*
X120596819Y-117563047D01*
X112992819Y-124205904D02*
X113802342Y-124205904D01*
X113802342Y-124205904D02*
X113897580Y-124158285D01*
X113897580Y-124158285D02*
X113945200Y-124110666D01*
X113945200Y-124110666D02*
X113992819Y-124015428D01*
X113992819Y-124015428D02*
X113992819Y-123824952D01*
X113992819Y-123824952D02*
X113945200Y-123729714D01*
X113945200Y-123729714D02*
X113897580Y-123682095D01*
X113897580Y-123682095D02*
X113802342Y-123634476D01*
X113802342Y-123634476D02*
X112992819Y-123634476D01*
X113992819Y-122634476D02*
X113992819Y-123205904D01*
X113992819Y-122920190D02*
X112992819Y-122920190D01*
X112992819Y-122920190D02*
X113135676Y-123015428D01*
X113135676Y-123015428D02*
X113230914Y-123110666D01*
X113230914Y-123110666D02*
X113278533Y-123205904D01*
X87529200Y-129277333D02*
X87576819Y-129134476D01*
X87576819Y-129134476D02*
X87576819Y-128896381D01*
X87576819Y-128896381D02*
X87529200Y-128801143D01*
X87529200Y-128801143D02*
X87481580Y-128753524D01*
X87481580Y-128753524D02*
X87386342Y-128705905D01*
X87386342Y-128705905D02*
X87291104Y-128705905D01*
X87291104Y-128705905D02*
X87195866Y-128753524D01*
X87195866Y-128753524D02*
X87148247Y-128801143D01*
X87148247Y-128801143D02*
X87100628Y-128896381D01*
X87100628Y-128896381D02*
X87053009Y-129086857D01*
X87053009Y-129086857D02*
X87005390Y-129182095D01*
X87005390Y-129182095D02*
X86957771Y-129229714D01*
X86957771Y-129229714D02*
X86862533Y-129277333D01*
X86862533Y-129277333D02*
X86767295Y-129277333D01*
X86767295Y-129277333D02*
X86672057Y-129229714D01*
X86672057Y-129229714D02*
X86624438Y-129182095D01*
X86624438Y-129182095D02*
X86576819Y-129086857D01*
X86576819Y-129086857D02*
X86576819Y-128848762D01*
X86576819Y-128848762D02*
X86624438Y-128705905D01*
X86576819Y-128420190D02*
X86576819Y-127848762D01*
X87576819Y-128134476D02*
X86576819Y-128134476D01*
X87576819Y-127515428D02*
X86576819Y-127515428D01*
X86576819Y-127515428D02*
X87291104Y-127182095D01*
X87291104Y-127182095D02*
X86576819Y-126848762D01*
X86576819Y-126848762D02*
X87576819Y-126848762D01*
X86576819Y-126467809D02*
X86576819Y-125848762D01*
X86576819Y-125848762D02*
X86957771Y-126182095D01*
X86957771Y-126182095D02*
X86957771Y-126039238D01*
X86957771Y-126039238D02*
X87005390Y-125944000D01*
X87005390Y-125944000D02*
X87053009Y-125896381D01*
X87053009Y-125896381D02*
X87148247Y-125848762D01*
X87148247Y-125848762D02*
X87386342Y-125848762D01*
X87386342Y-125848762D02*
X87481580Y-125896381D01*
X87481580Y-125896381D02*
X87529200Y-125944000D01*
X87529200Y-125944000D02*
X87576819Y-126039238D01*
X87576819Y-126039238D02*
X87576819Y-126324952D01*
X87576819Y-126324952D02*
X87529200Y-126420190D01*
X87529200Y-126420190D02*
X87481580Y-126467809D01*
X86672057Y-125467809D02*
X86624438Y-125420190D01*
X86624438Y-125420190D02*
X86576819Y-125324952D01*
X86576819Y-125324952D02*
X86576819Y-125086857D01*
X86576819Y-125086857D02*
X86624438Y-124991619D01*
X86624438Y-124991619D02*
X86672057Y-124944000D01*
X86672057Y-124944000D02*
X86767295Y-124896381D01*
X86767295Y-124896381D02*
X86862533Y-124896381D01*
X86862533Y-124896381D02*
X87005390Y-124944000D01*
X87005390Y-124944000D02*
X87576819Y-125515428D01*
X87576819Y-125515428D02*
X87576819Y-124896381D01*
X87053009Y-124134476D02*
X87053009Y-124467809D01*
X87576819Y-124467809D02*
X86576819Y-124467809D01*
X86576819Y-124467809D02*
X86576819Y-123991619D01*
X86576819Y-123420190D02*
X86576819Y-123324952D01*
X86576819Y-123324952D02*
X86624438Y-123229714D01*
X86624438Y-123229714D02*
X86672057Y-123182095D01*
X86672057Y-123182095D02*
X86767295Y-123134476D01*
X86767295Y-123134476D02*
X86957771Y-123086857D01*
X86957771Y-123086857D02*
X87195866Y-123086857D01*
X87195866Y-123086857D02*
X87386342Y-123134476D01*
X87386342Y-123134476D02*
X87481580Y-123182095D01*
X87481580Y-123182095D02*
X87529200Y-123229714D01*
X87529200Y-123229714D02*
X87576819Y-123324952D01*
X87576819Y-123324952D02*
X87576819Y-123420190D01*
X87576819Y-123420190D02*
X87529200Y-123515428D01*
X87529200Y-123515428D02*
X87481580Y-123563047D01*
X87481580Y-123563047D02*
X87386342Y-123610666D01*
X87386342Y-123610666D02*
X87195866Y-123658285D01*
X87195866Y-123658285D02*
X86957771Y-123658285D01*
X86957771Y-123658285D02*
X86767295Y-123610666D01*
X86767295Y-123610666D02*
X86672057Y-123563047D01*
X86672057Y-123563047D02*
X86624438Y-123515428D01*
X86624438Y-123515428D02*
X86576819Y-123420190D01*
X86576819Y-122753523D02*
X86576819Y-122086857D01*
X86576819Y-122086857D02*
X87576819Y-122515428D01*
X87576819Y-121182095D02*
X87576819Y-121753523D01*
X87576819Y-121467809D02*
X86576819Y-121467809D01*
X86576819Y-121467809D02*
X86719676Y-121563047D01*
X86719676Y-121563047D02*
X86814914Y-121658285D01*
X86814914Y-121658285D02*
X86862533Y-121753523D01*
X87481580Y-120182095D02*
X87529200Y-120229714D01*
X87529200Y-120229714D02*
X87576819Y-120372571D01*
X87576819Y-120372571D02*
X87576819Y-120467809D01*
X87576819Y-120467809D02*
X87529200Y-120610666D01*
X87529200Y-120610666D02*
X87433961Y-120705904D01*
X87433961Y-120705904D02*
X87338723Y-120753523D01*
X87338723Y-120753523D02*
X87148247Y-120801142D01*
X87148247Y-120801142D02*
X87005390Y-120801142D01*
X87005390Y-120801142D02*
X86814914Y-120753523D01*
X86814914Y-120753523D02*
X86719676Y-120705904D01*
X86719676Y-120705904D02*
X86624438Y-120610666D01*
X86624438Y-120610666D02*
X86576819Y-120467809D01*
X86576819Y-120467809D02*
X86576819Y-120372571D01*
X86576819Y-120372571D02*
X86624438Y-120229714D01*
X86624438Y-120229714D02*
X86672057Y-120182095D01*
X87053009Y-119420190D02*
X87100628Y-119277333D01*
X87100628Y-119277333D02*
X87148247Y-119229714D01*
X87148247Y-119229714D02*
X87243485Y-119182095D01*
X87243485Y-119182095D02*
X87386342Y-119182095D01*
X87386342Y-119182095D02*
X87481580Y-119229714D01*
X87481580Y-119229714D02*
X87529200Y-119277333D01*
X87529200Y-119277333D02*
X87576819Y-119372571D01*
X87576819Y-119372571D02*
X87576819Y-119753523D01*
X87576819Y-119753523D02*
X86576819Y-119753523D01*
X86576819Y-119753523D02*
X86576819Y-119420190D01*
X86576819Y-119420190D02*
X86624438Y-119324952D01*
X86624438Y-119324952D02*
X86672057Y-119277333D01*
X86672057Y-119277333D02*
X86767295Y-119229714D01*
X86767295Y-119229714D02*
X86862533Y-119229714D01*
X86862533Y-119229714D02*
X86957771Y-119277333D01*
X86957771Y-119277333D02*
X87005390Y-119324952D01*
X87005390Y-119324952D02*
X87053009Y-119420190D01*
X87053009Y-119420190D02*
X87053009Y-119753523D01*
X86576819Y-118896380D02*
X86576819Y-118324952D01*
X87576819Y-118610666D02*
X86576819Y-118610666D01*
X87576819Y-118086856D02*
X86910152Y-117563047D01*
X86910152Y-118086856D02*
X87576819Y-117563047D01*
X79972819Y-124205904D02*
X80782342Y-124205904D01*
X80782342Y-124205904D02*
X80877580Y-124158285D01*
X80877580Y-124158285D02*
X80925200Y-124110666D01*
X80925200Y-124110666D02*
X80972819Y-124015428D01*
X80972819Y-124015428D02*
X80972819Y-123824952D01*
X80972819Y-123824952D02*
X80925200Y-123729714D01*
X80925200Y-123729714D02*
X80877580Y-123682095D01*
X80877580Y-123682095D02*
X80782342Y-123634476D01*
X80782342Y-123634476D02*
X79972819Y-123634476D01*
X80972819Y-122634476D02*
X80972819Y-123205904D01*
X80972819Y-122920190D02*
X79972819Y-122920190D01*
X79972819Y-122920190D02*
X80115676Y-123015428D01*
X80115676Y-123015428D02*
X80210914Y-123110666D01*
X80210914Y-123110666D02*
X80258533Y-123205904D01*
X140724666Y-97435200D02*
X140867523Y-97482819D01*
X140867523Y-97482819D02*
X141105618Y-97482819D01*
X141105618Y-97482819D02*
X141200856Y-97435200D01*
X141200856Y-97435200D02*
X141248475Y-97387580D01*
X141248475Y-97387580D02*
X141296094Y-97292342D01*
X141296094Y-97292342D02*
X141296094Y-97197104D01*
X141296094Y-97197104D02*
X141248475Y-97101866D01*
X141248475Y-97101866D02*
X141200856Y-97054247D01*
X141200856Y-97054247D02*
X141105618Y-97006628D01*
X141105618Y-97006628D02*
X140915142Y-96959009D01*
X140915142Y-96959009D02*
X140819904Y-96911390D01*
X140819904Y-96911390D02*
X140772285Y-96863771D01*
X140772285Y-96863771D02*
X140724666Y-96768533D01*
X140724666Y-96768533D02*
X140724666Y-96673295D01*
X140724666Y-96673295D02*
X140772285Y-96578057D01*
X140772285Y-96578057D02*
X140819904Y-96530438D01*
X140819904Y-96530438D02*
X140915142Y-96482819D01*
X140915142Y-96482819D02*
X141153237Y-96482819D01*
X141153237Y-96482819D02*
X141296094Y-96530438D01*
X141581809Y-96482819D02*
X142153237Y-96482819D01*
X141867523Y-97482819D02*
X141867523Y-96482819D01*
X142486571Y-97482819D02*
X142486571Y-96482819D01*
X142486571Y-96482819D02*
X142819904Y-97197104D01*
X142819904Y-97197104D02*
X143153237Y-96482819D01*
X143153237Y-96482819D02*
X143153237Y-97482819D01*
X143534190Y-96482819D02*
X144153237Y-96482819D01*
X144153237Y-96482819D02*
X143819904Y-96863771D01*
X143819904Y-96863771D02*
X143962761Y-96863771D01*
X143962761Y-96863771D02*
X144057999Y-96911390D01*
X144057999Y-96911390D02*
X144105618Y-96959009D01*
X144105618Y-96959009D02*
X144153237Y-97054247D01*
X144153237Y-97054247D02*
X144153237Y-97292342D01*
X144153237Y-97292342D02*
X144105618Y-97387580D01*
X144105618Y-97387580D02*
X144057999Y-97435200D01*
X144057999Y-97435200D02*
X143962761Y-97482819D01*
X143962761Y-97482819D02*
X143677047Y-97482819D01*
X143677047Y-97482819D02*
X143581809Y-97435200D01*
X143581809Y-97435200D02*
X143534190Y-97387580D01*
X144534190Y-96578057D02*
X144581809Y-96530438D01*
X144581809Y-96530438D02*
X144677047Y-96482819D01*
X144677047Y-96482819D02*
X144915142Y-96482819D01*
X144915142Y-96482819D02*
X145010380Y-96530438D01*
X145010380Y-96530438D02*
X145057999Y-96578057D01*
X145057999Y-96578057D02*
X145105618Y-96673295D01*
X145105618Y-96673295D02*
X145105618Y-96768533D01*
X145105618Y-96768533D02*
X145057999Y-96911390D01*
X145057999Y-96911390D02*
X144486571Y-97482819D01*
X144486571Y-97482819D02*
X145105618Y-97482819D01*
X145867523Y-96959009D02*
X145534190Y-96959009D01*
X145534190Y-97482819D02*
X145534190Y-96482819D01*
X145534190Y-96482819D02*
X146010380Y-96482819D01*
X146581809Y-96482819D02*
X146677047Y-96482819D01*
X146677047Y-96482819D02*
X146772285Y-96530438D01*
X146772285Y-96530438D02*
X146819904Y-96578057D01*
X146819904Y-96578057D02*
X146867523Y-96673295D01*
X146867523Y-96673295D02*
X146915142Y-96863771D01*
X146915142Y-96863771D02*
X146915142Y-97101866D01*
X146915142Y-97101866D02*
X146867523Y-97292342D01*
X146867523Y-97292342D02*
X146819904Y-97387580D01*
X146819904Y-97387580D02*
X146772285Y-97435200D01*
X146772285Y-97435200D02*
X146677047Y-97482819D01*
X146677047Y-97482819D02*
X146581809Y-97482819D01*
X146581809Y-97482819D02*
X146486571Y-97435200D01*
X146486571Y-97435200D02*
X146438952Y-97387580D01*
X146438952Y-97387580D02*
X146391333Y-97292342D01*
X146391333Y-97292342D02*
X146343714Y-97101866D01*
X146343714Y-97101866D02*
X146343714Y-96863771D01*
X146343714Y-96863771D02*
X146391333Y-96673295D01*
X146391333Y-96673295D02*
X146438952Y-96578057D01*
X146438952Y-96578057D02*
X146486571Y-96530438D01*
X146486571Y-96530438D02*
X146581809Y-96482819D01*
X147248476Y-96482819D02*
X147915142Y-96482819D01*
X147915142Y-96482819D02*
X147486571Y-97482819D01*
X148819904Y-97482819D02*
X148248476Y-97482819D01*
X148534190Y-97482819D02*
X148534190Y-96482819D01*
X148534190Y-96482819D02*
X148438952Y-96625676D01*
X148438952Y-96625676D02*
X148343714Y-96720914D01*
X148343714Y-96720914D02*
X148248476Y-96768533D01*
X149819904Y-97387580D02*
X149772285Y-97435200D01*
X149772285Y-97435200D02*
X149629428Y-97482819D01*
X149629428Y-97482819D02*
X149534190Y-97482819D01*
X149534190Y-97482819D02*
X149391333Y-97435200D01*
X149391333Y-97435200D02*
X149296095Y-97339961D01*
X149296095Y-97339961D02*
X149248476Y-97244723D01*
X149248476Y-97244723D02*
X149200857Y-97054247D01*
X149200857Y-97054247D02*
X149200857Y-96911390D01*
X149200857Y-96911390D02*
X149248476Y-96720914D01*
X149248476Y-96720914D02*
X149296095Y-96625676D01*
X149296095Y-96625676D02*
X149391333Y-96530438D01*
X149391333Y-96530438D02*
X149534190Y-96482819D01*
X149534190Y-96482819D02*
X149629428Y-96482819D01*
X149629428Y-96482819D02*
X149772285Y-96530438D01*
X149772285Y-96530438D02*
X149819904Y-96578057D01*
X150581809Y-96959009D02*
X150724666Y-97006628D01*
X150724666Y-97006628D02*
X150772285Y-97054247D01*
X150772285Y-97054247D02*
X150819904Y-97149485D01*
X150819904Y-97149485D02*
X150819904Y-97292342D01*
X150819904Y-97292342D02*
X150772285Y-97387580D01*
X150772285Y-97387580D02*
X150724666Y-97435200D01*
X150724666Y-97435200D02*
X150629428Y-97482819D01*
X150629428Y-97482819D02*
X150248476Y-97482819D01*
X150248476Y-97482819D02*
X150248476Y-96482819D01*
X150248476Y-96482819D02*
X150581809Y-96482819D01*
X150581809Y-96482819D02*
X150677047Y-96530438D01*
X150677047Y-96530438D02*
X150724666Y-96578057D01*
X150724666Y-96578057D02*
X150772285Y-96673295D01*
X150772285Y-96673295D02*
X150772285Y-96768533D01*
X150772285Y-96768533D02*
X150724666Y-96863771D01*
X150724666Y-96863771D02*
X150677047Y-96911390D01*
X150677047Y-96911390D02*
X150581809Y-96959009D01*
X150581809Y-96959009D02*
X150248476Y-96959009D01*
X151105619Y-96482819D02*
X151677047Y-96482819D01*
X151391333Y-97482819D02*
X151391333Y-96482819D01*
X151915143Y-97482819D02*
X152438952Y-96816152D01*
X151915143Y-96816152D02*
X152438952Y-97482819D01*
X145796095Y-89878819D02*
X145796095Y-90688342D01*
X145796095Y-90688342D02*
X145843714Y-90783580D01*
X145843714Y-90783580D02*
X145891333Y-90831200D01*
X145891333Y-90831200D02*
X145986571Y-90878819D01*
X145986571Y-90878819D02*
X146177047Y-90878819D01*
X146177047Y-90878819D02*
X146272285Y-90831200D01*
X146272285Y-90831200D02*
X146319904Y-90783580D01*
X146319904Y-90783580D02*
X146367523Y-90688342D01*
X146367523Y-90688342D02*
X146367523Y-89878819D01*
X147367523Y-90878819D02*
X146796095Y-90878819D01*
X147081809Y-90878819D02*
X147081809Y-89878819D01*
X147081809Y-89878819D02*
X146986571Y-90021676D01*
X146986571Y-90021676D02*
X146891333Y-90116914D01*
X146891333Y-90116914D02*
X146796095Y-90164533D01*
X107704666Y-97435200D02*
X107847523Y-97482819D01*
X107847523Y-97482819D02*
X108085618Y-97482819D01*
X108085618Y-97482819D02*
X108180856Y-97435200D01*
X108180856Y-97435200D02*
X108228475Y-97387580D01*
X108228475Y-97387580D02*
X108276094Y-97292342D01*
X108276094Y-97292342D02*
X108276094Y-97197104D01*
X108276094Y-97197104D02*
X108228475Y-97101866D01*
X108228475Y-97101866D02*
X108180856Y-97054247D01*
X108180856Y-97054247D02*
X108085618Y-97006628D01*
X108085618Y-97006628D02*
X107895142Y-96959009D01*
X107895142Y-96959009D02*
X107799904Y-96911390D01*
X107799904Y-96911390D02*
X107752285Y-96863771D01*
X107752285Y-96863771D02*
X107704666Y-96768533D01*
X107704666Y-96768533D02*
X107704666Y-96673295D01*
X107704666Y-96673295D02*
X107752285Y-96578057D01*
X107752285Y-96578057D02*
X107799904Y-96530438D01*
X107799904Y-96530438D02*
X107895142Y-96482819D01*
X107895142Y-96482819D02*
X108133237Y-96482819D01*
X108133237Y-96482819D02*
X108276094Y-96530438D01*
X108561809Y-96482819D02*
X109133237Y-96482819D01*
X108847523Y-97482819D02*
X108847523Y-96482819D01*
X109466571Y-97482819D02*
X109466571Y-96482819D01*
X109466571Y-96482819D02*
X109799904Y-97197104D01*
X109799904Y-97197104D02*
X110133237Y-96482819D01*
X110133237Y-96482819D02*
X110133237Y-97482819D01*
X110514190Y-96482819D02*
X111133237Y-96482819D01*
X111133237Y-96482819D02*
X110799904Y-96863771D01*
X110799904Y-96863771D02*
X110942761Y-96863771D01*
X110942761Y-96863771D02*
X111037999Y-96911390D01*
X111037999Y-96911390D02*
X111085618Y-96959009D01*
X111085618Y-96959009D02*
X111133237Y-97054247D01*
X111133237Y-97054247D02*
X111133237Y-97292342D01*
X111133237Y-97292342D02*
X111085618Y-97387580D01*
X111085618Y-97387580D02*
X111037999Y-97435200D01*
X111037999Y-97435200D02*
X110942761Y-97482819D01*
X110942761Y-97482819D02*
X110657047Y-97482819D01*
X110657047Y-97482819D02*
X110561809Y-97435200D01*
X110561809Y-97435200D02*
X110514190Y-97387580D01*
X111514190Y-96578057D02*
X111561809Y-96530438D01*
X111561809Y-96530438D02*
X111657047Y-96482819D01*
X111657047Y-96482819D02*
X111895142Y-96482819D01*
X111895142Y-96482819D02*
X111990380Y-96530438D01*
X111990380Y-96530438D02*
X112037999Y-96578057D01*
X112037999Y-96578057D02*
X112085618Y-96673295D01*
X112085618Y-96673295D02*
X112085618Y-96768533D01*
X112085618Y-96768533D02*
X112037999Y-96911390D01*
X112037999Y-96911390D02*
X111466571Y-97482819D01*
X111466571Y-97482819D02*
X112085618Y-97482819D01*
X112847523Y-96959009D02*
X112514190Y-96959009D01*
X112514190Y-97482819D02*
X112514190Y-96482819D01*
X112514190Y-96482819D02*
X112990380Y-96482819D01*
X113561809Y-96482819D02*
X113657047Y-96482819D01*
X113657047Y-96482819D02*
X113752285Y-96530438D01*
X113752285Y-96530438D02*
X113799904Y-96578057D01*
X113799904Y-96578057D02*
X113847523Y-96673295D01*
X113847523Y-96673295D02*
X113895142Y-96863771D01*
X113895142Y-96863771D02*
X113895142Y-97101866D01*
X113895142Y-97101866D02*
X113847523Y-97292342D01*
X113847523Y-97292342D02*
X113799904Y-97387580D01*
X113799904Y-97387580D02*
X113752285Y-97435200D01*
X113752285Y-97435200D02*
X113657047Y-97482819D01*
X113657047Y-97482819D02*
X113561809Y-97482819D01*
X113561809Y-97482819D02*
X113466571Y-97435200D01*
X113466571Y-97435200D02*
X113418952Y-97387580D01*
X113418952Y-97387580D02*
X113371333Y-97292342D01*
X113371333Y-97292342D02*
X113323714Y-97101866D01*
X113323714Y-97101866D02*
X113323714Y-96863771D01*
X113323714Y-96863771D02*
X113371333Y-96673295D01*
X113371333Y-96673295D02*
X113418952Y-96578057D01*
X113418952Y-96578057D02*
X113466571Y-96530438D01*
X113466571Y-96530438D02*
X113561809Y-96482819D01*
X114228476Y-96482819D02*
X114895142Y-96482819D01*
X114895142Y-96482819D02*
X114466571Y-97482819D01*
X115799904Y-97482819D02*
X115228476Y-97482819D01*
X115514190Y-97482819D02*
X115514190Y-96482819D01*
X115514190Y-96482819D02*
X115418952Y-96625676D01*
X115418952Y-96625676D02*
X115323714Y-96720914D01*
X115323714Y-96720914D02*
X115228476Y-96768533D01*
X116799904Y-97387580D02*
X116752285Y-97435200D01*
X116752285Y-97435200D02*
X116609428Y-97482819D01*
X116609428Y-97482819D02*
X116514190Y-97482819D01*
X116514190Y-97482819D02*
X116371333Y-97435200D01*
X116371333Y-97435200D02*
X116276095Y-97339961D01*
X116276095Y-97339961D02*
X116228476Y-97244723D01*
X116228476Y-97244723D02*
X116180857Y-97054247D01*
X116180857Y-97054247D02*
X116180857Y-96911390D01*
X116180857Y-96911390D02*
X116228476Y-96720914D01*
X116228476Y-96720914D02*
X116276095Y-96625676D01*
X116276095Y-96625676D02*
X116371333Y-96530438D01*
X116371333Y-96530438D02*
X116514190Y-96482819D01*
X116514190Y-96482819D02*
X116609428Y-96482819D01*
X116609428Y-96482819D02*
X116752285Y-96530438D01*
X116752285Y-96530438D02*
X116799904Y-96578057D01*
X117561809Y-96959009D02*
X117704666Y-97006628D01*
X117704666Y-97006628D02*
X117752285Y-97054247D01*
X117752285Y-97054247D02*
X117799904Y-97149485D01*
X117799904Y-97149485D02*
X117799904Y-97292342D01*
X117799904Y-97292342D02*
X117752285Y-97387580D01*
X117752285Y-97387580D02*
X117704666Y-97435200D01*
X117704666Y-97435200D02*
X117609428Y-97482819D01*
X117609428Y-97482819D02*
X117228476Y-97482819D01*
X117228476Y-97482819D02*
X117228476Y-96482819D01*
X117228476Y-96482819D02*
X117561809Y-96482819D01*
X117561809Y-96482819D02*
X117657047Y-96530438D01*
X117657047Y-96530438D02*
X117704666Y-96578057D01*
X117704666Y-96578057D02*
X117752285Y-96673295D01*
X117752285Y-96673295D02*
X117752285Y-96768533D01*
X117752285Y-96768533D02*
X117704666Y-96863771D01*
X117704666Y-96863771D02*
X117657047Y-96911390D01*
X117657047Y-96911390D02*
X117561809Y-96959009D01*
X117561809Y-96959009D02*
X117228476Y-96959009D01*
X118085619Y-96482819D02*
X118657047Y-96482819D01*
X118371333Y-97482819D02*
X118371333Y-96482819D01*
X118895143Y-97482819D02*
X119418952Y-96816152D01*
X118895143Y-96816152D02*
X119418952Y-97482819D01*
X112776095Y-89878819D02*
X112776095Y-90688342D01*
X112776095Y-90688342D02*
X112823714Y-90783580D01*
X112823714Y-90783580D02*
X112871333Y-90831200D01*
X112871333Y-90831200D02*
X112966571Y-90878819D01*
X112966571Y-90878819D02*
X113157047Y-90878819D01*
X113157047Y-90878819D02*
X113252285Y-90831200D01*
X113252285Y-90831200D02*
X113299904Y-90783580D01*
X113299904Y-90783580D02*
X113347523Y-90688342D01*
X113347523Y-90688342D02*
X113347523Y-89878819D01*
X114347523Y-90878819D02*
X113776095Y-90878819D01*
X114061809Y-90878819D02*
X114061809Y-89878819D01*
X114061809Y-89878819D02*
X113966571Y-90021676D01*
X113966571Y-90021676D02*
X113871333Y-90116914D01*
X113871333Y-90116914D02*
X113776095Y-90164533D01*
X74684666Y-97435200D02*
X74827523Y-97482819D01*
X74827523Y-97482819D02*
X75065618Y-97482819D01*
X75065618Y-97482819D02*
X75160856Y-97435200D01*
X75160856Y-97435200D02*
X75208475Y-97387580D01*
X75208475Y-97387580D02*
X75256094Y-97292342D01*
X75256094Y-97292342D02*
X75256094Y-97197104D01*
X75256094Y-97197104D02*
X75208475Y-97101866D01*
X75208475Y-97101866D02*
X75160856Y-97054247D01*
X75160856Y-97054247D02*
X75065618Y-97006628D01*
X75065618Y-97006628D02*
X74875142Y-96959009D01*
X74875142Y-96959009D02*
X74779904Y-96911390D01*
X74779904Y-96911390D02*
X74732285Y-96863771D01*
X74732285Y-96863771D02*
X74684666Y-96768533D01*
X74684666Y-96768533D02*
X74684666Y-96673295D01*
X74684666Y-96673295D02*
X74732285Y-96578057D01*
X74732285Y-96578057D02*
X74779904Y-96530438D01*
X74779904Y-96530438D02*
X74875142Y-96482819D01*
X74875142Y-96482819D02*
X75113237Y-96482819D01*
X75113237Y-96482819D02*
X75256094Y-96530438D01*
X75541809Y-96482819D02*
X76113237Y-96482819D01*
X75827523Y-97482819D02*
X75827523Y-96482819D01*
X76446571Y-97482819D02*
X76446571Y-96482819D01*
X76446571Y-96482819D02*
X76779904Y-97197104D01*
X76779904Y-97197104D02*
X77113237Y-96482819D01*
X77113237Y-96482819D02*
X77113237Y-97482819D01*
X77494190Y-96482819D02*
X78113237Y-96482819D01*
X78113237Y-96482819D02*
X77779904Y-96863771D01*
X77779904Y-96863771D02*
X77922761Y-96863771D01*
X77922761Y-96863771D02*
X78017999Y-96911390D01*
X78017999Y-96911390D02*
X78065618Y-96959009D01*
X78065618Y-96959009D02*
X78113237Y-97054247D01*
X78113237Y-97054247D02*
X78113237Y-97292342D01*
X78113237Y-97292342D02*
X78065618Y-97387580D01*
X78065618Y-97387580D02*
X78017999Y-97435200D01*
X78017999Y-97435200D02*
X77922761Y-97482819D01*
X77922761Y-97482819D02*
X77637047Y-97482819D01*
X77637047Y-97482819D02*
X77541809Y-97435200D01*
X77541809Y-97435200D02*
X77494190Y-97387580D01*
X78494190Y-96578057D02*
X78541809Y-96530438D01*
X78541809Y-96530438D02*
X78637047Y-96482819D01*
X78637047Y-96482819D02*
X78875142Y-96482819D01*
X78875142Y-96482819D02*
X78970380Y-96530438D01*
X78970380Y-96530438D02*
X79017999Y-96578057D01*
X79017999Y-96578057D02*
X79065618Y-96673295D01*
X79065618Y-96673295D02*
X79065618Y-96768533D01*
X79065618Y-96768533D02*
X79017999Y-96911390D01*
X79017999Y-96911390D02*
X78446571Y-97482819D01*
X78446571Y-97482819D02*
X79065618Y-97482819D01*
X79827523Y-96959009D02*
X79494190Y-96959009D01*
X79494190Y-97482819D02*
X79494190Y-96482819D01*
X79494190Y-96482819D02*
X79970380Y-96482819D01*
X80541809Y-96482819D02*
X80637047Y-96482819D01*
X80637047Y-96482819D02*
X80732285Y-96530438D01*
X80732285Y-96530438D02*
X80779904Y-96578057D01*
X80779904Y-96578057D02*
X80827523Y-96673295D01*
X80827523Y-96673295D02*
X80875142Y-96863771D01*
X80875142Y-96863771D02*
X80875142Y-97101866D01*
X80875142Y-97101866D02*
X80827523Y-97292342D01*
X80827523Y-97292342D02*
X80779904Y-97387580D01*
X80779904Y-97387580D02*
X80732285Y-97435200D01*
X80732285Y-97435200D02*
X80637047Y-97482819D01*
X80637047Y-97482819D02*
X80541809Y-97482819D01*
X80541809Y-97482819D02*
X80446571Y-97435200D01*
X80446571Y-97435200D02*
X80398952Y-97387580D01*
X80398952Y-97387580D02*
X80351333Y-97292342D01*
X80351333Y-97292342D02*
X80303714Y-97101866D01*
X80303714Y-97101866D02*
X80303714Y-96863771D01*
X80303714Y-96863771D02*
X80351333Y-96673295D01*
X80351333Y-96673295D02*
X80398952Y-96578057D01*
X80398952Y-96578057D02*
X80446571Y-96530438D01*
X80446571Y-96530438D02*
X80541809Y-96482819D01*
X81208476Y-96482819D02*
X81875142Y-96482819D01*
X81875142Y-96482819D02*
X81446571Y-97482819D01*
X82779904Y-97482819D02*
X82208476Y-97482819D01*
X82494190Y-97482819D02*
X82494190Y-96482819D01*
X82494190Y-96482819D02*
X82398952Y-96625676D01*
X82398952Y-96625676D02*
X82303714Y-96720914D01*
X82303714Y-96720914D02*
X82208476Y-96768533D01*
X83779904Y-97387580D02*
X83732285Y-97435200D01*
X83732285Y-97435200D02*
X83589428Y-97482819D01*
X83589428Y-97482819D02*
X83494190Y-97482819D01*
X83494190Y-97482819D02*
X83351333Y-97435200D01*
X83351333Y-97435200D02*
X83256095Y-97339961D01*
X83256095Y-97339961D02*
X83208476Y-97244723D01*
X83208476Y-97244723D02*
X83160857Y-97054247D01*
X83160857Y-97054247D02*
X83160857Y-96911390D01*
X83160857Y-96911390D02*
X83208476Y-96720914D01*
X83208476Y-96720914D02*
X83256095Y-96625676D01*
X83256095Y-96625676D02*
X83351333Y-96530438D01*
X83351333Y-96530438D02*
X83494190Y-96482819D01*
X83494190Y-96482819D02*
X83589428Y-96482819D01*
X83589428Y-96482819D02*
X83732285Y-96530438D01*
X83732285Y-96530438D02*
X83779904Y-96578057D01*
X84541809Y-96959009D02*
X84684666Y-97006628D01*
X84684666Y-97006628D02*
X84732285Y-97054247D01*
X84732285Y-97054247D02*
X84779904Y-97149485D01*
X84779904Y-97149485D02*
X84779904Y-97292342D01*
X84779904Y-97292342D02*
X84732285Y-97387580D01*
X84732285Y-97387580D02*
X84684666Y-97435200D01*
X84684666Y-97435200D02*
X84589428Y-97482819D01*
X84589428Y-97482819D02*
X84208476Y-97482819D01*
X84208476Y-97482819D02*
X84208476Y-96482819D01*
X84208476Y-96482819D02*
X84541809Y-96482819D01*
X84541809Y-96482819D02*
X84637047Y-96530438D01*
X84637047Y-96530438D02*
X84684666Y-96578057D01*
X84684666Y-96578057D02*
X84732285Y-96673295D01*
X84732285Y-96673295D02*
X84732285Y-96768533D01*
X84732285Y-96768533D02*
X84684666Y-96863771D01*
X84684666Y-96863771D02*
X84637047Y-96911390D01*
X84637047Y-96911390D02*
X84541809Y-96959009D01*
X84541809Y-96959009D02*
X84208476Y-96959009D01*
X85065619Y-96482819D02*
X85637047Y-96482819D01*
X85351333Y-97482819D02*
X85351333Y-96482819D01*
X85875143Y-97482819D02*
X86398952Y-96816152D01*
X85875143Y-96816152D02*
X86398952Y-97482819D01*
X79756095Y-89878819D02*
X79756095Y-90688342D01*
X79756095Y-90688342D02*
X79803714Y-90783580D01*
X79803714Y-90783580D02*
X79851333Y-90831200D01*
X79851333Y-90831200D02*
X79946571Y-90878819D01*
X79946571Y-90878819D02*
X80137047Y-90878819D01*
X80137047Y-90878819D02*
X80232285Y-90831200D01*
X80232285Y-90831200D02*
X80279904Y-90783580D01*
X80279904Y-90783580D02*
X80327523Y-90688342D01*
X80327523Y-90688342D02*
X80327523Y-89878819D01*
X81327523Y-90878819D02*
X80756095Y-90878819D01*
X81041809Y-90878819D02*
X81041809Y-89878819D01*
X81041809Y-89878819D02*
X80946571Y-90021676D01*
X80946571Y-90021676D02*
X80851333Y-90116914D01*
X80851333Y-90116914D02*
X80756095Y-90164533D01*
D11*
%TO.C,U1*%
X142948000Y-160074000D02*
X143398000Y-160074000D01*
X143398000Y-160074000D02*
X143398000Y-161364000D01*
X150168000Y-160074000D02*
X149718000Y-160074000D01*
X142948000Y-159624000D02*
X142948000Y-160074000D01*
X150168000Y-159624000D02*
X150168000Y-160074000D01*
X142948000Y-153304000D02*
X142948000Y-152854000D01*
X150168000Y-153304000D02*
X150168000Y-152854000D01*
X142948000Y-152854000D02*
X143398000Y-152854000D01*
X150168000Y-152854000D02*
X149718000Y-152854000D01*
%TO.C,C9*%
X136765420Y-145540000D02*
X137046580Y-145540000D01*
X136765420Y-146560000D02*
X137046580Y-146560000D01*
%TO.C,C2*%
X156462000Y-146952580D02*
X156462000Y-146671420D01*
X157482000Y-146952580D02*
X157482000Y-146671420D01*
%TO.C,C4*%
X136778420Y-143508000D02*
X137059580Y-143508000D01*
X136778420Y-144528000D02*
X137059580Y-144528000D01*
%TO.C,C5*%
X158494000Y-146965580D02*
X158494000Y-146684420D01*
X159514000Y-146965580D02*
X159514000Y-146684420D01*
%TO.C,C8*%
X135634000Y-166269580D02*
X135634000Y-165988420D01*
X136654000Y-166269580D02*
X136654000Y-165988420D01*
%TO.C,C6*%
X133602000Y-166256580D02*
X133602000Y-165975420D01*
X134622000Y-166256580D02*
X134622000Y-165975420D01*
%TO.C,U1*%
X109928000Y-160074000D02*
X110378000Y-160074000D01*
X110378000Y-160074000D02*
X110378000Y-161364000D01*
X117148000Y-160074000D02*
X116698000Y-160074000D01*
X109928000Y-159624000D02*
X109928000Y-160074000D01*
X117148000Y-159624000D02*
X117148000Y-160074000D01*
X109928000Y-153304000D02*
X109928000Y-152854000D01*
X117148000Y-153304000D02*
X117148000Y-152854000D01*
X109928000Y-152854000D02*
X110378000Y-152854000D01*
X117148000Y-152854000D02*
X116698000Y-152854000D01*
%TO.C,C9*%
X103745420Y-145540000D02*
X104026580Y-145540000D01*
X103745420Y-146560000D02*
X104026580Y-146560000D01*
%TO.C,C2*%
X123442000Y-146952580D02*
X123442000Y-146671420D01*
X124462000Y-146952580D02*
X124462000Y-146671420D01*
%TO.C,C4*%
X103758420Y-143508000D02*
X104039580Y-143508000D01*
X103758420Y-144528000D02*
X104039580Y-144528000D01*
%TO.C,C5*%
X125474000Y-146965580D02*
X125474000Y-146684420D01*
X126494000Y-146965580D02*
X126494000Y-146684420D01*
%TO.C,C8*%
X102614000Y-166269580D02*
X102614000Y-165988420D01*
X103634000Y-166269580D02*
X103634000Y-165988420D01*
%TO.C,C6*%
X100582000Y-166256580D02*
X100582000Y-165975420D01*
X101602000Y-166256580D02*
X101602000Y-165975420D01*
%TO.C,U1*%
X76908000Y-160074000D02*
X77358000Y-160074000D01*
X77358000Y-160074000D02*
X77358000Y-161364000D01*
X84128000Y-160074000D02*
X83678000Y-160074000D01*
X76908000Y-159624000D02*
X76908000Y-160074000D01*
X84128000Y-159624000D02*
X84128000Y-160074000D01*
X76908000Y-153304000D02*
X76908000Y-152854000D01*
X84128000Y-153304000D02*
X84128000Y-152854000D01*
X76908000Y-152854000D02*
X77358000Y-152854000D01*
X84128000Y-152854000D02*
X83678000Y-152854000D01*
%TO.C,C9*%
X70725420Y-145540000D02*
X71006580Y-145540000D01*
X70725420Y-146560000D02*
X71006580Y-146560000D01*
%TO.C,C2*%
X90422000Y-146952580D02*
X90422000Y-146671420D01*
X91442000Y-146952580D02*
X91442000Y-146671420D01*
%TO.C,C4*%
X70738420Y-143508000D02*
X71019580Y-143508000D01*
X70738420Y-144528000D02*
X71019580Y-144528000D01*
%TO.C,C5*%
X92454000Y-146965580D02*
X92454000Y-146684420D01*
X93474000Y-146965580D02*
X93474000Y-146684420D01*
%TO.C,C8*%
X69594000Y-166269580D02*
X69594000Y-165988420D01*
X70614000Y-166269580D02*
X70614000Y-165988420D01*
%TO.C,C6*%
X67562000Y-166256580D02*
X67562000Y-165975420D01*
X68582000Y-166256580D02*
X68582000Y-165975420D01*
%TO.C,U1*%
X142948000Y-127054000D02*
X143398000Y-127054000D01*
X143398000Y-127054000D02*
X143398000Y-128344000D01*
X150168000Y-127054000D02*
X149718000Y-127054000D01*
X142948000Y-126604000D02*
X142948000Y-127054000D01*
X150168000Y-126604000D02*
X150168000Y-127054000D01*
X142948000Y-120284000D02*
X142948000Y-119834000D01*
X150168000Y-120284000D02*
X150168000Y-119834000D01*
X142948000Y-119834000D02*
X143398000Y-119834000D01*
X150168000Y-119834000D02*
X149718000Y-119834000D01*
%TO.C,C9*%
X136765420Y-112520000D02*
X137046580Y-112520000D01*
X136765420Y-113540000D02*
X137046580Y-113540000D01*
%TO.C,C2*%
X156462000Y-113932580D02*
X156462000Y-113651420D01*
X157482000Y-113932580D02*
X157482000Y-113651420D01*
%TO.C,C4*%
X136778420Y-110488000D02*
X137059580Y-110488000D01*
X136778420Y-111508000D02*
X137059580Y-111508000D01*
%TO.C,C5*%
X158494000Y-113945580D02*
X158494000Y-113664420D01*
X159514000Y-113945580D02*
X159514000Y-113664420D01*
%TO.C,C8*%
X135634000Y-133249580D02*
X135634000Y-132968420D01*
X136654000Y-133249580D02*
X136654000Y-132968420D01*
%TO.C,C6*%
X133602000Y-133236580D02*
X133602000Y-132955420D01*
X134622000Y-133236580D02*
X134622000Y-132955420D01*
%TO.C,U1*%
X109928000Y-127054000D02*
X110378000Y-127054000D01*
X110378000Y-127054000D02*
X110378000Y-128344000D01*
X117148000Y-127054000D02*
X116698000Y-127054000D01*
X109928000Y-126604000D02*
X109928000Y-127054000D01*
X117148000Y-126604000D02*
X117148000Y-127054000D01*
X109928000Y-120284000D02*
X109928000Y-119834000D01*
X117148000Y-120284000D02*
X117148000Y-119834000D01*
X109928000Y-119834000D02*
X110378000Y-119834000D01*
X117148000Y-119834000D02*
X116698000Y-119834000D01*
%TO.C,C9*%
X103745420Y-112520000D02*
X104026580Y-112520000D01*
X103745420Y-113540000D02*
X104026580Y-113540000D01*
%TO.C,C2*%
X123442000Y-113932580D02*
X123442000Y-113651420D01*
X124462000Y-113932580D02*
X124462000Y-113651420D01*
%TO.C,C4*%
X103758420Y-110488000D02*
X104039580Y-110488000D01*
X103758420Y-111508000D02*
X104039580Y-111508000D01*
%TO.C,C5*%
X125474000Y-113945580D02*
X125474000Y-113664420D01*
X126494000Y-113945580D02*
X126494000Y-113664420D01*
%TO.C,C8*%
X102614000Y-133249580D02*
X102614000Y-132968420D01*
X103634000Y-133249580D02*
X103634000Y-132968420D01*
%TO.C,C6*%
X100582000Y-133236580D02*
X100582000Y-132955420D01*
X101602000Y-133236580D02*
X101602000Y-132955420D01*
%TO.C,U1*%
X76908000Y-127054000D02*
X77358000Y-127054000D01*
X77358000Y-127054000D02*
X77358000Y-128344000D01*
X84128000Y-127054000D02*
X83678000Y-127054000D01*
X76908000Y-126604000D02*
X76908000Y-127054000D01*
X84128000Y-126604000D02*
X84128000Y-127054000D01*
X76908000Y-120284000D02*
X76908000Y-119834000D01*
X84128000Y-120284000D02*
X84128000Y-119834000D01*
X76908000Y-119834000D02*
X77358000Y-119834000D01*
X84128000Y-119834000D02*
X83678000Y-119834000D01*
%TO.C,C9*%
X70725420Y-112520000D02*
X71006580Y-112520000D01*
X70725420Y-113540000D02*
X71006580Y-113540000D01*
%TO.C,C2*%
X90422000Y-113932580D02*
X90422000Y-113651420D01*
X91442000Y-113932580D02*
X91442000Y-113651420D01*
%TO.C,C4*%
X70738420Y-110488000D02*
X71019580Y-110488000D01*
X70738420Y-111508000D02*
X71019580Y-111508000D01*
%TO.C,C5*%
X92454000Y-113945580D02*
X92454000Y-113664420D01*
X93474000Y-113945580D02*
X93474000Y-113664420D01*
%TO.C,C8*%
X69594000Y-133249580D02*
X69594000Y-132968420D01*
X70614000Y-133249580D02*
X70614000Y-132968420D01*
%TO.C,C6*%
X67562000Y-133236580D02*
X67562000Y-132955420D01*
X68582000Y-133236580D02*
X68582000Y-132955420D01*
%TO.C,U1*%
X142948000Y-86814000D02*
X142948000Y-87264000D01*
X142948000Y-87264000D02*
X141658000Y-87264000D01*
X142948000Y-94034000D02*
X142948000Y-93584000D01*
X143398000Y-86814000D02*
X142948000Y-86814000D01*
X143398000Y-94034000D02*
X142948000Y-94034000D01*
X149718000Y-86814000D02*
X150168000Y-86814000D01*
X149718000Y-94034000D02*
X150168000Y-94034000D01*
X150168000Y-86814000D02*
X150168000Y-87264000D01*
X150168000Y-94034000D02*
X150168000Y-93584000D01*
%TO.C,C9*%
X157482000Y-80631420D02*
X157482000Y-80912580D01*
X156462000Y-80631420D02*
X156462000Y-80912580D01*
%TO.C,C2*%
X156069420Y-100328000D02*
X156350580Y-100328000D01*
X156069420Y-101348000D02*
X156350580Y-101348000D01*
%TO.C,C4*%
X159514000Y-80644420D02*
X159514000Y-80925580D01*
X158494000Y-80644420D02*
X158494000Y-80925580D01*
%TO.C,C5*%
X156056420Y-102360000D02*
X156337580Y-102360000D01*
X156056420Y-103380000D02*
X156337580Y-103380000D01*
%TO.C,C8*%
X136752420Y-79500000D02*
X137033580Y-79500000D01*
X136752420Y-80520000D02*
X137033580Y-80520000D01*
%TO.C,C6*%
X136765420Y-77468000D02*
X137046580Y-77468000D01*
X136765420Y-78488000D02*
X137046580Y-78488000D01*
%TO.C,U1*%
X109928000Y-86814000D02*
X109928000Y-87264000D01*
X109928000Y-87264000D02*
X108638000Y-87264000D01*
X109928000Y-94034000D02*
X109928000Y-93584000D01*
X110378000Y-86814000D02*
X109928000Y-86814000D01*
X110378000Y-94034000D02*
X109928000Y-94034000D01*
X116698000Y-86814000D02*
X117148000Y-86814000D01*
X116698000Y-94034000D02*
X117148000Y-94034000D01*
X117148000Y-86814000D02*
X117148000Y-87264000D01*
X117148000Y-94034000D02*
X117148000Y-93584000D01*
%TO.C,C9*%
X124462000Y-80631420D02*
X124462000Y-80912580D01*
X123442000Y-80631420D02*
X123442000Y-80912580D01*
%TO.C,C2*%
X123049420Y-100328000D02*
X123330580Y-100328000D01*
X123049420Y-101348000D02*
X123330580Y-101348000D01*
%TO.C,C4*%
X126494000Y-80644420D02*
X126494000Y-80925580D01*
X125474000Y-80644420D02*
X125474000Y-80925580D01*
%TO.C,C5*%
X123036420Y-102360000D02*
X123317580Y-102360000D01*
X123036420Y-103380000D02*
X123317580Y-103380000D01*
%TO.C,C8*%
X103732420Y-79500000D02*
X104013580Y-79500000D01*
X103732420Y-80520000D02*
X104013580Y-80520000D01*
%TO.C,C6*%
X103745420Y-77468000D02*
X104026580Y-77468000D01*
X103745420Y-78488000D02*
X104026580Y-78488000D01*
X70725420Y-77468000D02*
X71006580Y-77468000D01*
X70725420Y-78488000D02*
X71006580Y-78488000D01*
%TO.C,C8*%
X70712420Y-79500000D02*
X70993580Y-79500000D01*
X70712420Y-80520000D02*
X70993580Y-80520000D01*
%TO.C,C5*%
X90016420Y-102360000D02*
X90297580Y-102360000D01*
X90016420Y-103380000D02*
X90297580Y-103380000D01*
%TO.C,C4*%
X93474000Y-80644420D02*
X93474000Y-80925580D01*
X92454000Y-80644420D02*
X92454000Y-80925580D01*
%TO.C,C2*%
X90029420Y-100328000D02*
X90310580Y-100328000D01*
X90029420Y-101348000D02*
X90310580Y-101348000D01*
%TO.C,C9*%
X91442000Y-80631420D02*
X91442000Y-80912580D01*
X90422000Y-80631420D02*
X90422000Y-80912580D01*
%TO.C,U1*%
X76908000Y-86814000D02*
X76908000Y-87264000D01*
X76908000Y-87264000D02*
X75618000Y-87264000D01*
X76908000Y-94034000D02*
X76908000Y-93584000D01*
X77358000Y-86814000D02*
X76908000Y-86814000D01*
X77358000Y-94034000D02*
X76908000Y-94034000D01*
X83678000Y-86814000D02*
X84128000Y-86814000D01*
X83678000Y-94034000D02*
X84128000Y-94034000D01*
X84128000Y-86814000D02*
X84128000Y-87264000D01*
X84128000Y-94034000D02*
X84128000Y-93584000D01*
%TD*%
M02*
