%TF.GenerationSoftware,KiCad,Pcbnew,7.0.8*%
%TF.CreationDate,2024-03-04T23:40:14+01:00*%
%TF.ProjectId,scalenie,7363616c-656e-4696-952e-6b696361645f,rev?*%
%TF.SameCoordinates,Original*%
%TF.FileFunction,Profile,NP*%
%FSLAX46Y46*%
G04 Gerber Fmt 4.6, Leading zero omitted, Abs format (unit mm)*
G04 Created by KiCad (PCBNEW 7.0.8) date 2024-03-04 23:40:14*
%MOMM*%
%LPD*%
G01*
G04 APERTURE LIST*
%TA.AperFunction,Profile*%
%ADD10C,0.100000*%
%TD*%
G04 APERTURE END LIST*
D10*
X122174000Y-141224000D02*
X104902000Y-141224000D01*
X104902000Y-138684000D02*
X122174000Y-138684000D01*
X155194000Y-108204000D02*
X137922000Y-108204000D01*
X137922000Y-105664000D02*
X155194000Y-105664000D01*
X71882000Y-108204000D02*
X89154000Y-108204000D01*
X71882000Y-105664000D02*
X89154000Y-105664000D01*
X98298000Y-99060000D02*
X98298000Y-81788000D01*
X95758000Y-81788000D02*
X95758000Y-99060000D01*
X131318000Y-99060000D02*
X131318000Y-81788000D01*
X128778000Y-81788000D02*
X128778000Y-99060000D01*
X128778000Y-113284000D02*
X131318000Y-113284000D01*
X128778000Y-133604000D02*
X131318000Y-133604000D01*
X155194000Y-141224000D02*
X137922000Y-141224000D01*
X137922000Y-138684000D02*
X155194000Y-138684000D01*
X95758000Y-166624000D02*
X98298000Y-166624000D01*
X95758000Y-146304000D02*
X98298000Y-146304000D01*
X71882000Y-141224000D02*
X89154000Y-141224000D01*
X71882000Y-138684000D02*
X89154000Y-138684000D01*
X95758000Y-133604000D02*
X98298000Y-133604000D01*
X95758000Y-113284000D02*
X98298000Y-113284000D01*
X122174000Y-108204000D02*
X104902000Y-108204000D01*
X104902000Y-105664000D02*
X122174000Y-105664000D01*
X128778000Y-114808000D02*
X128778000Y-132080000D01*
X131318000Y-132080000D02*
X131318000Y-114808000D01*
X128778000Y-132080000D02*
X131318000Y-132080000D01*
X131318000Y-114808000D02*
X128778000Y-114808000D01*
X95758000Y-114808000D02*
X95758000Y-132080000D01*
X98298000Y-132080000D02*
X98298000Y-114808000D01*
X95758000Y-132080000D02*
X98298000Y-132080000D01*
X98298000Y-114808000D02*
X95758000Y-114808000D01*
X95758000Y-147828000D02*
X95758000Y-165100000D01*
X98298000Y-165100000D02*
X98298000Y-147828000D01*
X95758000Y-165100000D02*
X98298000Y-165100000D01*
X98298000Y-147828000D02*
X95758000Y-147828000D01*
X128778000Y-147828000D02*
X128778000Y-165100000D01*
X131318000Y-165100000D02*
X131318000Y-147828000D01*
X128778000Y-165100000D02*
X131318000Y-165100000D01*
X131318000Y-166624000D02*
X128778000Y-166624000D01*
X131318000Y-147828000D02*
X128778000Y-147828000D01*
X128778000Y-146304000D02*
X131318000Y-146304000D01*
X161798000Y-166624000D02*
X156718000Y-171704000D01*
X156718000Y-141224000D02*
X161798000Y-146304000D01*
X131318000Y-146304000D02*
X136398000Y-141224000D01*
X136398000Y-171704000D02*
X131318000Y-166624000D01*
X161798000Y-146304000D02*
X161798000Y-166624000D01*
X156718000Y-171704000D02*
X136398000Y-171704000D01*
X155194000Y-138684000D02*
X155194000Y-141224000D01*
X156718000Y-141224000D02*
X156718000Y-138684000D01*
X137922000Y-138684000D02*
X137922000Y-141224000D01*
X136398000Y-141224000D02*
X136398000Y-138684000D01*
X128778000Y-166624000D02*
X123698000Y-171704000D01*
X123698000Y-141224000D02*
X128778000Y-146304000D01*
X98298000Y-146304000D02*
X103378000Y-141224000D01*
X103378000Y-171704000D02*
X98298000Y-166624000D01*
X123698000Y-171704000D02*
X103378000Y-171704000D01*
X122174000Y-138684000D02*
X122174000Y-141224000D01*
X123698000Y-141224000D02*
X123698000Y-138684000D01*
X104902000Y-138684000D02*
X104902000Y-141224000D01*
X103378000Y-141224000D02*
X103378000Y-138684000D01*
X65278000Y-166624000D02*
X65278000Y-146304000D01*
X95758000Y-166624000D02*
X90678000Y-171704000D01*
X90678000Y-141224000D02*
X95758000Y-146304000D01*
X65278000Y-146304000D02*
X70358000Y-141224000D01*
X70358000Y-171704000D02*
X65278000Y-166624000D01*
X90678000Y-171704000D02*
X70358000Y-171704000D01*
X89154000Y-138684000D02*
X89154000Y-141224000D01*
X90678000Y-141224000D02*
X90678000Y-138684000D01*
X71882000Y-138684000D02*
X71882000Y-141224000D01*
X70358000Y-141224000D02*
X70358000Y-138684000D01*
X161798000Y-133604000D02*
X156718000Y-138684000D01*
X156718000Y-108204000D02*
X161798000Y-113284000D01*
X131318000Y-113284000D02*
X136398000Y-108204000D01*
X136398000Y-138684000D02*
X131318000Y-133604000D01*
X161798000Y-113284000D02*
X161798000Y-133604000D01*
X155194000Y-105664000D02*
X155194000Y-108204000D01*
X156718000Y-108204000D02*
X156718000Y-105664000D01*
X137922000Y-105664000D02*
X137922000Y-108204000D01*
X136398000Y-108204000D02*
X136398000Y-105664000D01*
X128778000Y-133604000D02*
X123698000Y-138684000D01*
X123698000Y-108204000D02*
X128778000Y-113284000D01*
X98298000Y-113284000D02*
X103378000Y-108204000D01*
X103378000Y-138684000D02*
X98298000Y-133604000D01*
X122174000Y-105664000D02*
X122174000Y-108204000D01*
X123698000Y-108204000D02*
X123698000Y-105664000D01*
X104902000Y-105664000D02*
X104902000Y-108204000D01*
X103378000Y-108204000D02*
X103378000Y-105664000D01*
X65278000Y-133604000D02*
X65278000Y-113284000D01*
X95758000Y-133604000D02*
X90678000Y-138684000D01*
X90678000Y-108204000D02*
X95758000Y-113284000D01*
X65278000Y-113284000D02*
X70358000Y-108204000D01*
X70358000Y-138684000D02*
X65278000Y-133604000D01*
X89154000Y-105664000D02*
X89154000Y-108204000D01*
X90678000Y-108204000D02*
X90678000Y-105664000D01*
X71882000Y-105664000D02*
X71882000Y-108204000D01*
X70358000Y-108204000D02*
X70358000Y-105664000D01*
X136398000Y-75184000D02*
X156718000Y-75184000D01*
X136398000Y-105664000D02*
X131318000Y-100584000D01*
X161798000Y-100584000D02*
X156718000Y-105664000D01*
X161798000Y-80264000D02*
X161798000Y-100584000D01*
X156718000Y-75184000D02*
X161798000Y-80264000D01*
X131318000Y-80264000D02*
X136398000Y-75184000D01*
X103378000Y-75184000D02*
X123698000Y-75184000D01*
X103378000Y-105664000D02*
X98298000Y-100584000D01*
X128778000Y-100584000D02*
X123698000Y-105664000D01*
X123698000Y-75184000D02*
X128778000Y-80264000D01*
X98298000Y-80264000D02*
X103378000Y-75184000D01*
X131318000Y-99060000D02*
X128778000Y-99060000D01*
X128778000Y-100584000D02*
X131318000Y-100584000D01*
X131318000Y-81788000D02*
X128778000Y-81788000D01*
X128778000Y-80264000D02*
X131318000Y-80264000D01*
X98298000Y-99060000D02*
X95758000Y-99060000D01*
X95758000Y-100584000D02*
X98298000Y-100584000D01*
X98298000Y-81788000D02*
X95758000Y-81788000D01*
X95758000Y-80264000D02*
X98298000Y-80264000D01*
X65278000Y-100584000D02*
X65278000Y-80264000D01*
X65278000Y-80264000D02*
X70358000Y-75184000D01*
X90678000Y-75184000D02*
X95758000Y-80264000D01*
X95758000Y-100584000D02*
X90678000Y-105664000D01*
X70358000Y-75184000D02*
X90678000Y-75184000D01*
X70358000Y-105664000D02*
X65278000Y-100584000D01*
M02*
