%TF.GenerationSoftware,KiCad,Pcbnew,7.0.8*%
%TF.CreationDate,2024-01-12T13:09:39+01:00*%
%TF.ProjectId,adapter_STM32,61646170-7465-4725-9f53-544d33322e6b,rev?*%
%TF.SameCoordinates,Original*%
%TF.FileFunction,Copper,L2,Bot*%
%TF.FilePolarity,Positive*%
%FSLAX46Y46*%
G04 Gerber Fmt 4.6, Leading zero omitted, Abs format (unit mm)*
G04 Created by KiCad (PCBNEW 7.0.8) date 2024-01-12 13:09:39*
%MOMM*%
%LPD*%
G01*
G04 APERTURE LIST*
G04 Aperture macros list*
%AMRoundRect*
0 Rectangle with rounded corners*
0 $1 Rounding radius*
0 $2 $3 $4 $5 $6 $7 $8 $9 X,Y pos of 4 corners*
0 Add a 4 corners polygon primitive as box body*
4,1,4,$2,$3,$4,$5,$6,$7,$8,$9,$2,$3,0*
0 Add four circle primitives for the rounded corners*
1,1,$1+$1,$2,$3*
1,1,$1+$1,$4,$5*
1,1,$1+$1,$6,$7*
1,1,$1+$1,$8,$9*
0 Add four rect primitives between the rounded corners*
20,1,$1+$1,$2,$3,$4,$5,0*
20,1,$1+$1,$4,$5,$6,$7,0*
20,1,$1+$1,$6,$7,$8,$9,0*
20,1,$1+$1,$8,$9,$2,$3,0*%
G04 Aperture macros list end*
%TA.AperFunction,ComponentPad*%
%ADD10R,1.700000X1.700000*%
%TD*%
%TA.AperFunction,ComponentPad*%
%ADD11O,1.700000X1.700000*%
%TD*%
%TA.AperFunction,SMDPad,CuDef*%
%ADD12RoundRect,0.225000X0.250000X-0.225000X0.250000X0.225000X-0.250000X0.225000X-0.250000X-0.225000X0*%
%TD*%
%TA.AperFunction,SMDPad,CuDef*%
%ADD13RoundRect,0.225000X-0.250000X0.225000X-0.250000X-0.225000X0.250000X-0.225000X0.250000X0.225000X0*%
%TD*%
%TA.AperFunction,SMDPad,CuDef*%
%ADD14RoundRect,0.225000X0.225000X0.250000X-0.225000X0.250000X-0.225000X-0.250000X0.225000X-0.250000X0*%
%TD*%
%TA.AperFunction,SMDPad,CuDef*%
%ADD15RoundRect,0.225000X-0.225000X-0.250000X0.225000X-0.250000X0.225000X0.250000X-0.225000X0.250000X0*%
%TD*%
%TA.AperFunction,SMDPad,CuDef*%
%ADD16R,2.400000X2.000000*%
%TD*%
%TA.AperFunction,ViaPad*%
%ADD17C,0.800000*%
%TD*%
%TA.AperFunction,Conductor*%
%ADD18C,1.300000*%
%TD*%
%TA.AperFunction,Conductor*%
%ADD19C,1.000000*%
%TD*%
G04 APERTURE END LIST*
D10*
%TO.P,J4,1,Pin_1*%
%TO.N,VDDIO2*%
X109220000Y-52070000D03*
D11*
%TO.P,J4,2,Pin_2*%
%TO.N,VSS*%
X106680000Y-52070000D03*
%TO.P,J4,3,Pin_3*%
%TO.N,PA13*%
X109220000Y-54610000D03*
%TO.P,J4,4,Pin_4*%
%TO.N,PA12*%
X106680000Y-54610000D03*
%TO.P,J4,5,Pin_5*%
%TO.N,PA11*%
X109220000Y-57150000D03*
%TO.P,J4,6,Pin_6*%
%TO.N,PA10*%
X106680000Y-57150000D03*
%TO.P,J4,7,Pin_7*%
%TO.N,PA8*%
X109220000Y-59690000D03*
%TO.P,J4,8,Pin_8*%
%TO.N,PA9*%
X106680000Y-59690000D03*
%TO.P,J4,9,Pin_9*%
%TO.N,PB14*%
X109220000Y-62230000D03*
%TO.P,J4,10,Pin_10*%
%TO.N,PB15*%
X106680000Y-62230000D03*
%TO.P,J4,11,Pin_11*%
%TO.N,PB12*%
X109220000Y-64770000D03*
%TO.P,J4,12,Pin_12*%
%TO.N,PB13*%
X106680000Y-64770000D03*
%TD*%
D10*
%TO.P,J3,1,Pin_1*%
%TO.N,VDD*%
X90170000Y-45720000D03*
D11*
%TO.P,J3,2,Pin_2*%
%TO.N,VSS*%
X90170000Y-48260000D03*
%TO.P,J3,3,Pin_3*%
%TO.N,PB9*%
X92710000Y-45720000D03*
%TO.P,J3,4,Pin_4*%
%TO.N,PB8*%
X92710000Y-48260000D03*
%TO.P,J3,5,Pin_5*%
%TO.N,BOOT0*%
X95250000Y-45720000D03*
%TO.P,J3,6,Pin_6*%
%TO.N,PB7*%
X95250000Y-48260000D03*
%TO.P,J3,7,Pin_7*%
%TO.N,PB5*%
X97790000Y-45720000D03*
%TO.P,J3,8,Pin_8*%
%TO.N,PB6*%
X97790000Y-48260000D03*
%TO.P,J3,9,Pin_9*%
%TO.N,PB3*%
X100330000Y-45720000D03*
%TO.P,J3,10,Pin_10*%
%TO.N,PB4*%
X100330000Y-48260000D03*
%TO.P,J3,11,Pin_11*%
%TO.N,PA14*%
X102870000Y-45720000D03*
%TO.P,J3,12,Pin_12*%
%TO.N,PA15*%
X102870000Y-48260000D03*
%TD*%
%TO.P,J2,12,Pin_12*%
%TO.N,PA4*%
X90170000Y-68580000D03*
%TO.P,J2,11,Pin_11*%
%TO.N,PA3*%
X90170000Y-71120000D03*
%TO.P,J2,10,Pin_10*%
%TO.N,PA6*%
X92710000Y-68580000D03*
%TO.P,J2,9,Pin_9*%
%TO.N,PA5*%
X92710000Y-71120000D03*
%TO.P,J2,8,Pin_8*%
%TO.N,PB0*%
X95250000Y-68580000D03*
%TO.P,J2,7,Pin_7*%
%TO.N,PA7*%
X95250000Y-71120000D03*
%TO.P,J2,6,Pin_6*%
%TO.N,PB1*%
X97790000Y-68580000D03*
%TO.P,J2,5,Pin_5*%
%TO.N,PB2*%
X97790000Y-71120000D03*
%TO.P,J2,4,Pin_4*%
%TO.N,PB10*%
X100330000Y-68580000D03*
%TO.P,J2,3,Pin_3*%
%TO.N,PB11*%
X100330000Y-71120000D03*
%TO.P,J2,2,Pin_2*%
%TO.N,VSS*%
X102870000Y-68580000D03*
D10*
%TO.P,J2,1,Pin_1*%
%TO.N,VDD*%
X102870000Y-71120000D03*
%TD*%
%TO.P,J1,1,Pin_1*%
%TO.N,PA2*%
X83820000Y-64770000D03*
D11*
%TO.P,J1,2,Pin_2*%
%TO.N,PA1*%
X86360000Y-64770000D03*
%TO.P,J1,3,Pin_3*%
%TO.N,PA0*%
X83820000Y-62230000D03*
%TO.P,J1,4,Pin_4*%
%TO.N,VDDA*%
X86360000Y-62230000D03*
%TO.P,J1,5,Pin_5*%
%TO.N,VSSA*%
X83820000Y-59690000D03*
%TO.P,J1,6,Pin_6*%
%TO.N,NRST*%
X86360000Y-59690000D03*
%TO.P,J1,7,Pin_7*%
%TO.N,VSS*%
X83820000Y-57150000D03*
%TO.P,J1,8,Pin_8*%
X86360000Y-57150000D03*
%TO.P,J1,9,Pin_9*%
%TO.N,PC14*%
X83820000Y-54610000D03*
%TO.P,J1,10,Pin_10*%
%TO.N,PC15*%
X86360000Y-54610000D03*
%TO.P,J1,11,Pin_11*%
%TO.N,VBAT*%
X83820000Y-52070000D03*
%TO.P,J1,12,Pin_12*%
%TO.N,PC13*%
X86360000Y-52070000D03*
%TD*%
D12*
%TO.P,C14,1*%
%TO.N,VSS*%
X90424000Y-64542000D03*
%TO.P,C14,2*%
%TO.N,VDDA*%
X90424000Y-62992000D03*
%TD*%
%TO.P,C13,1*%
%TO.N,VSS*%
X92202000Y-64542000D03*
%TO.P,C13,2*%
%TO.N,VDDA*%
X92202000Y-62992000D03*
%TD*%
D13*
%TO.P,C3,1*%
%TO.N,VSS*%
X92202000Y-59944000D03*
%TO.P,C3,2*%
%TO.N,VDDA*%
X92202000Y-61494000D03*
%TD*%
%TO.P,C12,1*%
%TO.N,VSS*%
X88646000Y-59957000D03*
%TO.P,C12,2*%
%TO.N,VDDA*%
X88646000Y-61507000D03*
%TD*%
%TO.P,C7,1*%
%TO.N,VSS*%
X90424000Y-59957000D03*
%TO.P,C7,2*%
%TO.N,VDDA*%
X90424000Y-61507000D03*
%TD*%
D12*
%TO.P,C15,1*%
%TO.N,VSS*%
X88646000Y-64542000D03*
%TO.P,C15,2*%
%TO.N,VDDA*%
X88646000Y-62992000D03*
%TD*%
D14*
%TO.P,C16,1*%
%TO.N,VSS*%
X95250000Y-62230000D03*
%TO.P,C16,2*%
%TO.N,VDDA*%
X93700000Y-62230000D03*
%TD*%
D15*
%TO.P,C10,1*%
%TO.N,Net-(U1-PF0)*%
X99822000Y-56489600D03*
%TO.P,C10,2*%
%TO.N,VSS*%
X101372000Y-56489600D03*
%TD*%
D12*
%TO.P,C1,1*%
%TO.N,VBAT*%
X83820000Y-49543000D03*
%TO.P,C1,2*%
%TO.N,VSS*%
X83820000Y-47993000D03*
%TD*%
D15*
%TO.P,C11,1*%
%TO.N,Net-(U1-PF1)*%
X99822000Y-60198000D03*
%TO.P,C11,2*%
%TO.N,VSS*%
X101372000Y-60198000D03*
%TD*%
D16*
%TO.P,Y1,1,1*%
%TO.N,Net-(U1-PF0)*%
X96774000Y-56498000D03*
%TO.P,Y1,2,2*%
%TO.N,Net-(U1-PF1)*%
X96774000Y-60198000D03*
%TD*%
D17*
%TO.N,Net-(U1-PF0)*%
X94234000Y-56642000D03*
%TO.N,VSS*%
X100838000Y-54102000D03*
X100838000Y-62738000D03*
X92202000Y-54102000D03*
%TO.N,Net-(U1-PF1)*%
X94234000Y-59182000D03*
%TD*%
D18*
%TO.N,VBAT*%
X83820000Y-49543000D02*
X83820000Y-52070000D01*
D19*
%TO.N,Net-(U1-PF0)*%
X94378000Y-56498000D02*
X95504000Y-56498000D01*
X95504000Y-56498000D02*
X95512400Y-56489600D01*
X95504000Y-56498000D02*
X97790000Y-56498000D01*
X95512400Y-56489600D02*
X100076000Y-56489600D01*
X94234000Y-56642000D02*
X94378000Y-56498000D01*
D18*
%TO.N,VDDA*%
X86360000Y-62230000D02*
X93700000Y-62230000D01*
D19*
%TO.N,Net-(U1-PF1)*%
X95250000Y-60198000D02*
X94234000Y-59182000D01*
X95250000Y-60198000D02*
X100063000Y-60198000D01*
%TD*%
%TA.AperFunction,Conductor*%
%TO.N,VSS*%
G36*
X106695469Y-43200185D02*
G01*
X106716111Y-43216819D01*
X111723181Y-48223888D01*
X111756666Y-48285211D01*
X111759500Y-48311569D01*
X111759500Y-68528430D01*
X111739815Y-68595469D01*
X111723181Y-68616111D01*
X106716111Y-73623181D01*
X106654788Y-73656666D01*
X106628430Y-73659500D01*
X86411569Y-73659500D01*
X86344530Y-73639815D01*
X86323888Y-73623181D01*
X83820707Y-71120000D01*
X89114417Y-71120000D01*
X89134699Y-71325932D01*
X89134700Y-71325934D01*
X89194768Y-71523954D01*
X89292315Y-71706450D01*
X89292317Y-71706452D01*
X89423589Y-71866410D01*
X89520209Y-71945702D01*
X89583550Y-71997685D01*
X89766046Y-72095232D01*
X89964066Y-72155300D01*
X89964065Y-72155300D01*
X89982529Y-72157118D01*
X90170000Y-72175583D01*
X90375934Y-72155300D01*
X90573954Y-72095232D01*
X90756450Y-71997685D01*
X90916410Y-71866410D01*
X91047685Y-71706450D01*
X91145232Y-71523954D01*
X91205300Y-71325934D01*
X91225583Y-71120000D01*
X91654417Y-71120000D01*
X91674699Y-71325932D01*
X91674700Y-71325934D01*
X91734768Y-71523954D01*
X91832315Y-71706450D01*
X91832317Y-71706452D01*
X91963589Y-71866410D01*
X92060209Y-71945702D01*
X92123550Y-71997685D01*
X92306046Y-72095232D01*
X92504066Y-72155300D01*
X92504065Y-72155300D01*
X92522529Y-72157118D01*
X92710000Y-72175583D01*
X92915934Y-72155300D01*
X93113954Y-72095232D01*
X93296450Y-71997685D01*
X93456410Y-71866410D01*
X93587685Y-71706450D01*
X93685232Y-71523954D01*
X93745300Y-71325934D01*
X93765583Y-71120000D01*
X94194417Y-71120000D01*
X94214699Y-71325932D01*
X94214700Y-71325934D01*
X94274768Y-71523954D01*
X94372315Y-71706450D01*
X94372317Y-71706452D01*
X94503589Y-71866410D01*
X94600209Y-71945702D01*
X94663550Y-71997685D01*
X94846046Y-72095232D01*
X95044066Y-72155300D01*
X95044065Y-72155300D01*
X95062529Y-72157118D01*
X95250000Y-72175583D01*
X95455934Y-72155300D01*
X95653954Y-72095232D01*
X95836450Y-71997685D01*
X95996410Y-71866410D01*
X96127685Y-71706450D01*
X96225232Y-71523954D01*
X96285300Y-71325934D01*
X96305583Y-71120000D01*
X96734417Y-71120000D01*
X96754699Y-71325932D01*
X96754700Y-71325934D01*
X96814768Y-71523954D01*
X96912315Y-71706450D01*
X96912317Y-71706452D01*
X97043589Y-71866410D01*
X97140209Y-71945702D01*
X97203550Y-71997685D01*
X97386046Y-72095232D01*
X97584066Y-72155300D01*
X97584065Y-72155300D01*
X97602529Y-72157118D01*
X97790000Y-72175583D01*
X97995934Y-72155300D01*
X98193954Y-72095232D01*
X98376450Y-71997685D01*
X98536410Y-71866410D01*
X98667685Y-71706450D01*
X98765232Y-71523954D01*
X98825300Y-71325934D01*
X98845583Y-71120000D01*
X99274417Y-71120000D01*
X99294699Y-71325932D01*
X99294700Y-71325934D01*
X99354768Y-71523954D01*
X99452315Y-71706450D01*
X99452317Y-71706452D01*
X99583589Y-71866410D01*
X99680209Y-71945702D01*
X99743550Y-71997685D01*
X99926046Y-72095232D01*
X100124066Y-72155300D01*
X100124065Y-72155300D01*
X100142529Y-72157118D01*
X100330000Y-72175583D01*
X100535934Y-72155300D01*
X100733954Y-72095232D01*
X100916450Y-71997685D01*
X100926116Y-71989752D01*
X101819500Y-71989752D01*
X101831131Y-72048229D01*
X101831132Y-72048230D01*
X101875447Y-72114552D01*
X101941769Y-72158867D01*
X101941770Y-72158868D01*
X102000247Y-72170499D01*
X102000250Y-72170500D01*
X102000252Y-72170500D01*
X103739750Y-72170500D01*
X103739751Y-72170499D01*
X103754568Y-72167552D01*
X103798229Y-72158868D01*
X103798229Y-72158867D01*
X103798231Y-72158867D01*
X103864552Y-72114552D01*
X103908867Y-72048231D01*
X103908867Y-72048229D01*
X103908868Y-72048229D01*
X103920499Y-71989752D01*
X103920500Y-71989750D01*
X103920500Y-70250249D01*
X103920499Y-70250247D01*
X103908868Y-70191770D01*
X103908867Y-70191769D01*
X103864552Y-70125447D01*
X103798230Y-70081132D01*
X103798229Y-70081131D01*
X103739752Y-70069500D01*
X103739748Y-70069500D01*
X102000252Y-70069500D01*
X102000247Y-70069500D01*
X101941770Y-70081131D01*
X101941769Y-70081132D01*
X101875447Y-70125447D01*
X101831132Y-70191769D01*
X101831131Y-70191770D01*
X101819500Y-70250247D01*
X101819500Y-71989752D01*
X100926116Y-71989752D01*
X101076410Y-71866410D01*
X101207685Y-71706450D01*
X101305232Y-71523954D01*
X101365300Y-71325934D01*
X101385583Y-71120000D01*
X101365300Y-70914066D01*
X101305232Y-70716046D01*
X101207685Y-70533550D01*
X101155702Y-70470209D01*
X101076410Y-70373589D01*
X100926121Y-70250252D01*
X100916450Y-70242315D01*
X100733954Y-70144768D01*
X100535934Y-70084700D01*
X100535932Y-70084699D01*
X100535934Y-70084699D01*
X100330000Y-70064417D01*
X100124067Y-70084699D01*
X99926043Y-70144769D01*
X99838114Y-70191769D01*
X99743550Y-70242315D01*
X99743548Y-70242316D01*
X99743547Y-70242317D01*
X99583589Y-70373589D01*
X99452317Y-70533547D01*
X99354769Y-70716043D01*
X99294699Y-70914067D01*
X99274417Y-71120000D01*
X98845583Y-71120000D01*
X98825300Y-70914066D01*
X98765232Y-70716046D01*
X98667685Y-70533550D01*
X98615702Y-70470209D01*
X98536410Y-70373589D01*
X98386121Y-70250252D01*
X98376450Y-70242315D01*
X98193954Y-70144768D01*
X97995934Y-70084700D01*
X97995932Y-70084699D01*
X97995934Y-70084699D01*
X97790000Y-70064417D01*
X97584067Y-70084699D01*
X97386043Y-70144769D01*
X97298114Y-70191769D01*
X97203550Y-70242315D01*
X97203548Y-70242316D01*
X97203547Y-70242317D01*
X97043589Y-70373589D01*
X96912317Y-70533547D01*
X96814769Y-70716043D01*
X96754699Y-70914067D01*
X96734417Y-71120000D01*
X96305583Y-71120000D01*
X96285300Y-70914066D01*
X96225232Y-70716046D01*
X96127685Y-70533550D01*
X96075702Y-70470209D01*
X95996410Y-70373589D01*
X95846121Y-70250252D01*
X95836450Y-70242315D01*
X95653954Y-70144768D01*
X95455934Y-70084700D01*
X95455932Y-70084699D01*
X95455934Y-70084699D01*
X95250000Y-70064417D01*
X95044067Y-70084699D01*
X94846043Y-70144769D01*
X94758114Y-70191769D01*
X94663550Y-70242315D01*
X94663548Y-70242316D01*
X94663547Y-70242317D01*
X94503589Y-70373589D01*
X94372317Y-70533547D01*
X94274769Y-70716043D01*
X94214699Y-70914067D01*
X94194417Y-71120000D01*
X93765583Y-71120000D01*
X93745300Y-70914066D01*
X93685232Y-70716046D01*
X93587685Y-70533550D01*
X93535702Y-70470209D01*
X93456410Y-70373589D01*
X93306121Y-70250252D01*
X93296450Y-70242315D01*
X93113954Y-70144768D01*
X92915934Y-70084700D01*
X92915932Y-70084699D01*
X92915934Y-70084699D01*
X92710000Y-70064417D01*
X92504067Y-70084699D01*
X92306043Y-70144769D01*
X92218114Y-70191769D01*
X92123550Y-70242315D01*
X92123548Y-70242316D01*
X92123547Y-70242317D01*
X91963589Y-70373589D01*
X91832317Y-70533547D01*
X91734769Y-70716043D01*
X91674699Y-70914067D01*
X91654417Y-71120000D01*
X91225583Y-71120000D01*
X91205300Y-70914066D01*
X91145232Y-70716046D01*
X91047685Y-70533550D01*
X90995702Y-70470209D01*
X90916410Y-70373589D01*
X90766121Y-70250252D01*
X90756450Y-70242315D01*
X90573954Y-70144768D01*
X90375934Y-70084700D01*
X90375932Y-70084699D01*
X90375934Y-70084699D01*
X90170000Y-70064417D01*
X89964067Y-70084699D01*
X89766043Y-70144769D01*
X89678114Y-70191769D01*
X89583550Y-70242315D01*
X89583548Y-70242316D01*
X89583547Y-70242317D01*
X89423589Y-70373589D01*
X89292317Y-70533547D01*
X89194769Y-70716043D01*
X89134699Y-70914067D01*
X89114417Y-71120000D01*
X83820707Y-71120000D01*
X81316819Y-68616111D01*
X81297101Y-68580000D01*
X89114417Y-68580000D01*
X89134699Y-68785932D01*
X89134700Y-68785934D01*
X89194768Y-68983954D01*
X89292315Y-69166450D01*
X89292317Y-69166452D01*
X89423589Y-69326410D01*
X89520209Y-69405702D01*
X89583550Y-69457685D01*
X89766046Y-69555232D01*
X89964066Y-69615300D01*
X89964065Y-69615300D01*
X89982529Y-69617118D01*
X90170000Y-69635583D01*
X90375934Y-69615300D01*
X90573954Y-69555232D01*
X90756450Y-69457685D01*
X90916410Y-69326410D01*
X91047685Y-69166450D01*
X91145232Y-68983954D01*
X91205300Y-68785934D01*
X91225583Y-68580000D01*
X91654417Y-68580000D01*
X91674699Y-68785932D01*
X91674700Y-68785934D01*
X91734768Y-68983954D01*
X91832315Y-69166450D01*
X91832317Y-69166452D01*
X91963589Y-69326410D01*
X92060209Y-69405702D01*
X92123550Y-69457685D01*
X92306046Y-69555232D01*
X92504066Y-69615300D01*
X92504065Y-69615300D01*
X92522529Y-69617118D01*
X92710000Y-69635583D01*
X92915934Y-69615300D01*
X93113954Y-69555232D01*
X93296450Y-69457685D01*
X93456410Y-69326410D01*
X93587685Y-69166450D01*
X93685232Y-68983954D01*
X93745300Y-68785934D01*
X93765583Y-68580000D01*
X94194417Y-68580000D01*
X94214699Y-68785932D01*
X94214700Y-68785934D01*
X94274768Y-68983954D01*
X94372315Y-69166450D01*
X94372317Y-69166452D01*
X94503589Y-69326410D01*
X94600209Y-69405702D01*
X94663550Y-69457685D01*
X94846046Y-69555232D01*
X95044066Y-69615300D01*
X95044065Y-69615300D01*
X95062529Y-69617118D01*
X95250000Y-69635583D01*
X95455934Y-69615300D01*
X95653954Y-69555232D01*
X95836450Y-69457685D01*
X95996410Y-69326410D01*
X96127685Y-69166450D01*
X96225232Y-68983954D01*
X96285300Y-68785934D01*
X96305583Y-68580000D01*
X96734417Y-68580000D01*
X96754699Y-68785932D01*
X96754700Y-68785934D01*
X96814768Y-68983954D01*
X96912315Y-69166450D01*
X96912317Y-69166452D01*
X97043589Y-69326410D01*
X97140209Y-69405702D01*
X97203550Y-69457685D01*
X97386046Y-69555232D01*
X97584066Y-69615300D01*
X97584065Y-69615300D01*
X97602529Y-69617118D01*
X97790000Y-69635583D01*
X97995934Y-69615300D01*
X98193954Y-69555232D01*
X98376450Y-69457685D01*
X98536410Y-69326410D01*
X98667685Y-69166450D01*
X98765232Y-68983954D01*
X98825300Y-68785934D01*
X98845583Y-68580000D01*
X99274417Y-68580000D01*
X99294699Y-68785932D01*
X99294700Y-68785934D01*
X99354768Y-68983954D01*
X99452315Y-69166450D01*
X99452317Y-69166452D01*
X99583589Y-69326410D01*
X99680209Y-69405702D01*
X99743550Y-69457685D01*
X99926046Y-69555232D01*
X100124066Y-69615300D01*
X100124065Y-69615300D01*
X100142529Y-69617118D01*
X100330000Y-69635583D01*
X100535934Y-69615300D01*
X100733954Y-69555232D01*
X100916450Y-69457685D01*
X101076410Y-69326410D01*
X101207685Y-69166450D01*
X101305232Y-68983954D01*
X101365300Y-68785934D01*
X101385583Y-68580000D01*
X101365300Y-68374066D01*
X101305232Y-68176046D01*
X101207685Y-67993550D01*
X101155702Y-67930209D01*
X101076410Y-67833589D01*
X100916452Y-67702317D01*
X100916453Y-67702317D01*
X100916450Y-67702315D01*
X100733954Y-67604768D01*
X100535934Y-67544700D01*
X100535932Y-67544699D01*
X100535934Y-67544699D01*
X100330000Y-67524417D01*
X100124067Y-67544699D01*
X99926043Y-67604769D01*
X99815898Y-67663643D01*
X99743550Y-67702315D01*
X99743548Y-67702316D01*
X99743547Y-67702317D01*
X99583589Y-67833589D01*
X99452317Y-67993547D01*
X99354769Y-68176043D01*
X99294699Y-68374067D01*
X99274417Y-68580000D01*
X98845583Y-68580000D01*
X98825300Y-68374066D01*
X98765232Y-68176046D01*
X98667685Y-67993550D01*
X98615702Y-67930209D01*
X98536410Y-67833589D01*
X98376452Y-67702317D01*
X98376453Y-67702317D01*
X98376450Y-67702315D01*
X98193954Y-67604768D01*
X97995934Y-67544700D01*
X97995932Y-67544699D01*
X97995934Y-67544699D01*
X97790000Y-67524417D01*
X97584067Y-67544699D01*
X97386043Y-67604769D01*
X97275898Y-67663643D01*
X97203550Y-67702315D01*
X97203548Y-67702316D01*
X97203547Y-67702317D01*
X97043589Y-67833589D01*
X96912317Y-67993547D01*
X96814769Y-68176043D01*
X96754699Y-68374067D01*
X96734417Y-68580000D01*
X96305583Y-68580000D01*
X96285300Y-68374066D01*
X96225232Y-68176046D01*
X96127685Y-67993550D01*
X96075702Y-67930209D01*
X95996410Y-67833589D01*
X95836452Y-67702317D01*
X95836453Y-67702317D01*
X95836450Y-67702315D01*
X95653954Y-67604768D01*
X95455934Y-67544700D01*
X95455932Y-67544699D01*
X95455934Y-67544699D01*
X95250000Y-67524417D01*
X95044067Y-67544699D01*
X94846043Y-67604769D01*
X94735898Y-67663643D01*
X94663550Y-67702315D01*
X94663548Y-67702316D01*
X94663547Y-67702317D01*
X94503589Y-67833589D01*
X94372317Y-67993547D01*
X94274769Y-68176043D01*
X94214699Y-68374067D01*
X94194417Y-68580000D01*
X93765583Y-68580000D01*
X93745300Y-68374066D01*
X93685232Y-68176046D01*
X93587685Y-67993550D01*
X93535702Y-67930209D01*
X93456410Y-67833589D01*
X93296452Y-67702317D01*
X93296453Y-67702317D01*
X93296450Y-67702315D01*
X93113954Y-67604768D01*
X92915934Y-67544700D01*
X92915932Y-67544699D01*
X92915934Y-67544699D01*
X92710000Y-67524417D01*
X92504067Y-67544699D01*
X92306043Y-67604769D01*
X92195898Y-67663643D01*
X92123550Y-67702315D01*
X92123548Y-67702316D01*
X92123547Y-67702317D01*
X91963589Y-67833589D01*
X91832317Y-67993547D01*
X91734769Y-68176043D01*
X91674699Y-68374067D01*
X91654417Y-68580000D01*
X91225583Y-68580000D01*
X91205300Y-68374066D01*
X91145232Y-68176046D01*
X91047685Y-67993550D01*
X90995702Y-67930209D01*
X90916410Y-67833589D01*
X90756452Y-67702317D01*
X90756453Y-67702317D01*
X90756450Y-67702315D01*
X90573954Y-67604768D01*
X90375934Y-67544700D01*
X90375932Y-67544699D01*
X90375934Y-67544699D01*
X90170000Y-67524417D01*
X89964067Y-67544699D01*
X89766043Y-67604769D01*
X89655898Y-67663643D01*
X89583550Y-67702315D01*
X89583548Y-67702316D01*
X89583547Y-67702317D01*
X89423589Y-67833589D01*
X89292317Y-67993547D01*
X89194769Y-68176043D01*
X89134699Y-68374067D01*
X89114417Y-68580000D01*
X81297101Y-68580000D01*
X81283334Y-68554788D01*
X81280500Y-68528430D01*
X81280500Y-65639752D01*
X82769500Y-65639752D01*
X82781131Y-65698229D01*
X82781132Y-65698230D01*
X82825447Y-65764552D01*
X82891769Y-65808867D01*
X82891770Y-65808868D01*
X82950247Y-65820499D01*
X82950250Y-65820500D01*
X82950252Y-65820500D01*
X84689750Y-65820500D01*
X84689751Y-65820499D01*
X84704568Y-65817552D01*
X84748229Y-65808868D01*
X84748229Y-65808867D01*
X84748231Y-65808867D01*
X84814552Y-65764552D01*
X84858867Y-65698231D01*
X84858867Y-65698229D01*
X84858868Y-65698229D01*
X84870499Y-65639752D01*
X84870500Y-65639750D01*
X84870500Y-64770000D01*
X85304417Y-64770000D01*
X85324699Y-64975932D01*
X85324700Y-64975934D01*
X85384768Y-65173954D01*
X85482315Y-65356450D01*
X85482317Y-65356452D01*
X85613589Y-65516410D01*
X85710209Y-65595702D01*
X85773550Y-65647685D01*
X85956046Y-65745232D01*
X86154066Y-65805300D01*
X86154065Y-65805300D01*
X86172529Y-65807118D01*
X86360000Y-65825583D01*
X86565934Y-65805300D01*
X86763954Y-65745232D01*
X86946450Y-65647685D01*
X87106410Y-65516410D01*
X87237685Y-65356450D01*
X87335232Y-65173954D01*
X87395300Y-64975934D01*
X87415583Y-64770000D01*
X105624417Y-64770000D01*
X105644699Y-64975932D01*
X105644700Y-64975934D01*
X105704768Y-65173954D01*
X105802315Y-65356450D01*
X105802317Y-65356452D01*
X105933589Y-65516410D01*
X106030209Y-65595702D01*
X106093550Y-65647685D01*
X106276046Y-65745232D01*
X106474066Y-65805300D01*
X106474065Y-65805300D01*
X106492529Y-65807118D01*
X106680000Y-65825583D01*
X106885934Y-65805300D01*
X107083954Y-65745232D01*
X107266450Y-65647685D01*
X107426410Y-65516410D01*
X107557685Y-65356450D01*
X107655232Y-65173954D01*
X107715300Y-64975934D01*
X107735583Y-64770000D01*
X108164417Y-64770000D01*
X108184699Y-64975932D01*
X108184700Y-64975934D01*
X108244768Y-65173954D01*
X108342315Y-65356450D01*
X108342317Y-65356452D01*
X108473589Y-65516410D01*
X108570209Y-65595702D01*
X108633550Y-65647685D01*
X108816046Y-65745232D01*
X109014066Y-65805300D01*
X109014065Y-65805300D01*
X109032529Y-65807118D01*
X109220000Y-65825583D01*
X109425934Y-65805300D01*
X109623954Y-65745232D01*
X109806450Y-65647685D01*
X109966410Y-65516410D01*
X110097685Y-65356450D01*
X110195232Y-65173954D01*
X110255300Y-64975934D01*
X110275583Y-64770000D01*
X110255300Y-64564066D01*
X110195232Y-64366046D01*
X110097685Y-64183550D01*
X110045702Y-64120209D01*
X109966410Y-64023589D01*
X109816121Y-63900252D01*
X109806450Y-63892315D01*
X109623954Y-63794768D01*
X109425934Y-63734700D01*
X109425932Y-63734699D01*
X109425934Y-63734699D01*
X109220000Y-63714417D01*
X109014067Y-63734699D01*
X108816043Y-63794769D01*
X108728114Y-63841769D01*
X108633550Y-63892315D01*
X108633548Y-63892316D01*
X108633547Y-63892317D01*
X108473589Y-64023589D01*
X108342317Y-64183547D01*
X108244769Y-64366043D01*
X108184699Y-64564067D01*
X108164417Y-64770000D01*
X107735583Y-64770000D01*
X107715300Y-64564066D01*
X107655232Y-64366046D01*
X107557685Y-64183550D01*
X107505702Y-64120209D01*
X107426410Y-64023589D01*
X107276121Y-63900252D01*
X107266450Y-63892315D01*
X107083954Y-63794768D01*
X106885934Y-63734700D01*
X106885932Y-63734699D01*
X106885934Y-63734699D01*
X106680000Y-63714417D01*
X106474067Y-63734699D01*
X106276043Y-63794769D01*
X106188114Y-63841769D01*
X106093550Y-63892315D01*
X106093548Y-63892316D01*
X106093547Y-63892317D01*
X105933589Y-64023589D01*
X105802317Y-64183547D01*
X105704769Y-64366043D01*
X105644699Y-64564067D01*
X105624417Y-64770000D01*
X87415583Y-64770000D01*
X87395300Y-64564066D01*
X87335232Y-64366046D01*
X87237685Y-64183550D01*
X87185702Y-64120209D01*
X87106410Y-64023589D01*
X86956121Y-63900252D01*
X86946450Y-63892315D01*
X86763954Y-63794768D01*
X86565934Y-63734700D01*
X86565932Y-63734699D01*
X86565934Y-63734699D01*
X86360000Y-63714417D01*
X86154067Y-63734699D01*
X85956043Y-63794769D01*
X85868114Y-63841769D01*
X85773550Y-63892315D01*
X85773548Y-63892316D01*
X85773547Y-63892317D01*
X85613589Y-64023589D01*
X85482317Y-64183547D01*
X85384769Y-64366043D01*
X85324699Y-64564067D01*
X85304417Y-64770000D01*
X84870500Y-64770000D01*
X84870500Y-63900249D01*
X84870499Y-63900247D01*
X84858868Y-63841770D01*
X84858867Y-63841769D01*
X84814552Y-63775447D01*
X84748230Y-63731132D01*
X84748229Y-63731131D01*
X84689752Y-63719500D01*
X84689748Y-63719500D01*
X82950252Y-63719500D01*
X82950247Y-63719500D01*
X82891770Y-63731131D01*
X82891769Y-63731132D01*
X82825447Y-63775447D01*
X82781132Y-63841769D01*
X82781131Y-63841770D01*
X82769500Y-63900247D01*
X82769500Y-65639752D01*
X81280500Y-65639752D01*
X81280500Y-62230000D01*
X82764417Y-62230000D01*
X82784699Y-62435932D01*
X82814734Y-62534944D01*
X82844768Y-62633954D01*
X82942315Y-62816450D01*
X82942317Y-62816452D01*
X83073589Y-62976410D01*
X83170209Y-63055702D01*
X83233550Y-63107685D01*
X83416046Y-63205232D01*
X83614066Y-63265300D01*
X83614065Y-63265300D01*
X83632529Y-63267118D01*
X83820000Y-63285583D01*
X84025934Y-63265300D01*
X84223954Y-63205232D01*
X84406450Y-63107685D01*
X84566410Y-62976410D01*
X84697685Y-62816450D01*
X84795232Y-62633954D01*
X84855300Y-62435934D01*
X84875583Y-62230000D01*
X85304417Y-62230000D01*
X85324699Y-62435932D01*
X85354734Y-62534944D01*
X85384768Y-62633954D01*
X85482315Y-62816450D01*
X85482317Y-62816452D01*
X85613589Y-62976410D01*
X85710209Y-63055702D01*
X85773550Y-63107685D01*
X85956046Y-63205232D01*
X86154066Y-63265300D01*
X86154065Y-63265300D01*
X86172529Y-63267118D01*
X86360000Y-63285583D01*
X86565934Y-63265300D01*
X86763954Y-63205232D01*
X86946450Y-63107685D01*
X86946456Y-63107679D01*
X86951520Y-63104298D01*
X86952404Y-63105621D01*
X87009583Y-63081334D01*
X87023943Y-63080500D01*
X87846500Y-63080500D01*
X87913539Y-63100185D01*
X87959294Y-63152989D01*
X87970500Y-63204500D01*
X87970500Y-63250493D01*
X87986279Y-63350121D01*
X87986280Y-63350124D01*
X87986281Y-63350126D01*
X88047472Y-63470220D01*
X88047473Y-63470221D01*
X88047476Y-63470225D01*
X88142774Y-63565523D01*
X88142778Y-63565526D01*
X88142780Y-63565528D01*
X88262874Y-63626719D01*
X88262876Y-63626719D01*
X88262878Y-63626720D01*
X88362507Y-63642500D01*
X88362512Y-63642500D01*
X88929493Y-63642500D01*
X89029121Y-63626720D01*
X89029121Y-63626719D01*
X89029126Y-63626719D01*
X89149220Y-63565528D01*
X89244528Y-63470220D01*
X89305719Y-63350126D01*
X89315942Y-63285582D01*
X89321500Y-63250493D01*
X89321500Y-63204500D01*
X89341185Y-63137461D01*
X89393989Y-63091706D01*
X89445500Y-63080500D01*
X89624500Y-63080500D01*
X89691539Y-63100185D01*
X89737294Y-63152989D01*
X89748500Y-63204500D01*
X89748500Y-63250493D01*
X89764279Y-63350121D01*
X89764280Y-63350124D01*
X89764281Y-63350126D01*
X89825472Y-63470220D01*
X89825473Y-63470221D01*
X89825476Y-63470225D01*
X89920774Y-63565523D01*
X89920778Y-63565526D01*
X89920780Y-63565528D01*
X90040874Y-63626719D01*
X90040876Y-63626719D01*
X90040878Y-63626720D01*
X90140507Y-63642500D01*
X90140512Y-63642500D01*
X90707493Y-63642500D01*
X90807121Y-63626720D01*
X90807121Y-63626719D01*
X90807126Y-63626719D01*
X90927220Y-63565528D01*
X91022528Y-63470220D01*
X91083719Y-63350126D01*
X91093942Y-63285582D01*
X91099500Y-63250493D01*
X91099500Y-63204500D01*
X91119185Y-63137461D01*
X91171989Y-63091706D01*
X91223500Y-63080500D01*
X91402500Y-63080500D01*
X91469539Y-63100185D01*
X91515294Y-63152989D01*
X91526500Y-63204500D01*
X91526500Y-63250493D01*
X91542279Y-63350121D01*
X91542280Y-63350124D01*
X91542281Y-63350126D01*
X91603472Y-63470220D01*
X91603473Y-63470221D01*
X91603476Y-63470225D01*
X91698774Y-63565523D01*
X91698778Y-63565526D01*
X91698780Y-63565528D01*
X91818874Y-63626719D01*
X91818876Y-63626719D01*
X91818878Y-63626720D01*
X91918507Y-63642500D01*
X91918512Y-63642500D01*
X92485493Y-63642500D01*
X92585121Y-63626720D01*
X92585121Y-63626719D01*
X92585126Y-63626719D01*
X92705220Y-63565528D01*
X92800528Y-63470220D01*
X92861719Y-63350126D01*
X92871942Y-63285582D01*
X92877500Y-63250493D01*
X92877500Y-63204500D01*
X92897185Y-63137461D01*
X92949989Y-63091706D01*
X93001500Y-63080500D01*
X93746107Y-63080500D01*
X93746113Y-63080500D01*
X93883910Y-63065514D01*
X94059221Y-63006444D01*
X94217736Y-62911070D01*
X94352041Y-62783849D01*
X94455858Y-62630730D01*
X94524331Y-62458875D01*
X94554260Y-62276317D01*
X94551749Y-62230000D01*
X105624417Y-62230000D01*
X105644699Y-62435932D01*
X105674734Y-62534944D01*
X105704768Y-62633954D01*
X105802315Y-62816450D01*
X105802317Y-62816452D01*
X105933589Y-62976410D01*
X106030209Y-63055702D01*
X106093550Y-63107685D01*
X106276046Y-63205232D01*
X106474066Y-63265300D01*
X106474065Y-63265300D01*
X106492529Y-63267118D01*
X106680000Y-63285583D01*
X106885934Y-63265300D01*
X107083954Y-63205232D01*
X107266450Y-63107685D01*
X107426410Y-62976410D01*
X107557685Y-62816450D01*
X107655232Y-62633954D01*
X107715300Y-62435934D01*
X107735583Y-62230000D01*
X108164417Y-62230000D01*
X108184699Y-62435932D01*
X108214734Y-62534944D01*
X108244768Y-62633954D01*
X108342315Y-62816450D01*
X108342317Y-62816452D01*
X108473589Y-62976410D01*
X108570209Y-63055702D01*
X108633550Y-63107685D01*
X108816046Y-63205232D01*
X109014066Y-63265300D01*
X109014065Y-63265300D01*
X109032529Y-63267118D01*
X109220000Y-63285583D01*
X109425934Y-63265300D01*
X109623954Y-63205232D01*
X109806450Y-63107685D01*
X109966410Y-62976410D01*
X110097685Y-62816450D01*
X110195232Y-62633954D01*
X110255300Y-62435934D01*
X110275583Y-62230000D01*
X110255300Y-62024066D01*
X110195232Y-61826046D01*
X110097685Y-61643550D01*
X110045702Y-61580209D01*
X109966410Y-61483589D01*
X109839575Y-61379500D01*
X109806450Y-61352315D01*
X109636554Y-61261502D01*
X109623956Y-61254769D01*
X109623955Y-61254768D01*
X109623954Y-61254768D01*
X109425934Y-61194700D01*
X109425932Y-61194699D01*
X109425934Y-61194699D01*
X109220000Y-61174417D01*
X109014067Y-61194699D01*
X108816043Y-61254769D01*
X108718307Y-61307011D01*
X108633550Y-61352315D01*
X108633548Y-61352316D01*
X108633547Y-61352317D01*
X108473589Y-61483589D01*
X108342317Y-61643547D01*
X108244769Y-61826043D01*
X108184699Y-62024067D01*
X108164417Y-62230000D01*
X107735583Y-62230000D01*
X107715300Y-62024066D01*
X107655232Y-61826046D01*
X107557685Y-61643550D01*
X107505702Y-61580209D01*
X107426410Y-61483589D01*
X107299575Y-61379500D01*
X107266450Y-61352315D01*
X107096554Y-61261502D01*
X107083956Y-61254769D01*
X107083955Y-61254768D01*
X107083954Y-61254768D01*
X106885934Y-61194700D01*
X106885932Y-61194699D01*
X106885934Y-61194699D01*
X106680000Y-61174417D01*
X106474067Y-61194699D01*
X106276043Y-61254769D01*
X106178307Y-61307011D01*
X106093550Y-61352315D01*
X106093548Y-61352316D01*
X106093547Y-61352317D01*
X105933589Y-61483589D01*
X105802317Y-61643547D01*
X105704769Y-61826043D01*
X105644699Y-62024067D01*
X105624417Y-62230000D01*
X94551749Y-62230000D01*
X94544245Y-62091593D01*
X94525497Y-62024067D01*
X94494755Y-61913343D01*
X94494752Y-61913337D01*
X94408101Y-61749897D01*
X94288337Y-61608900D01*
X94141064Y-61496946D01*
X93973167Y-61419268D01*
X93973163Y-61419266D01*
X93792497Y-61379500D01*
X93001500Y-61379500D01*
X92934461Y-61359815D01*
X92888706Y-61307011D01*
X92877500Y-61255500D01*
X92877500Y-61235506D01*
X92861720Y-61135878D01*
X92861719Y-61135876D01*
X92861719Y-61135874D01*
X92800528Y-61015780D01*
X92800526Y-61015778D01*
X92800523Y-61015774D01*
X92705225Y-60920476D01*
X92705221Y-60920473D01*
X92705220Y-60920472D01*
X92585126Y-60859281D01*
X92585124Y-60859280D01*
X92585121Y-60859279D01*
X92485493Y-60843500D01*
X92485488Y-60843500D01*
X91918512Y-60843500D01*
X91918507Y-60843500D01*
X91818878Y-60859279D01*
X91698778Y-60920473D01*
X91698774Y-60920476D01*
X91603476Y-61015774D01*
X91603473Y-61015778D01*
X91542279Y-61135878D01*
X91526500Y-61235506D01*
X91526500Y-61255500D01*
X91506815Y-61322539D01*
X91454011Y-61368294D01*
X91402500Y-61379500D01*
X91223500Y-61379500D01*
X91156461Y-61359815D01*
X91110706Y-61307011D01*
X91099500Y-61255500D01*
X91099500Y-61248506D01*
X91083720Y-61148878D01*
X91083719Y-61148876D01*
X91083719Y-61148874D01*
X91022528Y-61028780D01*
X91022526Y-61028778D01*
X91022523Y-61028774D01*
X90927225Y-60933476D01*
X90927221Y-60933473D01*
X90927220Y-60933472D01*
X90807126Y-60872281D01*
X90807124Y-60872280D01*
X90807121Y-60872279D01*
X90707493Y-60856500D01*
X90707488Y-60856500D01*
X90140512Y-60856500D01*
X90140507Y-60856500D01*
X90040878Y-60872279D01*
X89920778Y-60933473D01*
X89920774Y-60933476D01*
X89825476Y-61028774D01*
X89825473Y-61028778D01*
X89764279Y-61148878D01*
X89748500Y-61248506D01*
X89748500Y-61255500D01*
X89728815Y-61322539D01*
X89676011Y-61368294D01*
X89624500Y-61379500D01*
X89445500Y-61379500D01*
X89378461Y-61359815D01*
X89332706Y-61307011D01*
X89321500Y-61255500D01*
X89321500Y-61248506D01*
X89305720Y-61148878D01*
X89305719Y-61148876D01*
X89305719Y-61148874D01*
X89244528Y-61028780D01*
X89244526Y-61028778D01*
X89244523Y-61028774D01*
X89149225Y-60933476D01*
X89149221Y-60933473D01*
X89149220Y-60933472D01*
X89029126Y-60872281D01*
X89029124Y-60872280D01*
X89029121Y-60872279D01*
X88929493Y-60856500D01*
X88929488Y-60856500D01*
X88362512Y-60856500D01*
X88362507Y-60856500D01*
X88262878Y-60872279D01*
X88142778Y-60933473D01*
X88142774Y-60933476D01*
X88047476Y-61028774D01*
X88047473Y-61028778D01*
X87986279Y-61148878D01*
X87970500Y-61248506D01*
X87970500Y-61255500D01*
X87950815Y-61322539D01*
X87898011Y-61368294D01*
X87846500Y-61379500D01*
X87023943Y-61379500D01*
X86956904Y-61359815D01*
X86948269Y-61353530D01*
X86946456Y-61352319D01*
X86946452Y-61352317D01*
X86946450Y-61352315D01*
X86778572Y-61262581D01*
X86763956Y-61254769D01*
X86763955Y-61254768D01*
X86763954Y-61254768D01*
X86565934Y-61194700D01*
X86565932Y-61194699D01*
X86565934Y-61194699D01*
X86360000Y-61174417D01*
X86154067Y-61194699D01*
X85956043Y-61254769D01*
X85858307Y-61307011D01*
X85773550Y-61352315D01*
X85773548Y-61352316D01*
X85773547Y-61352317D01*
X85613589Y-61483589D01*
X85482317Y-61643547D01*
X85384769Y-61826043D01*
X85324699Y-62024067D01*
X85304417Y-62230000D01*
X84875583Y-62230000D01*
X84855300Y-62024066D01*
X84795232Y-61826046D01*
X84697685Y-61643550D01*
X84645702Y-61580209D01*
X84566410Y-61483589D01*
X84439575Y-61379500D01*
X84406450Y-61352315D01*
X84236554Y-61261502D01*
X84223956Y-61254769D01*
X84223955Y-61254768D01*
X84223954Y-61254768D01*
X84025934Y-61194700D01*
X84025932Y-61194699D01*
X84025934Y-61194699D01*
X83820000Y-61174417D01*
X83614067Y-61194699D01*
X83416043Y-61254769D01*
X83318307Y-61307011D01*
X83233550Y-61352315D01*
X83233548Y-61352316D01*
X83233547Y-61352317D01*
X83073589Y-61483589D01*
X82942317Y-61643547D01*
X82844769Y-61826043D01*
X82784699Y-62024067D01*
X82764417Y-62230000D01*
X81280500Y-62230000D01*
X81280500Y-59690000D01*
X82764417Y-59690000D01*
X82784699Y-59895932D01*
X82814734Y-59994944D01*
X82844768Y-60093954D01*
X82942315Y-60276450D01*
X82976969Y-60318677D01*
X83073589Y-60436410D01*
X83170209Y-60515702D01*
X83233550Y-60567685D01*
X83416046Y-60665232D01*
X83614066Y-60725300D01*
X83614065Y-60725300D01*
X83623031Y-60726183D01*
X83820000Y-60745583D01*
X84025934Y-60725300D01*
X84223954Y-60665232D01*
X84406450Y-60567685D01*
X84566410Y-60436410D01*
X84697685Y-60276450D01*
X84795232Y-60093954D01*
X84855300Y-59895934D01*
X84875583Y-59690000D01*
X85304417Y-59690000D01*
X85324699Y-59895932D01*
X85354734Y-59994944D01*
X85384768Y-60093954D01*
X85482315Y-60276450D01*
X85516969Y-60318677D01*
X85613589Y-60436410D01*
X85710209Y-60515702D01*
X85773550Y-60567685D01*
X85956046Y-60665232D01*
X86154066Y-60725300D01*
X86154065Y-60725300D01*
X86163031Y-60726183D01*
X86360000Y-60745583D01*
X86565934Y-60725300D01*
X86763954Y-60665232D01*
X86946450Y-60567685D01*
X87106410Y-60436410D01*
X87237685Y-60276450D01*
X87335232Y-60093954D01*
X87395300Y-59895934D01*
X87415583Y-59690000D01*
X87395300Y-59484066D01*
X87335232Y-59286046D01*
X87302391Y-59224605D01*
X93529642Y-59224605D01*
X93560304Y-59391931D01*
X93560306Y-59391935D01*
X93614731Y-59512860D01*
X93630122Y-59547057D01*
X93650590Y-59573182D01*
X93708712Y-59647370D01*
X94009116Y-59947773D01*
X94738399Y-60677056D01*
X94740935Y-60679750D01*
X94782071Y-60726183D01*
X94833106Y-60761410D01*
X94836122Y-60763630D01*
X94862490Y-60784287D01*
X94884943Y-60801878D01*
X94891845Y-60804984D01*
X94894182Y-60806036D01*
X94913733Y-60817063D01*
X94922070Y-60822818D01*
X94980058Y-60844809D01*
X94983496Y-60846234D01*
X95040068Y-60871695D01*
X95050042Y-60873522D01*
X95071656Y-60879548D01*
X95081127Y-60883140D01*
X95142673Y-60890613D01*
X95146370Y-60891175D01*
X95207394Y-60902358D01*
X95242013Y-60900263D01*
X95310116Y-60915863D01*
X95358977Y-60965806D01*
X95373500Y-61024037D01*
X95373500Y-61217752D01*
X95385131Y-61276229D01*
X95385132Y-61276230D01*
X95429447Y-61342552D01*
X95495769Y-61386867D01*
X95495770Y-61386868D01*
X95554247Y-61398499D01*
X95554250Y-61398500D01*
X95554252Y-61398500D01*
X97993750Y-61398500D01*
X97993751Y-61398499D01*
X98008568Y-61395552D01*
X98052229Y-61386868D01*
X98052229Y-61386867D01*
X98052231Y-61386867D01*
X98118552Y-61342552D01*
X98162867Y-61276231D01*
X98162867Y-61276229D01*
X98162868Y-61276229D01*
X98174499Y-61217752D01*
X98174500Y-61217750D01*
X98174500Y-61022500D01*
X98194185Y-60955461D01*
X98246989Y-60909706D01*
X98298500Y-60898500D01*
X100105374Y-60898500D01*
X100147538Y-60893380D01*
X100231872Y-60883140D01*
X100390930Y-60822818D01*
X100530929Y-60726183D01*
X100643734Y-60598852D01*
X100660094Y-60567682D01*
X100722789Y-60448226D01*
X100722790Y-60448225D01*
X100763500Y-60283056D01*
X100763500Y-60112944D01*
X100722790Y-59947775D01*
X100722789Y-59947773D01*
X100643736Y-59797150D01*
X100624560Y-59775505D01*
X100548810Y-59690000D01*
X105624417Y-59690000D01*
X105644699Y-59895932D01*
X105674734Y-59994944D01*
X105704768Y-60093954D01*
X105802315Y-60276450D01*
X105836969Y-60318677D01*
X105933589Y-60436410D01*
X106030209Y-60515702D01*
X106093550Y-60567685D01*
X106276046Y-60665232D01*
X106474066Y-60725300D01*
X106474065Y-60725300D01*
X106483031Y-60726183D01*
X106680000Y-60745583D01*
X106885934Y-60725300D01*
X107083954Y-60665232D01*
X107266450Y-60567685D01*
X107426410Y-60436410D01*
X107557685Y-60276450D01*
X107655232Y-60093954D01*
X107715300Y-59895934D01*
X107735583Y-59690000D01*
X108164417Y-59690000D01*
X108184699Y-59895932D01*
X108214734Y-59994944D01*
X108244768Y-60093954D01*
X108342315Y-60276450D01*
X108376969Y-60318677D01*
X108473589Y-60436410D01*
X108570209Y-60515702D01*
X108633550Y-60567685D01*
X108816046Y-60665232D01*
X109014066Y-60725300D01*
X109014065Y-60725300D01*
X109023031Y-60726183D01*
X109220000Y-60745583D01*
X109425934Y-60725300D01*
X109623954Y-60665232D01*
X109806450Y-60567685D01*
X109966410Y-60436410D01*
X110097685Y-60276450D01*
X110195232Y-60093954D01*
X110255300Y-59895934D01*
X110275583Y-59690000D01*
X110255300Y-59484066D01*
X110195232Y-59286046D01*
X110097685Y-59103550D01*
X110045702Y-59040209D01*
X109966410Y-58943589D01*
X109806452Y-58812317D01*
X109806453Y-58812317D01*
X109806450Y-58812315D01*
X109623954Y-58714768D01*
X109425934Y-58654700D01*
X109425932Y-58654699D01*
X109425934Y-58654699D01*
X109220000Y-58634417D01*
X109014067Y-58654699D01*
X108816043Y-58714769D01*
X108705898Y-58773643D01*
X108633550Y-58812315D01*
X108633548Y-58812316D01*
X108633547Y-58812317D01*
X108473589Y-58943589D01*
X108342317Y-59103547D01*
X108342315Y-59103550D01*
X108316953Y-59150998D01*
X108244769Y-59286043D01*
X108184699Y-59484067D01*
X108164417Y-59690000D01*
X107735583Y-59690000D01*
X107715300Y-59484066D01*
X107655232Y-59286046D01*
X107557685Y-59103550D01*
X107505702Y-59040209D01*
X107426410Y-58943589D01*
X107266452Y-58812317D01*
X107266453Y-58812317D01*
X107266450Y-58812315D01*
X107083954Y-58714768D01*
X106885934Y-58654700D01*
X106885932Y-58654699D01*
X106885934Y-58654699D01*
X106680000Y-58634417D01*
X106474067Y-58654699D01*
X106276043Y-58714769D01*
X106165898Y-58773643D01*
X106093550Y-58812315D01*
X106093548Y-58812316D01*
X106093547Y-58812317D01*
X105933589Y-58943589D01*
X105802317Y-59103547D01*
X105802315Y-59103550D01*
X105776953Y-59150998D01*
X105704769Y-59286043D01*
X105644699Y-59484067D01*
X105624417Y-59690000D01*
X100548810Y-59690000D01*
X100530929Y-59669817D01*
X100481177Y-59635475D01*
X100390931Y-59573182D01*
X100231874Y-59512860D01*
X100231868Y-59512859D01*
X100105374Y-59497500D01*
X100105372Y-59497500D01*
X98298500Y-59497500D01*
X98231461Y-59477815D01*
X98185706Y-59425011D01*
X98174500Y-59373500D01*
X98174500Y-59178249D01*
X98174499Y-59178247D01*
X98162868Y-59119770D01*
X98162867Y-59119769D01*
X98118552Y-59053447D01*
X98052230Y-59009132D01*
X98052229Y-59009131D01*
X97993752Y-58997500D01*
X97993748Y-58997500D01*
X95554252Y-58997500D01*
X95554247Y-58997500D01*
X95495770Y-59009131D01*
X95495769Y-59009132D01*
X95429446Y-59053448D01*
X95379871Y-59127642D01*
X95326259Y-59172446D01*
X95256934Y-59181153D01*
X95193906Y-59150998D01*
X95189089Y-59146431D01*
X94699370Y-58656712D01*
X94660843Y-58626528D01*
X94599057Y-58578122D01*
X94511071Y-58538522D01*
X94443935Y-58508306D01*
X94443931Y-58508304D01*
X94276607Y-58477642D01*
X94276603Y-58477642D01*
X94149254Y-58485346D01*
X94106804Y-58487914D01*
X94025599Y-58513218D01*
X93944393Y-58538522D01*
X93798811Y-58626530D01*
X93678530Y-58746811D01*
X93590522Y-58892393D01*
X93590522Y-58892394D01*
X93554146Y-59009133D01*
X93539914Y-59054805D01*
X93529642Y-59224603D01*
X93529642Y-59224605D01*
X87302391Y-59224605D01*
X87237685Y-59103550D01*
X87185702Y-59040209D01*
X87106410Y-58943589D01*
X86946452Y-58812317D01*
X86946453Y-58812317D01*
X86946450Y-58812315D01*
X86763954Y-58714768D01*
X86565934Y-58654700D01*
X86565932Y-58654699D01*
X86565934Y-58654699D01*
X86360000Y-58634417D01*
X86154067Y-58654699D01*
X85956043Y-58714769D01*
X85845898Y-58773643D01*
X85773550Y-58812315D01*
X85773548Y-58812316D01*
X85773547Y-58812317D01*
X85613589Y-58943589D01*
X85482317Y-59103547D01*
X85482315Y-59103550D01*
X85456953Y-59150998D01*
X85384769Y-59286043D01*
X85324699Y-59484067D01*
X85304417Y-59690000D01*
X84875583Y-59690000D01*
X84855300Y-59484066D01*
X84795232Y-59286046D01*
X84697685Y-59103550D01*
X84645702Y-59040209D01*
X84566410Y-58943589D01*
X84406452Y-58812317D01*
X84406453Y-58812317D01*
X84406450Y-58812315D01*
X84223954Y-58714768D01*
X84025934Y-58654700D01*
X84025932Y-58654699D01*
X84025934Y-58654699D01*
X83820000Y-58634417D01*
X83614067Y-58654699D01*
X83416043Y-58714769D01*
X83305898Y-58773643D01*
X83233550Y-58812315D01*
X83233548Y-58812316D01*
X83233547Y-58812317D01*
X83073589Y-58943589D01*
X82942317Y-59103547D01*
X82942315Y-59103550D01*
X82916953Y-59150998D01*
X82844769Y-59286043D01*
X82784699Y-59484067D01*
X82764417Y-59690000D01*
X81280500Y-59690000D01*
X81280500Y-56599394D01*
X93529642Y-56599394D01*
X93539914Y-56769196D01*
X93577697Y-56890449D01*
X93590522Y-56931606D01*
X93678530Y-57077188D01*
X93798811Y-57197469D01*
X93798813Y-57197470D01*
X93798815Y-57197472D01*
X93944394Y-57285478D01*
X94106804Y-57336086D01*
X94276606Y-57346358D01*
X94443932Y-57315695D01*
X94599057Y-57245878D01*
X94625847Y-57224888D01*
X94690759Y-57199040D01*
X94702320Y-57198500D01*
X95249500Y-57198500D01*
X95316539Y-57218185D01*
X95362294Y-57270989D01*
X95373500Y-57322500D01*
X95373500Y-57517752D01*
X95385131Y-57576229D01*
X95385132Y-57576230D01*
X95429447Y-57642552D01*
X95495769Y-57686867D01*
X95495770Y-57686868D01*
X95554247Y-57698499D01*
X95554250Y-57698500D01*
X95554252Y-57698500D01*
X97993750Y-57698500D01*
X97993751Y-57698499D01*
X98008568Y-57695552D01*
X98052229Y-57686868D01*
X98052229Y-57686867D01*
X98052231Y-57686867D01*
X98118552Y-57642552D01*
X98162867Y-57576231D01*
X98162867Y-57576229D01*
X98162868Y-57576229D01*
X98174499Y-57517752D01*
X98174500Y-57517750D01*
X98174500Y-57314100D01*
X98194185Y-57247061D01*
X98246989Y-57201306D01*
X98298500Y-57190100D01*
X100118374Y-57190100D01*
X100160538Y-57184980D01*
X100244872Y-57174740D01*
X100310107Y-57150000D01*
X105624417Y-57150000D01*
X105644699Y-57355932D01*
X105644700Y-57355934D01*
X105704768Y-57553954D01*
X105802315Y-57736450D01*
X105802317Y-57736452D01*
X105933589Y-57896410D01*
X106030209Y-57975702D01*
X106093550Y-58027685D01*
X106276046Y-58125232D01*
X106474066Y-58185300D01*
X106474065Y-58185300D01*
X106492529Y-58187118D01*
X106680000Y-58205583D01*
X106885934Y-58185300D01*
X107083954Y-58125232D01*
X107266450Y-58027685D01*
X107426410Y-57896410D01*
X107557685Y-57736450D01*
X107655232Y-57553954D01*
X107715300Y-57355934D01*
X107735583Y-57150000D01*
X108164417Y-57150000D01*
X108184699Y-57355932D01*
X108184700Y-57355934D01*
X108244768Y-57553954D01*
X108342315Y-57736450D01*
X108342317Y-57736452D01*
X108473589Y-57896410D01*
X108570209Y-57975702D01*
X108633550Y-58027685D01*
X108816046Y-58125232D01*
X109014066Y-58185300D01*
X109014065Y-58185300D01*
X109032529Y-58187118D01*
X109220000Y-58205583D01*
X109425934Y-58185300D01*
X109623954Y-58125232D01*
X109806450Y-58027685D01*
X109966410Y-57896410D01*
X110097685Y-57736450D01*
X110195232Y-57553954D01*
X110255300Y-57355934D01*
X110275583Y-57150000D01*
X110255300Y-56944066D01*
X110195232Y-56746046D01*
X110097685Y-56563550D01*
X110045702Y-56500209D01*
X109966410Y-56403589D01*
X109806452Y-56272317D01*
X109806453Y-56272317D01*
X109806450Y-56272315D01*
X109623954Y-56174768D01*
X109425934Y-56114700D01*
X109425932Y-56114699D01*
X109425934Y-56114699D01*
X109220000Y-56094417D01*
X109014067Y-56114699D01*
X108816043Y-56174769D01*
X108705898Y-56233643D01*
X108633550Y-56272315D01*
X108633548Y-56272316D01*
X108633547Y-56272317D01*
X108473589Y-56403589D01*
X108342317Y-56563547D01*
X108342315Y-56563550D01*
X108336379Y-56574656D01*
X108244769Y-56746043D01*
X108184699Y-56944067D01*
X108164417Y-57150000D01*
X107735583Y-57150000D01*
X107715300Y-56944066D01*
X107655232Y-56746046D01*
X107557685Y-56563550D01*
X107505702Y-56500209D01*
X107426410Y-56403589D01*
X107266452Y-56272317D01*
X107266453Y-56272317D01*
X107266450Y-56272315D01*
X107083954Y-56174768D01*
X106885934Y-56114700D01*
X106885932Y-56114699D01*
X106885934Y-56114699D01*
X106680000Y-56094417D01*
X106474067Y-56114699D01*
X106276043Y-56174769D01*
X106165898Y-56233643D01*
X106093550Y-56272315D01*
X106093548Y-56272316D01*
X106093547Y-56272317D01*
X105933589Y-56403589D01*
X105802317Y-56563547D01*
X105802315Y-56563550D01*
X105796379Y-56574656D01*
X105704769Y-56746043D01*
X105644699Y-56944067D01*
X105624417Y-57150000D01*
X100310107Y-57150000D01*
X100403930Y-57114418D01*
X100543929Y-57017783D01*
X100656734Y-56890452D01*
X100735790Y-56739825D01*
X100776500Y-56574656D01*
X100776500Y-56404544D01*
X100735790Y-56239375D01*
X100735789Y-56239373D01*
X100656736Y-56088750D01*
X100637560Y-56067105D01*
X100543929Y-55961417D01*
X100494177Y-55927075D01*
X100403931Y-55864782D01*
X100244874Y-55804460D01*
X100244868Y-55804459D01*
X100118374Y-55789100D01*
X100118372Y-55789100D01*
X98298500Y-55789100D01*
X98231461Y-55769415D01*
X98185706Y-55716611D01*
X98174500Y-55665100D01*
X98174500Y-55478249D01*
X98174499Y-55478247D01*
X98162868Y-55419770D01*
X98162867Y-55419769D01*
X98118552Y-55353447D01*
X98052230Y-55309132D01*
X98052229Y-55309131D01*
X97993752Y-55297500D01*
X97993748Y-55297500D01*
X95554252Y-55297500D01*
X95554247Y-55297500D01*
X95495770Y-55309131D01*
X95495769Y-55309132D01*
X95429447Y-55353447D01*
X95385132Y-55419769D01*
X95385131Y-55419770D01*
X95373500Y-55478247D01*
X95373500Y-55673500D01*
X95353815Y-55740539D01*
X95301011Y-55786294D01*
X95249500Y-55797500D01*
X94401048Y-55797500D01*
X94397303Y-55797387D01*
X94335396Y-55793642D01*
X94335389Y-55793642D01*
X94274386Y-55804821D01*
X94270685Y-55805384D01*
X94209128Y-55812859D01*
X94209121Y-55812861D01*
X94199647Y-55816454D01*
X94178049Y-55822475D01*
X94168069Y-55824304D01*
X94111519Y-55849755D01*
X94108060Y-55851188D01*
X94050071Y-55873181D01*
X94050066Y-55873184D01*
X94041722Y-55878943D01*
X94022187Y-55889961D01*
X94012947Y-55894120D01*
X94012945Y-55894121D01*
X93964136Y-55932359D01*
X93961122Y-55934576D01*
X93910070Y-55969817D01*
X93910068Y-55969818D01*
X93868950Y-56016231D01*
X93866384Y-56018957D01*
X93708709Y-56176633D01*
X93630121Y-56276944D01*
X93560306Y-56432064D01*
X93560304Y-56432068D01*
X93534175Y-56574655D01*
X93529642Y-56599394D01*
X81280500Y-56599394D01*
X81280500Y-54610000D01*
X82764417Y-54610000D01*
X82784699Y-54815932D01*
X82784700Y-54815934D01*
X82844768Y-55013954D01*
X82942315Y-55196450D01*
X82942317Y-55196452D01*
X83073589Y-55356410D01*
X83150795Y-55419770D01*
X83233550Y-55487685D01*
X83416046Y-55585232D01*
X83614066Y-55645300D01*
X83614065Y-55645300D01*
X83632529Y-55647118D01*
X83820000Y-55665583D01*
X84025934Y-55645300D01*
X84223954Y-55585232D01*
X84406450Y-55487685D01*
X84566410Y-55356410D01*
X84697685Y-55196450D01*
X84795232Y-55013954D01*
X84855300Y-54815934D01*
X84875583Y-54610000D01*
X85304417Y-54610000D01*
X85324699Y-54815932D01*
X85324700Y-54815934D01*
X85384768Y-55013954D01*
X85482315Y-55196450D01*
X85482317Y-55196452D01*
X85613589Y-55356410D01*
X85690795Y-55419770D01*
X85773550Y-55487685D01*
X85956046Y-55585232D01*
X86154066Y-55645300D01*
X86154065Y-55645300D01*
X86172529Y-55647118D01*
X86360000Y-55665583D01*
X86565934Y-55645300D01*
X86763954Y-55585232D01*
X86946450Y-55487685D01*
X87106410Y-55356410D01*
X87237685Y-55196450D01*
X87335232Y-55013954D01*
X87395300Y-54815934D01*
X87415583Y-54610000D01*
X105624417Y-54610000D01*
X105644699Y-54815932D01*
X105644700Y-54815934D01*
X105704768Y-55013954D01*
X105802315Y-55196450D01*
X105802317Y-55196452D01*
X105933589Y-55356410D01*
X106010795Y-55419770D01*
X106093550Y-55487685D01*
X106276046Y-55585232D01*
X106474066Y-55645300D01*
X106474065Y-55645300D01*
X106492529Y-55647118D01*
X106680000Y-55665583D01*
X106885934Y-55645300D01*
X107083954Y-55585232D01*
X107266450Y-55487685D01*
X107426410Y-55356410D01*
X107557685Y-55196450D01*
X107655232Y-55013954D01*
X107715300Y-54815934D01*
X107735583Y-54610000D01*
X108164417Y-54610000D01*
X108184699Y-54815932D01*
X108184700Y-54815934D01*
X108244768Y-55013954D01*
X108342315Y-55196450D01*
X108342317Y-55196452D01*
X108473589Y-55356410D01*
X108550795Y-55419770D01*
X108633550Y-55487685D01*
X108816046Y-55585232D01*
X109014066Y-55645300D01*
X109014065Y-55645300D01*
X109032529Y-55647118D01*
X109220000Y-55665583D01*
X109425934Y-55645300D01*
X109623954Y-55585232D01*
X109806450Y-55487685D01*
X109966410Y-55356410D01*
X110097685Y-55196450D01*
X110195232Y-55013954D01*
X110255300Y-54815934D01*
X110275583Y-54610000D01*
X110255300Y-54404066D01*
X110195232Y-54206046D01*
X110097685Y-54023550D01*
X110045702Y-53960209D01*
X109966410Y-53863589D01*
X109806452Y-53732317D01*
X109806453Y-53732317D01*
X109806450Y-53732315D01*
X109623954Y-53634768D01*
X109425934Y-53574700D01*
X109425932Y-53574699D01*
X109425934Y-53574699D01*
X109220000Y-53554417D01*
X109014067Y-53574699D01*
X108816043Y-53634769D01*
X108705898Y-53693643D01*
X108633550Y-53732315D01*
X108633548Y-53732316D01*
X108633547Y-53732317D01*
X108473589Y-53863589D01*
X108342317Y-54023547D01*
X108244769Y-54206043D01*
X108184699Y-54404067D01*
X108164417Y-54610000D01*
X107735583Y-54610000D01*
X107715300Y-54404066D01*
X107655232Y-54206046D01*
X107557685Y-54023550D01*
X107505702Y-53960209D01*
X107426410Y-53863589D01*
X107266452Y-53732317D01*
X107266453Y-53732317D01*
X107266450Y-53732315D01*
X107083954Y-53634768D01*
X106885934Y-53574700D01*
X106885932Y-53574699D01*
X106885934Y-53574699D01*
X106680000Y-53554417D01*
X106474067Y-53574699D01*
X106276043Y-53634769D01*
X106165898Y-53693643D01*
X106093550Y-53732315D01*
X106093548Y-53732316D01*
X106093547Y-53732317D01*
X105933589Y-53863589D01*
X105802317Y-54023547D01*
X105704769Y-54206043D01*
X105644699Y-54404067D01*
X105624417Y-54610000D01*
X87415583Y-54610000D01*
X87395300Y-54404066D01*
X87335232Y-54206046D01*
X87237685Y-54023550D01*
X87185702Y-53960209D01*
X87106410Y-53863589D01*
X86946452Y-53732317D01*
X86946453Y-53732317D01*
X86946450Y-53732315D01*
X86763954Y-53634768D01*
X86565934Y-53574700D01*
X86565932Y-53574699D01*
X86565934Y-53574699D01*
X86360000Y-53554417D01*
X86154067Y-53574699D01*
X85956043Y-53634769D01*
X85845898Y-53693643D01*
X85773550Y-53732315D01*
X85773548Y-53732316D01*
X85773547Y-53732317D01*
X85613589Y-53863589D01*
X85482317Y-54023547D01*
X85384769Y-54206043D01*
X85324699Y-54404067D01*
X85304417Y-54610000D01*
X84875583Y-54610000D01*
X84855300Y-54404066D01*
X84795232Y-54206046D01*
X84697685Y-54023550D01*
X84645702Y-53960209D01*
X84566410Y-53863589D01*
X84406452Y-53732317D01*
X84406453Y-53732317D01*
X84406450Y-53732315D01*
X84223954Y-53634768D01*
X84025934Y-53574700D01*
X84025932Y-53574699D01*
X84025934Y-53574699D01*
X83820000Y-53554417D01*
X83614067Y-53574699D01*
X83416043Y-53634769D01*
X83305898Y-53693643D01*
X83233550Y-53732315D01*
X83233548Y-53732316D01*
X83233547Y-53732317D01*
X83073589Y-53863589D01*
X82942317Y-54023547D01*
X82844769Y-54206043D01*
X82784699Y-54404067D01*
X82764417Y-54610000D01*
X81280500Y-54610000D01*
X81280500Y-52070000D01*
X82764417Y-52070000D01*
X82784699Y-52275932D01*
X82784700Y-52275934D01*
X82844768Y-52473954D01*
X82942315Y-52656450D01*
X82942317Y-52656452D01*
X83073589Y-52816410D01*
X83170209Y-52895702D01*
X83233550Y-52947685D01*
X83416046Y-53045232D01*
X83614066Y-53105300D01*
X83614065Y-53105300D01*
X83632529Y-53107118D01*
X83820000Y-53125583D01*
X84025934Y-53105300D01*
X84223954Y-53045232D01*
X84406450Y-52947685D01*
X84566410Y-52816410D01*
X84697685Y-52656450D01*
X84795232Y-52473954D01*
X84855300Y-52275934D01*
X84875583Y-52070000D01*
X85304417Y-52070000D01*
X85324699Y-52275932D01*
X85324700Y-52275934D01*
X85384768Y-52473954D01*
X85482315Y-52656450D01*
X85482317Y-52656452D01*
X85613589Y-52816410D01*
X85710209Y-52895702D01*
X85773550Y-52947685D01*
X85956046Y-53045232D01*
X86154066Y-53105300D01*
X86154065Y-53105300D01*
X86172529Y-53107118D01*
X86360000Y-53125583D01*
X86565934Y-53105300D01*
X86763954Y-53045232D01*
X86946450Y-52947685D01*
X86956116Y-52939752D01*
X108169500Y-52939752D01*
X108181131Y-52998229D01*
X108181132Y-52998230D01*
X108225447Y-53064552D01*
X108291769Y-53108867D01*
X108291770Y-53108868D01*
X108350247Y-53120499D01*
X108350250Y-53120500D01*
X108350252Y-53120500D01*
X110089750Y-53120500D01*
X110089751Y-53120499D01*
X110104568Y-53117552D01*
X110148229Y-53108868D01*
X110148229Y-53108867D01*
X110148231Y-53108867D01*
X110214552Y-53064552D01*
X110258867Y-52998231D01*
X110258867Y-52998229D01*
X110258868Y-52998229D01*
X110270499Y-52939752D01*
X110270500Y-52939750D01*
X110270500Y-51200249D01*
X110270499Y-51200247D01*
X110258868Y-51141770D01*
X110258867Y-51141769D01*
X110214552Y-51075447D01*
X110148230Y-51031132D01*
X110148229Y-51031131D01*
X110089752Y-51019500D01*
X110089748Y-51019500D01*
X108350252Y-51019500D01*
X108350247Y-51019500D01*
X108291770Y-51031131D01*
X108291769Y-51031132D01*
X108225447Y-51075447D01*
X108181132Y-51141769D01*
X108181131Y-51141770D01*
X108169500Y-51200247D01*
X108169500Y-52939752D01*
X86956116Y-52939752D01*
X87106410Y-52816410D01*
X87237685Y-52656450D01*
X87335232Y-52473954D01*
X87395300Y-52275934D01*
X87415583Y-52070000D01*
X87395300Y-51864066D01*
X87335232Y-51666046D01*
X87237685Y-51483550D01*
X87174088Y-51406056D01*
X87106410Y-51323589D01*
X86956121Y-51200252D01*
X86946450Y-51192315D01*
X86763954Y-51094768D01*
X86565934Y-51034700D01*
X86565932Y-51034699D01*
X86565934Y-51034699D01*
X86360000Y-51014417D01*
X86154067Y-51034699D01*
X85956043Y-51094769D01*
X85868114Y-51141769D01*
X85773550Y-51192315D01*
X85773548Y-51192316D01*
X85773547Y-51192317D01*
X85613589Y-51323589D01*
X85482317Y-51483547D01*
X85384769Y-51666043D01*
X85324699Y-51864067D01*
X85304417Y-52070000D01*
X84875583Y-52070000D01*
X84855300Y-51864066D01*
X84795232Y-51666046D01*
X84795230Y-51666043D01*
X84795230Y-51666041D01*
X84697687Y-51483552D01*
X84694302Y-51478486D01*
X84695622Y-51477603D01*
X84671333Y-51420403D01*
X84670500Y-51406056D01*
X84670500Y-49496893D01*
X84670500Y-49496887D01*
X84655514Y-49359090D01*
X84596444Y-49183779D01*
X84501070Y-49025264D01*
X84434192Y-48954662D01*
X84373850Y-48890959D01*
X84291165Y-48834898D01*
X84220730Y-48787142D01*
X84220727Y-48787140D01*
X84220723Y-48787138D01*
X84048877Y-48718669D01*
X83975851Y-48706697D01*
X83866317Y-48688740D01*
X83866314Y-48688740D01*
X83681593Y-48698755D01*
X83681588Y-48698755D01*
X83503343Y-48748244D01*
X83503337Y-48748247D01*
X83339897Y-48834898D01*
X83198900Y-48954662D01*
X83086946Y-49101936D01*
X83009268Y-49269832D01*
X83009266Y-49269836D01*
X82969500Y-49450502D01*
X82969500Y-51406056D01*
X82949815Y-51473095D01*
X82943529Y-51481730D01*
X82942312Y-51483552D01*
X82844769Y-51666041D01*
X82784699Y-51864067D01*
X82764417Y-52070000D01*
X81280500Y-52070000D01*
X81280500Y-48311569D01*
X81295642Y-48260000D01*
X91654417Y-48260000D01*
X91674699Y-48465932D01*
X91674700Y-48465934D01*
X91734768Y-48663954D01*
X91832315Y-48846450D01*
X91832317Y-48846452D01*
X91963589Y-49006410D01*
X92060209Y-49085702D01*
X92123550Y-49137685D01*
X92306046Y-49235232D01*
X92504066Y-49295300D01*
X92504065Y-49295300D01*
X92522529Y-49297118D01*
X92710000Y-49315583D01*
X92915934Y-49295300D01*
X93113954Y-49235232D01*
X93296450Y-49137685D01*
X93456410Y-49006410D01*
X93587685Y-48846450D01*
X93685232Y-48663954D01*
X93745300Y-48465934D01*
X93765583Y-48260000D01*
X94194417Y-48260000D01*
X94214699Y-48465932D01*
X94214700Y-48465934D01*
X94274768Y-48663954D01*
X94372315Y-48846450D01*
X94372317Y-48846452D01*
X94503589Y-49006410D01*
X94600209Y-49085702D01*
X94663550Y-49137685D01*
X94846046Y-49235232D01*
X95044066Y-49295300D01*
X95044065Y-49295300D01*
X95062529Y-49297118D01*
X95250000Y-49315583D01*
X95455934Y-49295300D01*
X95653954Y-49235232D01*
X95836450Y-49137685D01*
X95996410Y-49006410D01*
X96127685Y-48846450D01*
X96225232Y-48663954D01*
X96285300Y-48465934D01*
X96305583Y-48260000D01*
X96734417Y-48260000D01*
X96754699Y-48465932D01*
X96754700Y-48465934D01*
X96814768Y-48663954D01*
X96912315Y-48846450D01*
X96912317Y-48846452D01*
X97043589Y-49006410D01*
X97140209Y-49085702D01*
X97203550Y-49137685D01*
X97386046Y-49235232D01*
X97584066Y-49295300D01*
X97584065Y-49295300D01*
X97602529Y-49297118D01*
X97790000Y-49315583D01*
X97995934Y-49295300D01*
X98193954Y-49235232D01*
X98376450Y-49137685D01*
X98536410Y-49006410D01*
X98667685Y-48846450D01*
X98765232Y-48663954D01*
X98825300Y-48465934D01*
X98845583Y-48260000D01*
X99274417Y-48260000D01*
X99294699Y-48465932D01*
X99294700Y-48465934D01*
X99354768Y-48663954D01*
X99452315Y-48846450D01*
X99452317Y-48846452D01*
X99583589Y-49006410D01*
X99680209Y-49085702D01*
X99743550Y-49137685D01*
X99926046Y-49235232D01*
X100124066Y-49295300D01*
X100124065Y-49295300D01*
X100142529Y-49297118D01*
X100330000Y-49315583D01*
X100535934Y-49295300D01*
X100733954Y-49235232D01*
X100916450Y-49137685D01*
X101076410Y-49006410D01*
X101207685Y-48846450D01*
X101305232Y-48663954D01*
X101365300Y-48465934D01*
X101385583Y-48260000D01*
X101814417Y-48260000D01*
X101834699Y-48465932D01*
X101834700Y-48465934D01*
X101894768Y-48663954D01*
X101992315Y-48846450D01*
X101992317Y-48846452D01*
X102123589Y-49006410D01*
X102220209Y-49085702D01*
X102283550Y-49137685D01*
X102466046Y-49235232D01*
X102664066Y-49295300D01*
X102664065Y-49295300D01*
X102682529Y-49297118D01*
X102870000Y-49315583D01*
X103075934Y-49295300D01*
X103273954Y-49235232D01*
X103456450Y-49137685D01*
X103616410Y-49006410D01*
X103747685Y-48846450D01*
X103845232Y-48663954D01*
X103905300Y-48465934D01*
X103925583Y-48260000D01*
X103905300Y-48054066D01*
X103845232Y-47856046D01*
X103747685Y-47673550D01*
X103695702Y-47610209D01*
X103616410Y-47513589D01*
X103456452Y-47382317D01*
X103456453Y-47382317D01*
X103456450Y-47382315D01*
X103273954Y-47284768D01*
X103075934Y-47224700D01*
X103075932Y-47224699D01*
X103075934Y-47224699D01*
X102870000Y-47204417D01*
X102664067Y-47224699D01*
X102466043Y-47284769D01*
X102355898Y-47343643D01*
X102283550Y-47382315D01*
X102283548Y-47382316D01*
X102283547Y-47382317D01*
X102123589Y-47513589D01*
X101992317Y-47673547D01*
X101894769Y-47856043D01*
X101834699Y-48054067D01*
X101814417Y-48260000D01*
X101385583Y-48260000D01*
X101365300Y-48054066D01*
X101305232Y-47856046D01*
X101207685Y-47673550D01*
X101155702Y-47610209D01*
X101076410Y-47513589D01*
X100916452Y-47382317D01*
X100916453Y-47382317D01*
X100916450Y-47382315D01*
X100733954Y-47284768D01*
X100535934Y-47224700D01*
X100535932Y-47224699D01*
X100535934Y-47224699D01*
X100330000Y-47204417D01*
X100124067Y-47224699D01*
X99926043Y-47284769D01*
X99815898Y-47343643D01*
X99743550Y-47382315D01*
X99743548Y-47382316D01*
X99743547Y-47382317D01*
X99583589Y-47513589D01*
X99452317Y-47673547D01*
X99354769Y-47856043D01*
X99294699Y-48054067D01*
X99274417Y-48260000D01*
X98845583Y-48260000D01*
X98825300Y-48054066D01*
X98765232Y-47856046D01*
X98667685Y-47673550D01*
X98615702Y-47610209D01*
X98536410Y-47513589D01*
X98376452Y-47382317D01*
X98376453Y-47382317D01*
X98376450Y-47382315D01*
X98193954Y-47284768D01*
X97995934Y-47224700D01*
X97995932Y-47224699D01*
X97995934Y-47224699D01*
X97790000Y-47204417D01*
X97584067Y-47224699D01*
X97386043Y-47284769D01*
X97275898Y-47343643D01*
X97203550Y-47382315D01*
X97203548Y-47382316D01*
X97203547Y-47382317D01*
X97043589Y-47513589D01*
X96912317Y-47673547D01*
X96814769Y-47856043D01*
X96754699Y-48054067D01*
X96734417Y-48260000D01*
X96305583Y-48260000D01*
X96285300Y-48054066D01*
X96225232Y-47856046D01*
X96127685Y-47673550D01*
X96075702Y-47610209D01*
X95996410Y-47513589D01*
X95836452Y-47382317D01*
X95836453Y-47382317D01*
X95836450Y-47382315D01*
X95653954Y-47284768D01*
X95455934Y-47224700D01*
X95455932Y-47224699D01*
X95455934Y-47224699D01*
X95250000Y-47204417D01*
X95044067Y-47224699D01*
X94846043Y-47284769D01*
X94735898Y-47343643D01*
X94663550Y-47382315D01*
X94663548Y-47382316D01*
X94663547Y-47382317D01*
X94503589Y-47513589D01*
X94372317Y-47673547D01*
X94274769Y-47856043D01*
X94214699Y-48054067D01*
X94194417Y-48260000D01*
X93765583Y-48260000D01*
X93745300Y-48054066D01*
X93685232Y-47856046D01*
X93587685Y-47673550D01*
X93535702Y-47610209D01*
X93456410Y-47513589D01*
X93296452Y-47382317D01*
X93296453Y-47382317D01*
X93296450Y-47382315D01*
X93113954Y-47284768D01*
X92915934Y-47224700D01*
X92915932Y-47224699D01*
X92915934Y-47224699D01*
X92710000Y-47204417D01*
X92504067Y-47224699D01*
X92306043Y-47284769D01*
X92195898Y-47343643D01*
X92123550Y-47382315D01*
X92123548Y-47382316D01*
X92123547Y-47382317D01*
X91963589Y-47513589D01*
X91832317Y-47673547D01*
X91734769Y-47856043D01*
X91674699Y-48054067D01*
X91654417Y-48260000D01*
X81295642Y-48260000D01*
X81300185Y-48244530D01*
X81316819Y-48223888D01*
X82950955Y-46589752D01*
X89119500Y-46589752D01*
X89131131Y-46648229D01*
X89131132Y-46648230D01*
X89175447Y-46714552D01*
X89241769Y-46758867D01*
X89241770Y-46758868D01*
X89300247Y-46770499D01*
X89300250Y-46770500D01*
X89300252Y-46770500D01*
X91039750Y-46770500D01*
X91039751Y-46770499D01*
X91054568Y-46767552D01*
X91098229Y-46758868D01*
X91098229Y-46758867D01*
X91098231Y-46758867D01*
X91164552Y-46714552D01*
X91208867Y-46648231D01*
X91208867Y-46648229D01*
X91208868Y-46648229D01*
X91220499Y-46589752D01*
X91220500Y-46589750D01*
X91220500Y-45720000D01*
X91654417Y-45720000D01*
X91674699Y-45925932D01*
X91674700Y-45925934D01*
X91734768Y-46123954D01*
X91832315Y-46306450D01*
X91832317Y-46306452D01*
X91963589Y-46466410D01*
X92060209Y-46545702D01*
X92123550Y-46597685D01*
X92306046Y-46695232D01*
X92504066Y-46755300D01*
X92504065Y-46755300D01*
X92522529Y-46757118D01*
X92710000Y-46775583D01*
X92915934Y-46755300D01*
X93113954Y-46695232D01*
X93296450Y-46597685D01*
X93456410Y-46466410D01*
X93587685Y-46306450D01*
X93685232Y-46123954D01*
X93745300Y-45925934D01*
X93765583Y-45720000D01*
X94194417Y-45720000D01*
X94214699Y-45925932D01*
X94214700Y-45925934D01*
X94274768Y-46123954D01*
X94372315Y-46306450D01*
X94372317Y-46306452D01*
X94503589Y-46466410D01*
X94600209Y-46545702D01*
X94663550Y-46597685D01*
X94846046Y-46695232D01*
X95044066Y-46755300D01*
X95044065Y-46755300D01*
X95062529Y-46757118D01*
X95250000Y-46775583D01*
X95455934Y-46755300D01*
X95653954Y-46695232D01*
X95836450Y-46597685D01*
X95996410Y-46466410D01*
X96127685Y-46306450D01*
X96225232Y-46123954D01*
X96285300Y-45925934D01*
X96305583Y-45720000D01*
X96734417Y-45720000D01*
X96754699Y-45925932D01*
X96754700Y-45925934D01*
X96814768Y-46123954D01*
X96912315Y-46306450D01*
X96912317Y-46306452D01*
X97043589Y-46466410D01*
X97140209Y-46545702D01*
X97203550Y-46597685D01*
X97386046Y-46695232D01*
X97584066Y-46755300D01*
X97584065Y-46755300D01*
X97602529Y-46757118D01*
X97790000Y-46775583D01*
X97995934Y-46755300D01*
X98193954Y-46695232D01*
X98376450Y-46597685D01*
X98536410Y-46466410D01*
X98667685Y-46306450D01*
X98765232Y-46123954D01*
X98825300Y-45925934D01*
X98845583Y-45720000D01*
X99274417Y-45720000D01*
X99294699Y-45925932D01*
X99294700Y-45925934D01*
X99354768Y-46123954D01*
X99452315Y-46306450D01*
X99452317Y-46306452D01*
X99583589Y-46466410D01*
X99680209Y-46545702D01*
X99743550Y-46597685D01*
X99926046Y-46695232D01*
X100124066Y-46755300D01*
X100124065Y-46755300D01*
X100142529Y-46757118D01*
X100330000Y-46775583D01*
X100535934Y-46755300D01*
X100733954Y-46695232D01*
X100916450Y-46597685D01*
X101076410Y-46466410D01*
X101207685Y-46306450D01*
X101305232Y-46123954D01*
X101365300Y-45925934D01*
X101385583Y-45720000D01*
X101814417Y-45720000D01*
X101834699Y-45925932D01*
X101834700Y-45925934D01*
X101894768Y-46123954D01*
X101992315Y-46306450D01*
X101992317Y-46306452D01*
X102123589Y-46466410D01*
X102220209Y-46545702D01*
X102283550Y-46597685D01*
X102466046Y-46695232D01*
X102664066Y-46755300D01*
X102664065Y-46755300D01*
X102682529Y-46757118D01*
X102870000Y-46775583D01*
X103075934Y-46755300D01*
X103273954Y-46695232D01*
X103456450Y-46597685D01*
X103616410Y-46466410D01*
X103747685Y-46306450D01*
X103845232Y-46123954D01*
X103905300Y-45925934D01*
X103925583Y-45720000D01*
X103905300Y-45514066D01*
X103845232Y-45316046D01*
X103747685Y-45133550D01*
X103695702Y-45070209D01*
X103616410Y-44973589D01*
X103466121Y-44850252D01*
X103456450Y-44842315D01*
X103273954Y-44744768D01*
X103075934Y-44684700D01*
X103075932Y-44684699D01*
X103075934Y-44684699D01*
X102870000Y-44664417D01*
X102664067Y-44684699D01*
X102466043Y-44744769D01*
X102378114Y-44791769D01*
X102283550Y-44842315D01*
X102283548Y-44842316D01*
X102283547Y-44842317D01*
X102123589Y-44973589D01*
X101992317Y-45133547D01*
X101894769Y-45316043D01*
X101834699Y-45514067D01*
X101814417Y-45720000D01*
X101385583Y-45720000D01*
X101365300Y-45514066D01*
X101305232Y-45316046D01*
X101207685Y-45133550D01*
X101155702Y-45070209D01*
X101076410Y-44973589D01*
X100926121Y-44850252D01*
X100916450Y-44842315D01*
X100733954Y-44744768D01*
X100535934Y-44684700D01*
X100535932Y-44684699D01*
X100535934Y-44684699D01*
X100330000Y-44664417D01*
X100124067Y-44684699D01*
X99926043Y-44744769D01*
X99838114Y-44791769D01*
X99743550Y-44842315D01*
X99743548Y-44842316D01*
X99743547Y-44842317D01*
X99583589Y-44973589D01*
X99452317Y-45133547D01*
X99354769Y-45316043D01*
X99294699Y-45514067D01*
X99274417Y-45720000D01*
X98845583Y-45720000D01*
X98825300Y-45514066D01*
X98765232Y-45316046D01*
X98667685Y-45133550D01*
X98615702Y-45070209D01*
X98536410Y-44973589D01*
X98386121Y-44850252D01*
X98376450Y-44842315D01*
X98193954Y-44744768D01*
X97995934Y-44684700D01*
X97995932Y-44684699D01*
X97995934Y-44684699D01*
X97790000Y-44664417D01*
X97584067Y-44684699D01*
X97386043Y-44744769D01*
X97298114Y-44791769D01*
X97203550Y-44842315D01*
X97203548Y-44842316D01*
X97203547Y-44842317D01*
X97043589Y-44973589D01*
X96912317Y-45133547D01*
X96814769Y-45316043D01*
X96754699Y-45514067D01*
X96734417Y-45720000D01*
X96305583Y-45720000D01*
X96285300Y-45514066D01*
X96225232Y-45316046D01*
X96127685Y-45133550D01*
X96075702Y-45070209D01*
X95996410Y-44973589D01*
X95846121Y-44850252D01*
X95836450Y-44842315D01*
X95653954Y-44744768D01*
X95455934Y-44684700D01*
X95455932Y-44684699D01*
X95455934Y-44684699D01*
X95250000Y-44664417D01*
X95044067Y-44684699D01*
X94846043Y-44744769D01*
X94758114Y-44791769D01*
X94663550Y-44842315D01*
X94663548Y-44842316D01*
X94663547Y-44842317D01*
X94503589Y-44973589D01*
X94372317Y-45133547D01*
X94274769Y-45316043D01*
X94214699Y-45514067D01*
X94194417Y-45720000D01*
X93765583Y-45720000D01*
X93745300Y-45514066D01*
X93685232Y-45316046D01*
X93587685Y-45133550D01*
X93535702Y-45070209D01*
X93456410Y-44973589D01*
X93306121Y-44850252D01*
X93296450Y-44842315D01*
X93113954Y-44744768D01*
X92915934Y-44684700D01*
X92915932Y-44684699D01*
X92915934Y-44684699D01*
X92710000Y-44664417D01*
X92504067Y-44684699D01*
X92306043Y-44744769D01*
X92218114Y-44791769D01*
X92123550Y-44842315D01*
X92123548Y-44842316D01*
X92123547Y-44842317D01*
X91963589Y-44973589D01*
X91832317Y-45133547D01*
X91734769Y-45316043D01*
X91674699Y-45514067D01*
X91654417Y-45720000D01*
X91220500Y-45720000D01*
X91220500Y-44850249D01*
X91220499Y-44850247D01*
X91208868Y-44791770D01*
X91208867Y-44791769D01*
X91164552Y-44725447D01*
X91098230Y-44681132D01*
X91098229Y-44681131D01*
X91039752Y-44669500D01*
X91039748Y-44669500D01*
X89300252Y-44669500D01*
X89300247Y-44669500D01*
X89241770Y-44681131D01*
X89241769Y-44681132D01*
X89175447Y-44725447D01*
X89131132Y-44791769D01*
X89131131Y-44791770D01*
X89119500Y-44850247D01*
X89119500Y-46589752D01*
X82950955Y-46589752D01*
X86323888Y-43216819D01*
X86385211Y-43183334D01*
X86411569Y-43180500D01*
X106628430Y-43180500D01*
X106695469Y-43200185D01*
G37*
%TD.AperFunction*%
%TD*%
M02*
