M48
; DRILL file {KiCad 7.0.8} date Fri Jan 12 13:09:42 2024
; FORMAT={-:-/ absolute / inch / decimal}
; #@! TF.CreationDate,2024-01-12T13:09:42+01:00
; #@! TF.GenerationSoftware,Kicad,Pcbnew,7.0.8
; #@! TF.FileFunction,Plated,1,2,PTH
FMAT,2
INCH
; #@! TA.AperFunction,Plated,PTH,ViaDrill
T1C0.0157
; #@! TA.AperFunction,Plated,PTH,ComponentDrill
T2C0.0394
%
G90
G05
T1
X3.63Y-2.13
X3.71Y-2.23
X3.71Y-2.33
X3.97Y-2.13
X3.97Y-2.47
T2
X3.3Y-2.05
X3.3Y-2.15
X3.3Y-2.25
X3.3Y-2.35
X3.3Y-2.45
X3.3Y-2.55
X3.4Y-2.05
X3.4Y-2.15
X3.4Y-2.25
X3.4Y-2.35
X3.4Y-2.45
X3.4Y-2.55
X3.55Y-1.8
X3.55Y-1.9
X3.55Y-2.7
X3.55Y-2.8
X3.65Y-1.8
X3.65Y-1.9
X3.65Y-2.7
X3.65Y-2.8
X3.75Y-1.8
X3.75Y-1.9
X3.75Y-2.7
X3.75Y-2.8
X3.85Y-1.8
X3.85Y-1.9
X3.85Y-2.7
X3.85Y-2.8
X3.95Y-1.8
X3.95Y-1.9
X3.95Y-2.7
X3.95Y-2.8
X4.05Y-1.8
X4.05Y-1.9
X4.05Y-2.7
X4.05Y-2.8
X4.2Y-2.05
X4.2Y-2.15
X4.2Y-2.25
X4.2Y-2.35
X4.2Y-2.45
X4.2Y-2.55
X4.3Y-2.05
X4.3Y-2.15
X4.3Y-2.25
X4.3Y-2.35
X4.3Y-2.45
X4.3Y-2.55
T0
M30
