%TF.GenerationSoftware,KiCad,Pcbnew,7.0.8*%
%TF.CreationDate,2024-01-12T13:09:39+01:00*%
%TF.ProjectId,adapter_STM32,61646170-7465-4725-9f53-544d33322e6b,rev?*%
%TF.SameCoordinates,Original*%
%TF.FileFunction,Legend,Bot*%
%TF.FilePolarity,Positive*%
%FSLAX46Y46*%
G04 Gerber Fmt 4.6, Leading zero omitted, Abs format (unit mm)*
G04 Created by KiCad (PCBNEW 7.0.8) date 2024-01-12 13:09:39*
%MOMM*%
%LPD*%
G01*
G04 APERTURE LIST*
%ADD10C,0.175000*%
%ADD11C,0.100000*%
%ADD12C,0.150000*%
%ADD13C,0.120000*%
G04 APERTURE END LIST*
D10*
X103891535Y-51211900D02*
X103791535Y-51245233D01*
X103791535Y-51245233D02*
X103624869Y-51245233D01*
X103624869Y-51245233D02*
X103558202Y-51211900D01*
X103558202Y-51211900D02*
X103524869Y-51178566D01*
X103524869Y-51178566D02*
X103491535Y-51111900D01*
X103491535Y-51111900D02*
X103491535Y-51045233D01*
X103491535Y-51045233D02*
X103524869Y-50978566D01*
X103524869Y-50978566D02*
X103558202Y-50945233D01*
X103558202Y-50945233D02*
X103624869Y-50911900D01*
X103624869Y-50911900D02*
X103758202Y-50878566D01*
X103758202Y-50878566D02*
X103824869Y-50845233D01*
X103824869Y-50845233D02*
X103858202Y-50811900D01*
X103858202Y-50811900D02*
X103891535Y-50745233D01*
X103891535Y-50745233D02*
X103891535Y-50678566D01*
X103891535Y-50678566D02*
X103858202Y-50611900D01*
X103858202Y-50611900D02*
X103824869Y-50578566D01*
X103824869Y-50578566D02*
X103758202Y-50545233D01*
X103758202Y-50545233D02*
X103591535Y-50545233D01*
X103591535Y-50545233D02*
X103491535Y-50578566D01*
X103291535Y-50778566D02*
X103024868Y-50778566D01*
X103191535Y-50545233D02*
X103191535Y-51145233D01*
X103191535Y-51145233D02*
X103158202Y-51211900D01*
X103158202Y-51211900D02*
X103091535Y-51245233D01*
X103091535Y-51245233D02*
X103024868Y-51245233D01*
X102491535Y-51245233D02*
X102491535Y-50878566D01*
X102491535Y-50878566D02*
X102524868Y-50811900D01*
X102524868Y-50811900D02*
X102591535Y-50778566D01*
X102591535Y-50778566D02*
X102724868Y-50778566D01*
X102724868Y-50778566D02*
X102791535Y-50811900D01*
X102491535Y-51211900D02*
X102558202Y-51245233D01*
X102558202Y-51245233D02*
X102724868Y-51245233D01*
X102724868Y-51245233D02*
X102791535Y-51211900D01*
X102791535Y-51211900D02*
X102824868Y-51145233D01*
X102824868Y-51145233D02*
X102824868Y-51078566D01*
X102824868Y-51078566D02*
X102791535Y-51011900D01*
X102791535Y-51011900D02*
X102724868Y-50978566D01*
X102724868Y-50978566D02*
X102558202Y-50978566D01*
X102558202Y-50978566D02*
X102491535Y-50945233D01*
X102158202Y-50778566D02*
X102158202Y-51245233D01*
X102158202Y-50845233D02*
X102124869Y-50811900D01*
X102124869Y-50811900D02*
X102058202Y-50778566D01*
X102058202Y-50778566D02*
X101958202Y-50778566D01*
X101958202Y-50778566D02*
X101891535Y-50811900D01*
X101891535Y-50811900D02*
X101858202Y-50878566D01*
X101858202Y-50878566D02*
X101858202Y-51245233D01*
X101224869Y-51245233D02*
X101224869Y-50545233D01*
X101224869Y-51211900D02*
X101291536Y-51245233D01*
X101291536Y-51245233D02*
X101424869Y-51245233D01*
X101424869Y-51245233D02*
X101491536Y-51211900D01*
X101491536Y-51211900D02*
X101524869Y-51178566D01*
X101524869Y-51178566D02*
X101558202Y-51111900D01*
X101558202Y-51111900D02*
X101558202Y-50911900D01*
X101558202Y-50911900D02*
X101524869Y-50845233D01*
X101524869Y-50845233D02*
X101491536Y-50811900D01*
X101491536Y-50811900D02*
X101424869Y-50778566D01*
X101424869Y-50778566D02*
X101291536Y-50778566D01*
X101291536Y-50778566D02*
X101224869Y-50811900D01*
X100591536Y-51245233D02*
X100591536Y-50878566D01*
X100591536Y-50878566D02*
X100624869Y-50811900D01*
X100624869Y-50811900D02*
X100691536Y-50778566D01*
X100691536Y-50778566D02*
X100824869Y-50778566D01*
X100824869Y-50778566D02*
X100891536Y-50811900D01*
X100591536Y-51211900D02*
X100658203Y-51245233D01*
X100658203Y-51245233D02*
X100824869Y-51245233D01*
X100824869Y-51245233D02*
X100891536Y-51211900D01*
X100891536Y-51211900D02*
X100924869Y-51145233D01*
X100924869Y-51145233D02*
X100924869Y-51078566D01*
X100924869Y-51078566D02*
X100891536Y-51011900D01*
X100891536Y-51011900D02*
X100824869Y-50978566D01*
X100824869Y-50978566D02*
X100658203Y-50978566D01*
X100658203Y-50978566D02*
X100591536Y-50945233D01*
X100258203Y-51245233D02*
X100258203Y-50778566D01*
X100258203Y-50911900D02*
X100224870Y-50845233D01*
X100224870Y-50845233D02*
X100191536Y-50811900D01*
X100191536Y-50811900D02*
X100124870Y-50778566D01*
X100124870Y-50778566D02*
X100058203Y-50778566D01*
X99524870Y-51245233D02*
X99524870Y-50545233D01*
X99524870Y-51211900D02*
X99591537Y-51245233D01*
X99591537Y-51245233D02*
X99724870Y-51245233D01*
X99724870Y-51245233D02*
X99791537Y-51211900D01*
X99791537Y-51211900D02*
X99824870Y-51178566D01*
X99824870Y-51178566D02*
X99858203Y-51111900D01*
X99858203Y-51111900D02*
X99858203Y-50911900D01*
X99858203Y-50911900D02*
X99824870Y-50845233D01*
X99824870Y-50845233D02*
X99791537Y-50811900D01*
X99791537Y-50811900D02*
X99724870Y-50778566D01*
X99724870Y-50778566D02*
X99591537Y-50778566D01*
X99591537Y-50778566D02*
X99524870Y-50811900D01*
X99091537Y-51245233D02*
X99158204Y-51211900D01*
X99158204Y-51211900D02*
X99191537Y-51178566D01*
X99191537Y-51178566D02*
X99224870Y-51111900D01*
X99224870Y-51111900D02*
X99224870Y-50911900D01*
X99224870Y-50911900D02*
X99191537Y-50845233D01*
X99191537Y-50845233D02*
X99158204Y-50811900D01*
X99158204Y-50811900D02*
X99091537Y-50778566D01*
X99091537Y-50778566D02*
X98991537Y-50778566D01*
X98991537Y-50778566D02*
X98924870Y-50811900D01*
X98924870Y-50811900D02*
X98891537Y-50845233D01*
X98891537Y-50845233D02*
X98858204Y-50911900D01*
X98858204Y-50911900D02*
X98858204Y-51111900D01*
X98858204Y-51111900D02*
X98891537Y-51178566D01*
X98891537Y-51178566D02*
X98924870Y-51211900D01*
X98924870Y-51211900D02*
X98991537Y-51245233D01*
X98991537Y-51245233D02*
X99091537Y-51245233D01*
X98624871Y-50778566D02*
X98491537Y-51245233D01*
X98491537Y-51245233D02*
X98358204Y-50911900D01*
X98358204Y-50911900D02*
X98224871Y-51245233D01*
X98224871Y-51245233D02*
X98091537Y-50778566D01*
X97891538Y-50778566D02*
X97724871Y-51245233D01*
X97558204Y-50778566D02*
X97724871Y-51245233D01*
X97724871Y-51245233D02*
X97791538Y-51411900D01*
X97791538Y-51411900D02*
X97824871Y-51445233D01*
X97824871Y-51445233D02*
X97891538Y-51478566D01*
X96458205Y-51245233D02*
X96458205Y-50878566D01*
X96458205Y-50878566D02*
X96491538Y-50811900D01*
X96491538Y-50811900D02*
X96558205Y-50778566D01*
X96558205Y-50778566D02*
X96691538Y-50778566D01*
X96691538Y-50778566D02*
X96758205Y-50811900D01*
X96458205Y-51211900D02*
X96524872Y-51245233D01*
X96524872Y-51245233D02*
X96691538Y-51245233D01*
X96691538Y-51245233D02*
X96758205Y-51211900D01*
X96758205Y-51211900D02*
X96791538Y-51145233D01*
X96791538Y-51145233D02*
X96791538Y-51078566D01*
X96791538Y-51078566D02*
X96758205Y-51011900D01*
X96758205Y-51011900D02*
X96691538Y-50978566D01*
X96691538Y-50978566D02*
X96524872Y-50978566D01*
X96524872Y-50978566D02*
X96458205Y-50945233D01*
X95824872Y-51245233D02*
X95824872Y-50545233D01*
X95824872Y-51211900D02*
X95891539Y-51245233D01*
X95891539Y-51245233D02*
X96024872Y-51245233D01*
X96024872Y-51245233D02*
X96091539Y-51211900D01*
X96091539Y-51211900D02*
X96124872Y-51178566D01*
X96124872Y-51178566D02*
X96158205Y-51111900D01*
X96158205Y-51111900D02*
X96158205Y-50911900D01*
X96158205Y-50911900D02*
X96124872Y-50845233D01*
X96124872Y-50845233D02*
X96091539Y-50811900D01*
X96091539Y-50811900D02*
X96024872Y-50778566D01*
X96024872Y-50778566D02*
X95891539Y-50778566D01*
X95891539Y-50778566D02*
X95824872Y-50811900D01*
X95191539Y-51245233D02*
X95191539Y-50878566D01*
X95191539Y-50878566D02*
X95224872Y-50811900D01*
X95224872Y-50811900D02*
X95291539Y-50778566D01*
X95291539Y-50778566D02*
X95424872Y-50778566D01*
X95424872Y-50778566D02*
X95491539Y-50811900D01*
X95191539Y-51211900D02*
X95258206Y-51245233D01*
X95258206Y-51245233D02*
X95424872Y-51245233D01*
X95424872Y-51245233D02*
X95491539Y-51211900D01*
X95491539Y-51211900D02*
X95524872Y-51145233D01*
X95524872Y-51145233D02*
X95524872Y-51078566D01*
X95524872Y-51078566D02*
X95491539Y-51011900D01*
X95491539Y-51011900D02*
X95424872Y-50978566D01*
X95424872Y-50978566D02*
X95258206Y-50978566D01*
X95258206Y-50978566D02*
X95191539Y-50945233D01*
X94858206Y-50778566D02*
X94858206Y-51478566D01*
X94858206Y-50811900D02*
X94791539Y-50778566D01*
X94791539Y-50778566D02*
X94658206Y-50778566D01*
X94658206Y-50778566D02*
X94591539Y-50811900D01*
X94591539Y-50811900D02*
X94558206Y-50845233D01*
X94558206Y-50845233D02*
X94524873Y-50911900D01*
X94524873Y-50911900D02*
X94524873Y-51111900D01*
X94524873Y-51111900D02*
X94558206Y-51178566D01*
X94558206Y-51178566D02*
X94591539Y-51211900D01*
X94591539Y-51211900D02*
X94658206Y-51245233D01*
X94658206Y-51245233D02*
X94791539Y-51245233D01*
X94791539Y-51245233D02*
X94858206Y-51211900D01*
X94324873Y-50778566D02*
X94058206Y-50778566D01*
X94224873Y-50545233D02*
X94224873Y-51145233D01*
X94224873Y-51145233D02*
X94191540Y-51211900D01*
X94191540Y-51211900D02*
X94124873Y-51245233D01*
X94124873Y-51245233D02*
X94058206Y-51245233D01*
X93558206Y-51211900D02*
X93624873Y-51245233D01*
X93624873Y-51245233D02*
X93758206Y-51245233D01*
X93758206Y-51245233D02*
X93824873Y-51211900D01*
X93824873Y-51211900D02*
X93858206Y-51145233D01*
X93858206Y-51145233D02*
X93858206Y-50878566D01*
X93858206Y-50878566D02*
X93824873Y-50811900D01*
X93824873Y-50811900D02*
X93758206Y-50778566D01*
X93758206Y-50778566D02*
X93624873Y-50778566D01*
X93624873Y-50778566D02*
X93558206Y-50811900D01*
X93558206Y-50811900D02*
X93524873Y-50878566D01*
X93524873Y-50878566D02*
X93524873Y-50945233D01*
X93524873Y-50945233D02*
X93858206Y-51011900D01*
X93224873Y-51245233D02*
X93224873Y-50778566D01*
X93224873Y-50911900D02*
X93191540Y-50845233D01*
X93191540Y-50845233D02*
X93158206Y-50811900D01*
X93158206Y-50811900D02*
X93091540Y-50778566D01*
X93091540Y-50778566D02*
X93024873Y-50778566D01*
X92291540Y-51211900D02*
X92191540Y-51245233D01*
X92191540Y-51245233D02*
X92024874Y-51245233D01*
X92024874Y-51245233D02*
X91958207Y-51211900D01*
X91958207Y-51211900D02*
X91924874Y-51178566D01*
X91924874Y-51178566D02*
X91891540Y-51111900D01*
X91891540Y-51111900D02*
X91891540Y-51045233D01*
X91891540Y-51045233D02*
X91924874Y-50978566D01*
X91924874Y-50978566D02*
X91958207Y-50945233D01*
X91958207Y-50945233D02*
X92024874Y-50911900D01*
X92024874Y-50911900D02*
X92158207Y-50878566D01*
X92158207Y-50878566D02*
X92224874Y-50845233D01*
X92224874Y-50845233D02*
X92258207Y-50811900D01*
X92258207Y-50811900D02*
X92291540Y-50745233D01*
X92291540Y-50745233D02*
X92291540Y-50678566D01*
X92291540Y-50678566D02*
X92258207Y-50611900D01*
X92258207Y-50611900D02*
X92224874Y-50578566D01*
X92224874Y-50578566D02*
X92158207Y-50545233D01*
X92158207Y-50545233D02*
X91991540Y-50545233D01*
X91991540Y-50545233D02*
X91891540Y-50578566D01*
X91691540Y-50545233D02*
X91291540Y-50545233D01*
X91491540Y-51245233D02*
X91491540Y-50545233D01*
X91058207Y-51245233D02*
X91058207Y-50545233D01*
X91058207Y-50545233D02*
X90824874Y-51045233D01*
X90824874Y-51045233D02*
X90591540Y-50545233D01*
X90591540Y-50545233D02*
X90591540Y-51245233D01*
X90324874Y-50545233D02*
X89891540Y-50545233D01*
X89891540Y-50545233D02*
X90124874Y-50811900D01*
X90124874Y-50811900D02*
X90024874Y-50811900D01*
X90024874Y-50811900D02*
X89958207Y-50845233D01*
X89958207Y-50845233D02*
X89924874Y-50878566D01*
X89924874Y-50878566D02*
X89891540Y-50945233D01*
X89891540Y-50945233D02*
X89891540Y-51111900D01*
X89891540Y-51111900D02*
X89924874Y-51178566D01*
X89924874Y-51178566D02*
X89958207Y-51211900D01*
X89958207Y-51211900D02*
X90024874Y-51245233D01*
X90024874Y-51245233D02*
X90224874Y-51245233D01*
X90224874Y-51245233D02*
X90291540Y-51211900D01*
X90291540Y-51211900D02*
X90324874Y-51178566D01*
X89624873Y-50611900D02*
X89591540Y-50578566D01*
X89591540Y-50578566D02*
X89524873Y-50545233D01*
X89524873Y-50545233D02*
X89358207Y-50545233D01*
X89358207Y-50545233D02*
X89291540Y-50578566D01*
X89291540Y-50578566D02*
X89258207Y-50611900D01*
X89258207Y-50611900D02*
X89224873Y-50678566D01*
X89224873Y-50678566D02*
X89224873Y-50745233D01*
X89224873Y-50745233D02*
X89258207Y-50845233D01*
X89258207Y-50845233D02*
X89658207Y-51245233D01*
X89658207Y-51245233D02*
X89224873Y-51245233D01*
X103858202Y-51905566D02*
X103858202Y-52605566D01*
X103858202Y-51938900D02*
X103791535Y-51905566D01*
X103791535Y-51905566D02*
X103658202Y-51905566D01*
X103658202Y-51905566D02*
X103591535Y-51938900D01*
X103591535Y-51938900D02*
X103558202Y-51972233D01*
X103558202Y-51972233D02*
X103524869Y-52038900D01*
X103524869Y-52038900D02*
X103524869Y-52238900D01*
X103524869Y-52238900D02*
X103558202Y-52305566D01*
X103558202Y-52305566D02*
X103591535Y-52338900D01*
X103591535Y-52338900D02*
X103658202Y-52372233D01*
X103658202Y-52372233D02*
X103791535Y-52372233D01*
X103791535Y-52372233D02*
X103858202Y-52338900D01*
X103224869Y-52372233D02*
X103224869Y-51905566D01*
X103224869Y-52038900D02*
X103191536Y-51972233D01*
X103191536Y-51972233D02*
X103158202Y-51938900D01*
X103158202Y-51938900D02*
X103091536Y-51905566D01*
X103091536Y-51905566D02*
X103024869Y-51905566D01*
X102691536Y-52372233D02*
X102758203Y-52338900D01*
X102758203Y-52338900D02*
X102791536Y-52305566D01*
X102791536Y-52305566D02*
X102824869Y-52238900D01*
X102824869Y-52238900D02*
X102824869Y-52038900D01*
X102824869Y-52038900D02*
X102791536Y-51972233D01*
X102791536Y-51972233D02*
X102758203Y-51938900D01*
X102758203Y-51938900D02*
X102691536Y-51905566D01*
X102691536Y-51905566D02*
X102591536Y-51905566D01*
X102591536Y-51905566D02*
X102524869Y-51938900D01*
X102524869Y-51938900D02*
X102491536Y-51972233D01*
X102491536Y-51972233D02*
X102458203Y-52038900D01*
X102458203Y-52038900D02*
X102458203Y-52238900D01*
X102458203Y-52238900D02*
X102491536Y-52305566D01*
X102491536Y-52305566D02*
X102524869Y-52338900D01*
X102524869Y-52338900D02*
X102591536Y-52372233D01*
X102591536Y-52372233D02*
X102691536Y-52372233D01*
X102158203Y-51905566D02*
X102158203Y-52505566D01*
X102158203Y-52505566D02*
X102191536Y-52572233D01*
X102191536Y-52572233D02*
X102258203Y-52605566D01*
X102258203Y-52605566D02*
X102291536Y-52605566D01*
X102158203Y-51672233D02*
X102191536Y-51705566D01*
X102191536Y-51705566D02*
X102158203Y-51738900D01*
X102158203Y-51738900D02*
X102124870Y-51705566D01*
X102124870Y-51705566D02*
X102158203Y-51672233D01*
X102158203Y-51672233D02*
X102158203Y-51738900D01*
X101558203Y-52338900D02*
X101624870Y-52372233D01*
X101624870Y-52372233D02*
X101758203Y-52372233D01*
X101758203Y-52372233D02*
X101824870Y-52338900D01*
X101824870Y-52338900D02*
X101858203Y-52272233D01*
X101858203Y-52272233D02*
X101858203Y-52005566D01*
X101858203Y-52005566D02*
X101824870Y-51938900D01*
X101824870Y-51938900D02*
X101758203Y-51905566D01*
X101758203Y-51905566D02*
X101624870Y-51905566D01*
X101624870Y-51905566D02*
X101558203Y-51938900D01*
X101558203Y-51938900D02*
X101524870Y-52005566D01*
X101524870Y-52005566D02*
X101524870Y-52072233D01*
X101524870Y-52072233D02*
X101858203Y-52138900D01*
X101224870Y-52372233D02*
X101224870Y-51672233D01*
X101158203Y-52105566D02*
X100958203Y-52372233D01*
X100958203Y-51905566D02*
X101224870Y-52172233D01*
X100758203Y-51905566D02*
X100491536Y-51905566D01*
X100658203Y-51672233D02*
X100658203Y-52272233D01*
X100658203Y-52272233D02*
X100624870Y-52338900D01*
X100624870Y-52338900D02*
X100558203Y-52372233D01*
X100558203Y-52372233D02*
X100491536Y-52372233D01*
X100258203Y-52305566D02*
X100224870Y-52338900D01*
X100224870Y-52338900D02*
X100258203Y-52372233D01*
X100258203Y-52372233D02*
X100291536Y-52338900D01*
X100291536Y-52338900D02*
X100258203Y-52305566D01*
X100258203Y-52305566D02*
X100258203Y-52372233D01*
X100258203Y-51938900D02*
X100224870Y-51972233D01*
X100224870Y-51972233D02*
X100258203Y-52005566D01*
X100258203Y-52005566D02*
X100291536Y-51972233D01*
X100291536Y-51972233D02*
X100258203Y-51938900D01*
X100258203Y-51938900D02*
X100258203Y-52005566D01*
X99424870Y-52172233D02*
X99091537Y-52172233D01*
X99491537Y-52372233D02*
X99258204Y-51672233D01*
X99258204Y-51672233D02*
X99024870Y-52372233D01*
X98491537Y-52372233D02*
X98491537Y-51672233D01*
X98491537Y-52338900D02*
X98558204Y-52372233D01*
X98558204Y-52372233D02*
X98691537Y-52372233D01*
X98691537Y-52372233D02*
X98758204Y-52338900D01*
X98758204Y-52338900D02*
X98791537Y-52305566D01*
X98791537Y-52305566D02*
X98824870Y-52238900D01*
X98824870Y-52238900D02*
X98824870Y-52038900D01*
X98824870Y-52038900D02*
X98791537Y-51972233D01*
X98791537Y-51972233D02*
X98758204Y-51938900D01*
X98758204Y-51938900D02*
X98691537Y-51905566D01*
X98691537Y-51905566D02*
X98558204Y-51905566D01*
X98558204Y-51905566D02*
X98491537Y-51938900D01*
X97858204Y-52372233D02*
X97858204Y-52005566D01*
X97858204Y-52005566D02*
X97891537Y-51938900D01*
X97891537Y-51938900D02*
X97958204Y-51905566D01*
X97958204Y-51905566D02*
X98091537Y-51905566D01*
X98091537Y-51905566D02*
X98158204Y-51938900D01*
X97858204Y-52338900D02*
X97924871Y-52372233D01*
X97924871Y-52372233D02*
X98091537Y-52372233D01*
X98091537Y-52372233D02*
X98158204Y-52338900D01*
X98158204Y-52338900D02*
X98191537Y-52272233D01*
X98191537Y-52272233D02*
X98191537Y-52205566D01*
X98191537Y-52205566D02*
X98158204Y-52138900D01*
X98158204Y-52138900D02*
X98091537Y-52105566D01*
X98091537Y-52105566D02*
X97924871Y-52105566D01*
X97924871Y-52105566D02*
X97858204Y-52072233D01*
X97524871Y-52372233D02*
X97524871Y-51905566D01*
X97524871Y-51972233D02*
X97491538Y-51938900D01*
X97491538Y-51938900D02*
X97424871Y-51905566D01*
X97424871Y-51905566D02*
X97324871Y-51905566D01*
X97324871Y-51905566D02*
X97258204Y-51938900D01*
X97258204Y-51938900D02*
X97224871Y-52005566D01*
X97224871Y-52005566D02*
X97224871Y-52372233D01*
X97224871Y-52005566D02*
X97191538Y-51938900D01*
X97191538Y-51938900D02*
X97124871Y-51905566D01*
X97124871Y-51905566D02*
X97024871Y-51905566D01*
X97024871Y-51905566D02*
X96958204Y-51938900D01*
X96958204Y-51938900D02*
X96924871Y-52005566D01*
X96924871Y-52005566D02*
X96924871Y-52372233D01*
X96124872Y-51672233D02*
X95958205Y-52372233D01*
X95958205Y-52372233D02*
X95824872Y-51872233D01*
X95824872Y-51872233D02*
X95691538Y-52372233D01*
X95691538Y-52372233D02*
X95524872Y-51672233D01*
X94958205Y-52372233D02*
X94958205Y-52005566D01*
X94958205Y-52005566D02*
X94991538Y-51938900D01*
X94991538Y-51938900D02*
X95058205Y-51905566D01*
X95058205Y-51905566D02*
X95191538Y-51905566D01*
X95191538Y-51905566D02*
X95258205Y-51938900D01*
X94958205Y-52338900D02*
X95024872Y-52372233D01*
X95024872Y-52372233D02*
X95191538Y-52372233D01*
X95191538Y-52372233D02*
X95258205Y-52338900D01*
X95258205Y-52338900D02*
X95291538Y-52272233D01*
X95291538Y-52272233D02*
X95291538Y-52205566D01*
X95291538Y-52205566D02*
X95258205Y-52138900D01*
X95258205Y-52138900D02*
X95191538Y-52105566D01*
X95191538Y-52105566D02*
X95024872Y-52105566D01*
X95024872Y-52105566D02*
X94958205Y-52072233D01*
X94958205Y-52372233D02*
X95024872Y-52438900D01*
X95024872Y-52438900D02*
X95058205Y-52505566D01*
X95058205Y-52505566D02*
X95024872Y-52572233D01*
X95024872Y-52572233D02*
X94958205Y-52605566D01*
X94958205Y-52605566D02*
X94891538Y-52605566D01*
X94658205Y-52338900D02*
X94591539Y-52372233D01*
X94591539Y-52372233D02*
X94458205Y-52372233D01*
X94458205Y-52372233D02*
X94391539Y-52338900D01*
X94391539Y-52338900D02*
X94358205Y-52272233D01*
X94358205Y-52272233D02*
X94358205Y-52238900D01*
X94358205Y-52238900D02*
X94391539Y-52172233D01*
X94391539Y-52172233D02*
X94458205Y-52138900D01*
X94458205Y-52138900D02*
X94558205Y-52138900D01*
X94558205Y-52138900D02*
X94624872Y-52105566D01*
X94624872Y-52105566D02*
X94658205Y-52038900D01*
X94658205Y-52038900D02*
X94658205Y-52005566D01*
X94658205Y-52005566D02*
X94624872Y-51938900D01*
X94624872Y-51938900D02*
X94558205Y-51905566D01*
X94558205Y-51905566D02*
X94458205Y-51905566D01*
X94458205Y-51905566D02*
X94391539Y-51938900D01*
X103858202Y-53499233D02*
X103858202Y-52799233D01*
X103458202Y-53499233D02*
X103758202Y-53099233D01*
X103458202Y-52799233D02*
X103858202Y-53199233D01*
X103158202Y-53499233D02*
X103158202Y-52799233D01*
X103158202Y-52799233D02*
X102758202Y-53499233D01*
X102758202Y-53499233D02*
X102758202Y-52799233D01*
X102024869Y-53499233D02*
X102258202Y-53165900D01*
X102424869Y-53499233D02*
X102424869Y-52799233D01*
X102424869Y-52799233D02*
X102158202Y-52799233D01*
X102158202Y-52799233D02*
X102091536Y-52832566D01*
X102091536Y-52832566D02*
X102058202Y-52865900D01*
X102058202Y-52865900D02*
X102024869Y-52932566D01*
X102024869Y-52932566D02*
X102024869Y-53032566D01*
X102024869Y-53032566D02*
X102058202Y-53099233D01*
X102058202Y-53099233D02*
X102091536Y-53132566D01*
X102091536Y-53132566D02*
X102158202Y-53165900D01*
X102158202Y-53165900D02*
X102424869Y-53165900D01*
X101191536Y-53499233D02*
X101191536Y-52799233D01*
X100791536Y-53499233D02*
X101091536Y-53099233D01*
X100791536Y-52799233D02*
X101191536Y-53199233D01*
X100391536Y-53499233D02*
X100458203Y-53465900D01*
X100458203Y-53465900D02*
X100491536Y-53432566D01*
X100491536Y-53432566D02*
X100524869Y-53365900D01*
X100524869Y-53365900D02*
X100524869Y-53165900D01*
X100524869Y-53165900D02*
X100491536Y-53099233D01*
X100491536Y-53099233D02*
X100458203Y-53065900D01*
X100458203Y-53065900D02*
X100391536Y-53032566D01*
X100391536Y-53032566D02*
X100291536Y-53032566D01*
X100291536Y-53032566D02*
X100224869Y-53065900D01*
X100224869Y-53065900D02*
X100191536Y-53099233D01*
X100191536Y-53099233D02*
X100158203Y-53165900D01*
X100158203Y-53165900D02*
X100158203Y-53365900D01*
X100158203Y-53365900D02*
X100191536Y-53432566D01*
X100191536Y-53432566D02*
X100224869Y-53465900D01*
X100224869Y-53465900D02*
X100291536Y-53499233D01*
X100291536Y-53499233D02*
X100391536Y-53499233D01*
X99858203Y-53499233D02*
X99858203Y-52799233D01*
X99858203Y-52799233D02*
X99458203Y-53499233D01*
X99458203Y-53499233D02*
X99458203Y-52799233D01*
X98824870Y-53499233D02*
X98824870Y-53132566D01*
X98824870Y-53132566D02*
X98858203Y-53065900D01*
X98858203Y-53065900D02*
X98924870Y-53032566D01*
X98924870Y-53032566D02*
X99058203Y-53032566D01*
X99058203Y-53032566D02*
X99124870Y-53065900D01*
X98824870Y-53465900D02*
X98891537Y-53499233D01*
X98891537Y-53499233D02*
X99058203Y-53499233D01*
X99058203Y-53499233D02*
X99124870Y-53465900D01*
X99124870Y-53465900D02*
X99158203Y-53399233D01*
X99158203Y-53399233D02*
X99158203Y-53332566D01*
X99158203Y-53332566D02*
X99124870Y-53265900D01*
X99124870Y-53265900D02*
X99058203Y-53232566D01*
X99058203Y-53232566D02*
X98891537Y-53232566D01*
X98891537Y-53232566D02*
X98824870Y-53199233D01*
X98091537Y-53499233D02*
X98324870Y-53165900D01*
X98491537Y-53499233D02*
X98491537Y-52799233D01*
X98491537Y-52799233D02*
X98224870Y-52799233D01*
X98224870Y-52799233D02*
X98158204Y-52832566D01*
X98158204Y-52832566D02*
X98124870Y-52865900D01*
X98124870Y-52865900D02*
X98091537Y-52932566D01*
X98091537Y-52932566D02*
X98091537Y-53032566D01*
X98091537Y-53032566D02*
X98124870Y-53099233D01*
X98124870Y-53099233D02*
X98158204Y-53132566D01*
X98158204Y-53132566D02*
X98224870Y-53165900D01*
X98224870Y-53165900D02*
X98491537Y-53165900D01*
X96758204Y-52765900D02*
X97358204Y-53665900D01*
X95991538Y-53499233D02*
X95991538Y-52799233D01*
X95991538Y-52799233D02*
X95724871Y-52799233D01*
X95724871Y-52799233D02*
X95658205Y-52832566D01*
X95658205Y-52832566D02*
X95624871Y-52865900D01*
X95624871Y-52865900D02*
X95591538Y-52932566D01*
X95591538Y-52932566D02*
X95591538Y-53032566D01*
X95591538Y-53032566D02*
X95624871Y-53099233D01*
X95624871Y-53099233D02*
X95658205Y-53132566D01*
X95658205Y-53132566D02*
X95724871Y-53165900D01*
X95724871Y-53165900D02*
X95991538Y-53165900D01*
X95291538Y-53499233D02*
X95291538Y-53032566D01*
X95291538Y-53165900D02*
X95258205Y-53099233D01*
X95258205Y-53099233D02*
X95224871Y-53065900D01*
X95224871Y-53065900D02*
X95158205Y-53032566D01*
X95158205Y-53032566D02*
X95091538Y-53032566D01*
X94758205Y-53499233D02*
X94824872Y-53465900D01*
X94824872Y-53465900D02*
X94858205Y-53432566D01*
X94858205Y-53432566D02*
X94891538Y-53365900D01*
X94891538Y-53365900D02*
X94891538Y-53165900D01*
X94891538Y-53165900D02*
X94858205Y-53099233D01*
X94858205Y-53099233D02*
X94824872Y-53065900D01*
X94824872Y-53065900D02*
X94758205Y-53032566D01*
X94758205Y-53032566D02*
X94658205Y-53032566D01*
X94658205Y-53032566D02*
X94591538Y-53065900D01*
X94591538Y-53065900D02*
X94558205Y-53099233D01*
X94558205Y-53099233D02*
X94524872Y-53165900D01*
X94524872Y-53165900D02*
X94524872Y-53365900D01*
X94524872Y-53365900D02*
X94558205Y-53432566D01*
X94558205Y-53432566D02*
X94591538Y-53465900D01*
X94591538Y-53465900D02*
X94658205Y-53499233D01*
X94658205Y-53499233D02*
X94758205Y-53499233D01*
X94224872Y-53032566D02*
X94224872Y-53632566D01*
X94224872Y-53632566D02*
X94258205Y-53699233D01*
X94258205Y-53699233D02*
X94324872Y-53732566D01*
X94324872Y-53732566D02*
X94358205Y-53732566D01*
X94224872Y-52799233D02*
X94258205Y-52832566D01*
X94258205Y-52832566D02*
X94224872Y-52865900D01*
X94224872Y-52865900D02*
X94191539Y-52832566D01*
X94191539Y-52832566D02*
X94224872Y-52799233D01*
X94224872Y-52799233D02*
X94224872Y-52865900D01*
X93624872Y-53465900D02*
X93691539Y-53499233D01*
X93691539Y-53499233D02*
X93824872Y-53499233D01*
X93824872Y-53499233D02*
X93891539Y-53465900D01*
X93891539Y-53465900D02*
X93924872Y-53399233D01*
X93924872Y-53399233D02*
X93924872Y-53132566D01*
X93924872Y-53132566D02*
X93891539Y-53065900D01*
X93891539Y-53065900D02*
X93824872Y-53032566D01*
X93824872Y-53032566D02*
X93691539Y-53032566D01*
X93691539Y-53032566D02*
X93624872Y-53065900D01*
X93624872Y-53065900D02*
X93591539Y-53132566D01*
X93591539Y-53132566D02*
X93591539Y-53199233D01*
X93591539Y-53199233D02*
X93924872Y-53265900D01*
X93291539Y-53499233D02*
X93291539Y-52799233D01*
X93224872Y-53232566D02*
X93024872Y-53499233D01*
X93024872Y-53032566D02*
X93291539Y-53299233D01*
X92824872Y-53032566D02*
X92558205Y-53032566D01*
X92724872Y-52799233D02*
X92724872Y-53399233D01*
X92724872Y-53399233D02*
X92691539Y-53465900D01*
X92691539Y-53465900D02*
X92624872Y-53499233D01*
X92624872Y-53499233D02*
X92558205Y-53499233D01*
X91658206Y-52799233D02*
X91591539Y-52799233D01*
X91591539Y-52799233D02*
X91524872Y-52832566D01*
X91524872Y-52832566D02*
X91491539Y-52865900D01*
X91491539Y-52865900D02*
X91458206Y-52932566D01*
X91458206Y-52932566D02*
X91424872Y-53065900D01*
X91424872Y-53065900D02*
X91424872Y-53232566D01*
X91424872Y-53232566D02*
X91458206Y-53365900D01*
X91458206Y-53365900D02*
X91491539Y-53432566D01*
X91491539Y-53432566D02*
X91524872Y-53465900D01*
X91524872Y-53465900D02*
X91591539Y-53499233D01*
X91591539Y-53499233D02*
X91658206Y-53499233D01*
X91658206Y-53499233D02*
X91724872Y-53465900D01*
X91724872Y-53465900D02*
X91758206Y-53432566D01*
X91758206Y-53432566D02*
X91791539Y-53365900D01*
X91791539Y-53365900D02*
X91824872Y-53232566D01*
X91824872Y-53232566D02*
X91824872Y-53065900D01*
X91824872Y-53065900D02*
X91791539Y-52932566D01*
X91791539Y-52932566D02*
X91758206Y-52865900D01*
X91758206Y-52865900D02*
X91724872Y-52832566D01*
X91724872Y-52832566D02*
X91658206Y-52799233D01*
X91158205Y-52865900D02*
X91124872Y-52832566D01*
X91124872Y-52832566D02*
X91058205Y-52799233D01*
X91058205Y-52799233D02*
X90891539Y-52799233D01*
X90891539Y-52799233D02*
X90824872Y-52832566D01*
X90824872Y-52832566D02*
X90791539Y-52865900D01*
X90791539Y-52865900D02*
X90758205Y-52932566D01*
X90758205Y-52932566D02*
X90758205Y-52999233D01*
X90758205Y-52999233D02*
X90791539Y-53099233D01*
X90791539Y-53099233D02*
X91191539Y-53499233D01*
X91191539Y-53499233D02*
X90758205Y-53499233D01*
D11*
X102493068Y-63907847D02*
X102397830Y-64307847D01*
X102397830Y-64307847D02*
X102321639Y-64022133D01*
X102321639Y-64022133D02*
X102245449Y-64307847D01*
X102245449Y-64307847D02*
X102150211Y-63907847D01*
X101826401Y-64307847D02*
X101826401Y-64098323D01*
X101826401Y-64098323D02*
X101845448Y-64060228D01*
X101845448Y-64060228D02*
X101883544Y-64041180D01*
X101883544Y-64041180D02*
X101959734Y-64041180D01*
X101959734Y-64041180D02*
X101997829Y-64060228D01*
X101826401Y-64288800D02*
X101864496Y-64307847D01*
X101864496Y-64307847D02*
X101959734Y-64307847D01*
X101959734Y-64307847D02*
X101997829Y-64288800D01*
X101997829Y-64288800D02*
X102016877Y-64250704D01*
X102016877Y-64250704D02*
X102016877Y-64212609D01*
X102016877Y-64212609D02*
X101997829Y-64174514D01*
X101997829Y-64174514D02*
X101959734Y-64155466D01*
X101959734Y-64155466D02*
X101864496Y-64155466D01*
X101864496Y-64155466D02*
X101826401Y-64136419D01*
X101635924Y-64307847D02*
X101635924Y-64041180D01*
X101635924Y-64117371D02*
X101616877Y-64079276D01*
X101616877Y-64079276D02*
X101597829Y-64060228D01*
X101597829Y-64060228D02*
X101559734Y-64041180D01*
X101559734Y-64041180D02*
X101521639Y-64041180D01*
X101445448Y-64041180D02*
X101293067Y-64041180D01*
X101388305Y-63907847D02*
X101388305Y-64250704D01*
X101388305Y-64250704D02*
X101369258Y-64288800D01*
X101369258Y-64288800D02*
X101331163Y-64307847D01*
X101331163Y-64307847D02*
X101293067Y-64307847D01*
X101102592Y-64307847D02*
X101140687Y-64288800D01*
X101140687Y-64288800D02*
X101159734Y-64269752D01*
X101159734Y-64269752D02*
X101178782Y-64231657D01*
X101178782Y-64231657D02*
X101178782Y-64117371D01*
X101178782Y-64117371D02*
X101159734Y-64079276D01*
X101159734Y-64079276D02*
X101140687Y-64060228D01*
X101140687Y-64060228D02*
X101102592Y-64041180D01*
X101102592Y-64041180D02*
X101045449Y-64041180D01*
X101045449Y-64041180D02*
X101007353Y-64060228D01*
X101007353Y-64060228D02*
X100988306Y-64079276D01*
X100988306Y-64079276D02*
X100969258Y-64117371D01*
X100969258Y-64117371D02*
X100969258Y-64231657D01*
X100969258Y-64231657D02*
X100988306Y-64269752D01*
X100988306Y-64269752D02*
X101007353Y-64288800D01*
X101007353Y-64288800D02*
X101045449Y-64307847D01*
X101045449Y-64307847D02*
X101102592Y-64307847D01*
X100816877Y-64288800D02*
X100778782Y-64307847D01*
X100778782Y-64307847D02*
X100702591Y-64307847D01*
X100702591Y-64307847D02*
X100664496Y-64288800D01*
X100664496Y-64288800D02*
X100645448Y-64250704D01*
X100645448Y-64250704D02*
X100645448Y-64231657D01*
X100645448Y-64231657D02*
X100664496Y-64193561D01*
X100664496Y-64193561D02*
X100702591Y-64174514D01*
X100702591Y-64174514D02*
X100759734Y-64174514D01*
X100759734Y-64174514D02*
X100797829Y-64155466D01*
X100797829Y-64155466D02*
X100816877Y-64117371D01*
X100816877Y-64117371D02*
X100816877Y-64098323D01*
X100816877Y-64098323D02*
X100797829Y-64060228D01*
X100797829Y-64060228D02*
X100759734Y-64041180D01*
X100759734Y-64041180D02*
X100702591Y-64041180D01*
X100702591Y-64041180D02*
X100664496Y-64060228D01*
X100702591Y-63888800D02*
X100759734Y-63945942D01*
X100302591Y-64288800D02*
X100340686Y-64307847D01*
X100340686Y-64307847D02*
X100416877Y-64307847D01*
X100416877Y-64307847D02*
X100454972Y-64288800D01*
X100454972Y-64288800D02*
X100474019Y-64269752D01*
X100474019Y-64269752D02*
X100493067Y-64231657D01*
X100493067Y-64231657D02*
X100493067Y-64117371D01*
X100493067Y-64117371D02*
X100474019Y-64079276D01*
X100474019Y-64079276D02*
X100454972Y-64060228D01*
X100454972Y-64060228D02*
X100416877Y-64041180D01*
X100416877Y-64041180D02*
X100340686Y-64041180D01*
X100340686Y-64041180D02*
X100302591Y-64060228D01*
X100131162Y-64307847D02*
X100131162Y-64041180D01*
X100131162Y-63907847D02*
X100150210Y-63926895D01*
X100150210Y-63926895D02*
X100131162Y-63945942D01*
X100131162Y-63945942D02*
X100112115Y-63926895D01*
X100112115Y-63926895D02*
X100131162Y-63907847D01*
X100131162Y-63907847D02*
X100131162Y-63945942D01*
X99407353Y-64269752D02*
X99426401Y-64288800D01*
X99426401Y-64288800D02*
X99483543Y-64307847D01*
X99483543Y-64307847D02*
X99521639Y-64307847D01*
X99521639Y-64307847D02*
X99578782Y-64288800D01*
X99578782Y-64288800D02*
X99616877Y-64250704D01*
X99616877Y-64250704D02*
X99635924Y-64212609D01*
X99635924Y-64212609D02*
X99654972Y-64136419D01*
X99654972Y-64136419D02*
X99654972Y-64079276D01*
X99654972Y-64079276D02*
X99635924Y-64003085D01*
X99635924Y-64003085D02*
X99616877Y-63964990D01*
X99616877Y-63964990D02*
X99578782Y-63926895D01*
X99578782Y-63926895D02*
X99521639Y-63907847D01*
X99521639Y-63907847D02*
X99483543Y-63907847D01*
X99483543Y-63907847D02*
X99426401Y-63926895D01*
X99426401Y-63926895D02*
X99407353Y-63945942D01*
X99159734Y-63907847D02*
X99121639Y-63907847D01*
X99121639Y-63907847D02*
X99083543Y-63926895D01*
X99083543Y-63926895D02*
X99064496Y-63945942D01*
X99064496Y-63945942D02*
X99045448Y-63984038D01*
X99045448Y-63984038D02*
X99026401Y-64060228D01*
X99026401Y-64060228D02*
X99026401Y-64155466D01*
X99026401Y-64155466D02*
X99045448Y-64231657D01*
X99045448Y-64231657D02*
X99064496Y-64269752D01*
X99064496Y-64269752D02*
X99083543Y-64288800D01*
X99083543Y-64288800D02*
X99121639Y-64307847D01*
X99121639Y-64307847D02*
X99159734Y-64307847D01*
X99159734Y-64307847D02*
X99197829Y-64288800D01*
X99197829Y-64288800D02*
X99216877Y-64269752D01*
X99216877Y-64269752D02*
X99235924Y-64231657D01*
X99235924Y-64231657D02*
X99254972Y-64155466D01*
X99254972Y-64155466D02*
X99254972Y-64060228D01*
X99254972Y-64060228D02*
X99235924Y-63984038D01*
X99235924Y-63984038D02*
X99216877Y-63945942D01*
X99216877Y-63945942D02*
X99197829Y-63926895D01*
X99197829Y-63926895D02*
X99159734Y-63907847D01*
X98683544Y-63907847D02*
X98759734Y-63907847D01*
X98759734Y-63907847D02*
X98797830Y-63926895D01*
X98797830Y-63926895D02*
X98816877Y-63945942D01*
X98816877Y-63945942D02*
X98854972Y-64003085D01*
X98854972Y-64003085D02*
X98874020Y-64079276D01*
X98874020Y-64079276D02*
X98874020Y-64231657D01*
X98874020Y-64231657D02*
X98854972Y-64269752D01*
X98854972Y-64269752D02*
X98835925Y-64288800D01*
X98835925Y-64288800D02*
X98797830Y-64307847D01*
X98797830Y-64307847D02*
X98721639Y-64307847D01*
X98721639Y-64307847D02*
X98683544Y-64288800D01*
X98683544Y-64288800D02*
X98664496Y-64269752D01*
X98664496Y-64269752D02*
X98645449Y-64231657D01*
X98645449Y-64231657D02*
X98645449Y-64136419D01*
X98645449Y-64136419D02*
X98664496Y-64098323D01*
X98664496Y-64098323D02*
X98683544Y-64079276D01*
X98683544Y-64079276D02*
X98721639Y-64060228D01*
X98721639Y-64060228D02*
X98797830Y-64060228D01*
X98797830Y-64060228D02*
X98835925Y-64079276D01*
X98835925Y-64079276D02*
X98854972Y-64098323D01*
X98854972Y-64098323D02*
X98874020Y-64136419D01*
X98397830Y-63907847D02*
X98359735Y-63907847D01*
X98359735Y-63907847D02*
X98321639Y-63926895D01*
X98321639Y-63926895D02*
X98302592Y-63945942D01*
X98302592Y-63945942D02*
X98283544Y-63984038D01*
X98283544Y-63984038D02*
X98264497Y-64060228D01*
X98264497Y-64060228D02*
X98264497Y-64155466D01*
X98264497Y-64155466D02*
X98283544Y-64231657D01*
X98283544Y-64231657D02*
X98302592Y-64269752D01*
X98302592Y-64269752D02*
X98321639Y-64288800D01*
X98321639Y-64288800D02*
X98359735Y-64307847D01*
X98359735Y-64307847D02*
X98397830Y-64307847D01*
X98397830Y-64307847D02*
X98435925Y-64288800D01*
X98435925Y-64288800D02*
X98454973Y-64269752D01*
X98454973Y-64269752D02*
X98474020Y-64231657D01*
X98474020Y-64231657D02*
X98493068Y-64155466D01*
X98493068Y-64155466D02*
X98493068Y-64060228D01*
X98493068Y-64060228D02*
X98474020Y-63984038D01*
X98474020Y-63984038D02*
X98454973Y-63945942D01*
X98454973Y-63945942D02*
X98435925Y-63926895D01*
X98435925Y-63926895D02*
X98397830Y-63907847D01*
X98131164Y-63907847D02*
X97883545Y-63907847D01*
X97883545Y-63907847D02*
X98016878Y-64060228D01*
X98016878Y-64060228D02*
X97959735Y-64060228D01*
X97959735Y-64060228D02*
X97921640Y-64079276D01*
X97921640Y-64079276D02*
X97902592Y-64098323D01*
X97902592Y-64098323D02*
X97883545Y-64136419D01*
X97883545Y-64136419D02*
X97883545Y-64231657D01*
X97883545Y-64231657D02*
X97902592Y-64269752D01*
X97902592Y-64269752D02*
X97921640Y-64288800D01*
X97921640Y-64288800D02*
X97959735Y-64307847D01*
X97959735Y-64307847D02*
X98074021Y-64307847D01*
X98074021Y-64307847D02*
X98112116Y-64288800D01*
X98112116Y-64288800D02*
X98131164Y-64269752D01*
X97712116Y-64269752D02*
X97693069Y-64288800D01*
X97693069Y-64288800D02*
X97712116Y-64307847D01*
X97712116Y-64307847D02*
X97731164Y-64288800D01*
X97731164Y-64288800D02*
X97712116Y-64269752D01*
X97712116Y-64269752D02*
X97712116Y-64307847D01*
X97712116Y-64060228D02*
X97693069Y-64079276D01*
X97693069Y-64079276D02*
X97712116Y-64098323D01*
X97712116Y-64098323D02*
X97731164Y-64079276D01*
X97731164Y-64079276D02*
X97712116Y-64060228D01*
X97712116Y-64060228D02*
X97712116Y-64098323D01*
X102493068Y-64551847D02*
X102245449Y-64551847D01*
X102245449Y-64551847D02*
X102378782Y-64704228D01*
X102378782Y-64704228D02*
X102321639Y-64704228D01*
X102321639Y-64704228D02*
X102283544Y-64723276D01*
X102283544Y-64723276D02*
X102264496Y-64742323D01*
X102264496Y-64742323D02*
X102245449Y-64780419D01*
X102245449Y-64780419D02*
X102245449Y-64875657D01*
X102245449Y-64875657D02*
X102264496Y-64913752D01*
X102264496Y-64913752D02*
X102283544Y-64932800D01*
X102283544Y-64932800D02*
X102321639Y-64951847D01*
X102321639Y-64951847D02*
X102435925Y-64951847D01*
X102435925Y-64951847D02*
X102474020Y-64932800D01*
X102474020Y-64932800D02*
X102493068Y-64913752D01*
X102112116Y-64551847D02*
X101864497Y-64551847D01*
X101864497Y-64551847D02*
X101997830Y-64704228D01*
X101997830Y-64704228D02*
X101940687Y-64704228D01*
X101940687Y-64704228D02*
X101902592Y-64723276D01*
X101902592Y-64723276D02*
X101883544Y-64742323D01*
X101883544Y-64742323D02*
X101864497Y-64780419D01*
X101864497Y-64780419D02*
X101864497Y-64875657D01*
X101864497Y-64875657D02*
X101883544Y-64913752D01*
X101883544Y-64913752D02*
X101902592Y-64932800D01*
X101902592Y-64932800D02*
X101940687Y-64951847D01*
X101940687Y-64951847D02*
X102054973Y-64951847D01*
X102054973Y-64951847D02*
X102093068Y-64932800D01*
X102093068Y-64932800D02*
X102112116Y-64913752D01*
X101693068Y-64685180D02*
X101693068Y-65085180D01*
X101693068Y-64704228D02*
X101654973Y-64685180D01*
X101654973Y-64685180D02*
X101578783Y-64685180D01*
X101578783Y-64685180D02*
X101540687Y-64704228D01*
X101540687Y-64704228D02*
X101521640Y-64723276D01*
X101521640Y-64723276D02*
X101502592Y-64761371D01*
X101502592Y-64761371D02*
X101502592Y-64875657D01*
X101502592Y-64875657D02*
X101521640Y-64913752D01*
X101521640Y-64913752D02*
X101540687Y-64932800D01*
X101540687Y-64932800D02*
X101578783Y-64951847D01*
X101578783Y-64951847D02*
X101654973Y-64951847D01*
X101654973Y-64951847D02*
X101693068Y-64932800D01*
X101197830Y-64742323D02*
X101331163Y-64742323D01*
X101331163Y-64951847D02*
X101331163Y-64551847D01*
X101331163Y-64551847D02*
X101140687Y-64551847D01*
X100683544Y-64799466D02*
X100378783Y-64799466D01*
X99883544Y-64685180D02*
X99883544Y-65085180D01*
X99883544Y-64704228D02*
X99845449Y-64685180D01*
X99845449Y-64685180D02*
X99769259Y-64685180D01*
X99769259Y-64685180D02*
X99731163Y-64704228D01*
X99731163Y-64704228D02*
X99712116Y-64723276D01*
X99712116Y-64723276D02*
X99693068Y-64761371D01*
X99693068Y-64761371D02*
X99693068Y-64875657D01*
X99693068Y-64875657D02*
X99712116Y-64913752D01*
X99712116Y-64913752D02*
X99731163Y-64932800D01*
X99731163Y-64932800D02*
X99769259Y-64951847D01*
X99769259Y-64951847D02*
X99845449Y-64951847D01*
X99845449Y-64951847D02*
X99883544Y-64932800D01*
X99521639Y-64951847D02*
X99521639Y-64685180D01*
X99521639Y-64761371D02*
X99502592Y-64723276D01*
X99502592Y-64723276D02*
X99483544Y-64704228D01*
X99483544Y-64704228D02*
X99445449Y-64685180D01*
X99445449Y-64685180D02*
X99407354Y-64685180D01*
X99312116Y-64685180D02*
X99102592Y-64685180D01*
X99102592Y-64685180D02*
X99312116Y-64951847D01*
X99312116Y-64951847D02*
X99102592Y-64951847D01*
X98988306Y-64685180D02*
X98893068Y-64951847D01*
X98797829Y-64685180D02*
X98893068Y-64951847D01*
X98893068Y-64951847D02*
X98931163Y-65047085D01*
X98931163Y-65047085D02*
X98950210Y-65066133D01*
X98950210Y-65066133D02*
X98988306Y-65085180D01*
X98340686Y-64951847D02*
X98340686Y-64551847D01*
X98302591Y-64799466D02*
X98188305Y-64951847D01*
X98188305Y-64685180D02*
X98340686Y-64837561D01*
X98016876Y-64951847D02*
X98016876Y-64685180D01*
X98016876Y-64761371D02*
X97997829Y-64723276D01*
X97997829Y-64723276D02*
X97978781Y-64704228D01*
X97978781Y-64704228D02*
X97940686Y-64685180D01*
X97940686Y-64685180D02*
X97902591Y-64685180D01*
X97807353Y-64685180D02*
X97712115Y-64951847D01*
X97616876Y-64685180D02*
X97712115Y-64951847D01*
X97712115Y-64951847D02*
X97750210Y-65047085D01*
X97750210Y-65047085D02*
X97769257Y-65066133D01*
X97769257Y-65066133D02*
X97807353Y-65085180D01*
X97483543Y-64932800D02*
X97445448Y-64951847D01*
X97445448Y-64951847D02*
X97369257Y-64951847D01*
X97369257Y-64951847D02*
X97331162Y-64932800D01*
X97331162Y-64932800D02*
X97312114Y-64894704D01*
X97312114Y-64894704D02*
X97312114Y-64875657D01*
X97312114Y-64875657D02*
X97331162Y-64837561D01*
X97331162Y-64837561D02*
X97369257Y-64818514D01*
X97369257Y-64818514D02*
X97426400Y-64818514D01*
X97426400Y-64818514D02*
X97464495Y-64799466D01*
X97464495Y-64799466D02*
X97483543Y-64761371D01*
X97483543Y-64761371D02*
X97483543Y-64742323D01*
X97483543Y-64742323D02*
X97464495Y-64704228D01*
X97464495Y-64704228D02*
X97426400Y-64685180D01*
X97426400Y-64685180D02*
X97369257Y-64685180D01*
X97369257Y-64685180D02*
X97331162Y-64704228D01*
X97178781Y-64685180D02*
X96969257Y-64685180D01*
X96969257Y-64685180D02*
X97178781Y-64951847D01*
X97178781Y-64951847D02*
X96969257Y-64951847D01*
X96874018Y-64685180D02*
X96721637Y-64685180D01*
X96816875Y-64551847D02*
X96816875Y-64894704D01*
X96816875Y-64894704D02*
X96797828Y-64932800D01*
X96797828Y-64932800D02*
X96759733Y-64951847D01*
X96759733Y-64951847D02*
X96721637Y-64951847D01*
X96416876Y-64951847D02*
X96416876Y-64742323D01*
X96416876Y-64742323D02*
X96435923Y-64704228D01*
X96435923Y-64704228D02*
X96474019Y-64685180D01*
X96474019Y-64685180D02*
X96550209Y-64685180D01*
X96550209Y-64685180D02*
X96588304Y-64704228D01*
X96416876Y-64932800D02*
X96454971Y-64951847D01*
X96454971Y-64951847D02*
X96550209Y-64951847D01*
X96550209Y-64951847D02*
X96588304Y-64932800D01*
X96588304Y-64932800D02*
X96607352Y-64894704D01*
X96607352Y-64894704D02*
X96607352Y-64856609D01*
X96607352Y-64856609D02*
X96588304Y-64818514D01*
X96588304Y-64818514D02*
X96550209Y-64799466D01*
X96550209Y-64799466D02*
X96454971Y-64799466D01*
X96454971Y-64799466D02*
X96416876Y-64780419D01*
X96169257Y-64951847D02*
X96207352Y-64932800D01*
X96207352Y-64932800D02*
X96226399Y-64894704D01*
X96226399Y-64894704D02*
X96226399Y-64551847D01*
X95864494Y-64932800D02*
X95902590Y-64951847D01*
X95902590Y-64951847D02*
X95978780Y-64951847D01*
X95978780Y-64951847D02*
X96016875Y-64932800D01*
X96016875Y-64932800D02*
X96035923Y-64894704D01*
X96035923Y-64894704D02*
X96035923Y-64742323D01*
X96035923Y-64742323D02*
X96016875Y-64704228D01*
X96016875Y-64704228D02*
X95978780Y-64685180D01*
X95978780Y-64685180D02*
X95902590Y-64685180D01*
X95902590Y-64685180D02*
X95864494Y-64704228D01*
X95864494Y-64704228D02*
X95845447Y-64742323D01*
X95845447Y-64742323D02*
X95845447Y-64780419D01*
X95845447Y-64780419D02*
X96035923Y-64818514D01*
X102245449Y-65595847D02*
X102474020Y-65595847D01*
X102359734Y-65595847D02*
X102359734Y-65195847D01*
X102359734Y-65195847D02*
X102397830Y-65252990D01*
X102397830Y-65252990D02*
X102435925Y-65291085D01*
X102435925Y-65291085D02*
X102474020Y-65310133D01*
X101997830Y-65195847D02*
X101959735Y-65195847D01*
X101959735Y-65195847D02*
X101921639Y-65214895D01*
X101921639Y-65214895D02*
X101902592Y-65233942D01*
X101902592Y-65233942D02*
X101883544Y-65272038D01*
X101883544Y-65272038D02*
X101864497Y-65348228D01*
X101864497Y-65348228D02*
X101864497Y-65443466D01*
X101864497Y-65443466D02*
X101883544Y-65519657D01*
X101883544Y-65519657D02*
X101902592Y-65557752D01*
X101902592Y-65557752D02*
X101921639Y-65576800D01*
X101921639Y-65576800D02*
X101959735Y-65595847D01*
X101959735Y-65595847D02*
X101997830Y-65595847D01*
X101997830Y-65595847D02*
X102035925Y-65576800D01*
X102035925Y-65576800D02*
X102054973Y-65557752D01*
X102054973Y-65557752D02*
X102074020Y-65519657D01*
X102074020Y-65519657D02*
X102093068Y-65443466D01*
X102093068Y-65443466D02*
X102093068Y-65348228D01*
X102093068Y-65348228D02*
X102074020Y-65272038D01*
X102074020Y-65272038D02*
X102054973Y-65233942D01*
X102054973Y-65233942D02*
X102035925Y-65214895D01*
X102035925Y-65214895D02*
X101997830Y-65195847D01*
X101616878Y-65195847D02*
X101578783Y-65195847D01*
X101578783Y-65195847D02*
X101540687Y-65214895D01*
X101540687Y-65214895D02*
X101521640Y-65233942D01*
X101521640Y-65233942D02*
X101502592Y-65272038D01*
X101502592Y-65272038D02*
X101483545Y-65348228D01*
X101483545Y-65348228D02*
X101483545Y-65443466D01*
X101483545Y-65443466D02*
X101502592Y-65519657D01*
X101502592Y-65519657D02*
X101521640Y-65557752D01*
X101521640Y-65557752D02*
X101540687Y-65576800D01*
X101540687Y-65576800D02*
X101578783Y-65595847D01*
X101578783Y-65595847D02*
X101616878Y-65595847D01*
X101616878Y-65595847D02*
X101654973Y-65576800D01*
X101654973Y-65576800D02*
X101674021Y-65557752D01*
X101674021Y-65557752D02*
X101693068Y-65519657D01*
X101693068Y-65519657D02*
X101712116Y-65443466D01*
X101712116Y-65443466D02*
X101712116Y-65348228D01*
X101712116Y-65348228D02*
X101693068Y-65272038D01*
X101693068Y-65272038D02*
X101674021Y-65233942D01*
X101674021Y-65233942D02*
X101654973Y-65214895D01*
X101654973Y-65214895D02*
X101616878Y-65195847D01*
X101312116Y-65329180D02*
X101312116Y-65595847D01*
X101312116Y-65367276D02*
X101293069Y-65348228D01*
X101293069Y-65348228D02*
X101254974Y-65329180D01*
X101254974Y-65329180D02*
X101197831Y-65329180D01*
X101197831Y-65329180D02*
X101159735Y-65348228D01*
X101159735Y-65348228D02*
X101140688Y-65386323D01*
X101140688Y-65386323D02*
X101140688Y-65595847D01*
X100816878Y-65386323D02*
X100950211Y-65386323D01*
X100950211Y-65595847D02*
X100950211Y-65195847D01*
X100950211Y-65195847D02*
X100759735Y-65195847D01*
X100302592Y-65443466D02*
X99997831Y-65443466D01*
X99502592Y-65329180D02*
X99502592Y-65729180D01*
X99502592Y-65348228D02*
X99464497Y-65329180D01*
X99464497Y-65329180D02*
X99388307Y-65329180D01*
X99388307Y-65329180D02*
X99350211Y-65348228D01*
X99350211Y-65348228D02*
X99331164Y-65367276D01*
X99331164Y-65367276D02*
X99312116Y-65405371D01*
X99312116Y-65405371D02*
X99312116Y-65519657D01*
X99312116Y-65519657D02*
X99331164Y-65557752D01*
X99331164Y-65557752D02*
X99350211Y-65576800D01*
X99350211Y-65576800D02*
X99388307Y-65595847D01*
X99388307Y-65595847D02*
X99464497Y-65595847D01*
X99464497Y-65595847D02*
X99502592Y-65576800D01*
X99083545Y-65595847D02*
X99121640Y-65576800D01*
X99121640Y-65576800D02*
X99140687Y-65557752D01*
X99140687Y-65557752D02*
X99159735Y-65519657D01*
X99159735Y-65519657D02*
X99159735Y-65405371D01*
X99159735Y-65405371D02*
X99140687Y-65367276D01*
X99140687Y-65367276D02*
X99121640Y-65348228D01*
X99121640Y-65348228D02*
X99083545Y-65329180D01*
X99083545Y-65329180D02*
X99026402Y-65329180D01*
X99026402Y-65329180D02*
X98988306Y-65348228D01*
X98988306Y-65348228D02*
X98969259Y-65367276D01*
X98969259Y-65367276D02*
X98950211Y-65405371D01*
X98950211Y-65405371D02*
X98950211Y-65519657D01*
X98950211Y-65519657D02*
X98969259Y-65557752D01*
X98969259Y-65557752D02*
X98988306Y-65576800D01*
X98988306Y-65576800D02*
X99026402Y-65595847D01*
X99026402Y-65595847D02*
X99083545Y-65595847D01*
X98816878Y-65329180D02*
X98607354Y-65329180D01*
X98607354Y-65329180D02*
X98816878Y-65595847D01*
X98816878Y-65595847D02*
X98607354Y-65595847D01*
X98397830Y-65595847D02*
X98435925Y-65576800D01*
X98435925Y-65576800D02*
X98454972Y-65557752D01*
X98454972Y-65557752D02*
X98474020Y-65519657D01*
X98474020Y-65519657D02*
X98474020Y-65405371D01*
X98474020Y-65405371D02*
X98454972Y-65367276D01*
X98454972Y-65367276D02*
X98435925Y-65348228D01*
X98435925Y-65348228D02*
X98397830Y-65329180D01*
X98397830Y-65329180D02*
X98340687Y-65329180D01*
X98340687Y-65329180D02*
X98302591Y-65348228D01*
X98302591Y-65348228D02*
X98283544Y-65367276D01*
X98283544Y-65367276D02*
X98264496Y-65405371D01*
X98264496Y-65405371D02*
X98264496Y-65519657D01*
X98264496Y-65519657D02*
X98283544Y-65557752D01*
X98283544Y-65557752D02*
X98302591Y-65576800D01*
X98302591Y-65576800D02*
X98340687Y-65595847D01*
X98340687Y-65595847D02*
X98397830Y-65595847D01*
X98112115Y-65576800D02*
X98074020Y-65595847D01*
X98074020Y-65595847D02*
X97997829Y-65595847D01*
X97997829Y-65595847D02*
X97959734Y-65576800D01*
X97959734Y-65576800D02*
X97940686Y-65538704D01*
X97940686Y-65538704D02*
X97940686Y-65519657D01*
X97940686Y-65519657D02*
X97959734Y-65481561D01*
X97959734Y-65481561D02*
X97997829Y-65462514D01*
X97997829Y-65462514D02*
X98054972Y-65462514D01*
X98054972Y-65462514D02*
X98093067Y-65443466D01*
X98093067Y-65443466D02*
X98112115Y-65405371D01*
X98112115Y-65405371D02*
X98112115Y-65386323D01*
X98112115Y-65386323D02*
X98093067Y-65348228D01*
X98093067Y-65348228D02*
X98054972Y-65329180D01*
X98054972Y-65329180D02*
X97997829Y-65329180D01*
X97997829Y-65329180D02*
X97959734Y-65348228D01*
X97826400Y-65329180D02*
X97674019Y-65329180D01*
X97769257Y-65195847D02*
X97769257Y-65538704D01*
X97769257Y-65538704D02*
X97750210Y-65576800D01*
X97750210Y-65576800D02*
X97712115Y-65595847D01*
X97712115Y-65595847D02*
X97674019Y-65595847D01*
X97369258Y-65595847D02*
X97369258Y-65386323D01*
X97369258Y-65386323D02*
X97388305Y-65348228D01*
X97388305Y-65348228D02*
X97426401Y-65329180D01*
X97426401Y-65329180D02*
X97502591Y-65329180D01*
X97502591Y-65329180D02*
X97540686Y-65348228D01*
X97369258Y-65576800D02*
X97407353Y-65595847D01*
X97407353Y-65595847D02*
X97502591Y-65595847D01*
X97502591Y-65595847D02*
X97540686Y-65576800D01*
X97540686Y-65576800D02*
X97559734Y-65538704D01*
X97559734Y-65538704D02*
X97559734Y-65500609D01*
X97559734Y-65500609D02*
X97540686Y-65462514D01*
X97540686Y-65462514D02*
X97502591Y-65443466D01*
X97502591Y-65443466D02*
X97407353Y-65443466D01*
X97407353Y-65443466D02*
X97369258Y-65424419D01*
X97121639Y-65595847D02*
X97159734Y-65576800D01*
X97159734Y-65576800D02*
X97178781Y-65538704D01*
X97178781Y-65538704D02*
X97178781Y-65195847D01*
X97235924Y-65405371D02*
X97121639Y-65329180D01*
X96816876Y-65576800D02*
X96854972Y-65595847D01*
X96854972Y-65595847D02*
X96931162Y-65595847D01*
X96931162Y-65595847D02*
X96969257Y-65576800D01*
X96969257Y-65576800D02*
X96988305Y-65538704D01*
X96988305Y-65538704D02*
X96988305Y-65386323D01*
X96988305Y-65386323D02*
X96969257Y-65348228D01*
X96969257Y-65348228D02*
X96931162Y-65329180D01*
X96931162Y-65329180D02*
X96854972Y-65329180D01*
X96854972Y-65329180D02*
X96816876Y-65348228D01*
X96816876Y-65348228D02*
X96797829Y-65386323D01*
X96797829Y-65386323D02*
X96797829Y-65424419D01*
X96797829Y-65424419D02*
X96988305Y-65462514D01*
D12*
X108283333Y-66510819D02*
X108283333Y-67225104D01*
X108283333Y-67225104D02*
X108330952Y-67367961D01*
X108330952Y-67367961D02*
X108426190Y-67463200D01*
X108426190Y-67463200D02*
X108569047Y-67510819D01*
X108569047Y-67510819D02*
X108664285Y-67510819D01*
X107378571Y-66844152D02*
X107378571Y-67510819D01*
X107616666Y-66463200D02*
X107854761Y-67177485D01*
X107854761Y-67177485D02*
X107235714Y-67177485D01*
X105743333Y-46444819D02*
X105743333Y-47159104D01*
X105743333Y-47159104D02*
X105790952Y-47301961D01*
X105790952Y-47301961D02*
X105886190Y-47397200D01*
X105886190Y-47397200D02*
X106029047Y-47444819D01*
X106029047Y-47444819D02*
X106124285Y-47444819D01*
X105362380Y-46444819D02*
X104743333Y-46444819D01*
X104743333Y-46444819D02*
X105076666Y-46825771D01*
X105076666Y-46825771D02*
X104933809Y-46825771D01*
X104933809Y-46825771D02*
X104838571Y-46873390D01*
X104838571Y-46873390D02*
X104790952Y-46921009D01*
X104790952Y-46921009D02*
X104743333Y-47016247D01*
X104743333Y-47016247D02*
X104743333Y-47254342D01*
X104743333Y-47254342D02*
X104790952Y-47349580D01*
X104790952Y-47349580D02*
X104838571Y-47397200D01*
X104838571Y-47397200D02*
X104933809Y-47444819D01*
X104933809Y-47444819D02*
X105219523Y-47444819D01*
X105219523Y-47444819D02*
X105314761Y-47397200D01*
X105314761Y-47397200D02*
X105362380Y-47349580D01*
X87963333Y-69304819D02*
X87963333Y-70019104D01*
X87963333Y-70019104D02*
X88010952Y-70161961D01*
X88010952Y-70161961D02*
X88106190Y-70257200D01*
X88106190Y-70257200D02*
X88249047Y-70304819D01*
X88249047Y-70304819D02*
X88344285Y-70304819D01*
X87534761Y-69400057D02*
X87487142Y-69352438D01*
X87487142Y-69352438D02*
X87391904Y-69304819D01*
X87391904Y-69304819D02*
X87153809Y-69304819D01*
X87153809Y-69304819D02*
X87058571Y-69352438D01*
X87058571Y-69352438D02*
X87010952Y-69400057D01*
X87010952Y-69400057D02*
X86963333Y-69495295D01*
X86963333Y-69495295D02*
X86963333Y-69590533D01*
X86963333Y-69590533D02*
X87010952Y-69733390D01*
X87010952Y-69733390D02*
X87582380Y-70304819D01*
X87582380Y-70304819D02*
X86963333Y-70304819D01*
X85423333Y-49238819D02*
X85423333Y-49953104D01*
X85423333Y-49953104D02*
X85470952Y-50095961D01*
X85470952Y-50095961D02*
X85566190Y-50191200D01*
X85566190Y-50191200D02*
X85709047Y-50238819D01*
X85709047Y-50238819D02*
X85804285Y-50238819D01*
X84423333Y-50238819D02*
X84994761Y-50238819D01*
X84709047Y-50238819D02*
X84709047Y-49238819D01*
X84709047Y-49238819D02*
X84804285Y-49381676D01*
X84804285Y-49381676D02*
X84899523Y-49476914D01*
X84899523Y-49476914D02*
X84994761Y-49524533D01*
X102179237Y-58227190D02*
X102274475Y-58179571D01*
X102274475Y-58179571D02*
X102322094Y-58131952D01*
X102322094Y-58131952D02*
X102369713Y-58036714D01*
X102369713Y-58036714D02*
X102369713Y-57989095D01*
X102369713Y-57989095D02*
X102322094Y-57893857D01*
X102322094Y-57893857D02*
X102274475Y-57846238D01*
X102274475Y-57846238D02*
X102179237Y-57798619D01*
X102179237Y-57798619D02*
X101988761Y-57798619D01*
X101988761Y-57798619D02*
X101893523Y-57846238D01*
X101893523Y-57846238D02*
X101845904Y-57893857D01*
X101845904Y-57893857D02*
X101798285Y-57989095D01*
X101798285Y-57989095D02*
X101798285Y-58036714D01*
X101798285Y-58036714D02*
X101845904Y-58131952D01*
X101845904Y-58131952D02*
X101893523Y-58179571D01*
X101893523Y-58179571D02*
X101988761Y-58227190D01*
X101988761Y-58227190D02*
X102179237Y-58227190D01*
X102179237Y-58227190D02*
X102274475Y-58274809D01*
X102274475Y-58274809D02*
X102322094Y-58322428D01*
X102322094Y-58322428D02*
X102369713Y-58417666D01*
X102369713Y-58417666D02*
X102369713Y-58608142D01*
X102369713Y-58608142D02*
X102322094Y-58703380D01*
X102322094Y-58703380D02*
X102274475Y-58751000D01*
X102274475Y-58751000D02*
X102179237Y-58798619D01*
X102179237Y-58798619D02*
X101988761Y-58798619D01*
X101988761Y-58798619D02*
X101893523Y-58751000D01*
X101893523Y-58751000D02*
X101845904Y-58703380D01*
X101845904Y-58703380D02*
X101798285Y-58608142D01*
X101798285Y-58608142D02*
X101798285Y-58417666D01*
X101798285Y-58417666D02*
X101845904Y-58322428D01*
X101845904Y-58322428D02*
X101893523Y-58274809D01*
X101893523Y-58274809D02*
X101988761Y-58227190D01*
X101369713Y-58798619D02*
X101369713Y-57798619D01*
X101369713Y-57798619D02*
X101036380Y-58512904D01*
X101036380Y-58512904D02*
X100703047Y-57798619D01*
X100703047Y-57798619D02*
X100703047Y-58798619D01*
X100226856Y-58798619D02*
X100226856Y-57798619D01*
X100226856Y-58274809D02*
X99655428Y-58274809D01*
X99655428Y-58798619D02*
X99655428Y-57798619D01*
X99274475Y-58131952D02*
X98750666Y-58131952D01*
X98750666Y-58131952D02*
X99274475Y-58798619D01*
X99274475Y-58798619D02*
X98750666Y-58798619D01*
D13*
%TO.C,J4*%
X110550000Y-50740000D02*
X109220000Y-50740000D01*
X110550000Y-52070000D02*
X110550000Y-50740000D01*
X110550000Y-53340000D02*
X110550000Y-66100000D01*
X110550000Y-53340000D02*
X107950000Y-53340000D01*
X110550000Y-66100000D02*
X105350000Y-66100000D01*
X107950000Y-50740000D02*
X105350000Y-50740000D01*
X107950000Y-53340000D02*
X107950000Y-50740000D01*
X105350000Y-50740000D02*
X105350000Y-66100000D01*
%TO.C,J3*%
X88840000Y-44390000D02*
X88840000Y-45720000D01*
X90170000Y-44390000D02*
X88840000Y-44390000D01*
X91440000Y-44390000D02*
X104200000Y-44390000D01*
X91440000Y-44390000D02*
X91440000Y-46990000D01*
X104200000Y-44390000D02*
X104200000Y-49590000D01*
X88840000Y-46990000D02*
X88840000Y-49590000D01*
X91440000Y-46990000D02*
X88840000Y-46990000D01*
X88840000Y-49590000D02*
X104200000Y-49590000D01*
%TO.C,J2*%
X104200000Y-67250000D02*
X88840000Y-67250000D01*
X101600000Y-69850000D02*
X104200000Y-69850000D01*
X104200000Y-69850000D02*
X104200000Y-67250000D01*
X88840000Y-72450000D02*
X88840000Y-67250000D01*
X101600000Y-72450000D02*
X101600000Y-69850000D01*
X101600000Y-72450000D02*
X88840000Y-72450000D01*
X102870000Y-72450000D02*
X104200000Y-72450000D01*
X104200000Y-72450000D02*
X104200000Y-71120000D01*
%TO.C,J1*%
X82490000Y-66100000D02*
X83820000Y-66100000D01*
X82490000Y-64770000D02*
X82490000Y-66100000D01*
X82490000Y-63500000D02*
X82490000Y-50740000D01*
X82490000Y-63500000D02*
X85090000Y-63500000D01*
X82490000Y-50740000D02*
X87690000Y-50740000D01*
X85090000Y-66100000D02*
X87690000Y-66100000D01*
X85090000Y-63500000D02*
X85090000Y-66100000D01*
X87690000Y-66100000D02*
X87690000Y-50740000D01*
%TO.C,C14*%
X89914000Y-63907580D02*
X89914000Y-63626420D01*
X90934000Y-63907580D02*
X90934000Y-63626420D01*
%TO.C,C13*%
X91692000Y-63907580D02*
X91692000Y-63626420D01*
X92712000Y-63907580D02*
X92712000Y-63626420D01*
%TO.C,C3*%
X92712000Y-60578420D02*
X92712000Y-60859580D01*
X91692000Y-60578420D02*
X91692000Y-60859580D01*
%TO.C,C12*%
X89156000Y-60591420D02*
X89156000Y-60872580D01*
X88136000Y-60591420D02*
X88136000Y-60872580D01*
%TO.C,C7*%
X90934000Y-60591420D02*
X90934000Y-60872580D01*
X89914000Y-60591420D02*
X89914000Y-60872580D01*
%TO.C,C15*%
X88136000Y-63907580D02*
X88136000Y-63626420D01*
X89156000Y-63907580D02*
X89156000Y-63626420D01*
%TO.C,C16*%
X94615580Y-62740000D02*
X94334420Y-62740000D01*
X94615580Y-61720000D02*
X94334420Y-61720000D01*
%TO.C,C10*%
X100456420Y-55979600D02*
X100737580Y-55979600D01*
X100456420Y-56999600D02*
X100737580Y-56999600D01*
%TO.C,C1*%
X83310000Y-48908580D02*
X83310000Y-48627420D01*
X84330000Y-48908580D02*
X84330000Y-48627420D01*
%TO.C,C11*%
X100456420Y-59688000D02*
X100737580Y-59688000D01*
X100456420Y-60708000D02*
X100737580Y-60708000D01*
%TO.C,Y1*%
X98574000Y-55298000D02*
X98574000Y-61048000D01*
X94974000Y-55298000D02*
X98574000Y-55298000D01*
X94974000Y-61048000D02*
X94974000Y-55298000D01*
%TD*%
M02*
